<?xml version="1.0" encoding="UTF-8"?>
<svg id="Layer_1" data-name="Layer 1" xmlns="http://www.w3.org/2000/svg" viewBox="0 0 520 520">
  <defs>
    <style>
      .cls-1 {
        fill: #2c2729;
      }

      .cls-2 {
        fill: #fff;
      }

      .cls-3 {
        fill: #d82f87;
      }
    </style>
  </defs>
  <path d="M294.5,88c.05,1.37-1.2,3.43-2.18,4.33-1.78,1.63-4.96,1.22-3.88,3.85-.31,1.06-6.55,2.73-5.95.09.21-.92,2.41-.81,2.5-1.76-2.19-.25-4.28-1.42-5.75-3-3.1,5.25-9.01,6.63-14.24,3.49-.22,3.24-3.84,6.07-7.01,6,2.62,4.33,1.39,8.66-2.88,11.22l.88,2.27-5.67-1.01c-3.09,5.45,2.18,9.17,6.85,5.57l1.28,1.63c-1.93,3.06-5.41,2.62-8.46,1.82l.5,3.5,2.73-1.5c.9.66.87,1.03.55,2.03-.88,2.74-6.5,4.93-9.26,5,.97,7.52-.36,17.61-8.38,20.87s-9.63-2.12-15.63-3.66c-1.25-.32-5.02-.64-5.77.26-.55.67-2.24,5.84-1.7,6.46,3.2-.36,2.88,2.75,3.56,3.43.29.29,1.79.35,2.51.74,4.27,2.27,8.32,5.09,11.87,8.37,2.96-5.61,6.26-11.6,10.1-16.66,1.74-2.29,3.74-5.24,6.41-6.35-3.28-2.89-1.21-9.65,3.33-9.85,1.23-.05,2.34,1.09,3.64.84l2.04-10.48c3.58,2.61-.44,7.29,1.56,11.19.93,1.81,6.76,5.23,8.7,5.8.94.28.66-.16.73-.73.92-6.63-3.95-10.81-6.5-16.26l8.81,5.93c18.54,7.75,29.53-3.12,27.63-22.13-.45-4.49-2.77-8.56-3.4-12.99,1.15-2.04,2.45.73,3.05,1.85,1.4,2.63,2.4,6.7,2.85,9.65,2.91,19.35-7.89,32.61-27.95,27.39-.42.29-2.46,6.8-2.47,7.61-.01,1.5,1.56,2.55,1.87,4.05s.04,3.11.11,4.64c-1.72-.93-1.53-3.62-2.77-4.98-1.32-1.43-11.39-5.83-13.62-6.38-1.66-.4-4.32-.94-5.58.66l-.3,1.24,1.28,2.19c-.51,1-1.86.51-2.39.87-.19.13-1.71,3.34-2.21,4.05-13.45,19.32-22.84,38.2-30.41,60.59-1.51,4.46-8.05,23.99-4.87,27.14,3.03.86,6.32,1.14,9.47,1.78,2.22.45,4.56,1.54,6.71,1.79,4.43.52,8.68-.55,13.2.8,3.23.96,6.75,4.73,9.37,5.17,1.62.27,4.08-1.15,5.93-1.36,3.32-.38,8.69-.03,10.7,2.94-3.04.15-5.68-1.16-8.76-1.02-2.71.13-4.43,1.54-6.61,1.9-6.22,1.04-10.22-6.93-17.13-5.38l9.73,7.01c6.28,5.77,11.76,12.41,15.77,19.98,1.05.12.23-1.74.49-2,.95-.95,19.46,4.29,22.37,4.89,6.57,1.35,13.34,1.8,19.95,3.55,3.44.91,19.55,6.1,20.15,9.38.03.83-1.26,1.8-1.94,1.97-2.36.57-11.27-3.71-14.5-4.55-10.03-2.62-20.93-3.79-31.02-6.48-4.94-1.32-10.16-3.03-14.5-5.75l9.5,24.24c6.46,1.37,13.15,2.02,19.77,1.78,2.47-.09,13.3-1.92,14.48-.53,2.21,5.08-1.71,11.32-4.17,15.84-9.18,16.9-22.87,31.81-29.59,50.16-.98-.11-.49-2.53-.37-3.13,2.8-14.2,20.69-35.24,27.97-49.03.89-1.68,5.58-10.68,3.91-11.83-10.04,1.19-20.5,1.77-30.49,0,5.24,7.19,14.26,12.62,11.78,23.03-7.42,1.38-12.18-2.31-19.78,1.22-8.48,3.93-9.16,17.5-20.5,13.74,2.71-2.3,4.18-3.42,4.52-7.22.68-7.67-.87-16.09-3.53-23.27-.91.14-.54,2.57-.49,3.24.48,5.91,3.16,9.94,2.49,16.5-.3,2.9-2.32,9.47-5.95,9.22-2.72-7.3-10.68-15.97-19.16-14.83-1.6.21-9.27,3.62-10.36,4.64-.88.82-3.89,8.18-4.93,10.07-7.34,13.27-15.7,26.49-18.85,41.65-1,4.83-1.85,21.66-4.71,24.29-5.21,4.8-9.76-10.81-9.03-14.27-2.28,1.98-4.74,3.93-7.47,5.27s-10.61,5.06-10.78-.52c-.15-4.92,10.78-12.54,14.02-16.25,4.79-5.49,5.64-11.87,6.67-18.83,1.75-11.83,1.87-23.91,4.07-35.68-5.62-.31-12.77,3.16-17,6.74-3.85,3.26-5.46,8.61-11.24,9.26-4.64.52-9.4-.13-13.42-2.58-3.63-2.22-9.54-8.44-13.5-9.55-1.54-.43-3.23.37-5.06.1-5.04-.76-8.21-6.59-9.85-10.89-7.99.05-13.94,7.18-18.68,12.92-12.37,14.96-31.85,53.28-23.84,72.35,1.62,3.86,8.06,4.07,11.91,4.59,10.07,1.35,20.32,1.19,30.46,1.54,72.18,2.51,144.8-.42,216.96,1.04,2.56.05,8.02.38,10.13-.41,4.81-1.81,9.12-12.59,11.93-17.07,7.25-11.53,19.97-26.64,32.19-32.81,5.98-3.02,11.07-3.88,16.53-8.47,20.41-17.18,8.78-37.2-1.42-56.09-6.58-12.19-26.06-40.73-27.96-52.54-.09-.57-.62-2.62.36-2.62,6.01,10.49,11.49,21.29,17.42,31.83,8.54,15.17,27.57,42.69,26.58,59.91-.49,8.47-4.27,16.1-10.49,21.75,21.21-3.69,50.78,10.01,58.74,30.51,3.22,8.3,4.58,27.07-9.24,22.49,7.04,21.69-5.78,49.18-28.5,54.75-10.05,2.46-19.17,1.58-29.23,1.23-7.04-.25-15.75.15-22.52-1.49-.75-.18-.88.35-.75-.99,6.28-.84,12.92-1.77,19.27-1.53,1.18.05,2.28.49,3.47.54.55.03,1.4.27,1.26-.51-16.24-6.14-28.23-22.67-25-40.5-2.1.82-3.76,2.51-5.86,3.39-8.01,3.36-21.28,3.4-20.64-8.39h-168c5.96,20.96-5.72,43.43-26.74,49.51-10.5,3.04-19.39,1.83-29.99,1.47-8.28-.28-16.59-.18-24.77-1.48-.15-1.3.02-.79.73-1.01,5.22-1.6,12.77-1.24,18.27-1.49l-4.95-2.79c-12.16-8.32-19.27-22.89-15.17-37.59.89-3.2,2.73-5.54,3.63-8.62-6.78-.05-13.97-.48-20.66-1.59-6.48-1.07-9.41-.76-11.19-7.81s-.93-13.59-.2-20.79l-.43-.58c-2.23-.19-3.76-1.33-4.55-3.45-1.98-5.36,4.49-16.96,9.07-20,1.21-.8,3.82-1.32,4.21-1.79.47-.56,1.82-4.3,2.49-5.51,8.05-14.47,18.34-30.71,34.05-37.46-.65-4.91-.94-10.3-4.3-14.27-1.3-1.53-4.46-2.59-2.53-5.06.38-.48,7.38-3.29,8.88-4.12,19.81-10.86,27.04-31.93,49.83-42.67.85-.4,4.13-1.3,4.28-1.47.24-.28-.05-2.64.16-3.59.24-1.09,1.42-2.16,1.87-3.62,1.53-4.92,2.74-12.36,3.45-17.55.36-2.66,2.22-21.29,1.56-22.18-4.55,2.59-9.17,5.03-13.84,7.4-.86.44-1.43,1.28-2.3,1.7-6.62,3.17-9.76-1.9-11.36-7.6-7.87,4.07-21.29,9.28-29.46,3.72-5.1-3.48-14.63-19.3-17.79-25.21-1.75-3.28-4.1-10.15-5.96-12.54-3.67-4.72-18.82-6.24-20.04-8.99-.99-6.19,7.2-2.8,10.76-2.99-1.84-2.66-10.47-5.8-10.88-8.82-.07-.54.23-1.41.71-1.71,4.21-2.66,11.47,4.65,12.16,4.04-1.43-2.1-3.2-4.01-4.61-6.13-1.56-2.35-4.32-5.5-2.82-8.3,6.2-.4,8.45,7.44,12.43,10.93.11-2.95-3.76-11.49-1.29-13.55.64-.53,1.06-.49,1.81-.25,3.2,1.02,5.44,13.09,6.49,16.3,2.08-.73,3.59-2.95,5.86-3.4,1.86-.36,4.09-.06,4.11,2.19.03,4.85-7.32,7.51-5.64,14.62,1.33,5.63,9.89,17.85,13.55,22.95,1.65,2.31,5.42,8.29,7.9,9.14,4.55,1.57,15.04-4.9,19.73-6.25.92-.84-.11-2.59-.05-3.99.11-2.42,1.25-4.15,3.41-5.14,6.33-2.9,17.22-3.65,24.5-6,4.95-1.6,9.34-4.19,14.12-6.13-1.61,3.75-5.39,5.76-9.01,7.24-9.1,3.72-19.9,4.22-29.14,7.73-3.42,5.41,3.2,8.27,5.56,11.86,2.47,3.77,2.01,12.72,8.6,10.93,2.44-.66,8.69-4.29,11.32-5.68.99-.53,4.16-3.49,4.63-1.78-.75,8.13-.78,16.3-1.46,24.44-.26,3.07-2.76,14.26-.88,16.13,1.5,1.49,9.23-.31,11.61-.4,5.92-.23,15.08.93,20.43-.1,1.74-.34,2.34-2.54,2.93-4.04,1.49-3.77,2.49-8.19,3.9-12.1,2.36-6.53,8.09-18.25,9.29-24.21.58-2.9-.19-4.03-1.28-6.53l2.99,1.5c.49-3.72,6.75-12.87,5.8-16.01-.49-1.63-10.45-8.61-12.01-8.52-2.44,3.98-10.08,10.31-14.54,6.54-1.16-.98-3.42-5.42-4.2-5.76-.48-.21-2.96.55-4.03-.25,1.46,5.36-2.54,17.91-9.78,13.52-3.4-2.06,1.64-4.04,2.39-5.65.84-1.79.65-4.48,1.1-6.4.3-1.26,1.2-2.21,1.28-3.47-5.65.56-8.02-3.54-12.29-6l.25-1.69c5.09-1.8,11.7.13,15.29,4.18,1.22-2.2,3.36-2.95,5.75-1.99.89-4.56-1.43-4.72-4.75-6.51-3.16,2.62-5.94,4.21-10.27,3.28s-4.98-5.28-8.63-6.87c-5.51-2.39-11,1.11-16.36-4.14s-.89-12.91-2.1-18.9c-.74-3.66-7.27-5.81-9.08-9.92-2.59-5.87,1.86-11.73,7.42-13.48,4.18-1.32,7.85-.56,11.9-1.1,11.27-1.52,13.66-14.41,21.37-20.63,11.04-8.9,32.69-6.87,37.51,7.76,2.54-2.12,6.02-2.34,9.22-1.97,1.02.12,2.04,1.21,2.96.94.53-.15.7-1.09,1.2-1.47,1.89-1.43,4.75-3.59,7.11-2.5.32-11.83,11.27-16.82,21.64-12.39,1.63.7,2.69,2,4.35,2.39,5.01-15.36,29.15-9.02,34.1,3.16,3.12,7.68-.72,18.22-10.09,16.84ZM291,62.51c-3.47-.93-6.89-1.23-10.49-1l8.25,1.49,2.24-.49ZM269.5,81.49l-1.49-1.99c-1.21,2.62-2.61,6.69-.52,9.26.94,1.15,3.34,2,4.01.24-2.57.14-4.27-1.21-4.51-3.75-.31-3.28,3.89.92,4.51.24.19-.21.06-1.46-.5-1.78-.83-.49-2.24.7-3-.98-.26-1.1,1.41-1.13,1.5-1.25ZM283,88.49c3.36,1.97,8.19-4.67,3.5-4.99-.03.97.2,2.11-.24,3.01-.65,1.31-2.77.59-3.26,1.99ZM230.68,95.82c-1.45-1.53-2.69-3.45-4.44-4.81-5.44-4.25-13.46-5.87-20.24-5.51l8.99,1.75c6.9,2.07,12.94,6.54,17.26,12.24,2.55-1.7-.34-2.37-1.58-3.67ZM262.5,86.5c-.12-.09-2.43.31-1.92,1.17l1.5,3.26,1.93.06-1.5-4.5ZM252.5,94c.22,2.82,4.61,1.34,5.53-.22,1.27-2.15-.19-4.52-.04-6.78l-.62,4.62c-.94,2.07-2.55,3.67-4.87,2.37ZM253.26,88.5c-.73.15-2.41,3.22-1,3.5,1.69.33,3.32-3.99,1-3.5ZM245.93,94.93l.57-4.93c-1.31,1.62-5.26,6.22-.57,4.93ZM257.5,99.5c3.24-.14,5.57-3.33,4.99-6.49l-2.28,4.46-2.71,2.03ZM211.99,112c-5.66,2.37-10.97.14-13.24-5.49-2.89,2.87-7.13,1.82-10.75,1.99.19,4.75-2.56,9.03-2.99,13.76-.88,9.66,2.92,20.7,12.5,24.48,13.98,5.52,26.89-6.15,30-19.24.93-.01.52,2.14.44,2.69-.21,1.51-.69,2.97-1.44,4.3,3.8-.13,10.43-5.83,6.77-9.52-1.48-1.49-3.14-.35-5.03-.44-3.66-.17-4.56-2.77-4.74-6.04-5.05,1.71-10.61-1.11-11.5-6.5ZM242.13,120.87c-.84-.52-2-3.74-1.64-4.87-2.24,1.49-.6,4.91.79,6.47.56.63,5.79,4.49,5.71,2.28,0-.21-2.53-3.17-2.71-3.29-.74-.53-1.64-.28-2.15-.59ZM242.5,128.01c-1.13-.4-2.94-1.7-3.7-2.55-1.69-1.9-1.79-4.17-3.29-5.95-.34,3.53,1.86,7.18,5.13,8.62.44.19,1.93.92,1.86-.11ZM102.5,141.01c-3.2-.76-6.12,5.76-8.51,4.26-1.27-.79-3.49-11.42-4.34-13.66-.24-.63-.29-1.47-1.14-1.61-.31,2.4,3.75,12.24.18,12.93-2.04.39-6.8-8.51-9.18-9.43-.73.81,8.39,10.84,6.99,13.5-.94,1.05-11.02-7.49-13.49-6.5-.22,1.03.53,1.13,1.13,1.61,1.95,1.53,9.57,5.14,9.88,7.16.74,4.84-7.54,1.39-10.01,2.47,5.04,3.31,13.65,3.43,17.76,8.24,2.19,2.55,5.72,11.43,7.83,15.17,2.77,4.9,11.32,19.27,15.43,22.07,9.59,6.52,23.58-2.65,32.97-5.72l-6.01-9.99c-3.58,1.56-6.37,4.38-10.05,6.19-4.4,2.16-11.09,4.79-15.21.83-3.87-3.72-11.5-16.01-14.44-21.06-2.19-3.76-6.95-11.67-5.96-15.86.87-3.66,4.6-7.18,6.17-10.6ZM209.5,155c-.53-2.39-8.74-5.48-9.95-4.45l-1.04,3.21,10.99,1.24ZM209,162l-10-1.5c1.11,1.06,3.28,4.95,4.74,4.99l5.26-3.49ZM150,201c1.23-.91-.64-2.99-.87-3.88-.4-1.54-.59-3.07-.87-4.62l-3.19,2.65c.36,1.12,3.51,6.89,4.94,5.84ZM206,236.5c-4.89.69-11.18.9-15.25,4-.44.33-2.77,2.49-2.25,3l5.51-3.24c3.41-1.75,7.35-1.76,10.83-2.69.86-.23,1.39.35,1.15-1.07ZM135.49,311.5l-9.26,10.99c-.81.92,1.13,2.07,1.78,1.78,3.45-3.39,6.24-8.1,7.49-12.77ZM177.5,318.01c-7.19-2.77-13.3,1.46-17,7.49l10.16-5.59,6.84-1.9ZM174.32,379.32c5.31-5.3,8.58-24.3,11.05-32.2,1.98-6.36,4.75-12.5,6.62-18.9-.03-.8-5.71-4.58-6.83-5.13-1.57-.77-3.24-1.11-4.9-1.6-.59,7.71-.55,15.55-1.26,23.25-.86,9.34-2.11,24.16-8.01,31.49-1.61,2-7.06,5.36-4.68,7.72,1.23.38,6.93-3.56,8.01-4.64ZM239.99,332c1.05-4.97-2.62-8.49-6.99-9.99l3.91,4.33,3.08,5.66ZM206,328.5c-3.6,1.26-7.68,1.53-11.26.09l-.48.39c-1.74,7.78-5.05,15.05-7.38,22.63-1.8,5.86-2.92,11.91-4.73,17.77-1.69,5.45-6.11,11.53-2.38,17.11,2.36.02,4.82-13.78,5.62-16.37,2.9-9.39,7.58-18.25,12.05-26.95l8.58-14.66ZM402.4,352.65c-25.09,2.43-50.5,27.36-55.96,51.54-1.82,8.05-1.05,12.12,8.32,12.03,13.27-.13,15.73-11.6,23.26-19.95,17.07-18.92,42.23-26.9,63.25-8.78,3.28,2.82,10.12,12.15,14.01,12.04,3-.08,3.8-6.43,3.77-8.78-.31-25.28-34.74-40.23-56.65-38.11ZM68.5,356.5c-1-1.09-4.75,5.53-5.08,6.16-.61,1.16-3.63,7.61-2.91,8.33,3.76,1.06,8.58-13.86,7.99-14.49ZM408,403.49c-11.7,2.76-17.69,18.34-5.02,24.78,16.76,8.51,30.04-13.94,15.87-22.87-3.05-1.92-5.7-1.78-9.05-2.45-.93-.19-3.98-2.36-3.8.05l2,.5ZM144.94,409.06l-23.45-.32c-11.78,15.9,12.88,30.53,23.22,15.73,3.58-5.13,2.54-10.07.23-15.41Z"/>
  <path d="M384.25,205.5c8.92,1.34,9.13,15.87,7.61,22.61-.63,2.79-1.78,6.16-5.1,6.4l-21.26.48c4.8-3.87,12.6-2.12,18.5-3-.75-1.88-1.76-3.44-2.26-5.48-1.52-6.12-.31-12.21,1.76-18.01-7.52-.6-14.53,1.82-21.51,4.24l-1.5,8.76c-1.12.29-1.17-.45-1.36-1.36-.36-1.84-.03-3.78-.14-5.63-.38-.42-9.74,4.6-9.48,5.71,2.53,2.22,2.61,6.16.81,8.87-.73,1.1-2.14,1.64-2.33,2.67-1.09,5.66,3.08,19.23,5,25.02,5.77,17.45,14.49,33.73,21.24,50.76,2.16,5.45,5.8,13.43,5.26,19.23-.67,7.25-11.64,23.91-15.98,30.51-9.17,13.96-19.58,27.89-30.64,40.36l-32.63,2.87-28.52.53c-1.36.12-2.62-.53-3.96-.54-18.76-.17-39.43.3-58.01-1.49-2.63-.25-11.5-1.66-12.7-3.8-.88-1.57-.72-7.38-.58-9.46,1.05-15.94,12.26-34.91,20.81-48.19,3.02-4.69,6.13-9.47,9.96-13.54.29,1.2-.93,2.93-1.49,4.01-4.6,8.83-9.96,17.27-14.19,26.31-5.78,12.34-10.85,25.96-12.02,39.62,7.72,2.03,15.78,1.7,23.69,2.06,15.01.68,30.44,1.55,45.53,1.02,2.99-.1,6.11-.94,9.22-.53l-3.53-2.21c-1.39-2.36.66-8.02,1.4-10.67,1.36-4.86,3.28-9.66,5.06-14.38l-9.93-4.23c6.98.13,13.7,3.12,20.59,4.65,2.61.58,17.33,3.72,18.47,2.05,6.59-21.29,19.85-39.81,26.95-60.95,2.73-8.12,6.25-19.71,3.52-28.03-6.71-20.45-49.48-23.24-66.66-28.84-2.69-.88-6.94-2.11-7.36-5.38,18.81,6.49,39.39,7.31,57.68,15.57,24.95,11.27,23.02,27.08,14.69,50.05-7.22,19.91-18.68,39.03-28,58.03l.11,1.8c-5.55,1.57-11.44-.57-17.01-1.22-1.29,1.69-6.62,12.6-5.47,13.76,4.53-.26,9.08,1.01,13.01,3.24,2.42,1.37,5.22,3.05,5.01,6.24,8.33.13,16.71-.06,24.97-1.24,10.61-12.46,20.76-26.07,29.72-39.78,4.1-6.28,15.69-23.84,15.3-30.69-.16-2.8-2.13-7.61-3.13-10.39-5.09-14.1-12.56-27.87-18.11-41.89-4.98-12.56-10.86-26.78-8.77-40.48-2.86-1.04-4.06,1.47-5.85,1.89-4.12.96-8.07-.62-7.14-5.4-4.54,1.02-5.09-2-7.99-4.26-11.14-1.92-23.43-1.29-33.77-6.23-.85,3.81-2.63,4.95-6.43,3.95-2.83-.74-2.59-2.37-3.69-2.94-1.77-.93-6.08-.92-8.11-2.51.66,1.97-.59,3.54-.84,4.84-.11.6.39,1.29.14,2.17-.49,1.73-5.2,5.94-5.31,6.35-1.29,4.72.12,10.21.5,14.9.04.55.37,1.87-.49,1.74-.9-2.41-1.96-4.8-2.38-7.37-.38-2.33.58-5.48-1.37-7.13-.71-.6-1.74-.5-2.51-1.49-.22-.28-2.56-5.47-2.64-5.87-.43-2.12.65-3.66.39-5.35-.28-1.77-3.1-3.21-.53-5.57,2.12-1.95,6.02-.02,5.44-3.34-.3-1.71-5.36-8.63-6.64-11.39-2.8-6.05-4.64-12.84-6.88-19.12-1.35-3.77-3.76-6.61-3.38-10.87.09-.13,1.69.92,2.02,1.23,3.23,3.01,7.12,17.95,9.39,23.11,4.17,9.48,11.25,21.46,22.49,22.56,1.41-2.64,2.87-5.27,4.39-7.86,2.38-4.04,6.23-6.48-.3-9.93l.07-3.89-4.06-.73c-.21-1.09.63-1.32,1.49-1.51v-.98c-1.89-.67-3.23-4.02-3.85-5.9-2.64-8.02-2.38-23.89-9.68-29.32-1.42-1.06-7.81-2.96-7.46-4.53.63-2.83,9.1,2.07,10.49,3.5,8.22,8.46,6.2,31.92,12.23,36.76.82.66,2.38.62,2.82,1.31.66,1.04.16,2.9.68,3.69.56.86,4.68.9,3.79,4.46,3.07-.28,6.33.32,7.48,3.51l-3,.26,1.8.73.16,1.77c10.2,2.43,20.24,5.96,30.53,8,6.34,1.25,12.92,1.22,18.94,3.68,1.12-3.35,11.27-6.55,12.2-8.55.38-3.08,3.79-24.96,2.87-25.89-6.33-.86-4.76.96-7.28,4.47-3.34,4.65-8.39,4.37-8.23-2.19.09-3.43,3.45-15.27,7.31-15.76,5.15-.66,4.55,7.25,3.71,10.48,2.52.25,5.41-.78,7.49,1-.81-3.46,2.05-15.39,6.26-15.29s2.98,7.55,2.45,10.31c2.22,1.01,5.79,1.24,6.26,4.26-.27,8.11-2.53,16.34-4.47,24.22,2.57.27,5.78-.37,8.25,0ZM350.01,188.5c3.22-.99,6.26-13.67,4.49-15-2.55,1.45-.72,2.45-.5,3.78.62,3.88-3.12,7.66-3.98,11.22ZM362.51,209.5l12.27-3.97,3.14-23.7c-.42-1.2-3.36-1.64-4.59-1.78-1.76,2.08-3.52,5.05-6.73,3.62-.77-.35-.29-1.29-1.09-1.17.35,9.1-2.06,17.99-3,27ZM288.99,218l5.5-12.5c-3.28,1.81-6.88,6.89-6.52,10.76.07.74.13,1.56,1.02,1.74ZM347.33,221.67c-2.87-2.89-13.18-3.02-17.43-3.82-5.5-1.04-11.1-2.54-16.5-4s-11.23-2.86-16.15-5.35c-.93,2.17-3.33,7.03-.37,8.37,1.84.83,7.61,1.66,9.95,2.05,4,.66,18.77,1.5,20.93,3.07,1.3.94,2.09,3.68,4.06,3.89s5.91-3.27,9.43-2.42c3.69.89,4.07,3.07,3.75,6.54,3.89-.27,4.65-5.99,2.32-8.32ZM389.5,226v-7.75c0-1.4-1.52-6.37-2.99-7.25-.2,2.54-1.48,4.65-1.54,7.24-.06,2.76,1.21,7.68,4.53,7.76ZM271,215.5c-2.45.71-6.36-1.49-8.36-.64-.72.31-.77.13-.64,1.13,2.89.61,5.29,1.68,8.3.56.69-.26.86.16.69-1.05ZM270.5,219c-3.18.08-6.01.18-9-1-2.27,2.41,8.13,3.68,9,1ZM290.5,373.5c-7.36-1.97-9.1-1.4-9.96,6.45l5.96,1.32,4-7.78Z"/>
  <path d="M304.51,365.5c-1.9-6.86,3.87-13.12,6.75-18.99,6.35-12.91,14.95-30.44,18.97-44.03,1.8-6.06,1.34-11.58,3.02-17.48,6.45,6.29,3.3,17.19.77,24.77-3.35,10.04-8.8,23.45-13.76,32.74-2.82,5.3-9.24,16.91-12.85,21.15-.83.98-1.32,2.12-2.91,1.84Z"/>
  <path d="M248,252c5.77.22,10.95,3.31,16.23,5.01,18.64,5.99,40.39,7.72,57.79,16.71,1.46.75,10.78,6.23,5.24,6.81-3.86.41-13.76-4.46-18.26-5.79-13.15-3.91-52.58-10.19-60-20.5-.49-.67-1.12-1.32-1.01-2.24Z"/>
  <path d="M324.47,294.52c1.33,1.11-.75,9.95-1.32,11.88-4.73,16-16.15,40.25-25.06,54.44-1.23,1.96-4.48,6.79-5.13,1.92-.59-4.48,4.48-11.36,6.46-15.59,5.97-12.78,11.83-25.7,17.3-38.7.93-2.2,4.54-13.12,5.76-13.73.62-.31,1.3-.34,1.98-.22Z"/>
  <path d="M309.5,307c.12,1.73-.27,3.43-.65,5.1-2.65,11.78-18.1,39.52-26.15,48.86-.83.96-1.79,2.56-3.21,1.82-3.81-1.98,3.64-10.94,4.9-13.12,6.24-10.78,12.53-21.64,18.36-32.64.84-1.59,4.03-9.35,4.73-9.77.63-.37,1.33-.25,2-.25Z"/>
  <path d="M269.35,285.08c.93-.24,3.33,1.01,4.54,1.28,10.96,2.4,23.17-.82,32.94,4.56,1.17.64,4.56,2.77,4.13,4.28-3.05,3.06-6.9-1.22-10.96-1.93-8.83-1.54-22.37.81-29.97-4.54-1.27-.9-3.25-2.99-.68-3.64Z"/>
  <path d="M290.64,185.86c.91.91,3.48,1.06,4.89,2.36,1.7,1.57,2.02,4.06,2.03,6.23,2.76.43,7.08,2.02,6.2,5.55-2.24-1.66-8.16-1.48-8.93-4.58-.24-.98.31-2.05.16-3.11-.49-3.53-4.61-3.16-6.23-5.31l-7.76-23.49c.84-.88,2.99,3.01,3.24,3.51,2.01,4.02,4.28,16.73,6.39,18.86Z"/>
  <path d="M332,209c.41,1.17-1,1.29-1.82,1.3-3.89.06-20.35-5.02-24.46-6.77-.85-.36-1.87-.89-1.72-2.03,1.92-1.69,23.99,7.56,28,7.5Z"/>
  <path d="M291,100.5l-.58,1.92-1.92.32,2.92,7.88c-.67,1.79-2.21,3.13-3.92,3.87-.63-1.8,1.65-3.23,1.31-4.51-.58-2.17-6.83-5.46-5.79-6.97,2.75-1.13,4.64-3.07,7.98-2.52Z"/>
  <path d="M280,104.01l-2.5,1.51c3.42,6.18-4.04,8.27-4.49,2.17-.25-3.43,4.45-3.84,6.98-3.68Z"/>
  <path d="M202.61,175.62c.91-.52,3.61-.22,4.14.88,1.83,3.74-2.45,6.77-5.5,4.01-.98-1.1.53-4.41,1.36-4.89Z"/>
  <path d="M205.38,184.12c1.84,2.52-.31,6.67-3.38,5.13-2.15-1.07-.93-8.34,3.38-5.13Z"/>
  <path d="M279.26,118.5c1.69-.5,2.02,1.83,2.74,2.27.92.56,1.92-.27,2.86.09,2.29.88.32,2.78-1.23,3.06-3.89.7-6.63-4.75-4.37-5.42Z"/>
  <path d="M276.43,97.57l.02,1.88-6.21,1.91c-4.41-2.89,5.06-5.65,6.18-3.79Z"/>
  <path class="cls-2" d="M402.4,352.65c21.9-2.13,56.33,12.82,56.65,38.11.03,2.34-.77,8.7-3.77,8.78-3.89.1-10.73-9.22-14.01-12.04-21.02-18.13-46.18-10.14-63.25,8.78-7.53,8.35-9.99,19.82-23.26,19.95-9.36.09-10.14-3.98-8.32-12.03,5.46-24.18,30.88-49.1,55.96-51.54Z"/>
  <path class="cls-2" d="M211.99,112c.89,5.4,6.46,8.21,11.5,6.5.18,3.27,1.08,5.87,4.74,6.04,1.88.09,3.55-1.05,5.03.44,3.66,3.68-2.97,9.39-6.77,9.52.75-1.33,1.23-2.79,1.44-4.3.08-.55.49-2.7-.44-2.69-3.11,13.09-16.01,24.76-30,19.24-9.58-3.78-13.38-14.83-12.5-24.48.43-4.73,3.18-9.01,2.99-13.76,3.62-.17,7.86.89,10.75-1.99,2.27,5.62,7.59,7.86,13.24,5.49ZM195.05,112.95l4.23.89c2.85-2.28-1.42-3.76-3.55-4.25-.87.15-1,2.98-.68,3.36ZM213,117.5c-.23-2.88-3.52-3.76-6-3.5l.07,2.43,5.93,1.07ZM194.5,119.5c.73-1.8.82-4.57-1.76-3-2.5,2.55.68,5.43.68,5.75,0,.19-1.13,1.25-1.33,2.12-.76,3.29,1.76,5.87,5.06,5.16l.84-1.51c-9.44-2.1,3.25-6.92,2.5-9.75-.63-2.39-4.96,2.16-6,1.24ZM212.5,123c-1.9-.42-3.86,2.04-5.68,1.46-1.45-.47-.26-3.57-1.57-3.96-2.39-.7-2.02,3.98-1.28,5.16,1.55,2.46,9.48,1.32,8.54-2.66ZM200.01,135.51c-.97,4.83,7.01,3.56,7.32-.77l-1.53-1.21c-2.06,2.88-2.41,2.59-5.79,1.98Z"/>
  <path class="cls-2" d="M102.5,141.01c-1.57,3.42-5.3,6.94-6.17,10.6-.99,4.19,3.77,12.1,5.96,15.86,2.94,5.05,10.57,17.34,14.44,21.06,4.12,3.96,10.81,1.33,15.21-.83,3.68-1.81,6.47-4.63,10.05-6.19l6.01,9.99c-9.39,3.07-23.38,12.25-32.97,5.72-4.11-2.8-12.66-17.17-15.43-22.07-2.11-3.74-5.65-12.61-7.83-15.17-4.12-4.8-12.72-4.93-17.76-8.24,2.47-1.08,10.75,2.36,10.01-2.47-.31-2.02-7.93-5.63-9.88-7.16-.61-.48-1.36-.58-1.13-1.61,2.48-1,12.56,7.55,13.49,6.5,1.4-2.66-7.72-12.68-6.99-13.5,2.38.92,7.14,9.82,9.18,9.43,3.57-.68-.49-10.53-.18-12.93.84.14.89.97,1.14,1.61.86,2.24,3.08,12.87,4.34,13.66,2.4,1.49,5.31-5.02,8.51-4.26Z"/>
  <path class="cls-2" d="M408,403.49l-2-.5c-.18-2.41,2.87-.24,3.8-.05,3.35.67,6,.54,9.05,2.45,14.17,8.92.9,31.38-15.87,22.87-12.67-6.43-6.68-22.01,5.02-24.78Z"/>
  <path class="cls-2" d="M144.94,409.06c2.31,5.34,3.36,10.28-.23,15.41-10.34,14.8-35.01.17-23.22-15.73l23.45.32Z"/>
  <path class="cls-2" d="M174.32,379.32c-1.08,1.08-6.78,5.03-8.01,4.64-2.38-2.37,3.07-5.72,4.68-7.72,5.9-7.33,7.15-22.16,8.01-31.49.71-7.71.67-15.54,1.26-23.25,1.66.48,3.33.82,4.9,1.6,1.12.55,6.8,4.32,6.83,5.13-1.88,6.4-4.64,12.54-6.62,18.9-2.47,7.9-5.74,26.9-11.05,32.2Z"/>
  <path class="cls-2" d="M206,328.5l-8.58,14.66c-4.47,8.71-9.15,17.56-12.05,26.95-.8,2.59-3.25,16.39-5.62,16.37-3.73-5.58.69-11.66,2.38-17.11,1.81-5.85,2.93-11.91,4.73-17.77,2.33-7.58,5.64-14.85,7.38-22.63l.48-.39c3.58,1.43,7.67,1.17,11.26-.09Z"/>
  <path class="cls-2" d="M68.5,356.5c.59.64-4.23,15.55-7.99,14.49-.71-.73,2.3-7.17,2.91-8.33.33-.63,4.08-7.25,5.08-6.16Z"/>
  <path class="cls-2" d="M230.68,95.82c1.24,1.3,4.13,1.97,1.58,3.67-4.32-5.7-10.36-10.16-17.26-12.24l-8.99-1.75c6.77-.36,14.79,1.26,20.24,5.51,1.75,1.37,2.99,3.29,4.44,4.81Z"/>
  <path class="cls-2" d="M177.5,318.01l-6.84,1.9-10.16,5.59c3.7-6.03,9.81-10.26,17-7.49Z"/>
  <path class="cls-2" d="M209.5,155l-10.99-1.24,1.04-3.21c1.21-1.03,9.42,2.06,9.95,4.45Z"/>
  <path class="cls-2" d="M135.49,311.5c-1.24,4.67-4.04,9.38-7.49,12.77-.65.29-2.58-.86-1.78-1.78l9.26-10.99Z"/>
  <path class="cls-2" d="M209,162l-5.26,3.49c-1.46-.04-3.63-3.92-4.74-4.99l10,1.5Z"/>
  <path class="cls-2" d="M206,236.5c.23,1.42-.29.84-1.15,1.07-3.48.93-7.42.94-10.83,2.69l-5.51,3.24c-.52-.5,1.81-2.66,2.25-3,4.07-3.1,10.36-3.3,15.25-4Z"/>
  <path class="cls-2" d="M150,201c-1.42,1.05-4.57-4.72-4.94-5.84l3.19-2.65c.28,1.55.47,3.08.87,4.62.23.89,2.1,2.97.87,3.88Z"/>
  <path class="cls-2" d="M242.13,120.87c.51.31,1.4.06,2.15.59.17.12,2.7,3.08,2.71,3.29.08,2.21-5.15-1.65-5.71-2.28-1.39-1.56-3.03-4.98-.79-6.47-.36,1.13.8,4.35,1.64,4.87Z"/>
  <path class="cls-2" d="M269.5,81.49c-.08.13-1.75.16-1.5,1.25.75,1.67,2.17.49,3,.98.55.32.69,1.57.5,1.78-.62.68-4.81-3.52-4.51-.24.24,2.54,1.94,3.89,4.51,3.75-.68,1.76-3.08.91-4.01-.24-2.09-2.57-.69-6.64.52-9.26l1.49,1.99Z"/>
  <path class="cls-2" d="M239.99,332l-3.08-5.66-3.91-4.33c4.38,1.51,8.04,5.02,6.99,9.99Z"/>
  <path class="cls-2" d="M252.5,94c2.32,1.3,3.93-.31,4.87-2.37l.62-4.62c-.15,2.26,1.31,4.63.04,6.78-.92,1.55-5.31,3.03-5.53.22Z"/>
  <path class="cls-2" d="M242.5,128.01c.07,1.03-1.42.3-1.86.11-3.27-1.43-5.47-5.09-5.13-8.62,1.51,1.79,1.61,4.05,3.29,5.95.76.85,2.57,2.15,3.7,2.55Z"/>
  <path class="cls-2" d="M283,88.49c.48-1.4,2.61-.68,3.26-1.99.45-.9.21-2.04.24-3.01,4.69.33-.14,6.96-3.5,4.99Z"/>
  <path class="cls-2" d="M245.93,94.93c-4.7,1.29-.74-3.31.57-4.93l-.57,4.93Z"/>
  <path class="cls-2" d="M262.5,86.5l1.5,4.5-1.93-.06-1.5-3.26c-.51-.86,1.8-1.26,1.92-1.17Z"/>
  <path class="cls-2" d="M291,62.51l-2.24.49-8.25-1.49c3.6-.23,7.03.07,10.49,1Z"/>
  <path class="cls-2" d="M257.5,99.5l2.71-2.03,2.28-4.46c.58,3.16-1.75,6.36-4.99,6.49Z"/>
  <path class="cls-2" d="M253.26,88.5c2.32-.49.69,3.83-1,3.5-1.41-.28.27-3.34,1-3.5Z"/>
  <path class="cls-2" d="M347.33,221.67c2.32,2.34,1.56,8.05-2.32,8.32.31-3.47-.06-5.64-3.75-6.54s-7.37,2.63-9.43,2.42-2.76-2.95-4.06-3.89c-2.16-1.57-16.93-2.4-20.93-3.07-2.34-.39-8.11-1.22-9.95-2.05-2.96-1.34-.57-6.2.37-8.37,4.92,2.49,10.79,3.91,16.15,5.35s11.01,2.96,16.5,4c4.25.8,14.56.93,17.43,3.82Z"/>
  <path class="cls-2" d="M362.51,209.5c.94-9,3.35-17.9,3-27,.8-.12.32.82,1.09,1.17,3.21,1.44,4.97-1.53,6.73-3.62,1.24.14,4.18.58,4.59,1.78l-3.14,23.7-12.27,3.97Z"/>
  <path class="cls-2" d="M290.5,373.5l-4,7.78-5.96-1.32c.86-7.86,2.61-8.42,9.96-6.45Z"/>
  <path class="cls-2" d="M389.5,226c-3.32-.08-4.59-5-4.53-7.76.05-2.6,1.34-4.7,1.54-7.24,1.47.87,2.99,5.85,2.99,7.25v7.75Z"/>
  <path class="cls-2" d="M288.99,218c-.89-.18-.95-1-1.02-1.74-.36-3.87,3.25-8.95,6.52-10.76l-5.5,12.5Z"/>
  <path class="cls-2" d="M350.01,188.5c.87-3.56,4.61-7.34,3.98-11.22-.21-1.33-2.04-2.33.5-3.78,1.77,1.33-1.27,14.01-4.49,15Z"/>
  <path class="cls-2" d="M271,215.5c.16,1.21,0,.79-.69,1.05-3.01,1.12-5.41.05-8.3-.56-.13-1.01-.08-.83.64-1.13,2-.85,5.91,1.35,8.36.64Z"/>
  <path class="cls-2" d="M270.5,219c-.87,2.67-11.27,1.4-9-1,2.99,1.18,5.82,1.09,9,1Z"/>
  <path d="M194.5,119.5c1.04.93,5.36-3.63,6-1.24.75,2.83-11.94,7.65-2.5,9.75l-.84,1.51c-3.31.71-5.83-1.86-5.06-5.16.2-.87,1.33-1.92,1.33-2.12,0-.32-3.18-3.2-.68-5.75,2.57-1.57,2.49,1.2,1.76,3Z"/>
  <path d="M212.5,123c.94,3.98-6.99,5.12-8.54,2.66-.74-1.18-1.11-5.86,1.28-5.16,1.32.39.12,3.49,1.57,3.96,1.81.58,3.77-1.88,5.68-1.46Z"/>
  <path d="M200.01,135.51c3.38.61,3.73.89,5.79-1.98l1.53,1.21c-.3,4.33-8.29,5.6-7.32.77Z"/>
  <path d="M195.05,112.95c-.32-.38-.2-3.21.68-3.36,2.13.48,6.4,1.96,3.55,4.25l-4.23-.89Z"/>
  <path d="M213,117.5l-5.93-1.07-.07-2.43c2.48-.26,5.77.61,6,3.5Z"/>
  <g>
    <path class="cls-1" d="M149.09,221.95c.82.81.84,3.22.76,4.37-.07,1.03-1.98,9.44-2.39,9.73-2.47,1.77-10.7-2.96-12.06-5.56-2.74-5.24,2.47-7.41,6.57-4.46-.43-3.6,4.56-6.64,7.12-4.09ZM144.39,233.3c-.46-1.67,4.29-9.08,1.51-9.67-1.87-.4-2.42,4.62-2.72,4.83s-4.7-2.09-6.04-1.21c-1.07,2.62,6.58,6.66,7.25,6.05Z"/>
    <path class="cls-3" d="M144.39,233.3c-.67.61-8.32-3.42-7.25-6.05,1.34-.88,5.73,1.43,6.04,1.21s.85-5.23,2.72-4.83c2.79.59-1.96,8.01-1.51,9.67Z"/>
  </g>
  <g>
    <path class="cls-1" d="M235.48,67.4c-4.16,2.46-16.79-12.31-9.69-15.83,3.91-1.93,4.86,1.68,6.25,2,1.43.33,2.61-2.84,4.84-3.23,4.7-.8,6.23,2.54,5.08,6.77-.16.59-5.96,9.97-6.49,10.28ZM234.82,54.46c-.37.33.04,2.49-2.04,2.48-1.34,0-5.09-3.64-5.34-3.31-1.12,2.48,2.49,8.56,4.61,8.94,3.39.61,6.05-11.05,2.77-8.12Z"/>
    <path class="cls-3" d="M234.82,54.46c3.28-2.93.62,8.73-2.77,8.12-2.12-.38-5.72-6.46-4.61-8.94.24-.34,3.99,3.3,5.34,3.31,2.07,0,1.66-2.15,2.04-2.48Z"/>
  </g>
  <g>
    <path class="cls-1" d="M315.79,177.16c.54.42,11.25-4.18,9.79,4.47-.38,2.27-11.3,9.57-12.57,9.33-4.88-.93-9.08-19.23-1.07-18.52,3.31.29,3.47,4.43,3.85,4.73ZM313.21,176.44c-.3-.2-2.38-.47-2.38.38-.26,3.26.35,6.6,2.1,9.38,1.85.31,7.95-4.72,8.55-6.18,1.2-2.89-5.01.65-6,.36-1.71-.5-1.89-3.7-2.27-3.94Z"/>
    <path class="cls-3" d="M313.21,176.44c.38.24.55,3.44,2.27,3.94,1,.29,7.2-3.24,6-.36-.6,1.46-6.7,6.49-8.55,6.18-1.74-2.78-2.35-6.12-2.1-9.38,0-.85,2.07-.58,2.38-.38Z"/>
  </g>
</svg>