<?xml version="1.0" encoding="UTF-8"?>
<svg id="Layer_1" data-name="Layer 1" xmlns="http://www.w3.org/2000/svg" viewBox="0 0 520 520">
  <defs>
    <style>
      .cls-1 {
        fill: #2c2729;
      }

      .cls-2 {
        fill: #fff;
      }

      .cls-3 {
        fill: #d82f87;
      }
    </style>
  </defs>
  <path d="M203.01,74c8.61-7.44,21.31-3.23,25.49,7,7.66,18.79-5.61,53.97-26.56,59.61.04,21.26,7.14,43.73,5.05,64.88-1,10.16-6.47,15.82-12.92,22.93,4.29,57.49,13.55,114.49,27.02,170.48,12.51-1.6,25.35,4.96,34.82,12.69,3.16,2.58,8.72,6.97,8.08,11.41l-12.66-10.83c-18.13-16.44-40.28-8.72-62.34-9.17-1.12,7.57,4.4,12.45,9.65,16.85,8.49-5.53,14.43-.21,21.89.17,3.35.17,6.07-1.17,8.84-.99,5.7.38,14.11,5.96,20.11,6.98l-7.19-5.81-12.28-5.7c1.38-2.05,2.12-1.35,4.03-1.06,8.39,1.24,14.87,9.44,22.95,11.56-5.97-6.69-14.11-11.93-22.91-14.08l-.08-2.9c5.75-3.09,31.66,16.58,28,19.99-4.7-.45-8.62,1.35-13.37.9-6.26-.59-14.35-6.25-19.35-6.68-2.47-.21-5.46,1.01-8.75.79-4.95-.33-9.45-3.5-14.52-2.99.56.53,5.14,10.5,1.51,8.98-.7-.29-11.19-7.59-12.42-8.58-5.19-4.18-9.52-10.41-9.09-17.41l-57.99-1.01c.52-1.81,4.93-1.92,6.46-2.03,13.33-.92,26.83.99,39.99,1.09,10.26.08,20.33-.81,30.54-1.05l-6.48-9.01c-17.78-50.64-24.77-104.31-35.18-156.82-3.65-5.99-10.54-9.02-15.31-14.69-3.64-4.33-7.13-9.57-7.02-15.47.84-1.14,4.95,8.05,5.56,8.93,4.93,7.13,11.97,12.64,19.22,17.27,1.21,8.19,2.16,18.14,4.51,26,2.22,7.43,16.36,19.47,22.15,10.73,2.82-4.26-.06-19.85-.43-25.45-.27-4.14.18-8.35-.02-12.49l-8.99,2.5c5.41-5.19,12.53-7.62,16.83-14.17,9.36-14.29,2.22-44.18.17-60.84-1.72-13.99.97-45.72-21.53-27.45l-1.98-2.06-.49,2.01c-5.03.02-7.13-2.93-12.49-3.06-13.35-.32-24.44,18.42-24.31,30.57.06,5.66,6.51,16.43-1.23,19.99-8.3,3.82-10.68-9.37-15.93-11.05-11.15-3.57-14.18,6.56-9.27,15.26,5.08,8.99,12.7,6.94,21.21,4.29.56,3.18-3.49,3-4.74,4.25-1.87,1.88-.66,4.24-5.26,6.24-8.96,3.9-21.72.46-29.92-4.08-18.27-10.12-26.76-39.59-5.09-50.98-17-24.06-2.39-60.5,29.94-52.46,8.91-29.03,42.8-47.33,70.73-31.15,6.4,3.71,12.27,9.63,13.34,17.17Z"/>
  <path d="M307.99,225.99l-7.53-6.03.8-3.71c3.82-3.15,19.53,1.14,16.73,3.74-3.98.25-7.53-2.03-11.48-2.03-6.57.01,1.09,4.67,3.66,5.35,5.74,1.51,16.73.37,17.81,8.68-4.47-.94-7.45-4.98-12.48-5s-12.7,3.89-17.51,5.5c1.33,2.02,2.3,1.16,3.97,1.07,7.82-.42,13.2-4.25,21.02-1.06,1.63.66,11.06,6.27,9,8.49-4.31-.67-6.85-4.77-11.51-5.06-2.62-.17-9.79.8-12.9,1.15-.97.11-3.75.44-3.58,1.9,9.14,2.1,22.5-1.83,26.99,9.01-1.41,1.31-9.47-4.32-11.72-4.77-5.62-1.13-12.56.75-18.24-2.22-3.67,8.27-11.43,17.15-18.03,23.51-5.32,5.13-20.07,18.91-27.57,14.54-11.1-6.47-20.47-37.45-29.01-47.98-3.19-3.93-6-4.77-10.83-5.98l-.6-3.08c4.02-.24,9.35.11,12.44,3.06l25.07,44.93c2.66-6.02,10.86-14.16,17.76-12.79,3.23.64,8.32,5.91,10.75,4.34,2.68-5.19,16.13-16.03,17.02-21.04.44-2.44-6.46-3.75-8.74-2.78-3.34,1.42-9.16,8.82-8.15,12.55.48,1.79,3.33,2.36,2.86,4.71-17.46-3.23.04-25.04,11-20-2.35-3.05,1.66-4.22,1.78-5.48.08-.76-2.98-4.63-3.66-6.13-5.7-12.57-11.43-25.11-17.04-37.71-2.13-3.21-14.27-2.44-15.07-3.69-3.93-6.1,13.35-3.43,17.02.49l21.54,43.5c1.83,3.33,5.42.24,8.43.01ZM266.2,260.21c-.36,3.42-12.56,10.39-8.23,13.32,4.74,3.2,15.85-5.17,19.01-9.03-2.28-2.02-7.78-6.04-10.78-4.29Z"/>
  <path d="M162.99,266c-6.67-4.01-13.71-1.29-19.49,3-29.03,21.53-58.9,98.05-58.58,133.51.18,20.62,18.83,29.64,36.7,32.36,26.33,4.02,52.23-5.91,77.89-4.88,1.21.05,3.72-.75,3.48.99-25.12,2.58-51.18,8.71-76.54,7.06-11.9-.77-31.15-3.02-42.81-5.19-2.42-.45-9.71-1.46-9.7-4.35,1.93-5.79,9.07-5.47,13.03-9.01-8.33-12.04-4.28-30.11-1.67-43.69,5.55-28.88,32.72-98.61,59.63-112.37,5.62-2.87,15.25-4.72,18.04,2.55Z"/>
  <path d="M328.99,260c.21,6.22-3.99,12.96-7.58,17.91-1.81,2.48-6.81,6.73-7.72,8.36-1.35,2.4-5.48,17.57-5.65,20.38-.2,3.19,1.5,5.07,3.47,7.34,1.59-.95-4.6-9.21-1-8.98,4.62.3,7.78,21.21,6.35,25.33-.54,1.55-2.88,1.56-3.64,3.36-2,4.73-3.32,12.93-5.45,18.55-6.25,16.43-13.94,35.19-22.58,50.42-1.23,2.17-8.41,15.56-11.17,13.32,16.19-25.22,27.27-54.23,36.98-82.56l-.44-1.42c-13.5-9.4-21.46-24.78-26.55-40,2.49-2.41,8.02,11.01,8.98,12.51.77,1.21,9.02,13.48,10.01,12.48,1.32-6.43,2.33-13.09,4.09-19.42,4.33-15.57,12.67-20.98,19.67-35.38.66-1.35-.64-2.75,2.25-2.19Z"/>
  <path d="M396.99,467.01c0,1.68-3.32,1.9-4.49,2-17.34,1.39-35.72-.06-52.96-.05-85.97.05-171.66-1.32-257.55-2.46l315,.51Z"/>
  <path d="M260.99,357c-2.21.35-3.1-1.95-4.02-3.47-11.19-18.5-16.66-51.7-24.96-73.04-5.42-13.94-11.01-26.58-29.02-21.49,6.89-8.49,18.66-3.34,24.51,4,10.67,13.39,19.09,52.88,25.22,70.78,2.65,7.74,7.37,15.18,8.27,23.22Z"/>
  <path d="M393.99,349c-4.23-5.11-9.16-1.79-11,3.48l15.35,3.41c3.03-5.81,13.89-14.88,15.65-3.89-1.82.51-2.4-1.45-3.74-1.83-3.98-1.15-8.62,5.54-7.25,6.83,4.16-.97,11.56,2.63,15.01.52,1.91-1.17,2.41-7.33,8.74-8.35,2.48-.4,6.68,1.99,6.24,4.32-.63,3.34-3.75-1.15-4.7-1.38-2.74-.66-7.25,3.91-7.29,6.89,3.56,1.48,7.44.53,11.05,1.51,1.78.48,2.32.31,1.95,2.5l-14-1.52c-2.27,1.37-.06,5.28,1.51,6.51,1.17-1.47,6.06-6.08,7.49-2.47.53,1.33-3.47,3.4-4.27,3.7-7.31,2.73-8.21-1.8-7.82-8.12l-15.91-2.1v6c2.12,2.17,6.94-7.64,8-2.48.42,2.05-5.26,6-7.48,5.53-4.09-.39-3.5-7.1-3.61-9.96l-15.33-2.97c-3.69.82-1.21,10.73,4.93,1.88l2.48,2.48c-6.11,7.68-14.25,4.09-10.99-5.48l-3.01-.99c4.36.42,4.53-4,7.1-6.41,3.87-3.63,12.1-4.85,10.89,2.4Z"/>
  <path d="M425,445.99c-21.65-2.94-43.67-4.45-65.19-8.3-6.54-1.17-16.6-1.61-20.81-6.68l6.99.98-1.99-1.98c9.36,1,18.47,3.99,27.81,5.67,14.88,2.68,32.15,3.38,46.41,6.59,2.58.58,5.7.82,6.78,3.71Z"/>
  <path d="M187.99,166c-.16-1.81.64-3.54.62-5.32-.02-1.22-2.92-13.45.39-11.19,3.04,2.08,3.3,15.69,1.11,18.93l-5.13,1.09c-.01,3.33,9.77,12.72,8,14.49-4.04.48-6.35-4.25-8.16-7.33-4.93-8.34-11.28-27.21-8.05-36.39,2.08-5.92,10.9-9.96,16.2-5.78-2.9,2.71-7.25.8-10.51,3.47-4.86,3.96-3.38,11.07-2.17,16.24.99,4.2,2.77,11.06,7.7,11.79Z"/>
  <path d="M210,300.01c-1.01.82,10.65,12.79,10.98,14.52,1.33,6.9-4.84,15.34-4.99,22.47-1.38,1.47-1.84-.13-2.01-1.5-.79-6.36,4.25-13.44,4.8-19.88-4.01-4.97-9.6-9.59-9.95-16.5l-2.82-.12v-2.99s10.98-.49,10.98-.49l-6.57-14.43-9.41-11.08c8.07-.34,14.67,12.72,17.17,19.32,7.68,20.23-7.27,9.95-8.18,10.69Z"/>
  <path d="M258,372.99c6.48-18.87,9.81-38.74,15.73-57.76,2.02-6.48,3.95-16.25,9.26-20.23l-21.78,75.7-3.2,2.29Z"/>
  <path d="M442.01,444l1.42-4.07c4.79-1.85,15.33-15.19,18.53-16.39,1.69-.63,9.58,2.09,11.05,3.99,1.31,5.66-26.85,14.37-30.99,16.48Z"/>
  <path d="M375,359.01c-14.65,18.94-22.55,43.31-34.83,63.66-1.13,1.88-2.57,5.5-5.16,5.33-1.01-1.13,6.26-14.66,7.47-17.02,7.08-13.81,17.12-36.47,25.69-48.31,1.9-2.62,3.16-4.2,6.83-3.66Z"/>
  <path d="M444.99,432.99c-1.66-.21-1.81-4.19-1.98-5.51-1.04-7.88-1.03-16.02-1.02-23.98l-1.98-13.51c.65,15.78-1.85,31.28-.02,46.99-1.35-.17-1.75-1.36-1.95-2.54-2.6-15.38,1.53-37.89,1.01-54-.11-3.28-1.22-6.19-1.04-9.45l3.93,8.56,3.05,53.43Z"/>
  <path d="M163,307c-1.22,1-7.55,5.94-8.25,6.24-2.66,1.15-6.09,1.79-6.75-1.74-1.78-9.6,3.73-39.88,18-37.49-1.32,3.03-4.83,3.34-7.01,5.48-4.93,4.86-8.73,21.16-8.98,28.03-.04,1.22-.54,3.22,1.47,2.46,3.88-1.47,8.36-8.49,14.01-7l.5,1.99c-1.82-.15-2.17,1.35-2.99,2.02,3.32-1.04,2.09,6.45,1.88,8.38-.41,3.7-2.07,11.22-3.43,14.62-.64,1.61.1,2.44-2.45,2-1.05-8.67,4.52-16.35,3.99-24.99Z"/>
  <path d="M434.01,444c-2.58-9.39-.23-19.25.03-28.46.46-16.22.3-32.37,1.46-48.55,3.38,11.19.58,23.1.46,34.56-.13,12.29,1.46,26.67.08,38.98-.17,1.5-.21,3.09-2.03,3.46Z"/>
  <path d="M420.99,379.01l-9.43,2.02c-5.53-1.3-11.23-2.02-16.74-3.34-1.26-.3-20.23-4.43-16.81-7.68l42.99,9.01Z"/>
  <path d="M327.99,257c-3.31-.5-4.24-3.52-7.45-5.04-4.29-2.04-10.81-2.84-15.54-2.95-.47,2.58.46,1.77,1.98,2.46,4.03,1.83,13.08,2.47,15,7.05,1.57,3.74-5.88-1.35-6.45-1.55-1.74-.62-20.7-5.18-11.53-9.46,5.02-2.34,25.3.63,23.99,9.49Z"/>
  <path d="M333,418c.46,2.87-.6,1.66-2.32,2.14-6.65,1.84-22.69,1.25-30.23.91-4.05-.18-10.05-.57-13.97-1.04-1.84-.22-1.61.31-1.48-2.01h48Z"/>
  <path d="M461.99,419.99c-2.55,2.76-5.94-9.22-6.26-10.23-3.57-11.38-6.48-24.13-8.72-35.76l14.98,45.99Z"/>
  <path d="M155,160.01c3.76-.92,3.92,3.19,6.03,5.47,2.48,2.68,5.39,6.49,9.36,6.47,5.04-1.48-3.02-12.62-3.4-15.45-.28-2.05,1.33-1.97,2.48-1.47,3.11,1.36,9.37,18.83.98,20-6.39.89-13.22-9.88-15.45-15.02Z"/>
  <path d="M168,141c-5.09-3.45-20.06,8.86-21.99,7-2.68-2.58,9.3-8.92,11.01-9.49,3.76-1.24,12.05-3.6,10.99,2.49Z"/>
  <path d="M47,421c-.42-2.61.39-1.79,2.17-2.29,10.04-2.77,21.78,1.42,31.83-.71.43.93-.89,2.99-1.5,2.99h-32.5Z"/>
  <path d="M294.99,255c-1.12,6.21,3.06,12.44,2.93,18.34-.13,5.37-2.81,16.87-6.91,20.66-.09-7.28,4.68-14.41,4.63-21.68-.03-3.9-2.38-8.4-2.67-12.79-.13-2.01-.91-5.35,2.03-4.53Z"/>
  <path d="M452.99,426.99c-2.62.23-1.66.13-1.96-1.5-2.8-14.94-3.65-30.47-6.02-45.49l3.67,16.81,4.31,30.18Z"/>
  <path d="M175.99,346.99l-14.52-11.97c-1.26-.91.35-2.88,1.04-3.02,3.4-.68,14.69,13.74,13.47,15Z"/>
  <path d="M359.52,333c.94-.18,9.45,8.91,10,9.98.7,1.36.07,2.78-1.03,3.01-1.32.28-8.74-8.88-9.53-10.47-.72-1.46-1.4-.9.56-2.52Z"/>
  <path d="M191,203.99c-2.35,1.13-11.73-.09-11-3.48s5.17.15,6.55.46c1.87.42,4.84-2.79,4.45,3.02Z"/>
  <path d="M462.99,335.01c1.36,1.26-7.22,9.51-9.99,7.98.81-1.86,8.47-9.4,9.99-7.98Z"/>
  <path class="cls-2" d="M266.2,260.21c3-1.75,8.51,2.27,10.78,4.29-3.16,3.85-14.27,12.23-19.01,9.03-4.33-2.93,7.87-9.9,8.23-13.32Z"/>
  <g>
    <path class="cls-1" d="M393.44,416.22c-5.54,2.04-17.48-18.48-8.17-21.15,5.12-1.46,5.47,3.08,7.07,3.78,1.65.71,3.76-2.85,6.53-2.81,5.82.07,6.93,4.42,4.62,9.25-.32.67-9.36,10.68-10.05,10.94ZM395.48,400.51c-.52.32-.5,3-2.99,2.54-1.61-.3-5.32-5.5-5.69-5.15-1.89,2.74,1.11,10.84,3.57,11.76,3.94,1.47,9.69-11.95,5.11-9.15Z"/>
    <path class="cls-3" d="M395.48,400.51c4.58-2.8-1.17,10.62-5.11,9.15-2.46-.92-5.46-9.02-3.57-11.76.37-.35,4.08,4.85,5.69,5.15,2.49.46,2.47-2.22,2.99-2.54Z"/>
  </g>
  <g>
    <path class="cls-1" d="M230.55,324.71c.48.14,6.54-5.79,7.82.47.33,1.64-5.16,9.46-6.09,9.63-3.56.65-11.21-10.68-5.58-12.3,2.32-.67,3.52,2.1,3.86,2.2ZM228.6,324.89c-.26-.05-1.74.31-1.51.88.68,2.28,1.97,4.39,3.88,5.82,1.33-.27,4.16-5.29,4.18-6.44.05-2.27-3.23,1.75-3.98,1.82-1.29.11-2.25-2.02-2.57-2.08Z"/>
    <path class="cls-3" d="M228.6,324.89c.32.07,1.28,2.19,2.57,2.08.75-.06,4.04-4.09,3.98-1.82-.03,1.15-2.85,6.17-4.18,6.44-1.91-1.43-3.2-3.54-3.88-5.82-.23-.58,1.26-.94,1.51-.88Z"/>
  </g>
</svg>