<?xml version="1.0" encoding="UTF-8"?>
<svg id="Layer_2" data-name="Layer 2" xmlns="http://www.w3.org/2000/svg" viewBox="0 0 520.5 520.5">
  <defs>
    <style>
      .cls-1 {
        fill: #d7cccd;
      }

      .cls-2 {
        fill: #2c2729;
      }

      .cls-3 {
        fill: #d82f87;
      }

      .cls-4 {
        fill: #2d2b2b;
      }

      .cls-5 {
        fill: #f3f3f3;
      }
    </style>
  </defs>
  <path class="cls-4" d="M124.55,386c-.01,1.16.24,5.01-.71,5.62-1.43.91-8.96-.3-9.42.16.58,4.24-.62,8.12-1.04,12.16s-.65,7.82-1.13,11.7c.92.09,5.91.39,6.13.75.06.09.05,1.02.02,1.06-.66.71-10.48.68-12.13.71-5.75.1-13.62.84-19.16.39-5.79-.47.24-1.56.4-1.8.3-.45.07-1.72.56-2.69,1.61-3.19,12.77-8.72,16.57-9.28-.11-1.61-.17-12.46-.93-12.66l-12.61.38c-.86-.88-2.35-1.18-3.06-1.64-2.24-1.43-1.74-13.45-1.81-16.27-.18-6.85-.32-13.71-.03-20.61.12-2.98.62-6.2.74-9.21-1.5.19-7.96.43-7.96-1.63v-8.14c-1.89,1.71-4.89,9.37-7.06,10.12-.7.24-.48-.63-1.13-1.02-.37-.22-2.06-.59-2.3-.42.36.38,1.45,2.33.18,2.17-1.08-.14-6.37-3.5-7.05-2.9-.17,1.44-1.04,2.94-1.75,4.22-3,5.47-6.67,10.78-9.83,16.21-.73,1.26-3.73,7.44-4.52,7.77-.72.3-.54-.49-.55-.91-.07-1.84.92-2.88,1.46-4.51-4.23.01-8.6-.4-12.78-1.14-2.8-.5-11.81-2.22-12.46-5.27-.74-3.43,2.95-3.9,5.52-4.09,5.87-.43,11.71.77,17.49,1.4.91-3.35,8.62-14.09,8.4-16.76-.06-.75-.12-.4-.53-.58-2.4-1.09-8.9-2.54-8.91-5.91,0-2.3,4.5-10.2,5.87-12.59,7.25-12.67,25.82-40.72,38.98-46.35,6.69-2.86,15.24-.73,21.79,1.71,3.94,1.47,3.79,3.3,6.93-1.2,1.98-2.84,2.56-3.72-.34-6.11-4.27-3.52-13.51-6.28-18.96-7.43-2.48-.53-5.34-.44-7.6-1.44l4.58-1.92c3.64-2.01,8.47-10.43,11.17-14.14.79-1.08,1.82-2.08,2.62-3.17.49-.67,2.52-4.39,2.77-4.47.21-.07.87-.13.91.21.12.94.07,2.62,0,3.6-.38,5.85-3.27,14.34-2.51,19.84s8.75,5.22,10.96,10.01c.29.62.45,2.21.66,2.42.18.18,2.38.56,3.01.79,2.01.73,7.17,3.41,8.7,3.61,1.76.24,5.8-.91,7.93-1.07,3.75-.28,8.54-.45,12.29-.36,1.73.04,2.94,1.24,4.32-.74s.78-5.02.56-7.39c-.39-4.11-1.06-8.51-1.91-12.55-.6-2.84-2-6.11-2.4-8.81-.11-.75-.18-1.02.7-.88,5.91,13.81,8.79,28.69,13.2,43.02.87,2.83,2.66,9.76,4.01,11.9.63,1,2,2.17,3.23,2.22,2.7.12,8.97-2.51,12.33-2.88.86-.09,2.4-.18,3.21-.03,1.11.21,1.93,1.51.65,2.08-1.1.49-7.51.82-7.7,1.71l5.78,14.63c.18.59.64.82,1.25.71l.2-.35c1.16.26,2.79.44,3.98.36l.72.36c.18.13,4.12.72,4.34.72l.72.36c.06.07,1.3.3,1.77.58,2.1,1.26,2.75,2.18,4.38,3.76l.36,2.53c-1.73.22-2.03-1.87-3.07-2.89-1.47-1.43-5.64-2.79-7.68-3.16-1.67-.3-7.52-.26-8.25-.79-1.54-1.78-5.08-15.18-6.51-15.51-.37-.09-4.41.82-4.49,1.21,2.74,5.38,4.24,11.65,6.81,17.05.44.93.7,1.82,1.61,2.37,1,.6,4.51.95,5.85,1.02,1,.05,8.17-.12,8.51-.38.64-.49-.14-.63-.5-.76-1.92-.7-4.2-.45-6.19-.68-2.13-.25.94-1.03,1.8-1.1,2.15-.17,7.57-.33,8.36,2.17.55,1.75-1.04,1.19-1.66,2.18,1.88-.34,3.92.33,5.63.38.5.02.83-.38.87-.38.84.03,1.69-.02,2.53,0,8.18.2,16.37.18,24.59,0,2.04-.04,4.11.07,6.15,0,2.32-.08,4.68-.25,6.87-.36,1.31-.07,2.66.08,3.98,0,.31.63,1.25.28,1.81.36,1.15.16.95.2,1.81.72v.72c-.24.03-.49-.02-.72,0-.57.05-1.5-.25-1.81.36-1.06-.07-2.19,0-3.25,0-1.18,0-2.59.35-3.25.36-1.8.04-3.62-.02-5.42,0-.96.01-1.93,0-2.89,0-.24,0-.48,0-.72,0-12.64.1-25.32.06-37.96,0-3.97-.02-7.96.03-11.93,0-8.65-.06-17.99-.95-26.76-.36-.44.03-2,.14-2.17.36-.73-.11-.83,0-.72.72-.36.04-1.35-.08-1.45,0l-.72.36c-.69-.05-1.25.32-1.81.36l-.54-.36-.18.36c-1.08.13-2.17.22-3.25.36-.46-.6-2.07-.6-2.53,0-.6-.01-1.21.04-1.81,0-.03-.2.06-.68,0-.72-.16-.12-3.35-.02-3.98,0-.36.01-.73-.03-1.08,0l-.72-.36c-.18-.13-3.75-1.04-4.16-1.08-2.38-.26-5.29.08-7.77,0-.76-.03-1.96-.41-3.25-.36-.36.01-.72-.02-1.08,0-.24.01-.48-.01-.72,0-.25.6.3.89.36,1.08.7,2.47,1.3,6.1,1.45,8.68.07,1.26,1.26,1.08,1.08,0,.59,0,1.23-.05,1.81,0,2.16.19,4.23.33,6.51.36,4.57.06,9.17-.07,13.74,0,3.49.05,7.34,0,10.85,0,3.14,0,6.59.22,9.76.36.06,0,.43.35,1.24.38,2.55.1,5.71.19,8.16-.38,2.35.12,4.48.39,6.87.36.38.6,1.37.36,1.98.37,3.31.04,6.64-.06,9.95,0,2.28.04,4.59-.06,6.87,0,.06,0,.42.35,1.24.38,2.32.08,5.23.2,7.44-.38,2.35.12,4.48.39,6.87.36,3.19.83,6.83.13,10.12.36.6.45-.04.66-.53.72-1.23.16-2.63-.11-3.94.04-1.2.14-2.78.46-4.02.69-.59.11-.62-.23-.54.71,6.57-.1,13.16.13,19.73.02.79-.01.83-.38.88-.38,5.19-.08,10.38-.32,15.55-.36,10.5-.08,21.22.49,31.82,0,2.31-.11,4.55-.38,6.87-.36,15.08.13,30.38.38,45.56.36,4.94,0,9.84-.11,14.82,0,5.3.11,10.83.36,16.27.36,4.46,0,9.34.26,13.74,0,.39.61,1.49.35,2.17.36.48,0,.97-.02,1.45,0l-.36,1.08c-1.19,0-1.82.19-2.89.36-.46-.6-2.07-.6-2.53,0-1.2-.03-2.42,0-3.62,0-2.59,0-5.19-.03-7.78,0-.61,0-1.61-.23-1.98.37-1.95-.03-3.55.24-5.42.36-.38-.6-1.37-.36-1.98-.37-5.39-.07-10.83.29-16.09.37-.71.01-1.46-.06-2.17,0-.36-.59-1.83-.58-2.17,0-4.45.02-8.92-.02-13.38,0-17.83.09-35.68.01-53.51,0-19.88-.01-39.78.06-59.66,0-3.32-.01-7.15.01-10.49,0-.84,0-1.69,0-2.53,0-6.33-.02-13.03-.37-19.52-.36-11.69.01-23.44-.21-35.07.36.08.4-.12,1.66,0,1.81l.36.72c-.06.83.01,1.69,0,2.53-.03,1.56-.01,3.14,0,4.7.02,2.28-.06,4.59,0,6.87-.6.46-.6,2.07,0,2.53-.55,3.51-.23,6.62-.36,10.12-.11,2.9-.32,6-.36,9.04-.09,6.6-.16,13.29,0,19.89.03,1.32.32,2.69.36,3.62.06,1.32-.07,2.66,0,3.98s0,1.62.36,2.89c.08.27-.1.73.02,1.06.83.02,1.69.09,2.52.03l.72.36c.06.06.81-.01,1.08,0v1.08c-.1.09-.29.27-.36.36l-.72.36c-.48-.04-.97.02-1.45,0-.67-.03-1.79-.22-2.17.36-1.07-.07-2.18.07-3.25,0-1.87-.12-3.74-.49-5.79-.36-.24.01-.5-.04-.72,0-.02-.24.03-.49,0-.72-.17-1.14-.62-2.5-.72-3.62l.36-.54-.36-.18c-.08-1.07.04-2.18,0-3.25-.01-.4.11-.91-.36-1.08.1-1.44-.15-2.29-.36-3.62.57-.24.57-1.57,0-1.81,0-.96.02-1.93,0-2.89-.01-.48.18-1.2-.36-1.45.07-1.04.02-2.2,0-3.25,0-.48.18-1.2-.36-1.45.06-.94.01-1.95,0-2.89,0-.68.25-1.78-.36-2.17.04-.6-.01-1.21,0-1.81.08-3.19-.29-6.39-.36-9.4-.05-2.04.08-4.11,0-6.15-.05-1.24-.33-2.78-.36-3.62-.06-1.92.02-3.86,0-5.79,0-.79.27-2.04-.36-2.53.06-1.05.03-2.2,0-3.25s-.27-1.49-.36-2.17c-.13-.98-.21-1.91-.36-2.89.85-1,.29-2.52,0-3.62-.08-.28.09-.98,0-1.08.01-.86.24-1.25-.72-1.08-.11-.1-2.02.06-2.53,0-1.57-.19-2.92-.45-4.7-.36-.24.01-.48-.02-.72,0,.01.72-.03,1.45,0,2.17-.56.15-.54,1.33,0,1.45-.04,2.28-.02,4.59,0,6.87.02,2.75.34,5.75.36,8.32.03,4.09.07,8.21,0,12.29-.03,1.54-.36,3.56-.36,5.42,0,.96-.04,1.94,0,2.89-.61.39-.35,1.49-.36,2.17ZM109,243.19c-.75-.17-.82.4-1.16.82-2.09,2.62-8.59,12.15-9.24,15-.09.38-.18.76-.05,1.14l7.92,1.84,2.53-18.8ZM137.11,281.24c-.28-.28-3.36-1.99-4-2.33-2.21-1.17-8.87-4.42-11-4.92-.44-.1-1.07-.24-1.47,0-.16.1-2.13,2.84-2.21,3.04-.24.63.13.44.42.58,1.96.96,3.6.75,5.13,2.84.69.95.97,2.45,1.82,3.24s2.56,1.17,3.56,1.86c2.48,1.69,2.82,4.07,3.5,6.81.7-.29.38-2.38.27-2.98-.24-1.33-2.87-5.63-2.44-6.05,1.23-1.22,4.03,3.26,4.08,4.41l.97,4.26c.52-1.98.47-3.89-.1-5.86-.4-1.37-1.93-2.98-2.07-3.71-.27-1.46,1.5.36,1.82.71,1.41,1.56,1.83,3.2,2.44,5.16l.44,2.98c.71-2.34.43-5.03-.38-7.32-.09-.26-.68-.26-.71-.51-.07-.63.65-1.47-.09-2.2ZM140.1,286.03c.19,1.64-.14,3.57,0,5.24,1.15.27,1.09-1.58,1.11-2.34.04-1.95-.25-3.6-1.83-4.89-.13.68.67,1.54.72,1.99ZM156.91,327.43h26.94l-2.18-3.43-7.41-18.63c-.55-.72-2.57.32-3.9-.07-2.3-.69-3.41-9.68-4.41-11.86-.27,9.04.26,18.76-4.73,26.73-1.62,2.58-3.55,3.88-5.77,5.82-.1.09-1.94.97-.71,1.08.86.08,1.57.3,2.17.36ZM91.28,318.39c-.47-.39-1.28.37-1.64.71-.98.93-4.46,5.45-5.24,6.69-.28.45-.46.71-.35,1.28,1.06-.18,4.76.4,5.26-.34.44-.65.96-6.13,1.25-7.37.05-.21,1.41-.41.72-.96ZM129.97,326.35c-.05-.05-.9-.05-1.33-.29-.85-.46-1.96-1.08-2.76-1.59-.58-.37-4.33-3.47-4.59-3.18l1.46,6.5c1.85-.56,3.72-.19,5.55-.4.22-.03,2.43-.33,1.67-1.04ZM88.75,328.52l-5.78.72c-.04,2.36,0,10.54,2.79,11.14.67.14,1.6.26,1.86-.52l1.13-11.34ZM23.67,358.17c-.09.76-.04.96.58,1.4,1.05.74,4.85,1.71,6.27,2.04,5.62,1.31,11.4,1.47,17.13,1.94l8.7-14.82c.72-2.96,3.11-6.83-1.23-7.92l-10.67,19.16-1.14-1.46c-6.57.03-13.16-1.92-19.65-.34ZM146.6,345.51c-.98-1-4,3.74-4.4,4.46-4.53,8.17-3.1,26.7-2.47,36.21.21,3.22.42,6.55.72,9.76.33,3.5,1.19,14.52,3.08,16.8.64.77,2.35,2.04,2.35.19,0-2.37-.67-5.52-.75-7.93-.33-10.1.28-20.39.09-30.39l1.37-29.1ZM110.75,408.73c-.22-5.14,3.83-14.61-3.92-15.49l-.53,13.39c-.78.87-1.36-.76-1.45-.74-3.23,2.26-7.24,3.67-10.55,5.72-.65.4-5.44,3.45-4.46,4.4,7.58.21,14.52-3.66,20.91-7.29ZM110.81,411.67c-.4-.06-.73.03-1.1.16-1.3.45-4.95,2.5-6.48,3.28-.42.21-1,.34-1.09.89l9.4-.36-.72-3.98Z"/>
  <path class="cls-4" d="M381.62,324.18c-.07-.06-.73.05-1.05-.2-1.24-.94-4.47-6.22-5.76-8-1.97-2.73-.99-4.18-5.27-3.69-4.36.49-8.03,3.76-12.15,5.04,1.42,3.08-2.61.1-3.58-.59-2.89-2.06-5.41-4.74-8.52-6.67-.61-.38-5-2.75-5.25-2.52-.71.66,1.87,1.44,2.15,1.64,5.97,4.26,11.25,13.8,11.59,21.14,6.14-1.92,10.62-6.96,15.79-10.42.78-.52,5.58-2.92,4.29-.42-1.03,1.98-7.38,5.02-8.87,7.22,3.62.8,16.19-1.55,18.65.34.39.3.75,1.23.52,1.47-.25.25-6.08.7-7.04.74-4.57.21-12.76-.89-16.6.75-2.35,1.01-4.78,3.23-7.64,3.24-3.65,0-5.69-4.14-9.41-4l-64.65-.43c-2.41-.76,2.1-1.85,2.93-2.01,7.19-1.37,15.07-.13,22.3-.08,12.32.08,25.02-.48,37.27-.03.82.03,1.53.37,2.33.38.51-.48-2.32-3.17-2.68-3.64-2.64-3.51-7.25-9.86-7.46-14.24-.13-2.72.38-3.65,3.17-4.08,7.11-1.1,15.22,6.41,19.85,11.07l13.71-8.26c.44-1.89-3.42-3.81-2.04-5.63.59-.78,3.75-2.89,4.76-3.56,6.1-4.02,12.85-6.81,19.47-9.84.12-1.96-1.06-1.35-2.21-2.06-6.95-4.32-14.08-11.1-13.31-19.94,1.34-15.38,23.64-42.76,35.06-53.16,1.91-1.74,7.78-6.77,9.96-7.4.47-.14.72.09.53.53-.61,1.41-5.86,5.52-7.23,6.87-10.93,10.7-21.92,23.01-29.34,36.46-6.85,12.41-11.64,23.53,2.83,32.72,2.99,1.9,6.24.09,9.34.06.61,0,4.21.5,4.36.7.99,1.35-.76.99-1.14,1.45-.32.39.33,1.3.22,1.83,3.16-1.5,6.26-3.16,9.57-4.35,3.54-1.26,8.99-2.04,12.02-3.53,1.82-.89,3.4-3.94,5.32-4.8,2.67-1.19,6.38-1.03,9.24-1.06.1,0,.56,0,.72,0,1.56,0,3.14,0,4.7,0-.05.06.15.44-.23.75-2.87,2.35-10.53-.31-14.35,2.21-1.77,1.16-6.23,7.81-5.62,9.82.7,2.32,1.87-1.82,2.18-2.42.7-1.32,3.98-6.1,5.2-6.37.59-.13.58.02.55.54-.1,1.8-4.05,3.94-4,7.22,0,.28.32,1.57.4,1.62,1.3.81,1.29-1.77,1.71-2.77.55-1.32,4.08-5.74,5.37-5.85,2.74-.24-2.46,4.53-2.84,5.13s-1.99,3.54-.83,3.86c.69.19.86-.1,1.19-.62,1.34-2.18,1.9-5.6,4.79-6.78.48-.19,1.69-.57,1.42.34-.48,1.64-4.46,3.99-3.97,6.69.61.66,4.48-4.73,5.51-5.15,2.09-.85,3.7.5,5.96-1.27,1.84-1.44,3.21-4.29,1.36-6.24-.71-.75-2.46-1.22-2.71-1.45-.09-.08-.84-1.8-1.39-2.07-.9-3.02,4.84-5.21,6.72-6.52,8.64-6.03,7.67-11.58,3.77-20.58-.64-1.47-2.06-3.43-2.51-4.72-.15-.45-.4-1.36.45-1.18,2.28,2.97,4.22,6.24,6.03,9.52,1.43,2.58,3.99,9.2,5.39,10.88.56.67,1.67.39,1.41,1.11-.75,2.04-13.28,6.5-16.01,8.21-.82.51-3.03,1.82-2.74,2.93.21.79,5.34,4.34,5.89,4.21.35-.08.81-1.17,1.32-1.58,5.93-4.81,16.93-2.43,19.14,5.22.18.63.16,1.34.72,1.81,0,.24,0,.48,0,.72-.01.39-.09.91.36,1.08-.03.68.27,1.21.36,1.81-.62.58-.39,2.01-.36,2.89.02.6-.04,1.21,0,1.81-.47.17-.35.69-.36,1.08-.01.35-.03.73,0,1.08l-.36.72s-.02.86,0,1.08l-.36.72c-.15.21-.92,4.38-1.08,5.06-.9-.3-.93,1.01-1.08,1.81-.06.32.05.74,0,1.08-.77-.09-.81-.04-.72.72-.06.05.03.51,0,.72-.77-.09-.81-.04-.72.72-.13.14-.87,3.03-1.08,3.62-1.04-.23-.8.78-1.08,1.45-.59,1.37-1.37,2.55-1.81,3.98-.7-.12-.84.03-.72.72-.92,1.01-1.99,3.89-2.9,5.24-1.66,2.48-4.19,5.93-6.14,8.14-.07.08-2.17.51,0,.72,1.71.17,3.66-.07,5.42,0,4.52.19,7.1.08,11.57-.36.59-.06,1.21.06,1.81,0l1.08.36c.15.45.97,2.79,1.08,2.89l.36.72c.33,3.75.62,6.71-.36,10.49-.3-.06-.88.09-1.08,0-.04-.02-.11-.6-.36-.72.02-.24,0-.48,0-.72.01-.36,0-.72,0-1.08s0-.72,0-1.08c.57-.24.57-1.57,0-1.81.02-.39.06-2.08,0-2.17.01-.86.24-1.25-.72-1.08-.19-1.2-.22-1.87-1.08-2.89-1.1-1.31-1.01-.37-1.45-.36-1.44.02-2.9,0-4.34,0-1.56,0-3.14.01-4.7,0-1.8-.02-3.63.07-5.42,0-1.27-.05-2.88-.7-4.34-.36l2.53,1.81c-.73-.05-1.65-.28-2.53-.36-.23-.02-.64-.34-1.45-.36-.47-.01-.98-.03-1.45,0-.25-.54-.97-.35-1.45-.36-.7-.02-1.47-.05-2.17,0-.25-.54-.97-.35-1.45-.36-.59-.02-1.23-.04-1.81,0l-.72-.36c-.13-.1-2.73-.04-3.25,0-.25-.54-.97-.35-1.45-.36-3.48-.09-7.01.14-10.49,0,.63-1.04-2.07-.83-2.17-.72-.8.82.68,1.01.72,1.08.08.12-.05.78,0,1.08l-.36.54.36.18c.02.24-.02.48,0,.72.07.88,0,1.87.72,2.53,0,.36,0,.72,0,1.08,0,.4-.1.91.36,1.08-.03.16-.03.7,0,.72l.36.72c-.02.23-.04,1.05,0,1.08l.36.72c-.03.36.02.73,0,1.08-.02.47-.15,1.21.36,1.45-.03.22-.04,1.05,0,1.08l.36.72c-.01.45.33,1,.36,1.45l-.36.54.36.18c.03.48-.01.97,0,1.45,0,.4-.11.91.36,1.08-.03.23.02.49,0,.72-.03.39-.07.92.36,1.08-.03.28-.05,1.39,0,1.45l.36.72c-.03.36,0,.73,0,1.08,0,.39-.09.92.36,1.08-.03.22-.04,1.05,0,1.08l.36.72c-.03.36.02.73,0,1.08-.02.47-.15,1.21.36,1.45-.04.35,0,.73,0,1.08,0,.4-.1.91.36,1.08-.03.23.02.49,0,.72-.04.45-.14,1.22.36,1.45-.03.36.02.73,0,1.08-.02.47-.16,1.21.36,1.45-.03.22-.04,1.05,0,1.08l.36.72c-.08.88.32,1.5.36,2.17l-.36.54.36.18c.03.47,0,.97,0,1.45s-.17,1.2.36,1.45c-.03.36.02.73,0,1.08-.02.47-.16,1.21.36,1.45-.04.47,0,.97,0,1.45s-.17,1.2.36,1.45c-.02.24,0,.48,0,.72-.03,1.25.16,1.56.36,2.53.1.48.24.97.36,1.45-.59.36-.58,1.83,0,2.17-.01.84,0,1.69,0,2.53-.01.96-.03,1.93,0,2.89.01.36-.03.73,0,1.08l-.36.72c-.35.3-.47.66-1.08,1.08-.88.28-6.28,1.93-6.46,2.22-.85,1.38.62,1.32.67,1.4.48.68.92,2.6,1.45,3.25-.11.74-.02.83.72.72.12.37.64,2.09.72,2.17-.11.74-.02.83.72.72.24.77,1.93,5.6,2.17,5.79-.11.74-.02.83.72.72.13.52.94,3.5,1.08,3.62-.11.73,0,.83.72.72.04.36-.08,1.34,0,1.45-.09.77-.05.81.72.72.06.64-.24,2.21.36,2.53-.12.66.06.85.72.72.11.08,1.41-.02,1.81,0,.36.01.73,0,1.08,0,.24,0,.48,0,.72,0l.36.72c-1.09.43-1.27.22-2.17.36-.64.1-1.11.31-1.45.36-.94.16-2.23.24-3.25.36-1.33-.59-3.45-.45-4.9-.38-.8.04-1.18.38-1.24.38-2.97.12-6.06.03-9.04,0-3.49-.04-7.33-.02-10.85,0-1.84.01-3.4-.3-5.06-.36-.35-.45-1.24-.61-1.45,0-.48-.03-.97.05-1.45,0v-1.08c.32-.07.79.08,1.08,0,.57.66.85.46.72-.36.09-.17-.02-1.08,0-1.45.02-.47.16-1.21-.36-1.45.07-1.07-.01-2.18,0-3.25.04-3.25-.06-6.52,0-9.76.04-2.4-.08-4.83,0-7.23.02-.68.3-2.16.36-3.25.06-1.2-.06-2.42,0-3.62,0-.03.31.04.35-.54.07-1.11.28-2.9-.35-3.8.16-1.66.34-3.39.36-5.06l.36-1.08c.83-.24.59.14.76.51,1.26,2.77,1.65,11.78,1.78,15.2.27,6.94-1.72,15.75,3.43,21.16l.84-.6,1.61-15.75c.1-.31.14-1.31.79-1.01,1.45.69.77,4.9.9,6.32l-1.44,14.29h5.79c-1.26-7.35.93-14.58,1.76-21.85-.32-1.34-4.47.43-6.27-1.67-1.09-1.27-3.01-5.88-3.88-7.69-.66-1.39-3.85-9.67-4.28-10.01.11-.74.01-.83-.72-.72-.29-1.36-.65-2.33-1.08-3.62-.5-1.48-.96-2.99-1.54-4.44-.22-.56-.1-1.17-.99-.98-.11-.41-.08-1.96-.36-2.17.11-.73,0-.83-.72-.72-.2-1.21-.37-2.08-.72-3.25-.25-.82-.1-2.08-1.08-1.81-.1-.4-.28-2.09-.36-2.17.09-.76.04-.82-.72-.72-.18-1.42-.31-2.23-.72-3.62-.19-.63-.16-1.34-.72-1.81-.09-.58-.23-1.23-.36-1.81-.65-2.81-1.87-5.96-2.89-8.68-.05-.2.02-.49,0-.72-.09-.86-.64-1.46-.72-1.81-.24-1.08-.48-2.17-.72-3.25-.16-.72-.21-1.62-.72-2.17-.02-.24.01-.48,0-.72-.04-.62-.3-1.68-.72-2.17.02-.17.03-.7,0-.72l-.36-.72c.03-.16.03-.7,0-.72l-.36-.72c.02-.23.04-1.05,0-1.08l-.36-.72c.08-.9-.3-2.17-.36-3.25-.07-1.26-1.26-1.08-1.08,0-1.34.03-1.81.52-2.89.72-.22.04-.49-.03-.72,0ZM400.06,285.13c-.93.12-1.42.81-2.43,1-.71.13-4.2.21-4.44.45,0,1.26,1.01,1.98,1.29,3.23.81,3.74-1.98,5.92-1.64,8.85.25,2.14,3.08,6.77,5.24,7.44,1.63.5-1.41-2.82-1.58-3.12-.54-.97-1.27-2.83-1.15-3.92.06-.51.22-1.03.73-.55.19.19,1.17,3.27,1.99,4.35,1.15,1.51,3.29,3.07,5.25,3.24.15-.69-.35-.86-.76-1.23-2.6-2.36-4.43-3.76-3.94-7.81.3.05.98-.08,1.08,0,.13.11.58,2.54.91,3.25.91,1.96,2.92,4.24,5.24,4.34.25-.22-3.39-4.58-3.7-5.52-2-6.02,4.1-3.04,6.48-2.51.41.09,1.16.2.83-.47-.5-1.02-5.54-2.58-7.06-4.15s-2.61-4.62-2.34-6.88ZM440.19,301.76l-18.84,13.91c-.55.27.3,2.62.42,2.7,1.07.69,1.24-.97,1.78-1.61,4.3-5.09,10.31-8.79,15.2-12.99.3-.26,1.78-1.66,1.43-2.01ZM335.52,308.63v.36c.23-.12.23-.24,0-.36ZM337.15,309.35c-.48-.04-.97.02-1.45,0-1.14,1.19,3.84,8.55,4.77,9.88.87,1.25,1.88,2.48,2.84,3.67.45.56,1.02,1.7,1.79,1.64.19.45,1.59,2.37,1.99,2.53.73.3.52-.49.55-.91.27-5-4.92-16.39-10.5-16.81ZM417.78,414.2c1.33-.41,2.15-1.54,3.51-2.09.8-.32,2-.62,2.85-.76,3.44-.55,4.01.93,2.93-3.73-.99-4.28-2.46-9.76-7.85-9.33l-1.44,15.91ZM418.86,417.82c-.04.35.02.73,0,1.09,3.79-.08,7.43.88,11.21,0,.12-.44-.31-.81-.36-1.08-.47-2.46-.76-4.27-3.79-4.37-2.59-.08-6.74,1.44-7.05,4.37Z"/>
  <path class="cls-4" d="M126.72,210.28c-.8-2.23.38-4.54,0-6.87-1.23-.02-2.14.78-3.42.74s-3.33-1.47-3.58-1.43c-.35.06-1.98,1.54-3.4,1.7-3.01.34-5.45-3.68-5.15-6.44-2.47.71-4.1.17-5.98-1.43-2.73-2.31-2.35-4.82-1.27-7.95-3.95-1.24-4.96-6.42-3.55-9.92.32-.79,2.14-3.31,2.09-3.61-.04-.25-1.56-1.62-1.97-2.38-2.12-3.89.15-9.06,4.16-10.52,0-1.3-1.1-2.09-1.35-3.51-.91-5.33,3.22-8.51,8.23-8.05-2.48-6.84,3.64-12.98,10.49-10.12-.3-6.16,5.37-10.56,11.29-8.58.8.27,2.02,1.41,2.58,1.3,1.25-.24,1.58-2.58,5.44-2.08,2.18.28,3.77,2.49,4.01,2.49.1,0,1.06-1.12,1.5-1.38,2.85-1.7,6.46-1.41,9.14.51.82.58,1.76,2.2,1.89,2.28.6.35,3.67-1.39,6.82,1.31.58.5,1.16,1.66,1.44,1.84.31.19,1.98-.25,2.71-.23,2.93.09,5.99,2.23,6.24,5.36.06.73-.55,1.73-.13,2.28.13.17,2.82.96,3.84,1.95,3.83,3.7,3.24,8.64-.37,12.13-.52,0-.96.19-1.08.72-.1.45-.04,1.63,0,2.17-.38.14-.27.48-.36.72-.75,2.12-1.74,2.68-3.98,2.9.87,1.4,1.3,1.93,1.45,3.61.05.58,0,1.21,0,1.81,0,.45-.32,1.14-.18,1.46.28.62,1.84.98,2.51,1.8,1.22,1.48,1.58,4.32,1.11,6.14-.31,1.18-2.19,3.44-2.28,4.2-.07.62.54,1.41.61,2.15.21,2.25-.18,5.05-2.37,6.25-.61.33-2.48.63-2.61.83-.17.27-.01,1.19-.22,1.76-1.01,2.75-2.55,3.61-5.45,3.63-.81,0-1.93-.44-2.44-.33-.73.17-2.01,2.29-2.81,2.99-4,3.49-10.34,4.49-15.47,4.23-.93,2.21-1.15,4.18-1.49,6.46-.18,1.18-1.03,2.62-2.08,1.35-.32-.39-1.24-6.75-2.3-8.72s-2.79-2.28-3.57-4.2c3.11.9,5.5,2.57,8.86,2.88,18.46,1.71,23.43-14.01,18.78-29.27-.77-2.51-2.41-5.01-2.33-7.61-3.71.64-5.52-1.11-7.8-3.6-.55-.12-1.46,1.62-2.15,2.16-1.16.91-3.55,1.57-5.01,1.43-1.15-.11-1.73-.9-2.76-1.07.38,4.13-3.19,9.05-7.6,8.67.07,2.72.49,7.11-3.1,7.58-2.73.35-3.66-1.84-5.4-1.82-3.26.03-2.01,6.47.44,7.19.83.24,3.95-.08,4.08.07.12.13-.17,1.03.05,1.39.08.12,1.12.37,1.58.77,2.23,1.94,1.56,5.68-1.01,6.96-.53.26-2.25.49-2.38.69-.21.33.02,2.22-.09,2.98-.17,1.17-1.46,8.93-1.84,9.21-.27.2-.72,0-1.01.06ZM144.07,135.44c1.24-1.36-3.6-2.94-4.34-2.17-.09.1-.09.89.21,1.11.58.42,2.01.23,2.78.41.34.08,1.05.96,1.35.64ZM155.57,134.44c-.37-.23-1.31-.24-1.01.45.05.11,1.06,1.44,1.35,1.9.33.52.84.77,1.18.46.38-.36-1.38-2.72-1.52-2.81ZM164.68,140.14c.1-2.15-2.48-3.46-4.34-3.25-.2.96.24.62.71.9.67.39,1.56.65,2.17,1.1.72.52.45,1.46,1.45,1.25ZM141.54,137.61c-1.03-.86-2.38,1.82-1.8,2.89l2.02-.34c.28-.39-.12-2.47-.21-2.55ZM141.88,144.5c-1.36-1.13-5,4.44.38,2.88.14-.13-.27-2.78-.38-2.88ZM133.22,149.9c.77-.66-2.28-2.24-3.09-.02-.49,1.33.32,2.08.92,1.47.33-.34-.74-2.49,2.17-1.45ZM104.3,173.4c.21-.21-1.92-5.04-2.53-4.34-.49.57,1.44,5.39,2.53,4.34ZM112.25,176.3c-.25-2-3.65-.75-5.06-1.08-.57.43,0,.66.53.72,1.48.17,3.05-.02,4.53.36ZM169.75,189.31c1.06,1.01,2.87-2.83.9-3.61-.86-.16-.45.4-.52.91s-.48,2.61-.38,2.7ZM126.31,189.72c-.07-.12-2.18-1.44-2.48-1.13.5,1.87.98,3.41.72,5.42,1.11.18.57-.3.73-.88.18-.67,1.17-3.17,1.03-3.41ZM129.9,190.48c-1.28-.77-4.9,2.56-2.12,4.82s6.16-1.19,3.88-3.34c-.28-.26-.89-.38-1.32-.68-.24-.16-.31-.72-.45-.8ZM111.17,195.1c-.98.61-4.82-1.31-5.06-1.08-.66.61,1.75,2,2.45,2.1.51.07,3.66-.25,2.61-1.02ZM118.4,200.89l-3.97.9c1.05,1.02,3.92.92,3.97-.9Z"/>
  <path class="cls-4" d="M424.65,134.36c.1,0,.72.34,1.45.36.35.01.73.03,1.08,0l.72.36s.56.01.72,0c.97.87,2.54.96,3.62,1.45,1.68.76,3.17,1.89,4.7,2.89-.03.73.37,1.11,1.08,1.08.13.14.2.23.36.36-.09.77-.05.81.72.72.61.87,1.2,1.54,1.82,2.35.59.76-.04,1.83,1.9,1.19.34-.11.99-.72,1.34-1.01.84-.42,2.8-.42,2.53-1.45.33-.05.73.02,1.08,0,.58-.04,1.5.24,1.81-.36,1.07.07,2.18-.05,3.25,0l-.36,1.08c-.24,0-.49-.02-.72,0-.81.06-1.02.28-1.45.36-.55.11-.7.23-1.08.36-.58.19-1.92-.33-1.81,1.08,1.2,0,2.41.01,3.61,0,.24,0,.48,0,.72,0,.94.58,2.19.78,3.25,1.08.48.14.97.23,1.45.36-.12.7.03.84.72.72,1.49,1.22,3.05,2.16,4.33,3.81.76.97,1.99,4,2.18,4.15-.11.74-.02.83.72.72.05.29-.08.99,0,1.08-.09.77-.05.81.72.72.05.48-.1,2.03,0,2.17l.36.72c-.03.36,0,.73,0,1.08-.03,1-.27,2.56.36,3.25-.08.59-.39,1.12-.36,1.81-.47.17-.35.69-.36,1.08-.01.35-.03.73,0,1.08l-.36.72s-.02.55,0,.72c-.48.54-.61,1.47-.72,2.17-.06.33.05.74,0,1.08-.74-.11-.83-.01-.72.72-.16.13-1.1,3.02-1.51,3.73-1.96,3.38-5.08,7.68-8.61,9.28-.65.29-1.68.03-1.45,1.08-.32.07-.77-.07-1.08,0-.39.09-.83.32-1.08.36-1.49.25-3.27.13-4.34.36-.58-.65-.85-.47-.72.36.2,2.08-1.9,12.26-1.08,13.38-.09.76-.04.82.72.72.13.13,3.15.7,3.62.72l1.08.36s.81.17,1.2.41c3.36,2.15,5.98,4.11,8.57,7.18.23.27.75,1.02,1.08,1.45,8.39,10.73,16.97,26.59,19.41,40.07,1.2,6.62,1.87,10.62-3.9,15.04-1.03.79-4.39,3.08-5.52,2.7-.64-.21-.81-1.2-.52-1.71.23-.4,4.48-3.07,5.36-3.86,4.15-3.71,3.02-7.16,2.06-12.19-2.66-13.85-15.59-39.89-27.9-47.3-4.03-2.43-2.92-1.7-5.26.9-3.73,4.14-13.76,11.24-19.53,9.43-.96-.3-1.89-1.71-2.07-2.64-.35-1.78.74-7.38,2.81-7.69.16,2.07-2.36,8.7,1.22,8.67,3.34-.03,10.73-4.73,13.25-7.04.64-.58,3.64-3.79,3.57-4.28-.07-.42-.9-.99-1.05-2.23-.57-4.61.71-9.77.32-14.42-.4-1.2-2.74-.28-3.73-.22-.33.02-1.6.24-1.28-.55.1-.26,3.5-1.13,4.86-2.74,1.53-1.83,2.14-5.82-.68-6.14-3.13-.35-5.89,1.48-9.28-.47-6.2-3.56-2.26-13.43-6.93-16.57-3.71-2.5-9.56-1.54-13.83-1.72l-6.67-.74c-2.04-.91-2.97-1.17-3.98-3.25-1.1-2.28-1.04-3.7-1.08-6.15,0-.24,0-.48,0-.72.53-.46.59-1.17.72-1.81.05-.22-.04-.5,0-.72.77.09.81.04.72-.72.05-.03-.04-.25,0-.36.66.13.84-.07.72-.72.24-.15.25-.5.36-.72.77.09.81.05.72-.72.42-.29.61-.65.72-.72.46-.32,1.5-.19,1.45-1.45.48-.25.5.08,1.08-.72.66.11.85-.06.72-.72.11-.04.33.05.36,0,.77.09.81.05.72-.72.29-.09.93-.16,1.08-.36.69.12.85-.03.72-.72.23-.04.51.05.72,0,3.27-.72,6.26-2.23,9.76-2.53,1.41-.12,3.25-.05,4.7,0Z"/>
  <path class="cls-1" d="M126.72,210.28c.29-.05.74.14,1.01-.06.38-.28,1.66-8.04,1.84-9.21.11-.77-.12-2.65.09-2.98.13-.21,1.85-.43,2.38-.69,2.57-1.28,3.25-5.02,1.01-6.96-.46-.4-1.51-.66-1.58-.77-.23-.36.06-1.26-.05-1.39-.14-.15-3.26.17-4.08-.07-2.45-.72-3.7-7.16-.44-7.19,1.74-.02,2.67,2.17,5.4,1.82,3.59-.47,3.18-4.85,3.1-7.58,4.4.38,7.97-4.54,7.6-8.67,1.03.17,1.61.96,2.76,1.07,1.47.13,3.85-.52,5.01-1.43.68-.54,1.6-2.28,2.15-2.16,2.28,2.49,4.09,4.24,7.8,3.6-.07,2.6,1.57,5.1,2.33,7.61,4.64,15.26-.32,30.97-18.78,29.27-3.36-.31-5.75-1.98-8.86-2.88.78,1.92,2.46,2.14,3.57,4.2s1.98,8.33,2.3,8.72c1.05,1.27,1.9-.17,2.08-1.35.36-.02.73.04,1.08,0,4.12-.43,5.4-1.26,9.76,0,.43,2.12-.85,1.24-1.08,1.45.18-1-.45-.9-1.08-.54s-1.43,1.57-2.2,2.14c-6.62,4.88-15.32,2.87-21.13-2.31-1.2-1.07-1.91-2.43-2.7-3.26.24-.08.51-.32.72-.36ZM157.42,169.82c-1.79-1.22-7.41.29-5.43,3.01.78,1.07,6.43-.68,5.43-3.01ZM143.97,172.04c-.8.17-3.53,1.93-3.54,2.62-.04,2.43,3.72.58,4.72.33s2.78.68,2.82-1.84c.02-1.56-2.96-1.33-4-1.11ZM157.82,179.57c.17-.19,1.49.22,1.79-1.29.8-3.99-2.79-5.27-5.74-2.85-2.28,1.86-.54,1.9.49,3.43.77,1.13,3.43,5.64,2.69,6.8-.24.38-2.28.25-3.05.75-.6.38-.49,1.04.02,1.1,1.08.13,3.23-1.25,4.5-1.1.78-1.21-.93-6.58-.7-6.84ZM147.07,181.97c2.14,1.98,4.06-.13,3.43-2.88-.73-3.2-7.2-1.39-8.18,1.06-.84,2.1,3.05-.28,3.34-.21.56.13.96,1.61,1.41,2.03ZM147.91,191.87c-1.69.54.75,3.42,1.93,3.79,3.28,1.03,5.06-1.86,3.4-2.34-.74-.21-1.58.49-2.4.28-.92-.24-1.42-2.21-2.93-1.73Z"/>
  <path class="cls-1" d="M404.4,158.22l6.67.74c4.27.18,10.11-.78,13.83,1.72,4.67,3.14.72,13.01,6.93,16.57,3.4,1.95,6.16.12,9.28.47,2.82.31,2.22,4.31.68,6.14-1.36,1.62-4.75,2.48-4.86,2.74-.32.79.95.57,1.28.55.99-.06,3.34-.98,3.73.22.39,4.65-.89,9.81-.32,14.42.15,1.24.98,1.8,1.05,2.23.08.49-2.93,3.69-3.57,4.28-2.53,2.31-9.92,7.01-13.25,7.04-3.58.03-1.06-6.6-1.22-8.67.88-.13,1.98.09,2.89,0,.01.92-.16,2.92.71,3.45,1.55.95,1.27-1.73,1.75-2.98.41-1.08,1.25-2.53,1.82-3.6.52-.97,4.16-6.13,3.68-6.63-2.16.51-3.93,1.78-6.14,2.35-19.71,5.1-28.61-12.64-22.79-29.66.74-2.16,3.22-6.14,3.49-7.78.14-.85-.21-.89-.23-1.07-.04-.35.09-1.37,0-1.45-.11-.11-2.41.07-3.05-.02-.91-.14-1.59-.71-2.37-1.06ZM417.73,168.3c1.2-1.92-4.92-5.21-5.35-2.62-.06.35,2.82,3.02,3.24,3.23s2.04-.5,2.11-.61ZM426.82,173.4c.15-.15-.02-1.42-.19-1.8-.53-1.21-3.89-2.54-4.84-1.24-1.98,2.71,4.65,3.43,5.03,3.04ZM411.63,174.85c-.8-1.72,2.26-4.24.16-4.7-1.95-.42-2.76,3.37-2.06,4.97.25.58,1.24,1.13,1.15,1.67-.12.71-2.98,2.21-2.8,4.3.21,2.44,5.75,5.14,5.73,2.98,0-1.4-3.69-1.17-3.21-3.52.42-2.08,6.27-6.23,6.12-8.03-.29-3.49-4.19,3.27-5.09,2.34ZM420.62,174.54c-1.17-1.84-3.59,2.62-3.58,4.11.03,4.93,8.68,2.62,8.71,0,.03-2.81-4.51,1.71-5.82.75-1.6-1.17,1.48-3.64.7-4.86ZM417.86,187.24c-.42.45-.34,1.65-.96,2.11-.77.58-2.17.08-2.59.66-1.49,2.09,3.14,2.83,4.71.37,1.23-1.91.37-4.81-1.16-3.15Z"/>
  <path class="cls-4" d="M282.92,196.9c1.13.29,2.46-.3,3.43-.29,21.63.39,43.42.48,65.1.3,14.07-.11,30.25-1.71,44.11-.75,4.77.33,7.62,2.1.72,2.56-29.85,1.98-61.17.17-91.11.33-3.72.75-22.46-1.01-24.42.2-.34.21-.56,1.04-1.09,1.44-2.12,1.63-4.49-1.16-6.5-1.48-2.49-.39-5.69.24-8.13.24-4.97,0-9.96-.36-14.83-.4-24.59-.19-49.22.46-73.77-.35-.53.03-1.19-.7-.9-1.08.24-.31,6.78-1.05,7.76-1.1,20.58-1.19,43.27.25,63.99.39,7.31.05,14.62.06,21.89-.38.21-.83-.15-.59-.45-.83-2.5-1.94-5.03-4.39-6.37-7.35-2.58-5.74,1.3-8.96,6.98-8.07,2.35.37,4.4,2.92,6.16,4.32,1.86-3.79,6.35-9.43,11.01-6.3,3.78,2.54,2.21,8.26.58,11.74-1.18,2.51-3.16,4.39-4.17,6.86Z"/>
  <path class="cls-4" d="M221.09,211.73l50.46.02c1.24-.1,1.85-1.34,3.04-1.66,3.79-1.01,3.89,1.39,6.68,1.65s4.31-1.04,7.17-.66c4,.53,4.95-.22,8.74-.46,8.32-.53,17.96-.03,26.43,0,19.99.08,40.2.54,60.38.39,6.01-.04,12.33-1.09,18.33.08.42.08,3.98.83,3.16,1.71-6.77,1.03-13.62.56-20.44.71-.95.02-1.83.37-2.86.39-30.1.55-60.26-.43-90.37-.04-.51.14-.43,2.12-.62,2.64-.51,1.37-2.19,3.18-3.41,4.25-.78.68-6.51,5.27-6.94,5.38-1.43.38-4.65-3.52-5.53-4.65-.45-.58-.69-.67-.72-.72-1.17-1.64-2.03-3.79-2.53-5.79-.05-.21.08-.66,0-.72-.15-.11-3.34-.18-3.62.36-12.3-.83-26.18.1-38.69,0-1.33-.01-3.37-.35-5.06-.36-7.59-.07-16.41-.51-23.86,0-.17-.47-.69-.34-1.08-.36-.84-.04-1.69,0-2.53,0-.6,0-1.21,0-1.81,0-.96,0-1.93,0-2.89,0-1.08,0-2.17,0-3.25,0-5.05,0-10.14.11-15.19,0-.5-.01-1.86-.34-2.89-.36-1.61-.04-3.47-.11-5.06,0-.18-.47-.69-.34-1.08-.36-.75-.04-2.1.43-1.81-.72,3.26-.32,6.48-.62,9.76-.72.4-.01.91.11,1.08-.36.71.05,1.45-.02,2.17,0,.05.54,1.03.54,1.08,0,10.69.13,21.49.21,32.18,0,.38.6,1.37.36,1.98.37,3.19.03,6.4,0,9.59,0Z"/>
  <path class="cls-4" d="M368.32,276.36c.93.55,4.89-.42,4.98,1.89-4.6.89-9.28.55-13.93.71-41.48,1.44-83.55.21-125.07,0-15.06-.08-30.04.78-45.03-.35-.11-.87,0-.58.5-.76,1.18-.43,5.16-.94,6.55-1.04,4.21-.28,8.76.12,13.03.01,46.81-1.16,93.83-.9,140.65-1.45,3.49-.04,15.09-1.23,17.64.06.51.26.53.83.69.92Z"/>
  <path class="cls-4" d="M267.73,301.4c-2.31-1.65-9.61-7.98-4.83-10.44,3.26-1.68,4.74,1.07,6.1,1.03,1.27-.04,3.45-3.28,6.53-1.46,4.28,2.52-2.12,8.17-3.64,10.15-.28.36-.7.46-.54,1.09,2.36-.06,5.23,0,6.43,2.43.4.82.37,2.07.78,2.74.31.5,1.63.94,2.14,1.93.45.85.99,4.26.38,4.81-.18.17-1.03-.13-1.36.07-.43.26-.68,4.55-.87,5.47-1.16,5.63-2.91,11.24-4.61,16.71.12.62,4.61.7,3.62,1.99-.28.37-4.41,1.05-5.23,1.11-2.14.15-9.62.28-11.25-.35-.41-.16-.79-.39-1.09-.72l-5.64-17.5c-.31-1.18-.62-5.32-.98-5.82-.39-.53-1.82.21-2.16-.8-.51-1.52.17-4.93,1.57-5.92.58-.42,1.66-.51,1.91-.8.31-.34.78-2.41,1.53-3.35.49-.61,1.08-1.13,1.8-1.45.63-.28,3.24-.9,3.8-.9h5.6ZM276.17,305.99c-.21-.45-.11-1.08-.29-1.35-.32-.47-4.76-.68-5.78-.72-2.21-.09-5.09-.16-7.26,0s-4.72.18-5.23,2.72l19.16.55c.37-1.02-.5-1-.59-1.19ZM279.3,311.52c.06-.53-.23-1.05-.56-1.42-1.18-1.29-7.97-.7-10.11-.73-.85-.01-1.65-.39-2.5-.39-3.63,0-7.58.43-11.21.75-1.66.78-2.01,2.45.35,2.55,2.76.12,6.86-.69,9.75-.77,4.76-.13,9.54.13,14.29.01ZM254.71,314.06l6.92,21.82c.6,1.34,4.78,1.72,5.74,1.14,1.22-.74,3.68-9.82,3.93-11.62.17-1.22.49-4.6.42-5.73-.15-2.18-1.83-5.02-4.2-5.22l-12.8-.39Z"/>
  <path class="cls-4" d="M372.57,262.01c.06.09.06.93,0,1.04-.49.79-13.42.67-15.36.73-45.1,1.4-90.78.34-135.92,0-11.29-.09-23.72.84-34.74.03-.81-.06-4.07-.47-2.2-1.14,5.11-1.83,14.96-.98,20.67-1.03,47.59-.37,95.48.36,143.18,0,6.77-.05,13.79-.88,20.61-.39.62.04,3.59.48,3.77.76Z"/>
  <path class="cls-4" d="M241.69,160.39c.48-7.93,11.57-10.03,10.81-.59-.19,2.38-4.77,13.6-6.7,14.27-3.03,1.05-12.41-5.03-14.41-7.53-4.02-5.01-.14-9.71,5.71-8.6,1.76.33,3.01,1.83,4.6,2.44Z"/>
  <path class="cls-4" d="M221.81,99.64c-1.09-2.9-1.09-7.38,2.17-8.86,5.03-2.29,7.48,4.01,7.92,7.99.17,1.56.47,7.95-.29,9.03-.69.99-7.78,2.54-9.25,2.68-12.95,1.19-12.59-12.08-.54-10.85Z"/>
  <path class="cls-4" d="M144.43,213.18c2.33-4.61,10.35-3.03,14.08-.88,6.38,3.69,10.46,17.12,12.84,24.04,5.79,16.81,9.77,34.04,16.76,50.49.69,1.63,5.32,9.99,4.41,10.96-.73.13-.96-.08-1.45-.53-1.37-1.26-3.56-6.24-4.33-8.14-.17-.42-.06-.93-.72-1.08-.5-2.86-3.25-7.92-4.35-11.01-5.84-16.35-9.59-34.08-16.08-50.08-2.43-5.98-4.72-11.82-11.38-13.75-4.36-1.26-5.64-.43-9.76,0Z"/>
  <path class="cls-4" d="M394.64,207.03c-1.78.15-3.82.18-5.56.41-7.07.93-10.14,1.24-17.38,1.03-22.5-.66-45.07-.92-67.64-1.05l-3.78-.92c2.14-.55,4.46-1.13,6.68-1.28,16.37-1.15,35.52.13,52.06.39,10.06.16,20.8-.23,30.76.33,1.27.07,4.11.2,4.87,1.1Z"/>
  <path class="cls-4" d="M122.02,209.56c-11.99-1.31-19.7,9.4-26.18,17.75-4.35,5.6-9.38,12.39-13.02,18.44-4.13,6.88-9.49,16.56-2.98,23.71.2.22,4.56,3.53,2.94,3.74-5.59.31-8.65-7.33-8.49-12.11.36-10.89,16.02-30.83,23.15-39.41,4.76-5.73,12.8-15.28,21.11-14.26.55.07,4.42,1.28,3.46,2.14Z"/>
  <path class="cls-4" d="M413.07,240.3c.36.37-.69,6.21-.89,7.24-1.56,8.19-7.49,24.22-7.43,31.27,0,1.06,2,4.83-.54,4.54l-9.94-12.85c1.67-1.62,3.58.53,4.69,1.8.35.4,2.69,4.39,3.26,3.79l8.32-29.28c-.94-.22-.63.28-.93.68-4.04,5.45-6.61,12.57-10.28,18.3-1.25.76-5.01-1.01-6.5-1.45-.87-.25-1.89-.28-2.73-.53-1.8-.53.95-1.13,1.82-1.13,2.32.02,3.45,1.49,5.61-.15,3.4-2.57,8.14-13.74,11.26-18.02.5-.68,2.61-3.48,3.03-3.84.46-.39.61-.48,1.25-.38ZM410.73,246.08v.36c.23-.12.23-.24,0-.36Z"/>
  <path class="cls-4" d="M409.82,160.75c.02.18.37.22.23,1.07-.27,1.64-2.75,5.62-3.49,7.78-5.83,17.02,3.08,34.75,22.79,29.66,2.21-.57,3.98-1.84,6.14-2.35.48.49-3.16,5.65-3.68,6.63-.57,1.07-1.41,2.52-1.82,3.6-.47,1.25-.2,3.93-1.75,2.98-.86-.53-.7-2.53-.71-3.45-.02-2.19,1.3-4.75-1.26-4.73-2.78.02-3.99.51-7.13-.08-7.07-1.32-11.94-4.94-14.75-11.46-.09-.22.03-.59-.36-.72,0-.93-.89-3.25-1.08-4.7-.04-.3,0-.63-.36-.72.16-2.32.16-5.63,0-7.95l.36-.72c.28-.34.23-3.44.37-4.09.06-.26.6-.25.68-.53.84-2.89,2.17-7.22,4.04-9.63.53-.69.98-.65,1.77-.58Z"/>
  <path class="cls-1" d="M207.71,327.43s-.37.4-.87.38c-1.71-.06-3.75-.72-5.63-.38.62-.99,2.21-.43,1.66-2.18-.79-2.51-6.21-2.34-8.36-2.17-.86.07-3.93.85-1.8,1.1,1.99.23,4.27-.02,6.19.68.36.13,1.14.28.5.76-.34.26-7.51.43-8.51.38-1.34-.07-4.85-.42-5.85-1.02-.91-.55-1.17-1.44-1.61-2.37-2.56-5.4-4.06-11.67-6.81-17.05.08-.39,4.12-1.3,4.49-1.21,1.43.33,4.97,13.74,6.51,15.51.73.53,6.58.48,8.25.79,2.04.37,6.21,1.74,7.68,3.16,1.05,1.01,1.35,3.1,3.07,2.89l-.36-2.53c.14.14.96.07,1.27.71.36.75.14,1.73.18,2.54Z"/>
  <path class="cls-1" d="M444.17,272.47c.25.23,2,.7,2.71,1.45,1.85,1.95.48,4.8-1.36,6.24-2.26,1.77-3.87.42-5.96,1.27-1.03.42-4.9,5.81-5.51,5.15-.49-2.7,3.49-5.05,3.97-6.69.26-.9-.94-.53-1.42-.34-2.89,1.17-3.45,4.6-4.79,6.78-.32.52-.49.81-1.19.62-1.16-.32.46-3.28.83-3.86s5.58-5.37,2.84-5.13c-1.29.11-4.82,4.53-5.37,5.85-.42,1-.41,3.58-1.71,2.77-.08-.05-.4-1.34-.4-1.62-.05-3.27,3.9-5.41,4-7.22.03-.53.05-.67-.55-.54-1.22.27-4.5,5.05-5.2,6.37-.31.6-1.48,4.74-2.18,2.42-.6-2.01,3.85-8.66,5.62-9.82,3.83-2.51,11.49.14,14.35-2.21.38-.31.18-.69.23-.75.31-.38.62-.57,1.08-.72Z"/>
  <path class="cls-4" d="M429.89,344.06c-1.88-.54.74-2.65,2.19-2.87,9.16-1.41,21.47-.3,31.09-.73,2.01-.09,5.6-1.27,7.32-.47.37.17,1.96,1.81,2.57,2.14.49,1.18-2.41,1.93-3.04,1.93h-40.13Z"/>
  <path class="cls-4" d="M245.67,271.03c.37-.01.8.03,1.45,0,.24-.01.48.01.72,0,.12,0,.35.02.72,0,.72-.05,1.45.03,2.17,0l.36.72c-2.14.36-5.12,1.1-6.68,2.56-15.24-.78-31.51,1.11-46.61-.44-.32-.03-2.83-.31-2.03-1.04.21-.19,3.97-.98,4.57-1.04,2.2-.21,3.97-.03,6.28-.41.68,1.02,2.09.03,2.53,0,9.48-.71,20.33.13,30.01,0,1.68-.02,3.38.04,5.06,0,.42-.01.98-.34,1.45-.36Z"/>
  <path class="cls-4" d="M85.5,198.17c.21-.67,1.81-.82,2.35-.18,1.13,1.35,1.57,6.78,2.34,8.87,1.15,3.15,3.51,4.25,6.75,4.46,1.97.13,5.12-1.25,5.22,1.31.03.79-.13.42-.53.58-2.39,1-10.59.96-13.43.7-.67-.06-2.69-.55-2.69-1.28v-14.46Z"/>
  <path class="cls-4" d="M465.14,196.55c.22.02,1.33.28,1.81.36.99.17,1.88-.19,2.16,1.28.48,2.51-.17,6.75.01,9.57-.58.3-.35,1.23-.36,1.81-.01.91.36,3.25-.59,3.57-1.78.58-6-.32-8.08.05.06-.47-.04-.97,0-1.45,1.75-.3,3.97.03,4.98-2.07s.97-7.13.44-9.5c-.21-.93.24-1.25-1.08-1.45-3.39-.51-9.31,0-13.02,0h-3.25c-.15-.09-.99.2-1.1-.18-.47-1.67.38-1.09,1.1-1.27.37-.09,1.03-.36,1.08-.36.71-.07,1.46.06,2.17,0,1-.09,2.52-.33,3.25-.36,3.12-.14,7.42-.25,10.49,0Z"/>
  <path class="cls-4" d="M125.99,210.65c.79.84,1.5,2.19,2.7,3.26,5.81,5.18,14.51,7.19,21.13,2.31.77-.57,1.54-1.76,2.2-2.14s1.26-.46,1.08.54c-.12.11-.3,2.14-1.08,3.08-7.17,8.65-22.22,3.6-27.43-4.76-.72-1.15-1.37-1.97-.78-3.38.49-.35,1.81.71,2.17,1.08Z"/>
  <path class="cls-4" d="M419.59,216.79c2.1.83,2.18,3.29,4.92,3.59,3.85.42,11.04-4.43,14.21-6.69.95-.68,2.32-2.57,3.49-2.69,1.45-.14,1.48.82.72,1.83-2.19,2.91-11.79,9.2-15.31,10-4.57,1.04-8.69-.83-8.03-6.04Z"/>
  <path class="cls-1" d="M328.47,345.15c.2,1.09-.55.7-1.25.72-16.2.64-34.78.54-51.01,0-.7-.02-1.45.37-1.25-.72,17.83.01,35.68.09,53.51,0Z"/>
  <path class="cls-1" d="M294.84,341.89c.57-.54,1.29-.36,1.97-.37,13.73-.32,28.64-.45,42.33.01.7.02,1.45-.37,1.25.72-15.18.02-30.48-.23-45.56-.36Z"/>
  <path class="cls-1" d="M218.92,340.45c.06,0,.56-.39,1.22-.39,4.43-.02,8.82.19,13.24.39-.11,2.13-3.47.23-4.34,1.8,3.79.24,7.88-.47,11.57.37-.05,0-.09.36-.88.38-6.57.11-13.16-.11-19.73-.02-.08-.94-.05-.6.54-.71,1.24-.23,2.82-.55,4.02-.69,1.3-.15,2.71.11,3.94-.04.5-.06,1.13-.27.53-.72-3.3-.23-6.93.47-10.12-.36Z"/>
  <path class="cls-1" d="M237.36,329.6c.2,1.09-.55.7-1.25.72-11.28.45-24.17.38-35.47,0-.7-.02-1.45.37-1.25-.72,12.64.06,25.32.1,37.96,0Z"/>
  <path class="cls-4" d="M95.62,196.55c.6,0,1.21,0,1.81,0,.84.01,1.69-.03,2.53,0,.23,0,.68,0,.72,0,.56.04,1.63-.19,2.02.34,1.73,2.4-3.86,1.87-4.91,1.83-1.11-.04-2.66-.32-3.98-.36-1.56-.05-3.14.04-4.7,0-.69-2.75,4.5-1.79,6.51-1.81Z"/>
  <path class="cls-4" d="M397.53,268.13c-.61.51-7.78-.69-9.21-.74-1.18-.04-4.55,1.03-4.55-.52,0-3.2,10.98-.7,12.88.16.55.25,1.01.37.88,1.11Z"/>
  <path class="cls-1" d="M287.98,342.26c-10.6.49-21.32-.08-31.82,0h31.82Z"/>
  <path class="cls-1" d="M187.46,329.6c-.57.54-1.29.36-1.97.37-7.64.18-15.91.24-23.53-.01-.7-.02-1.45.37-1.25-.72,8.77-.59,18.1.3,26.76.36Z"/>
  <path class="cls-1" d="M234.83,327.43c-8.21.18-16.4.2-24.59,0h24.59Z"/>
  <path class="cls-4" d="M139.26,228.43c3.54-1.09,4.28,4.39.32,3.9-2.61-.33-1.78-3.45-.32-3.9Z"/>
  <path class="cls-1" d="M202.28,345.15c-.57.54-1.29.36-1.97.37-5.29.12-11.02.17-16.3-.01-.7-.02-1.45.37-1.25-.72,6.49,0,13.19.34,19.52.36Z"/>
  <path class="cls-4" d="M140.72,235.65c2.69-.41,3.15,3.92.62,4.29s-3.13-3.91-.62-4.29Z"/>
  <path class="cls-1" d="M364.27,345.15c-5.29.35-10.71.48-16.1.37-.69-.01-1.41.17-1.97-.37,5.26-.08,10.7-.43,16.09-.37.61,0,1.61-.23,1.98.37Z"/>
  <path class="cls-1" d="M355.23,342.26c.57-.54,1.29-.36,1.97-.37,4.24-.1,8.82-.13,13.05.01.7.02,1.45-.37,1.25.72-5.44,0-10.97-.25-16.27-.36Z"/>
  <path class="cls-1" d="M184.57,339.72c3.44-.04,7.08-.48,10.68-.36.7.02,1.45-.37,1.25.72-3.31-.05-6.63.05-9.95,0-.61,0-1.61.23-1.98-.37Z"/>
  <path class="cls-1" d="M471.29,326.35c-4.47.44-7.05.55-11.57.36l7.4-.74,4.17.38Z"/>
  <path class="cls-1" d="M209.52,211.37c3.31-.07,6.83-.48,10.32-.36.7.02,1.45-.37,1.25.72-3.19,0-6.39.04-9.59,0-.61,0-1.61.23-1.98-.37Z"/>
  <path class="cls-1" d="M418.14,422.16c-3.35.6-7.5.6-10.85,0,3.52-.02,7.36-.04,10.85,0Z"/>
  <path class="cls-1" d="M158.54,339c-3.51,0-7.35.05-10.85,0,3.35-.6,7.5-.6,10.85,0Z"/>
  <path class="cls-1" d="M215.3,345.15c-3.22.61-7.26.61-10.49,0,3.34.01,7.17-.01,10.49,0Z"/>
  <path class="cls-1" d="M400.78,404.44c-.06,3.25.04,6.51,0,9.76-1.1.2-.7-.55-.72-1.25-.09-2.33-.08-4.93,0-7.26.02-.7-.37-1.45.72-1.25Z"/>
  <path class="cls-1" d="M379.45,344.42c.2,1.1-.55.7-1.25.72-2.89.11-5.82-.32-8.51-.36.38-.6,1.37-.36,1.98-.37,2.59-.03,5.19.01,7.78,0Z"/>
  <path class="cls-1" d="M135.4,386.37c-1.1.2-.7-.55-.72-1.25-.1-2.56-.23-5.7.36-8.15.08,3.01.44,6.22.36,9.4Z"/>
  <path class="cls-1" d="M177.7,339.36c-2.45.57-5.6.48-8.16.38-.81-.03-1.18-.38-1.24-.38,2.42-.53,5.67-.53,8.18-.39.63.04,1.16.38,1.22.39Z"/>
  <path class="cls-1" d="M147.69,374.43c.61,2.34.44,5.33.36,7.79-.02.7.37,1.45-.72,1.25.04-3.04.26-6.14.36-9.04Z"/>
  <path class="cls-1" d="M419.95,134.36c-3.5.31-6.49,1.81-9.76,2.53-.22-.98.53-.67,1.06-.91,2.4-1.07,6.13-2.42,8.7-1.62Z"/>
  <path class="cls-1" d="M212.05,340.09c-2.2.59-5.11.46-7.44.38-.82-.03-1.18-.38-1.24-.38,2.16-.54,5.19-.52,7.46-.39.62.04,1.16.38,1.22.39Z"/>
  <path class="cls-1" d="M124.91,354.91c1.1-.2.7.55.72,1.25.09,2.2.24,4.99-.36,7.07-.02-2.56-.34-5.57-.36-8.32Z"/>
  <path class="cls-1" d="M393.55,350.93c-.98.21-.69-.5-.9-1.07-.93-2.63-1.41-5.21-2-7.6,1.02,2.72,2.24,5.87,2.89,8.68Z"/>
  <path class="cls-1" d="M456.1,328.88c-.25,1.53-.33,1.54-1.81,1.45l-2.53-1.81c1.45-.34,3.07.31,4.34.36Z"/>
  <path class="cls-1" d="M247.84,327.07c-2.19.11-4.55.28-6.87.36-.2-1.09.55-.7,1.25-.72,1.73-.07,4.03-.25,5.62.36Z"/>
  <path class="cls-1" d="M431.88,393.6c-1.9,1.31-3.07,1.46-5.01,2.42-.69.34-.99-.1-.78,1.2-.06-.08-1.52-.02-.67-1.4.18-.29,5.58-1.94,6.46-2.22Z"/>
  <path class="cls-1" d="M127.44,338.64c1.48-.62,3.63-.42,5.26-.36.7.02,1.45-.37,1.25.72-2.28-.03-4.34-.17-6.51-.36Z"/>
  <path class="cls-1" d="M433.32,422.16c-.14.02-.58.33-1.22.39-1.39.13-3.62.16-4.92-.39.06,0,.44-.34,1.24-.38,1.45-.07,3.58-.21,4.9.38Z"/>
  <path class="cls-1" d="M144.43,417.46c-1.27.63-3.13.41-4.54.36-.7-.02-1.45.37-1.25-.72,2.04-.13,3.92.24,5.79.36Z"/>
  <path class="cls-1" d="M399.34,148.82c.05,2.44-.02,3.86,1.08,6.15-1.05.14-1.67-2.77-1.78-3.46-.08-.49-.5-3.02.69-2.68Z"/>
  <path class="cls-1" d="M125.27,375.52c.62,1.16.41,2.88.36,4.17-.03.7.37,1.45-.72,1.25,0-1.87.34-3.89.36-5.42Z"/>
  <path class="cls-1" d="M239.16,271.39c-.2-1.09.55-.7,1.25-.72.84-.03,1.72-.03,2.56,0,.7.03,1.45-.37,1.25.72-1.68.04-3.38-.02-5.06,0Z"/>
  <path class="cls-1" d="M399.34,369.01c.89-.19.77.42.99.98.58,1.45,1.04,2.97,1.54,4.44-.96.21-.69-.5-.92-1.05-.6-1.45-1.2-2.85-1.61-4.37Z"/>
  <path class="cls-1" d="M229.76,214.62c-.55.51-4.86.51-5.06.36-.06-.04.03-.52,0-.72,1.7.02,3.73.35,5.06.36Z"/>
  <path class="cls-1" d="M466.23,328.88c.2,1.1-.55.7-1.25.72s-1.48.03-2.2,0-1.45.37-1.25-.72c1.56.01,3.14,0,4.7,0Z"/>
  <path class="cls-1" d="M148.05,350.21c1.1-.2.7.55.72,1.25s.03,1.48,0,2.2.37,1.45-.72,1.25c-.01-1.56-.03-3.14,0-4.7Z"/>
  <path class="cls-1" d="M130.33,344.79c-.51.51-4.51.5-4.7.36-.06-.04.03-.52,0-.72,1.78-.09,3.13.17,4.7.36Z"/>
  <path class="cls-1" d="M401.14,390.34c-.56-.79-.45-2.14-.39-3.12.04-.65.37-1.09.39-1.22.63.9.42,2.69.35,3.8-.04.58-.35.5-.35.54Z"/>
  <path class="cls-1" d="M449.23,144.12l.25.29c.92.21,1.8-.34,1.56.79-1.2,0-2.41,0-3.61,0-.12-1.41,1.23-.89,1.81-1.08Z"/>
  <path class="cls-1" d="M141.54,330.69c.63-.02,3.82-.12,3.98,0,.06.04-.03.52,0,.72-.72-.04-3.82.12-3.98,0-.06-.04.03-.52,0-.72Z"/>
  <path class="cls-1" d="M97.79,198.71c-.44.52-3.82.48-3.98.36-.06-.04.03-.52,0-.72,1.31.05,2.87.32,3.98.36Z"/>
  <path class="cls-1" d="M147.33,403.36c1.22-.39.88,2.73.36,3.62-.04-.93-.33-2.3-.36-3.62Z"/>
  <path class="cls-1" d="M133.59,350.57c-.17-1.06-.93-2.46,0-3.62.29,1.1.85,2.62,0,3.62Z"/>
  <path class="cls-1" d="M268.45,214.62c.28-.54,3.47-.47,3.62-.36.08.06-.05.52,0,.72-.9-.06-1.84.1-2.74.01-.46-.04-.83-.37-.88-.38Z"/>
  <path class="cls-1" d="M135.03,370.82c-1.22.39-.88-2.73-.36-3.62.03.84.32,2.37.36,3.62Z"/>
  <path class="cls-1" d="M268.81,240.29c-.5-1.12,3.22-1.31,3.57-1.02.17.13,0,.61.05.66-1.25-.06-2.42-.04-3.62.36Z"/>
  <path class="cls-1" d="M465.5,161.84c1.56-.21.48,2.35.36,3.25-.63-.7-.39-2.26-.36-3.25Z"/>
  <path class="cls-1" d="M428.62,135.08c.05,0,.18-.32.71-.23.61.11,3.28.99,2.9,1.67-1.07-.48-2.64-.58-3.62-1.45Z"/>
  <path class="cls-1" d="M451.4,198.71c.68,1.11-2.95.84-3.18.63-.16-.15-.04-.61-.07-.63h3.25Z"/>
  <path class="cls-1" d="M127.8,329.24c-.85.53-3.65.84-3.25-.36,1.29-.05,2.5.34,3.25.36Z"/>
  <path class="cls-1" d="M249.65,329.24c.39,1.2-2.41.89-3.25.36.66-.01,2.07-.35,3.25-.36Z"/>
  <path class="cls-1" d="M401.14,393.96c-.06,1.09-.34,2.57-.36,3.25-.53-.85-.84-3.65.36-3.25Z"/>
  <path class="cls-1" d="M454.66,196.55c-.73.03-2.25.27-3.25.36-.43-1.17,2.52-.93,3.25-.36Z"/>
  <path class="cls-1" d="M192.52,213.9c.54,1.01-2.29.9-3.03.73-.42-.1-.19-.4-.23-.73,1.08,0,2.17,0,3.25,0Z"/>
  <path class="cls-1" d="M460.08,211.73c-.04.47.06.98,0,1.45-.03.2-.29.49-.36.72-.34-.43-.86-1.18-1.08-1.45.45-.37.85-.62,1.45-.72Z"/>
  <path class="cls-1" d="M147.69,410.95c1.15-.43.94,2.2.36,2.89-.35-1.27-.29-1.61-.36-2.89Z"/>
  <path class="cls-1" d="M433.32,387.81c.2.03.68-.06.72,0,.1.14.37,3.5-.72,2.9-.03-.96-.01-1.93,0-2.89Z"/>
  <path class="cls-1" d="M174.08,213.9c-.82.54-3.28.83-2.89-.36,1.04.03,2.4.35,2.89.36Z"/>
  <path class="cls-1" d="M240.97,329.6c-.03.2.06.68,0,.72-.14.1-3.5.37-2.9-.72.96,0,1.93.01,2.89,0Z"/>
  <path class="cls-1" d="M473.1,283.32c.13.83,1.18,3.12-.36,2.89-.03-.88-.26-2.31.36-2.89Z"/>
  <path class="cls-1" d="M451.76,145.2s.24-.37.79-.31c.59.06,2.9.68,2.46,1.39-1.06-.31-2.32-.51-3.25-1.08Z"/>
  <path class="cls-1" d="M149.86,331.41c-1.51.2-1.46.02-2.53,0,.46-.6,2.07-.6,2.53,0Z"/>
  <path class="cls-1" d="M432.6,379.13c1.12-.41.96,1.87.36,2.53-.2-.97-.4-1.28-.36-2.53Z"/>
  <path class="cls-1" d="M134.67,361.42c-1.59.27-.4-1.89-.36-2.53.63.49.35,1.74.36,2.53Z"/>
  <path class="cls-1" d="M209.15,271.39c-.44.03-1.85,1.02-2.53,0,.57-.09,1.81-.99,2.53,0Z"/>
  <path class="cls-1" d="M148.05,364.31c-.6-.46-.6-2.07,0-2.53.03,1.09.25.92,0,2.53Z"/>
  <path class="cls-1" d="M385.6,344.42c-1.62.26-1.44.03-2.53,0,.46-.6,2.07-.6,2.53,0Z"/>
  <path class="cls-1" d="M399.34,420.71v1.08c-.42-.04-1.82.18-1.81-.18.02-1.16,1.17-.77,1.81-.9Z"/>
  <path class="cls-1" d="M446.7,142.67c.26,1.03-1.7,1.02-2.53,1.45.03-.03-.13-.48.23-.75.33-.24,1.8-.62,2.3-.7Z"/>
  <path class="cls-1" d="M424.65,328.52c-.05-.07-1.52-.26-.72-1.08.1-.1,2.8-.31,2.17.72-1.05-.04-1.63-.85-1.45.36Z"/>
  <path class="cls-1" d="M424.65,331.05c1.28-.33.72,1.8.72,2.53-.72-.66-.65-1.66-.72-2.53Z"/>
  <path class="cls-1" d="M134.31,355.63c-1.09.39-.97-1.53-.36-2.17.09.68.33,1.14.36,2.17Z"/>
  <path class="cls-1" d="M344.02,345.15c-1.16.1-1.38,0-2.17,0,.34-.58,1.81-.59,2.17,0Z"/>
  <path class="cls-1" d="M149.86,417.1c.25,1.58-1.54.4-2.17.36.38-.58,1.5-.39,2.17-.36Z"/>
  <path class="cls-1" d="M251.1,271.75l-.36-.72c.09,0,1.2-.87,1.44.19.28,1.25-1,.52-1.08.54Z"/>
  <path class="cls-1" d="M135.76,390.34c-1.58.25-.4-1.54-.36-2.17.61.39.35,1.49.36,2.17Z"/>
  <path class="cls-1" d="M433.32,385.28c-.58-.34-.59-1.81,0-2.17.41,1.65.01,1.34,0,2.17Z"/>
  <path class="cls-1" d="M385.24,342.62c.62-.04,2.42-1.22,2.17.36-.68-.01-1.77.25-2.17-.36Z"/>
  <path class="cls-1" d="M124.55,386c0-.68-.24-1.78.36-2.17.02.4,1.1,1.64-.36,2.17Z"/>
  <path class="cls-1" d="M388.49,333.58c-1.42.13-.8-1.54-.72-2.17.42.49.69,1.55.72,2.17Z"/>
  <path class="cls-1" d="M389.21,336.47c-1.52.23-.7-1.94-.72-2.17.51.55.56,1.45.72,2.17Z"/>
  <path class="cls-1" d="M464.78,170.51c.08.63.7,2.3-.72,2.17.12-.7.24-1.63.72-2.17Z"/>
  <path class="cls-1" d="M404.76,140.14c.06,1.25-.98,1.12-1.45,1.45.05-1.24.78-1.1,1.45-1.45Z"/>
  <path class="cls-1" d="M449.59,142.31c-.31.6-1.23.32-1.81.36-.22-1.56,1.26-.4,1.81-.36Z"/>
  <path class="cls-1" d="M95.62,196.55c-.36-1.18,2.27-1.07,1.81,0-.6,0-1.21,0-1.81,0Z"/>
  <path class="cls-1" d="M465.14,196.55c.61-.63,2.16-.69,1.81.36-.47-.08-1.59-.34-1.81-.36Z"/>
  <path class="cls-1" d="M473.82,337.19c0-.63-.05-.93,0-1.81.57.24.57,1.57,0,1.81Z"/>
  <path class="cls-1" d="M197.22,213.9c.46,1.07-2.17,1.18-1.81,0,.6,0,1.21,0,1.81,0Z"/>
  <path class="cls-1" d="M390.66,341.53c-.97.24-1.32-1.22-.72-1.81.08.35.63.94.72,1.81Z"/>
  <path class="cls-1" d="M469.12,207.75c.03.55,1.2,2.03-.36,1.81,0-.58-.21-1.5.36-1.81Z"/>
  <path class="cls-1" d="M254.71,328.88c.22,1.56-1.26.4-1.81.36.31-.61,1.24-.31,1.81-.36Z"/>
  <path class="cls-1" d="M251.82,327.07c.55-.03,2.03-1.2,1.81.36-.55-.08-1.49.27-1.81-.36Z"/>
  <path class="cls-1" d="M136.48,404.08c-.2-1.3,0-1.09,0-1.81.57.24.57,1.57,0,1.81Z"/>
  <path class="cls-1" d="M400.06,146.29c-.13.64-.2,1.34-.72,1.81,0-.51-.63-2.03.72-1.81Z"/>
  <path class="cls-1" d="M174.44,169.79c1.19-.33.96,1.46,0,1.81,0-.59.05-1.22,0-1.81Z"/>
  <path class="cls-1" d="M470.56,297.78c-.2.82-.14,2.09-1.08,1.81.15-.8.18-2.1,1.08-1.81Z"/>
  <path class="cls-1" d="M452.85,142.31c.24.01.48-.01.72,0,.08,1.97-.65,1.09-1.08,1.08l.36-1.08Z"/>
  <path class="cls-1" d="M394.64,354.55c-1.39.29-.68-1.52-.72-1.81.56.47.54,1.18.72,1.81Z"/>
  <path class="cls-1" d="M396.44,361.06c.98-.28.84.98,1.08,1.81-.94.28-.88-.99-1.08-1.81Z"/>
  <path class="cls-1" d="M388.85,342.98c.63.03,1.07-.03.72.9-.38,1.01-1.01.19-1.08.18l.36-1.08Z"/>
  <path class="cls-1" d="M465.5,200.16c-.94.22-.89-.71-1.08-1.45,1.33.2.88.52,1.08,1.45Z"/>
  <path class="cls-1" d="M471.65,277.9c1.35-.22.71,1.3.72,1.81-.56-.47-.54-1.18-.72-1.81Z"/>
  <path class="cls-1" d="M430.07,361.42c1.53-.19.39,1.01.36,1.45-.5-.23-.4-.99-.36-1.45Z"/>
  <path class="cls-1" d="M431.52,371.54c1.53-.19.39,1.01.36,1.45-.53-.25-.36-.97-.36-1.45Z"/>
  <path class="cls-1" d="M448.87,329.6c-.45.03-1.64,1.16-1.45-.36.48.01,1.19-.18,1.45.36Z"/>
  <path class="cls-1" d="M429.35,357.08c1.51-.18.42.94.36,1.45-.52-.24-.39-.98-.36-1.45Z"/>
  <path class="cls-1" d="M453.21,187.51c.22.91-.7.93-1.45,1.08-.24-1.05.8-.79,1.45-1.08Z"/>
  <path class="cls-1" d="M431.88,374.07c1.52-.19.39,1,.36,1.45-.52-.24-.38-.98-.36-1.45Z"/>
  <path class="cls-1" d="M451.76,329.96c-.62.69-1.75.61-1.45-.36.8.02,1.22.34,1.45.36Z"/>
  <path class="cls-1" d="M124.91,348.04c-.54-.12-.56-1.3,0-1.45.03.69,0,.85,0,1.45Z"/>
  <path class="cls-1" d="M466.95,306.46c-.26.7-.08,1.67-1.08,1.45.29-.66.04-1.68,1.08-1.45Z"/>
  <path class="cls-1" d="M445.26,329.24c-.44.03-1.64,1.16-1.45-.36.48.01,1.19-.18,1.45.36Z"/>
  <path class="cls-1" d="M424.65,134.36c.62-.69,1.75-.61,1.45.36-.73-.03-1.34-.36-1.45-.36Z"/>
  <path class="cls-1" d="M136.12,394.68c-1.53.19-.39-1.01-.36-1.45.54.25.35.97.36,1.45Z"/>
  <path class="cls-1" d="M451.76,143.4c.3.97-.82,1.05-1.45.36.43-.09.64-.3,1.45-.36Z"/>
  <path class="cls-1" d="M474.18,340.81c.2.09.78-.06,1.08,0-.14.53-.12,1.12-.9,1.09-.42-.02-.05-.91-.18-1.09-.04-.05-.51.1-.67-.06-.32-.31.31-.63.31-.66.26.12.32.71.36.72Z"/>
  <path class="cls-1" d="M438.02,328.52c-.44.03-1.64,1.17-1.45-.36.48.01,1.2-.18,1.45.36Z"/>
  <path class="cls-1" d="M136.48,399.38c-1.53.19-.39-1.01-.36-1.45.54.25.35.97.36,1.45Z"/>
  <path class="cls-1" d="M426.45,340.09c1.49-.17.44.9.36,1.45-.52-.24-.39-.98-.36-1.45Z"/>
  <path class="cls-1" d="M247.12,271.03c-.65.03-1.08-.01-1.45,0,.15-.56,1.33-.54,1.45,0Z"/>
  <path class="cls-1" d="M401.14,418.91c-1.53.19-.39-1.01-.36-1.45.52.24.38.98.36,1.45Z"/>
  <path class="cls-1" d="M430.43,363.95c1.49-.17.44.9.36,1.45-.52-.24-.38-.98-.36-1.45Z"/>
  <path class="cls-1" d="M402.23,421.8c-.3-.01-.73.05-1.45,0,.21-.61,1.1-.45,1.45,0Z"/>
  <path class="cls-1" d="M438.02,421.44c.3.97-.82,1.05-1.45.36.34-.06.81-.26,1.45-.36Z"/>
  <path class="cls-1" d="M432.24,376.97c1.52-.19.4,1,.36,1.45-.53-.25-.37-.97-.36-1.45Z"/>
  <path class="cls-1" d="M190.35,318.03l-.2.35c-.6.1-1.06-.12-1.25-.71.62-.27,1.12.29,1.45.36Z"/>
  <path class="cls-1" d="M439.83,420.35c.16,0,1.02-.92,1.08.72-.22.05-.56-.06-.72,0l-.36-.72Z"/>
  <path class="cls-1" d="M186.74,289.11c-1.69-.14-.71-1-.72-1.08.67.15.55.66.72,1.08Z"/>
  <path class="cls-1" d="M450.68,188.59c-.04,1.15-1.28,1.68-1.08.36.26-.04.69-.27,1.08-.36Z"/>
  <path class="cls-1" d="M472.01,329.24l-1.45-.36c.44,0,.34-.95,1.45.36Z"/>
  <path class="cls-1" d="M438.02,140.5c-.72.03-1.11-.35-1.08-1.08,1.14.75.61.57,1.08,1.08Z"/>
  <path class="cls-1" d="M425.37,334.66c1.44-.16.43.65.36,1.08-.46-.17-.36-.69-.36-1.08Z"/>
  <path class="cls-1" d="M473.82,338.28c0,.36.01.73,0,1.08-1.08.32-1.15-1.37,0-1.08Z"/>
  <path class="cls-1" d="M125.63,338.64c.17,1.08-1.01,1.26-1.08,0h1.08Z"/>
  <path class="cls-1" d="M123.46,328.88l-.36,1.08c-.06-.2-.61-.49-.36-1.08.24-.01.48.01.72,0Z"/>
  <path class="cls-1" d="M472.37,280.43c1.47-.19.37.8.36,1.08-.45-.17-.37-.69-.36-1.08Z"/>
  <path class="cls-1" d="M465.5,166.9c.01.29,1.11,1.27-.36,1.08.01-.4-.11-.91.36-1.08Z"/>
  <path class="cls-1" d="M473.1,326.35c.11-.01.57-.59,1.08-.36.05.23-.06.54,0,.72l-1.08-.36Z"/>
  <path class="cls-1" d="M132.86,344.79c.97-.17.74.23.72,1.08-.07-.08-.65.09-.72,0-.11-.13.1-.99,0-1.09Z"/>
  <path class="cls-1" d="M427.54,346.96c1.45-.17.41.7.36,1.08-.47-.17-.35-.69-.36-1.08Z"/>
  <path class="cls-1" d="M385.24,323.45c-.17-1.08,1.02-1.26,1.08,0-.36,0-.72,0-1.08,0Z"/>
  <path class="cls-1" d="M428.62,353.1c1.45-.17.42.69.36,1.08-.45-.17-.37-.69-.36-1.08Z"/>
  <path class="cls-1" d="M429.71,359.61c1.45-.16.42.69.36,1.08-.46-.17-.37-.69-.36-1.08Z"/>
  <path class="cls-1" d="M472.73,288.02c.02.31,1.11,1.27-.36,1.08.01-.4-.11-.91.36-1.08Z"/>
  <path class="cls-1" d="M137.2,408.78c-1.47.18-.38-.78-.36-1.08.47.17.35.69.36,1.08Z"/>
  <path class="cls-1" d="M427.9,348.76c1.46-.17.4.74.36,1.08-.44-.17-.39-.7-.36-1.08Z"/>
  <path class="cls-1" d="M152.39,415.29c.24.01.48-.02.72,0,.31,1.52-.56.93-.72,1.08v-1.08Z"/>
  <path class="cls-1" d="M137.93,416.38c.03.23-.02.49,0,.72-.04,0-.22.53-.72.36-.03-.86-.24-1.24.72-1.08Z"/>
  <path class="cls-1" d="M449.23,196.91c-.06,0-.72.27-1.08.36-.12-.86.05-.8.9-.72l.18.36Z"/>
  <path class="cls-1" d="M447.79,204.5c.05,0,.39-.46.86-.4.42.05.17.7.23.76l-1.08-.36Z"/>
  <path class="cls-1" d="M174.08,211.37c-.17.47-.69.35-1.08.36-.18-1.47.77-.38,1.08-.36Z"/>
  <path class="cls-1" d="M438.02,420.35c-.32-1.08,1.37-1.15,1.08,0-.36,0-.73.01-1.08,0Z"/>
  <path class="cls-1" d="M177.34,211.37c-.05.54-1.03.54-1.08,0,.26,0,.8,0,1.08,0Z"/>
  <path class="cls-1" d="M166.13,213.54c-.3.02-1.27,1.11-1.08-.36.4.02.91-.11,1.08.36Z"/>
  <path class="cls-1" d="M200.84,214.26c-.3.02-1.27,1.11-1.08-.36.4.02.91-.11,1.08.36Z"/>
  <path class="cls-1" d="M274.6,220.77c.04.05.28.14.72.72h-1.44s0-.36,0-.36l.72-.37Z"/>
  <path class="cls-1" d="M473.1,332.13c.97-.17.74.23.72,1.08-.25-.35-.43.84-.72-1.08Z"/>
  <path class="cls-1" d="M267.73,241.02c-.04.42-.63.58-.72.72v-1.08c.36-.13.66.35.72.36Z"/>
  <path class="cls-1" d="M178.42,159.67c-.09.09.31,1.08-1.08.72.12-.53.57-.72,1.08-.72Z"/>
  <path class="cls-1" d="M401.51,380.94c0-.07-.87-.72.36-1.08l-.36,1.08Z"/>
  <path class="cls-1" d="M147.69,346.96c.04.06.51-.04.72,0,.14.38-.36.68-.36.72l-.36-.72Z"/>
  <path class="cls-1" d="M194.33,318.39s.34-.51.72-.36c.04.21-.05.68,0,.72l-.72-.36Z"/>
  <path class="cls-1" d="M387.41,329.24c-.1-.08-.64.08-.72,0-.23-.24.36-.68.36-.72l.36.72Z"/>
  <path class="cls-1" d="M428.26,351.29c.05.06.51-.04.72,0,.15.39-.36.68-.36.72l-.36-.72Z"/>
  <path class="cls-1" d="M475.26,329.6c.06.06.52-.11.7.05.26.24-.34.64-.33.67l-.36-.72Z"/>
  <path class="cls-1" d="M387.04,327.43c-.06-.06-.51.04-.72,0-.14-.37.36-.68.36-.72l.36.72Z"/>
  <path class="cls-1" d="M424.65,330.32l-.36-.18.36-.54c.1.63,0,.65,0,.72Z"/>
  <path class="cls-1" d="M469.48,300.68c-.18,1.34-.45.48-.72.72-.09-.77-.05-.81.72-.72Z"/>
  <path class="cls-1" d="M428.98,355.27c.06.06.51-.04.72,0,.15.39-.36.68-.36.72l-.36-.72Z"/>
  <path class="cls-1" d="M158.54,329.6c-.25.34.58.58-.72.72-.11-.73,0-.83.72-.72Z"/>
  <path class="cls-1" d="M395.36,358.16c.76-.09.82-.04.72.72-.24-.24-.55.62-.72-.72Z"/>
  <path class="cls-1" d="M426.82,342.62c.06.06.51-.04.72,0,.13.34-.36.66-.36.72l-.36-.72Z"/>
  <path class="cls-1" d="M260.5,240.66l-.72.36c.08-.09-.1-.62,0-.72.25-.25.68.36.72.36Z"/>
  <path class="cls-1" d="M443.45,203.05c.06.08.63-.09.72,0s-.08.65,0,.72c-.76.09-.81.04-.72-.72Z"/>
  <path class="cls-1" d="M177.34,162.56c0,.1,1.09.83-.36.72.09-.25-.02-.59.36-.72Z"/>
  <path class="cls-1" d="M398.25,366.12c.73-.11.83,0,.72.72-.36-.27-.51.59-.72-.72Z"/>
  <path class="cls-1" d="M430.79,366.48c.06.06.51-.04.72,0,.14.38-.36.67-.36.72l-.36-.72Z"/>
  <path class="cls-1" d="M100.69,196.55s-.49,0-.72,0l.54-.36.18.36Z"/>
  <path class="cls-1" d="M404.4,190.4c-1.45.15-.36-.59-.36-.72.39.13.27.51.36.72Z"/>
  <path class="cls-1" d="M431.52,370.1l-.36-.18.36-.54c.02.32,0,.67,0,.72Z"/>
  <path class="cls-1" d="M445.26,189.31s-.36.5-.72.36c-.13-.83.14-1.01.72-.36Z"/>
  <path class="cls-1" d="M402.95,184.98c-1.43.14-.37-.56-.36-.72.36.09.32.42.36.72Z"/>
  <path class="cls-1" d="M472.01,292s.51.33.36.72c-.21.04-.68-.05-.72,0l.36-.72Z"/>
  <path class="cls-1" d="M472.37,290.19s.51.33.36.72c-.21.04-.66-.06-.72,0l.36-.72Z"/>
  <path class="cls-1" d="M442,328.88s-.34.5-.72.36c-.04-.21.06-.68,0-.72l.72.36Z"/>
  <path class="cls-1" d="M402.95,175.57l-.36.72s-.5-.34-.36-.72c.21-.04.67.06.72,0Z"/>
  <path class="cls-1" d="M402.95,378.05c.74-.11.83-.01.72.72-.35-.28-.44.61-.72-.72Z"/>
  <path class="cls-1" d="M464.06,173.77c-.18,1.32-.41.47-.72.72-.11-.74-.01-.83.72-.72Z"/>
  <path class="cls-1" d="M465.14,169.07s.59.48.36.72c-.08.08-.63-.08-.72,0l.36-.72Z"/>
  <path class="cls-1" d="M465.14,160.03c.04.06.51-.04.72,0,.15.39-.36.68-.36.72l-.36-.72Z"/>
  <path class="cls-1" d="M464.42,157.13c.21.24.59-.61.72.72-.77.09-.81.04-.72-.72Z"/>
  <path class="cls-1" d="M387.77,330.69c-.1-.08-.64.08-.72,0-.24-.25.35-.68.36-.72l.36.72Z"/>
  <path class="cls-1" d="M463.69,155.33c.34.27.48-.6.72.72-.74.1-.83.02-.72-.72Z"/>
  <path class="cls-1" d="M433.32,391.79s.62.46.36.72c-.11.11-.63-.07-.72,0l.36-.72Z"/>
  <path class="cls-1" d="M468.76,302.12c-.21,1.36-.49.47-.72.72-.09-.76-.04-.81.72-.72Z"/>
  <path class="cls-1" d="M456.46,146.65c1.39.39.43.48.72.72-.69.12-.84-.03-.72-.72Z"/>
  <path class="cls-1" d="M400.78,144.84c.09.77.05.81-.72.72.21-1.28.19-.41.72-.72Z"/>
  <path class="cls-1" d="M401.51,143.76c.11.65-.06.85-.72.72.07-.18-.09-.63,0-.72s.6.08.72,0Z"/>
  <path class="cls-1" d="M402.59,142.31c.09.77.05.81-.72.72.06-.12-.12-.52.04-.68s.59.02.68-.04Z"/>
  <path class="cls-1" d="M438.39,140.86c.07.06.5-.11.67.06.18.18,0,.59.06.67-.77.09-.81.05-.72-.72Z"/>
  <path class="cls-1" d="M427.54,400.47c.24.3.29-.65.72.72-.74.1-.83.02-.72-.72Z"/>
  <path class="cls-1" d="M406.57,138.7c.13.67-.07.83-.72.72.08-.11-.09-.63,0-.72s.54.07.72,0Z"/>
  <path class="cls-1" d="M407.65,137.97c.09.77.04.81-.72.72.07-.13-.1-.59.02-.71.11-.11.54.04.71-.01Z"/>
  <path class="cls-1" d="M428.98,403.36c.35.3.31-.62.72.72-.74.1-.83.02-.72-.72Z"/>
  <path class="cls-1" d="M438.39,273.2c-.17,0-.62,0-.72,0l.43-.24.29.24Z"/>
  <path class="cls-1" d="M426.09,338.28c.06.06.51-.04.72,0,.15.39-.36.68-.36.72l-.36-.72Z"/>
  <path class="cls-1" d="M431.88,409.87c.39.3.39-.6.72.72-.74.1-.83.02-.72-.72Z"/>
  <path class="cls-1" d="M425.73,336.47c.1.08.64-.08.72,0,.23.24-.36.68-.36.72l-.36-.72Z"/>
  <path class="cls-1" d="M409.46,136.89c.12.69-.04.84-.72.72.26-.33-.6-.5.72-.72Z"/>
  <path class="cls-1" d="M137.2,412.76c-.04-.47,0-.63,0-.72l.36.18-.36.54Z"/>
  <path class="cls-1" d="M427.18,134.72s.48-.59.72-.36c.08.08-.08.63,0,.72l-.72-.36Z"/>
  <path class="cls-1" d="M433.69,414.21c.33.25.58-.58.72.72-.73.11-.83,0-.72-.72Z"/>
  <path class="cls-1" d="M150.58,414.93s.34-.5.72-.36c.04.21-.06.66,0,.72l-.72-.36Z"/>
  <path class="cls-1" d="M464.06,311.88c-.42,1.39-.45.42-.72.72-.12-.69.03-.85.72-.72Z"/>
  <path class="cls-1" d="M248.56,271.03c-.38.02-.61,0-.72,0l.54-.36.18.36Z"/>
  <path class="cls-1" d="M255.43,328.15c.18.11.6-.22.73.18.23.73-.26.48-.73.54v-.72Z"/>
  <path class="cls-1" d="M434.41,416.38c.18.23.61-.61.72.72-.77.09-.81.04-.72-.72Z"/>
  <path class="cls-1" d="M152.03,416.74c-.08.1.09.63,0,.72-.25.25-.68-.36-.72-.36l.72-.36Z"/>
  <path class="cls-1" d="M454.29,325.98v.72c-2.17-.21-.07-.65,0-.72Z"/>
  <path class="cls-1" d="M382.34,324.18c-.42,2.09-.65.06-.72,0,.23-.03.5.04.72,0Z"/>
  <path class="cls-1" d="M153.84,331.05c-.38.03-.68,0-.72,0l.18-.36.54.36Z"/>
  <path class="cls-1" d="M435.49,419.63c.15.08.63-.09.72,0s-.08.67,0,.72c-.66.12-.84-.06-.72-.72Z"/>
  <path class="cls-1" d="M199.39,319.48s.52-.56.72-.36c.08.09-.08.61,0,.72l-.72-.36Z"/>
  <path class="cls-1" d="M427.54,345.51l-.36-.18.36-.54c.02.35,0,.66,0,.72Z"/>
  <path class="cls-1" d="M401.14,420.35c.13.82-.15,1.02-.72.36.04-.01.7-.33.72-.36Z"/>
  <path class="cls-1" d="M156.37,330.32c-.06.05.04.51,0,.72-.36.14-.67-.36-.72-.36l.72-.36Z"/>
  <path class="cls-1" d="M140.46,330.69s-.33.51-.72.36c-.04-.21.05-.68,0-.72l.72.36Z"/>
  <path class="cls-1" d="M274.6,243.55c.01.16,1.07.87-.36.72.03-.3,0-.63.36-.72Z"/>
  <path class="cls-5" d="M156.91,327.43c-.6-.06-1.3-.28-2.17-.36-1.23-.11.61-.99.71-1.08,2.22-1.94,4.15-3.25,5.77-5.82,5-7.97,4.46-17.69,4.73-26.73,1.01,2.18,2.11,11.17,4.41,11.86,1.33.4,3.35-.64,3.9.07l7.41,18.63,2.18,3.43h-26.94Z"/>
  <path class="cls-5" d="M146.6,345.51l-1.37,29.1c.2,10-.41,20.29-.09,30.39.08,2.41.76,5.56.75,7.93,0,1.86-1.71.58-2.35-.19-1.89-2.29-2.76-13.3-3.08-16.8-.3-3.21-.51-6.55-.72-9.76-.64-9.51-2.07-28.05,2.47-36.21.4-.72,3.42-5.46,4.4-4.46Z"/>
  <path class="cls-5" d="M23.67,358.17c6.49-1.58,13.08.37,19.65.34l1.14,1.46,10.67-19.16c4.33,1.09,1.95,4.96,1.23,7.92l-8.7,14.82c-5.74-.47-11.51-.63-17.13-1.94-1.42-.33-5.23-1.3-6.27-2.04-.62-.44-.67-.64-.58-1.4Z"/>
  <path class="cls-5" d="M110.75,408.73c-6.39,3.63-13.33,7.49-20.91,7.29-.99-.95,3.81-3.99,4.46-4.4,3.31-2.06,7.32-3.46,10.55-5.72.09-.03.67,1.61,1.45.74l.53-13.39c7.75.88,3.69,10.35,3.92,15.49Z"/>
  <path class="cls-1" d="M137.11,281.24c.73.73.02,1.57.09,2.2.03.26.62.25.71.51.81,2.29,1.09,4.98.38,7.32l-.44-2.98c-.61-1.96-1.02-3.6-2.44-5.16-.32-.35-2.1-2.17-1.82-.71.14.74,1.68,2.34,2.07,3.71.57,1.97.62,3.88.1,5.86l-.97-4.26c-.05-1.15-2.86-5.63-4.08-4.41-.42.42,2.2,4.72,2.44,6.05.11.61.43,2.69-.27,2.98-.68-2.73-1.02-5.12-3.5-6.81-1-.68-2.72-1.08-3.56-1.86s-1.13-2.29-1.82-3.24c-1.52-2.09-3.16-1.88-5.13-2.84-.3-.15-.66.05-.42-.58.07-.2,2.05-2.94,2.21-3.04.39-.23,1.03-.1,1.47,0,2.13.5,8.79,3.74,11,4.92.64.34,3.72,2.05,4,2.33Z"/>
  <path class="cls-5" d="M109,243.19l-2.53,18.8-7.92-1.84c-.13-.38-.03-.76.05-1.14.65-2.85,7.15-12.38,9.24-15,.34-.43.41-.99,1.16-.82Z"/>
  <path class="cls-5" d="M88.75,328.52l-1.13,11.34c-.26.78-1.19.67-1.86.52-2.79-.6-2.83-8.78-2.79-11.14l5.78-.72Z"/>
  <path class="cls-5" d="M91.28,318.39c.69.56-.67.76-.72.96-.28,1.24-.8,6.72-1.25,7.37-.5.74-4.2.16-5.26.34-.11-.57.06-.83.35-1.28.78-1.24,4.26-5.76,5.24-6.69.36-.34,1.16-1.09,1.64-.71Z"/>
  <path class="cls-5" d="M129.97,326.35c.76.7-1.45,1.01-1.67,1.04-1.83.21-3.7-.16-5.55.4l-1.46-6.5c.26-.29,4.01,2.81,4.59,3.18.79.51,1.91,1.13,2.76,1.59.43.24,1.28.24,1.33.29Z"/>
  <path class="cls-5" d="M110.81,411.67l.72,3.98-9.4.36c.09-.56.67-.68,1.09-.89,1.54-.78,5.18-2.83,6.48-3.28.37-.13.7-.22,1.1-.16Z"/>
  <path class="cls-1" d="M140.1,286.03c-.05-.45-.85-1.31-.72-1.99,1.58,1.29,1.87,2.94,1.83,4.89-.02.76.05,2.61-1.11,2.34-.14-1.68.19-3.61,0-5.24Z"/>
  <path class="cls-1" d="M400.06,285.13c-.28,2.26.76,5.25,2.34,6.88s6.56,3.13,7.06,4.15c.33.67-.42.56-.83.47-2.38-.53-8.48-3.51-6.48,2.51.31.93,3.94,5.29,3.7,5.52-2.32-.1-4.32-2.38-5.24-4.34-.33-.71-.78-3.14-.91-3.25-.1-.08-.78.05-1.08,0-.49,4.05,1.34,5.45,3.94,7.81.4.36.91.54.76,1.23-1.96-.17-4.1-1.73-5.25-3.24-.81-1.07-1.79-4.16-1.99-4.35-.51-.49-.67.04-.73.55-.12,1.08.61,2.95,1.15,3.92.17.3,3.2,3.63,1.58,3.12-2.16-.67-4.99-5.3-5.24-7.44-.34-2.93,2.45-5.11,1.64-8.85-.27-1.25-1.28-1.97-1.29-3.23.23-.23,3.73-.31,4.44-.45,1.01-.19,1.5-.88,2.43-1Z"/>
  <path class="cls-5" d="M417.78,414.2l1.44-15.91c5.39-.43,6.86,5.05,7.85,9.33,1.08,4.66.51,3.18-2.93,3.73-.86.14-2.06.44-2.85.76-1.36.55-2.18,1.68-3.51,2.09Z"/>
  <path class="cls-1" d="M337.15,309.35c5.58.42,10.76,11.81,10.5,16.81-.02.41.18,1.2-.55.91-.4-.16-1.8-2.08-1.99-2.53-.95-2.23-1.43-4.74-2.76-7.19-1.53-2.82-3.78-5.12-5.2-8Z"/>
  <path class="cls-5" d="M337.15,309.35c1.42,2.88,3.66,5.18,5.2,8,1.33,2.45,1.81,4.95,2.76,7.19-.77.05-1.34-1.08-1.79-1.64-.96-1.19-1.97-2.41-2.84-3.67-.93-1.33-5.91-8.69-4.77-9.88.48.02.97-.03,1.45,0Z"/>
  <path class="cls-1" d="M440.19,301.76c.35.35-1.13,1.76-1.43,2.01-4.9,4.2-10.9,7.9-15.2,12.99-.54.64-.71,2.29-1.78,1.61-.12-.08-.97-2.43-.42-2.7l18.84-13.91Z"/>
  <path class="cls-1" d="M418.86,417.82c.31-2.94,4.46-4.46,7.05-4.37,3.03.1,3.33,1.91,3.79,4.37-1.36.05-2.09-1.2-3.32-1.56-2.86-.84-4.93.81-7.53,1.56Z"/>
  <path class="cls-5" d="M429.71,417.82c.05.27.48.65.36,1.08-3.79.88-7.42-.07-11.21,0,.02-.36-.04-.73,0-1.09,2.6-.75,4.68-2.4,7.53-1.56,1.22.36,1.95,1.61,3.32,1.56Z"/>
  <path class="cls-5" d="M335.52,308.63c.23.12.23.24,0,.36v-.36Z"/>
  <path class="cls-5" d="M129.9,190.48c.14.08.2.64.45.8.44.29,1.04.41,1.32.68,2.27,2.15-1.1,5.6-3.88,3.34s.84-5.59,2.12-4.82Z"/>
  <path class="cls-1" d="M141.88,144.5c.11.09.52,2.74.38,2.88-5.39,1.57-1.74-4-.38-2.88Z"/>
  <path class="cls-1" d="M126.31,189.72c.14.23-.85,2.74-1.03,3.41-.16.58.38,1.07-.73.88.26-2.01-.22-3.55-.72-5.42.3-.31,2.41,1.01,2.48,1.13Z"/>
  <path class="cls-1" d="M144.07,135.44c-.3.33-1.01-.56-1.35-.64-.77-.18-2.2.01-2.78-.41-.31-.23-.31-1.02-.21-1.11.74-.77,5.57.8,4.34,2.17Z"/>
  <path class="cls-1" d="M111.17,195.1c1.05.77-2.1,1.09-2.61,1.02-.7-.1-3.11-1.49-2.45-2.1.24-.22,4.08,1.69,5.06,1.08Z"/>
  <path class="cls-1" d="M141.54,137.61c.1.08.5,2.17.21,2.55l-2.02.34c-.57-1.07.77-3.76,1.8-2.89Z"/>
  <path class="cls-1" d="M164.68,140.14c-1,.2-.73-.73-1.45-1.25-.62-.45-1.5-.71-2.17-1.1-.47-.28-.91.06-.71-.9,1.86-.21,4.44,1.1,4.34,3.25Z"/>
  <path class="cls-1" d="M104.3,173.4c-1.09,1.05-3.02-3.76-2.53-4.34.61-.71,2.74,4.13,2.53,4.34Z"/>
  <path class="cls-1" d="M169.75,189.31c-.1-.09.31-2.2.38-2.7s-.34-1.07.52-.91c1.98.78.16,4.62-.9,3.61Z"/>
  <path class="cls-1" d="M118.4,200.89c-.06,1.82-2.92,1.92-3.97.9l3.97-.9Z"/>
  <path class="cls-1" d="M133.22,149.9c-2.91-1.04-1.83,1.11-2.17,1.45-.6.61-1.41-.13-.92-1.47.81-2.23,3.85-.65,3.09.02Z"/>
  <path class="cls-1" d="M112.25,176.3c-1.47-.37-3.05-.18-4.53-.36-.54-.06-1.1-.29-.53-.72,1.41.33,4.81-.92,5.06,1.08Z"/>
  <path class="cls-1" d="M155.57,134.44c.14.08,1.9,2.45,1.52,2.81-.33.31-.84.06-1.18-.46-.29-.46-1.31-1.79-1.35-1.9-.29-.69.64-.68,1.01-.45Z"/>
  <path class="cls-4" d="M157.82,179.57c-.23.25,1.47,5.63.7,6.84-1.27-.15-3.42,1.23-4.5,1.1-.51-.06-.62-.72-.02-1.1.77-.49,2.8-.36,3.05-.75.74-1.16-1.93-5.67-2.69-6.8-1.03-1.53-2.77-1.56-.49-3.43,2.95-2.42,6.55-1.14,5.74,2.85-.3,1.51-1.62,1.11-1.79,1.29Z"/>
  <path class="cls-4" d="M147.07,181.97c-.45-.42-.85-1.89-1.41-2.03-.29-.07-4.18,2.31-3.34.21.98-2.46,7.45-4.27,8.18-1.06.63,2.75-1.29,4.86-3.43,2.88Z"/>
  <path class="cls-4" d="M143.97,172.04c1.05-.22,4.03-.45,4,1.11-.04,2.53-1.81,1.59-2.82,1.84s-4.76,2.1-4.72-.33c.01-.7,2.73-2.45,3.54-2.62Z"/>
  <path class="cls-4" d="M157.42,169.82c1.01,2.33-4.65,4.08-5.43,3.01-1.98-2.72,3.64-4.23,5.43-3.01Z"/>
  <path class="cls-4" d="M147.91,191.87c1.51-.48,2.01,1.49,2.93,1.73.82.21,1.66-.5,2.4-.28,1.66.48-.12,3.36-3.4,2.34-1.17-.37-3.62-3.25-1.93-3.79Z"/>
  <path class="cls-4" d="M411.63,174.85c.9.93,4.79-5.83,5.09-2.34.15,1.8-5.7,5.95-6.12,8.03-.47,2.36,3.2,2.12,3.21,3.52.02,2.16-5.52-.54-5.73-2.98-.18-2.09,2.68-3.59,2.8-4.3.09-.54-.9-1.09-1.15-1.67-.7-1.6.12-5.4,2.06-4.97,2.09.46-.97,2.98-.16,4.7Z"/>
  <path class="cls-4" d="M420.62,174.54c.78,1.22-2.3,3.69-.7,4.86,1.32.96,5.85-3.56,5.82-.75-.03,2.62-8.67,4.94-8.71,0,0-1.49,2.41-5.96,3.58-4.11Z"/>
  <path class="cls-4" d="M417.86,187.24c1.54-1.66,2.39,1.23,1.16,3.15-1.57,2.45-6.2,1.71-4.71-.37.42-.58,1.83-.08,2.59-.66.62-.47.54-1.66.96-2.11Z"/>
  <path class="cls-4" d="M426.82,173.4c-.38.39-7.01-.33-5.03-3.04.95-1.3,4.31.03,4.84,1.24.17.38.34,1.65.19,1.8Z"/>
  <path class="cls-4" d="M417.73,168.3c-.07.11-1.7.81-2.11.61s-3.3-2.88-3.24-3.23c.43-2.59,6.55.7,5.35,2.62Z"/>
  <path class="cls-5" d="M254.71,314.06l12.8.39c2.37.19,4.05,3.03,4.2,5.22.08,1.13-.25,4.51-.42,5.73-.25,1.8-2.71,10.88-3.93,11.62-.96.59-5.14.2-5.74-1.14l-6.92-21.82Z"/>
  <path class="cls-1" d="M279.3,311.52c-4.75.12-9.54-.14-14.29-.01-2.89.08-6.99.89-9.75.77-2.35-.1-2-1.77-.35-2.55,3.63-.32,7.58-.75,11.21-.75.85,0,1.65.38,2.5.39,2.14.03,8.93-.55,10.11.73.34.37.63.89.56,1.42Z"/>
  <path class="cls-1" d="M276.17,305.99c.09.19.96.17.59,1.19l-19.16-.55c.51-2.54,3.06-2.57,5.23-2.72s5.05-.08,7.26,0c1.02.04,5.46.26,5.78.72.18.27.09.9.29,1.35Z"/>
  <path class="cls-5" d="M410.73,246.08c.23.12.23.24,0,.36v-.36Z"/>
  <g>
    <path class="cls-2" d="M321.78,136.39c.15,2.23-2.9,5.75-4.5,7.34-1.42,1.4-14.97,11.21-15.93,11.12-5.87-.58-11.79-17.99-10.44-23.53,2.71-11.13,13.07-7.62,15.27,1.91,3.98-5.8,15.14-3.82,15.6,3.16ZM300.41,146.89c1.47-3.01,17.88-7.72,14.58-12.15-2.21-2.97-9.44,3.62-10.15,3.55s-4.17-9.06-7.24-9.48c-4.92,2.44,1.05,18.11,2.81,18.08Z"/>
    <path class="cls-3" d="M300.41,146.89c-1.76.03-7.73-15.64-2.81-18.08,3.07.43,6.51,9.42,7.24,9.48s7.93-6.53,10.15-3.55c3.3,4.43-13.11,9.14-14.58,12.15Z"/>
  </g>
  <g>
    <path class="cls-2" d="M271.08,302.57c-3.51,2.07-14.17-10.39-8.18-13.35,3.3-1.63,4.1,1.42,5.27,1.69s2.2-2.4,4.09-2.72c3.97-.68,5.26,2.14,4.29,5.71-.13.5-5.03,8.42-5.47,8.68ZM270.51,291.64c-.32.28.03,2.1-1.72,2.1-1.13,0-4.3-3.07-4.5-2.79-.94,2.1,2.1,7.23,3.89,7.55,2.86.51,5.1-9.32,2.34-6.85Z"/>
    <path class="cls-3" d="M270.51,291.64c2.77-2.47.52,7.36-2.34,6.85-1.79-.32-4.83-5.45-3.89-7.55.21-.28,3.37,2.79,4.5,2.79,1.75,0,1.4-1.81,1.72-2.1Z"/>
  </g>
  <g>
    <path class="cls-2" d="M291.9,100.94c.66.51,13.74-5.1,11.96,5.46-.47,2.77-13.8,11.69-15.36,11.39-5.96-1.14-11.09-23.49-1.31-22.63,4.04.36,4.23,5.41,4.71,5.78ZM288.74,100.06c-.37-.24-2.91-.57-2.9.47-.31,3.98.43,8.06,2.56,11.46,2.25.38,9.71-5.77,10.44-7.55,1.46-3.53-6.12.79-7.33.43-2.09-.61-2.31-4.52-2.77-4.81Z"/>
    <path class="cls-3" d="M288.74,100.06c.46.29.67,4.2,2.77,4.81,1.22.35,8.79-3.96,7.33-.43-.74,1.78-8.19,7.93-10.44,7.55-2.13-3.4-2.87-7.48-2.56-11.46,0-1.04,2.53-.71,2.9-.47Z"/>
  </g>
  <g>
    <path class="cls-2" d="M266.57,241.51c.67.21,9.37-7.92,10.97.9.42,2.31-7.54,13.13-8.85,13.33-5.02.8-15.4-15.34-7.46-17.44,3.28-.87,4.87,3.06,5.35,3.21ZM263.84,241.72c-.36-.08-2.45.37-2.15,1.19.89,3.23,2.63,6.22,5.27,8.3,1.88-.34,6-7.3,6.08-8.91.15-3.19-4.59,2.36-5.65,2.43-1.82.11-3.1-2.9-3.55-3Z"/>
    <path class="cls-3" d="M263.84,241.72c.45.1,1.73,3.12,3.55,3,1.06-.07,5.8-5.62,5.65-2.43-.07,1.61-4.19,8.57-6.08,8.91-2.64-2.07-4.39-5.07-5.27-8.3-.3-.82,1.79-1.28,2.15-1.19Z"/>
  </g>
  <g>
    <path class="cls-2" d="M280.74,211.52c.66.51,13.74-5.1,11.96,5.46-.47,2.77-13.8,11.69-15.36,11.39-5.96-1.14-11.09-23.49-1.31-22.63,4.04.36,4.23,5.41,4.71,5.78ZM277.59,210.64c-.37-.24-2.91-.57-2.9.47-.31,3.98.43,8.06,2.56,11.46,2.25.38,9.71-5.77,10.44-7.55,1.46-3.53-6.12.79-7.33.43-2.09-.61-2.31-4.52-2.77-4.81Z"/>
    <path class="cls-3" d="M277.59,210.64c.46.29.67,4.2,2.77,4.81,1.22.35,8.79-3.96,7.33-.43-.74,1.78-8.19,7.93-10.44,7.55-2.13-3.4-2.87-7.48-2.56-11.46,0-1.04,2.53-.71,2.9-.47Z"/>
  </g>
  <path class="cls-3" d="M242.62,163.36c.26-4.28,6.23-5.41,5.82-.32-.1,1.28-2.57,7.33-3.61,7.69-1.63.57-6.69-2.71-7.77-4.06-2.16-2.7-.08-5.23,3.08-4.64.95.18,1.62.99,2.48,1.32Z"/>
  <path class="cls-3" d="M224.34,101.26c-.63-1.67-.63-4.25,1.25-5.1,2.9-1.32,4.31,2.31,4.56,4.6.1.9.27,4.58-.17,5.2-.4.57-4.48,1.46-5.33,1.54-7.46.69-7.25-6.96-.31-6.25Z"/>
  <path class="cls-3" d="M276.87,188.5c.48-4.72,9.17-8.27,8.46-2.65-.18,1.42-4.77,11.12-6.18,11.48-2.21.57-10.03-3.64-11.43-5.16-2.83-3.07-1.86-8.15,2.36-7.37,1.27.23,5.65,3.31,6.8,3.7Z"/>
</svg>