<?xml version="1.0" encoding="UTF-8"?>
<svg id="Layer_1" data-name="Layer 1" xmlns="http://www.w3.org/2000/svg" viewBox="0 0 520 520">
  <defs>
    <style>
      .cls-1 {
        fill: #252122;
      }

      .cls-2 {
        fill: #f6f6f6;
      }

      .cls-3 {
        fill: #2c2729;
      }

      .cls-4 {
        fill: #b2b1b1;
      }

      .cls-5 {
        fill: #b2b2b2;
      }

      .cls-6 {
        fill: #f9f9f9;
      }

      .cls-7 {
        fill: #6e6b6c;
      }

      .cls-8 {
        fill: #231f20;
      }

      .cls-9 {
        fill: #cfcece;
      }

      .cls-10 {
        fill: #f1f1f1;
      }

      .cls-11 {
        fill: #d1d0d0;
      }

      .cls-12 {
        fill: #d82f87;
      }

      .cls-13 {
        fill: #6f6c6d;
      }

      .cls-14 {
        fill: #262223;
      }

      .cls-15 {
        fill: #d2d1d1;
      }

      .cls-16 {
        fill: #242021;
      }

      .cls-17 {
        fill: #bcbabb;
      }

      .cls-18 {
        fill: #bbb9ba;
      }

      .cls-19 {
        fill: #bcbbbb;
      }

      .cls-20 {
        fill: #f4f4f4;
      }

      .cls-21 {
        fill: #f5f5f5;
      }

      .cls-22 {
        fill: #cdcccc;
      }

      .cls-23 {
        fill: #e6e5e5;
      }

      .cls-24 {
        fill: #fafafa;
      }

      .cls-25 {
        fill: #afadae;
      }

      .cls-26 {
        fill: #d1d1d1;
      }

      .cls-27 {
        fill: #f7f7f7;
      }

      .cls-28 {
        fill: #c5c4c4;
      }

      .cls-29 {
        fill: #272324;
      }
    </style>
  </defs>
  <path class="cls-8" d="M156,450.5c-1.22,5.36-6.41,12.34-12.25,13-4.42.5-12.02.44-16.51,0-.68-.07-1.77-.24-2.24-.75l4.49-2.75c-3.13-.88-6.15-2.2-9.01-3.75-3.53-1.91-11.08-6.33-10.48-10.97.95-7.29,14.79-.98,18.88.06,3.6.92,5.52,2.09,8.86-.36,1.24-.91,4.74-4.26,2.94-5.44-1.5-.99-4.61-1.9-6.53-2.97-18.62-10.46-14.88-23.46-9.91-41.59,8.31-30.31,24.67-62.64,36.12-92.38,9.24-23.99,17.82-48.3,24.98-73.02l7.64-30.11c.14,11.62-2.19,22.96-5.14,34.11-1.87,7.05-6.33,17.19-7.23,23.77-.83,6.07-.32,6.46,4.75,8.49,11.67,4.69,27.32,7.19,39.87,6.62,5.45-.25,10.8-1.82,16.26-1.99l.24-6c4.43,8.91,3.76,20.92,2.09,30.59-5.69,33.08-27,55.2-37.48,84.52-5.85,16.38-2.45,26.59-4.43,42.57-2.82,22.74-12.47,25.11-33.68,23.81-6.4-.39-16.4-3.83-21.97-2.96-3.9.61-5.69,5.97-11.03,6.47-5.26.49-11.82-3.07-17.25-4-.95.43-2.03.64-3.26.62,5.04,6,22.59,14.15,29.8,12.87,4.03-2.94,7.48-6.81,10.36-11.62,1.24-.43,1.6.61,1.11,3.12Z"/>
  <path class="cls-8" d="M227.01,65l1.49-.51c.15-.89-1.77-.06-.76-1.51,1.56-2.24,7.86-3.76,10.52-3.98,13.32-1.1,24.53,7.18,25.73,20.75.28,3.17-.7,13.85.75,15.75.65.86,8.34,1.45,10.37,2.13,11.68,3.92,18.06,22.97,7.89,31.62-1.91,1.62-7.39,3.75-8.14,5.36-1.85,3.97,2.49,8.65,2.65,12.66.65,16.15-24.43,19.4-30.01,5.72,5.79,5.24,14.81,8,21.84,3.6.64-.4,3.79-2.91,3.15-3.6-9.64,7.21-21.57,1.04-27.25-8l-3.22,5.27c-3.21,3.22-8.68,3.8-12.51,1.47-1.17-1.27-.09-.53.55-.52,6.2.13,15.1-4.88,9.87-11.39-5.5-6.84-15.87,3.47-22.15-3.85-2.21-2.58-2.19-5.8-.87-8.81,1.23-2.82,7.48-7.87,3.36-11.17-4.82-3.86-16.07,3.67-23.53-3.97-1.19-1.22-3.61-5.67-4.59-5.95-1.79-.5-4.99,2.05-7.15,1.43.02-.8-.18-1.79.24-2.51.63-1.07,3.28-.79,3.76-1.99-6.05-.81-9.98.85-15.99-1.76-19.08-8.29-10.1-35.33,9.45-33.79,2.09-13.85,20.61-20.31,32.54-15.7,5.23,2.02,11.4,7.42,12.01,13.24Z"/>
  <path class="cls-8" d="M389.5,140.5c-.21-1.42,2.34-1.72,3.66-2.59,3.14-2.07,7.99-6.68,7.85-10.63-.08-2.27-1.32-4.87-1.02-7.27l-1.5,6.5c-1.13.28-1.18-.45-1.36-1.37-1.72-8.62,6.55-22.84,13.12-28.12,8.87-7.12,23.14-9.05,31.02.48,22.31-14.05,39.38,11.63,46.95,29.52,5.53,13.06,15.23,44.97,11.24,58.21-1.79,5.93-6.85,9.01-12.34,11.16-11.71,4.58-24.34,4.17-35.63-1.38-.26,2.82-2.03,5.08-3.01,7.49,12.55,6.27,20.5,22.22,24.63,35.12,6.77,21.16,4.08,29.96-5.87,48.89-2.98,5.68-6.33,11.85-10.76,16.49,3.02-11.27,10.49-20.8,14.5-31.74,2.4-6.54,3.35-10.95,2.43-17.95-.24-1.82-1.93-10.26-2.7-11.34-.33-.46-4.78.87-7.76-1.71-4.3-3.73-2.2-9.99,3-11.51-3.76-7.7-8.12-15.16-14.75-20.74-2.29-1.92-5.21-4.58-8.23-3.52-.4-2.73,2.16-2.94,3.59-5.15.73-1.14,2.03-4.33,1.91-5.59-.11-1.04-4.42-4.56-5.5-6.01-2.8-3.74-4.33-8.3-5.5-12.75-1.06-.99-1.75-2.2-1.91-3.64-2.35-17.59-6.33-34.75-11.96-51.48-.42-.86-4.35-.88-5.69-.86-2.28,1.33-5.12,2.74-5.5-1.12-3.6,5.04-6.93,10.29-9.99,15.76-2.7,4-7.95,9.51-12.95,6.85Z"/>
  <path class="cls-8" d="M262.5,438l-4.96,3.3c2.33,6.72-.01,10.64-5.41,14.61-4.03,2.29-7.94,4.75-11.71,7.38,1.17-.01,1.86.39,2.08,1.21,5.59.16,19.05-4.23,22.95-8.3,4.64-4.86,1.09-12.43,1.06-18.19.75-.85,3.06,2.73,3.36,3.38,1.83,3.9,1.73,11.9-.64,15.59-1.22,1.9-3.36,2.79-4.89,4.11-.52.44-1.05.48-.83,1.41,1.92.02,6.34.76,7.51,2.24.4.51.75.48,0,1.01-2.58,1.8-17.82,1.65-21.75,1.75s-15.43,2.48-13.63-5.13c.76-3.2,13.63-8.69,16.69-12.06,2.78-3.05,1.86-6.97-.04-10.18-3.19.39-7.66.79-10.81.14-8.77-1.82-14.32-15.05-18.57-21.93s-15.18-22.14-15.44-30.09c-.36-11.4,13.34-29.1,18.79-39.74,3.98-7.77,7.44-15.94,10.75-24.01,13.13,19.7,27.42,38.78,39.7,59.04,5.16,8.52,15.71,24.57,13.68,34.6-1.7,8.38-20.58,16.63-27.89,19.86Z"/>
  <path class="cls-8" d="M434,176c-.78.38-1.29,1.18-2.21,1.54-6.99,2.74-16.62-.5-23.42.58-5.34.85-7.96,5.65-8.31,10.69-.5,7.39,3.92,12.8,10.66,15.21l11.77,1.97c-5.67,2.66-13.17-.99-18.46,2.79s-14.91,29.58-17.54,36.96c-9.41,26.37-17.54,55.25-25.24,82.26-2.85,9.98-8.39,25.65-7.25,35.75.81,7.18,6.09,9.91,12.02,12.48,17.64,7.65,42.75,10.54,61.73,9.26.87-.06,5.53-.58,5.78-.73.69-.41-.12-1.56-.03-2.47.44-4.24,7.73-6.03,10.43-2.48.53.7.97,2.59,1.09,2.68.35.27,7.16-2.73,8.48-2.5l-4.04,3.2c-5.67,3.7-12.43,4.49-18.97,5.55,6.87,16.63,11.58,34.14,18.92,50.58,1.01,2.27,7.98,14.48,7.08,15.66-4.19-.9-4.54-5.18-6.46-7.69-1.2-1.57-2.27,3.59-2.83,4.64-2.34,4.37-7.87,8.23-11.7,11.3,2.66,1.9,6.94-.76,9,2.24-3.57,1.43-7.06.83-10.74,1.01-4.29.21-13.93,2.7-10.86-5.37,1.91-5.03,13.63-13.62,13.49-18.75-.1-3.45-2.84-9.42-4.29-12.72-5.31-12.11-15.35-25.82-19.25-37.75-.29-.87-.24-2.81-.34-2.91-.19-.2-4.66-.11-5.5-.5l-1.53,73.19,5.02,1.56c-.05,2.28-17.07,1.7-19.26,1.73-2.93.04-5.51.06-8.46,0s-9.42.75-11.53-.97c-4.46-3.63,1.05-6.83,3.93-8.6,3.39-2.08,14.09-6.5,15.84-9.16.41-.62.54-1.07.76-1.74.79-2.34,1.12-7.6,1.26-10.24.39-7.86.35-17.67,0-25.54-.33-7.32-1.91-14.61-1.99-21.92-9.57-2.39-19.42-4.41-28.37-8.72-15.42-7.42-13.76-13.33-10.42-28.59,1.25-5.7,2.95-11.37,4.51-16.99,9.1-32.92,19.5-72.27,32.52-103.48,2.39-5.74,10.52-19.25,11.1-23.89.64-5.11-1.48-6-2.63-10.11-1.34-4.83-.57-11.36.89-16.12,1-3.26,3.45-5.43,2.84-9.11-.3-1.77-4.01-7.05-5.06-9.43-1.86-4.21-3-8.9-4.82-13.18-1.43-3.38-1.56-1.58-1.59-5.66,2.5-.67,4.46,1.14,5.85,5.44l3.56,10c6.84,15.71,16.09,19.9,32.7,17.47,1.53,0,2.16.52,1.89,1.6Z"/>
  <path class="cls-15" d="M389.5,140.5c9.88.61,13.72-10.79,18.18-17.57,1.96-2.98,7.33-10.86,10.34-12.19,2.25-1,4.76,4.48,4.48,4.76-2.31-1.15-10.08-.46-8.96,3.19.62,2.02,2.93-.45,4.24-.66,2.24-.37,4.1.79,6.19-.02,3.09,7.75,5.42,15.84,7.29,23.99,2.48,10.84,3.45,22.38,6.24,33.01-1.24.04-2.41.46-3.5,1-2.29-1.38-5.39-.05-7.73.02-14.19.43-21.74-4.94-27.36-17.68-1.94-4.39-3-10.01-5.52-13.98-.88-1.4-1.48-2.74-3.4-2.85,0-.25-.46-.71-.5-1Z"/>
  <path class="cls-8" d="M393.5,187.5l-7.31,1.94c-43.43,2.57-87.14.02-130.69.56,9.1,16.7,17.62,33.86,25.59,51.16,3.55,7.71,7.64,15.99,10.65,23.85,4.15,10.86,7.72,24.49-5.13,30.84-1.93.95-6.32,1.66-6.91,3.63l.31,11.51c1.39-.85,2.41-7.51,3.06-7.93,2.3-1.47,7.5,2.33,9.19,3.92,3.03,2.86,4.5,6.92,7.73,9.51.12-4.99-3.99-8.55-5.99-12.75-.26-.82,4.48,1.49,4.72,2.28l5.27,9.47c.1-4.78-3.67-7.94-4.99-11.99,2.75-.18,3.67,2.36,5.25,3.99.09-1.83-1.38-4.28-2.55-5.95-1.02-1.46-8.23-7.52-7.2-8.54,8.08.74,15.54,14.48,14.52,21.77-.49,3.52-2.86,1.56-3.02,1.72-.1.1.07,1.5-1.24,2.52-6.43,5.03-10-5.61-13.74-9.28-.7-.68-4.54-3.48-5.3-3.71-.99-.29-.59.22-.76.67-.75,1.91-3.26,10.97-6.75,6.84-2.67-3.17.88-11.1-2.15-15.24-.27-.37-6.53-1.61-8.71-2.9-11.64-6.89-28.45-40.92-35.11-53.89-1.23-2.4-3.31-5.38-2.99-8.01l1.25,1v-4c.53.07.92.63,1.22,1.03,3.62,4.8,7.87,16.85,11.02,22.98,4.48,8.71,16.78,31.74,24.61,36.39,5.17,3.07,11.7,3.77,17.26,1.46,12.29-5.1,6.81-18.55,3.12-27.85-8.13-20.48-19.48-44.12-29.97-63.53-6.17-11.41-12.74-23.62-24.74-29.76l-9.52-3.72c7.53-.72,14.31,2,20,6.74,4.49,3.74,7.28,9.78,13.1,11.4,27.52,1.73,55.47,1.21,83.16,1.34,11.97.06,23.99.15,35.96,0,5.92-.08,11.91-.18,17.77.53Z"/>
  <path class="cls-8" d="M188.5,186c2.5,7.7,6.07,7.12,11.68,10.57,1.2.74,2.21,1.63.34,2.18-5.31,1.55-12.08-5.52-14.73-9.59-6.96,1.27-14.02.66-21.05.81-24.95.55-51.63,1.47-76.48-.98-3.91-.39-12.37-.66-13.23-5.27-.5-2.69-.92-7.65-1.05-10.45-.4-8.47,1.64-17.02-.99-25.27-7.94,3.63-15.37,8.47-23,12.74-.3.34-1,6.6-.91,6.96.4,1.67,18.66,11.93,21.37,14.09.42.33,3.17,2.68,2.54,3.2-3.06.5-5.12-.69-7.65-2.09-9.05-5.01-18.03-12.46-26.34-18.65,0-.41,3.68-2.74,4.34-3.15,8.21-5.13,18-10.93,26.5-15.5,8.37-4.49,12.05-3.8,21.43-3.62,1.85.03,3.56.78,5.44.5,3.53-.53,4.13-7.28,9.9-6.38,1.79.28,2.42,2.02,3.12,1.91.26-.04,1.16-2.63,4.49-2,1.33.25,1.66,1.52,2.76,2,.7-4.49,6.49-3.13,7.01,1,8.7-5.99,9.94,18.47,3.01,15.26-.54-.25-1.5-1.75-1.76-1.75-.2,0-.79,1.02-1.26,1.23-2.75,1.28-4-1.24-4.24-1.23-.44,0-2.91,5.69-6.74,0,.16,1.47-.91,2.45-2.31,2.5-3.44.14-5.68-8.15-5.19-11,2.21.85,3.09,7.18,4.75,8,1.1.2.74-.44.69-1.19-.14-2.08-2.85-11.25-4.8-11.75-1.53-.39-4.67,3.08-5.14,4.2-.52,1.24,2.1.69,1.99,1.73-2.82.11-5.96,1.52-8.75,1.55-3.76.04-8.68-.97-12.5-1.09-3.56-.11-3.49,1.04-3.74,4.3-.61,7.8-1.07,19.3-.53,27.01.35,4.91.39,7.21,5.5,8.5,8.99,2.26,21.86,1.45,31.29,1.71,18.82.51,40.3,1.6,58.97.01,10.54-.9,9.7-6.21,12.65-14.35,1.62-4.46,3.99-4.79.09-9.88-6.63-8.67-11.02-9.83-12.48-22.52-.2-1.7.38-4.55-.09-5.91-.51-1.49-5.94-1.81-5.96-6.58-.02-3.98,5.57-9.16,8.59-11.46.79-.6,1.63-1.36,2.7-1.3.69.46,0,1.66-.31,2.19-1.84,3.16-12.23,9.63-5.61,13.25,2.39,1.31,5.52-.02,4.67,3.22-.1.38-.88.32-.97.69-1.48,6.16,3.28,17.29,7.48,21.92,6.83,7.55,16.83,8.73,26.51,8.74-1.33,1.66-3.96,2.32-6,2.49-2.77.88-5.7.89-8.8.05-6.24,4.41-8.1,11.05-7.2,18.45Z"/>
  <path class="cls-8" d="M334,139.5c2.18-2.64,9.72-5.18,13.22-4.97s4.45.03,8.05-.5c5.46-.8,7.2,3.92,7.73,8.48h14.75c1.33,0,.22,2.51-1.62,2.9-1.68.36-2.65-.46-3.88-.41-.86.03-1.68.47-2.51.5-1.06.03-6.03-.22-6.24,0-.19.2.1,3.81-1.52,5.23s-3.28.04-3.99.48c-1.22.75-.31,3.26-4.24,3.34-2.05.04-4.94-.74-6.51-.86-.46-.04-1.27.76-2.04.83-4.87.45-4.92-8.04-7.45-8.51l-50.75-1.5c3.02-3.73,10.03-1.54,14.23-1.47,10.08.17,20.19-.2,30.27-.02,5.42-2.58,10.79-1.5,12.31,5.08-.8-6.94-3.28-9.19-7.43-6.75-1.96.48-3.76.45-2.38-1.83Z"/>
  <path class="cls-8" d="M182.5,226.01c-2.56,5.06-12.5,6.76-17.75,6.99-20.83.91-45.02-17.37-57.5-32.99-.8-1-3.04-4.03-2.72-5.21.32-.5.58-.82,1.23-.82.9,0,10.47,10.6,12.24,12.27,13.57,12.78,30.26,26.09,50.12,23.11,4.92-.74,9.46-3,14.39-3.36Z"/>
  <path class="cls-16" d="M376,161.5c.21,1.29-.13.78-.7,1.04-1.68.77-5.13,1.33-7.02,1.47-19.98,1.47-42.89-.54-63-1.04-7.56-.19-16.15.68-23.51.01-1.59-.14-4.46-.48-5.26-1.99,1-1.35,24.74-1.09,28.27-1.03,15.74.27,31.7,1.4,47.46,1.54,7.97.07,15.87-.89,23.77-.02Z"/>
  <path class="cls-8" d="M445,302.5c.61,4.08-1.03,3.21,2.63,5.62,1.97,1.3.66,2.47-1.35,2.4-6.72-.24-18.66-8.93-21.28-15.26,3.33-.77,5.07,5.13,8.22.2,1.34-2.09-.5-1.99-1.64-3.79-1.23-1.94-1.83-3.5-.84-5.67,1.63-3.56,6.55-8.74,8.96-12.54,1.62-2.54,2.05-6.71,5.79-5.96-.15,7-11.13,15.05-11.05,21.26.01,1.07.08,1.44.76,2.28.98,1.21,5.79,4.66,7.33,5.66,3.74,2.43,7.89,4.01,11.95,5.8-1.59,2.89-7.16.63-9.5-.51-.87.94-1.74-.26-.89-.29.39-.02.69.39.89.79Z"/>
  <path class="cls-8" d="M348.99,215c2.5-8.16,15.59-4.71,12.62,4.37-.72,2.21-2.59,2.22-3.11,4.13,4.92,3.06,10.31,5.44,16.24,5.54,3.33.06,6.87-1.27,10.25-.29-4.93,4.19-14.87,3.24-20.63,1.14-8.93-3.26-28.65-20.75-31.13-29.87-.35-1.3-.53-3.47,1.44-2.95,1.11.3,10.7,16.91,14.32,17.93Z"/>
  <path class="cls-5" d="M177,161.01c.07.72-1.18.81-1.74,1-5.5,1.89-15.04,1.56-21.03,1.51-15.26-.12-30.73-1.06-45.96-1.54-5.03-.16-10.63.45-15.54.04-2.91-.25-6.95-2.1-1.99-2.52,11.64-.98,22.95.29,34.48.52,15.68.32,33.13-.6,48.54.46,1.11.08,2.14.4,3.23.53Z"/>
  <path class="cls-4" d="M360,173.01c-.46.85-2.59,1.57-3.47,1.78-9.42,2.24-28.37-.03-38.76-.3s-23.4.62-33.02-.48c-2.97-.34-5.15-2.15-1-2.5,10.85-.92,22.14.34,32.98.52,12.87.21,26.79-.36,39.54.46,1.27.08,2.46.53,3.73.53Z"/>
  <path class="cls-16" d="M172.5,172c.2,1.13-.06.8-.64,1.12-3.93,2.15-15.23,1.47-20.14,1.4-13.1-.17-26.33-1.04-39.46-1.54-4.28-.16-9.43.5-13.53.03s-3.04-2.12.51-2.51c9.19-1.01,19.29.35,28.48.52,13.06.24,27.72-.43,40.54.46,1.43.1,2.78.65,4.23.52Z"/>
  <path class="cls-16" d="M457.5,377l-5-68,1.64,3.61c2.63,10.36,3.42,21.07,4.85,31.65-.68,8.91,1.98,20.39,1,28.99-.16,1.46-.63,3.75-2.5,3.75Z"/>
  <path class="cls-17" d="M118,445.5l-.99.74c6.9,3.46,19.76,11.2,27.52,9.53,5.14-1.1,7.19-6.63,10.72-9.78,1.92,1.79,1.24,2.33.75,4.5l-.25-3c-2.67,2.99-6.9,11.7-11.03,12.47-5.63,1.05-19.1-4.76-24.19-7.77-2.58-1.53-11.9-8.1-3.33-7.17.41.04.67.44.79.46Z"/>
  <path class="cls-1" d="M171,144.99c-.13.2-4.01.96-4.73,1.02-8.87.73-19.43-.13-28.54-.04-1.43.01-2.56.94-3.92-.02-3.61-2.54,3.73-3.36,5.42-3.48,3.81-.27,7.48.51,11,.54,6.51.06,13.02-.09,19.52-.02.99-.09,1.68,1.34,1.25,1.99Z"/>
  <path class="cls-16" d="M395.34,267.67c8,.07,9.04,14.2.36,15.29-11.52,1.45-11.44-15.38-.36-15.29Z"/>
  <path class="cls-16" d="M407.87,334.12c3.92-.66,6.66.75,8.63,4.13,4.48,7.68-7.7,14.78-13,7-2.94-4.31-.91-10.24,4.37-11.13Z"/>
  <path class="cls-17" d="M262.5,438c-1.12,1.58-2.82,2.96-3.29,4.97-.57,2.44.69,5.02.25,7.75-1.01,6.36-13.59,8.7-16.97,13.78-.64-.02-4.02.04-3.49-1.24,5.58-5.77,19.51-8.34,18.44-18.46-.35-3.34-2.48-3.59,1.45-5.65,1.25-.65,2.69-.74,3.6-1.15Z"/>
  <path class="cls-16" d="M182.45,191.54c2.26,1.64-2.61,4.34-3.77,4.89-8.91,4.19-17.98,3.6-23.68-4.92,5.01-.29,7.25,4.44,12.24,4.53,3.09.06,7.57-1.42,10.45-2.6,1.1-.45,3.6-2.74,4.76-1.9Z"/>
  <path class="cls-16" d="M393.5,195.5c1.1.96-5.18,5.04-5.84,5.41-5.16,2.84-7.85,4.22-12.67.35-1.03-.83-6.54-6.17-7.02-6.98-1.17-1.98-.07-3.5,2.02-2.53,2.41,1.12,7.4,8.97,10.28,9.24s12.38-6.23,13.22-5.49Z"/>
  <path class="cls-17" d="M204.5,167.5c-2.51,1.9-5.91,2.46-8.47,4.28-4.42,3.14-7.64,8.7-7.53,14.22-1.62-4.99-1.21-10.39,2-14.75.47-.63,4.43-4.57,4.85-4.67.91-.21,6.6,1.14,9.15.92Z"/>
  <path class="cls-1" d="M383.33,371.33c-5.63,5.65-13.7-4.97-6.69-8.44,5.98-2.96,10.64,4.48,6.69,8.44Z"/>
  <path class="cls-16" d="M416.37,251.09c7.16-1.53,9.85,6.87,4.49,9.51-8.27,4.08-10.62-8.2-4.49-9.51Z"/>
  <path class="cls-1" d="M436.51,251.01s.48.19.94-.43c.57-.77.44-2.1,2.69-1.51.88.23,6.22,8.65,6.95,10.09.93,1.84,3.54,7.7-.6,5.1-1.95-3.12-3.99-6.35-6.28-9.22-.49-.61-3.87-3.78-3.7-4.03Z"/>
  <path class="cls-11" d="M445,302v.5c-1.78-.15-1.77,3.75-3.24,3.87-.45.04-7.05-4.02-7.73-4.65-2.5-2.37.97-4.61,3.68-4.2,1.28.2,4.87,2.73,6.47,3.56.45.23.7.86.81.92Z"/>
  <path class="cls-1" d="M193.5,116.5l-3.99-.5c.95,2.85-1.56,7.8-4.99,6.24-2.99-1.35-1.07-7.91,1.99-8.52,1.88-.38,6.91.23,7,2.78Z"/>
  <path class="cls-9" d="M334,139.5c-.29,1.42.79,1.13,1.71.97,1.36-.24,3.09-1.49,4.48-1.33,3.25.36,5.21,9.53,4.81,12.36-2.32-1.02-3.06-7.32-4.99-8.25-1.32-.64-6.58-.21-8.5-.25,1.05-.99,1.68-2.5,2.5-3.5Z"/>
  <path class="cls-14" d="M31.93,165.07c2.85,3.91-9.54,7.2-10.43,5.93-.51-3.13,8.73-6.98,10.43-5.93Z"/>
  <path class="cls-29" d="M191.82,140.56c1.71-.47,1.9,1.42,1.68,2.67-.54,3.07-8.84,6.56-10.27,3.77-1.52-2.95,3.88-2.36,5.15-2.88,1.64-.68,2.43-3.28,3.45-3.56Z"/>
  <path class="cls-29" d="M31.96,158.46c-1.24,1.78-10.24-2.28-9.93-4.14.06-.37.92-1.12,1.33-1.24,1.68-.46,10.47,2.7,8.59,5.38Z"/>
  <path class="cls-14" d="M36.43,152.43c-.31.19-1.56.19-1.87,0-1.1-.7-1.93-11.42-.32-11.42,1.74,0,3.68,10.5,2.18,11.42Z"/>
  <path class="cls-23" d="M136.5,434c-5.43-2.34-11.46-6.87-12.49-12.99l4.48,6.26,8.01,6.73Z"/>
  <path class="cls-20" d="M192.5,58.5l-5.25,10.49c-4.17-1.81,4.29-11.45,5.25-10.49Z"/>
  <path class="cls-11" d="M445,136c2.57-.05,5.64-.27,7.76,1.48,3.27,2.7,1.24,6.68-2.36,7.68-3.26.9-2.21-1.81-3.17-4.15-.35-.87-2.71-4.57-2.23-5.01Z"/>
  <path class="cls-2" d="M482.5,194.5c-.8.13-1.13-.04-1-.5,5.65-1.84,10.24-6.07,12.94-11.31l2.56-7.19c1.03,11.67-4.32,15.83-14.49,19Z"/>
  <path class="cls-19" d="M466.25,230.51c.53,0,3.06,6.43,3.17,7.37.36,3.11-5.6,1.65-6.22-2.37-.37-2.39,1.27-3.73,3.06-5Z"/>
  <path class="cls-25" d="M482.5,194.5c-3.4,1.06-6.84,2.21-10.5,1.99l9.5-2.49,1,.5Z"/>
  <path class="cls-21" d="M403,462h-9.5c2.39-2.34,6.28-2.84,8.99-5,.06,1.69-.31,3.44.51,5Z"/>
  <path class="cls-7" d="M443,382.99c-1.3-.11-7.35,2.4-6.85-.26s5.96-3.03,6.85.26Z"/>
  <path class="cls-1" d="M408,134c1.38.19,2.19-.25,3.25-1,1.24-.88,4.08-7.25,5.52-5.02,1.79,2.78-5.16,10.75-10.14,8.64-2.62-1.11-1.65-8.18-.67-8.91,3.51-2.59,2.06,4.8,2.04,6.29Z"/>
  <path class="cls-14" d="M412.46,151.54c1.64,1.14-1.29,5.54-2.71,6.46-1.28.83-5.67,1.76-6.54.53-2.13-3,3.36-2.37,4.66-2.91,1.99-.84,2.35-5.64,4.59-4.08Z"/>
  <path class="cls-6" d="M122.5,150.5c-1.64-1.2-5.45-10.92-4.77-12,.5-.81,2.25-1.36,3.04-.51,1.89,2.04,1.75,9.72,1.74,12.51Z"/>
  <path class="cls-24" d="M116.5,150.5c-1.48-.96-1.7-3.09-2.57-4.67-.45-.8-1.33-1.29-1.81-2.19-.24-.46-1.76-4.43-1.61-4.63.89.06,1.95-1.07,2.68-.94,2.28.41,3.72,10.23,3.31,12.43Z"/>
  <path class="cls-27" d="M127.51,150.5l-3-10c.69.03,1.52-.15,2.17.08,1.69.59,2.94,8.75.84,9.92Z"/>
  <path class="cls-9" d="M349.99,151.5c-.67.66-.87-.11-1.11-.63-1.06-2.32-.86-5.1-2.11-7.89-.89-1.99-2.44-3.77-3.77-5.47,1.36-.32,2.71-.84,4.14-.4,3.38,1.01,4.85,12.44,2.85,14.4Z"/>
  <path class="cls-22" d="M353.5,152c1.36-5.14-.37-10.36-2.5-14.99,4.55-.21,5.35,7.96,4.96,11.2-.08.64-1.43,4.93-2.45,3.79Z"/>
  <path class="cls-28" d="M360,148.5l-2.47-8.77-1.52-3.23c4.7.87,4.49,8.28,3.99,11.99Z"/>
  <path class="cls-13" d="M351.5,217.5c-.52-2.05.77-3.56,2.5-4.5.73-.2.53-.67,2.01-.31,5.91,1.42,3.75,8.74-.25,8.32-.55-.06-3.93-3.01-4.27-3.51Z"/>
  <path class="cls-26" d="M354,213c-1.47,1.48-1.88,2.54-2.5,4.5-1.59-2.35.34-3.9,2.5-4.5Z"/>
  <path class="cls-17" d="M398.5,277c-2.26,3.27-6.36,3.5-8.5,0-.59-2.03-.6-2.6.78-4.47,3.3-4.46,9.45-1.28,7.72,4.47Z"/>
  <path class="cls-10" d="M398.5,277c-1.41,4.71-7.12,4.7-8.5,0,1.76,1.53,3.75,1.93,6.03,1.28l2.47-1.28Z"/>
  <path class="cls-18" d="M407.5,337c5.81-2.07,9.51,4.83,4.75,8-1.61,1.07-2.13,1.08-3.75.5-3.01-2.17-3.93-5.84-1-8.5Z"/>
  <path class="cls-27" d="M407.5,337l-.97,2.78v2.44s1.97,3.28,1.97,3.28c-4.15-1.48-4.89-7.11-1-8.5Z"/>
  <path class="cls-13" d="M382.5,365.51c-.23,2.29-1.33,5.99-4.28,4.03-4.17-2.76.74-6.04,4.28-4.03Z"/>
  <path class="cls-7" d="M417.87,253.07c2.66-.39,4.46,4.83.86,5.44-4.56.77-3.84-5.01-.86-5.44Z"/>
  <g>
    <path class="cls-3" d="M328.57,111.33c1.35,1.35,1.38,5.32,1.25,7.23-.12,1.7-3.27,15.61-3.94,16.1-4.09,2.93-17.69-4.89-19.94-9.19-4.53-8.66,4.08-12.25,10.86-7.38-.72-5.96,7.55-10.97,11.77-6.76ZM320.8,130.1c-.75-2.76,7.1-15.02,2.49-16-3.09-.66-4.01,7.63-4.5,7.99s-7.77-3.45-9.98-1.99c-1.78,4.34,10.87,11.01,11.99,10Z"/>
    <path class="cls-12" d="M320.8,130.1c-1.11,1.01-13.76-5.66-11.99-10,2.21-1.46,9.48,2.36,9.98,1.99s1.41-8.65,4.5-7.99c4.61.98-3.25,13.24-2.49,16Z"/>
  </g>
</svg>