<?xml version="1.0" encoding="UTF-8"?>
<svg id="Layer_1" data-name="Layer 1" xmlns="http://www.w3.org/2000/svg" viewBox="0 0 1040 1040">
  <defs>
    <style>
      .cls-1 {
        fill: #252122;
      }

      .cls-2 {
        fill: #fcfcfc;
      }

      .cls-3 {
        fill: #f6f6f6;
      }

      .cls-4 {
        fill: #b6b4b5;
      }

      .cls-5 {
        fill: #2c2729;
      }

      .cls-6 {
        fill: #232020;
      }

      .cls-7 {
        fill: #b2b1b1;
      }

      .cls-8 {
        fill: #c1bfc0;
      }

      .cls-9 {
        fill: #f9f9f9;
      }

      .cls-10 {
        fill: #231f20;
      }

      .cls-11 {
        fill: #b8b6b7;
      }

      .cls-12 {
        fill: #f1f1f1;
      }

      .cls-13 {
        fill: #d82f87;
      }

      .cls-14 {
        fill: #b4b2b3;
      }

      .cls-15 {
        fill: #262223;
      }

      .cls-16 {
        fill: #f2f1f1;
      }

      .cls-17 {
        fill: #242021;
      }

      .cls-18 {
        fill: #bcbabb;
      }

      .cls-19 {
        fill: #f1f0f0;
      }

      .cls-20 {
        fill: #282425;
      }

      .cls-21 {
        fill: #898788;
      }

      .cls-22 {
        fill: #242121;
      }

      .cls-23 {
        fill: #888687;
      }

      .cls-24 {
        fill: #dcdcdc;
      }

      .cls-25 {
        fill: #fefefe;
      }

      .cls-26 {
        fill: #ededed;
      }

      .cls-27 {
        fill: #292526;
      }

      .cls-28 {
        fill: #f7f7f7;
      }

      .cls-29 {
        fill: #fdfdfd;
      }

      .cls-30 {
        fill: #272324;
      }
    </style>
  </defs>
  <path class="cls-10" d="M615,339c-.54,1.63-.58,3.32-1.58,4.91-6.19,9.91-25.66,7.19-27.44-4.91-4.14,1.65-6.95,4.95-11.72,5.76-10.54,1.78-19.71-1.3-24.05-11.47l-2.2-8.28c-2.7,12.68,9.57,24.36,21.63,24.94,2.52.12,5.9-.86,8.75-1.07,1.6-.12,2.12-1.66,3.59.63-5.51,5.77-14.89,5.26-21.95,2.97-20.16-6.53-25.46-32.86-5.77-43.72,2.11-1.16,5.49.42,4.73-2.74-30.76-12.41-27.74-48.97,3.01-58.03-8.88-16.92,4.91-28.75,21.99-26-10.77-28.66,24.44-43.79,45.51-27.02,7.63-16.41,27.49-17.12,34.51.02,18.28-12.99,44.63-2.4,46.85,20.62.29,3.03.38,13.21-1.84,14.98-1.23.99-3.5-2.21-3.02.88,4.5,4.56,5.06-.8,6.61-1.34,1.64-.57,7.77-.35,9.79-.06,12.07,1.7,23.07,17.18,16.59,28.9,18,1.87,27.51,21.24,15.41,35.92-1.77,2.15-6.34,4.92-6.49,6.61-.29,3.29,4.81,7.15,2.6,15.51-2.49,9.42-11.93,7.25-13.1,8.9-1.55,2.18,1.02,9.55-4.44,15.56-6.59,7.24-25.44,6.33-30.99-2.48,13.42,5.07,31.75,5.25,29-14.01-4.13-3.49.14-4.06,4.44-3.98,10.79-2.41,6.97-11.2,3.56-18.02-.62-3.3-.96-3.3-1,0,5.43,5.63,6.56,17.2-3.36,18.14-4.27-.38-5.82.86-4.64,3.72l-1,3.15c-.77,1.93-1.03,4.34-2.55,5.96-6.08,6.48-20.57.57-24.46,2.52-.72.36-7.01,8.29-9.67,10.35-11.32,8.81-25.41,13.62-39.82,12.16-8.96-.91-14.47-5.36-24.92-3.9-6.01.84-16.77,10.12-21.6,14.4-27.76,24.6-70.25,80.08-59.29,119.32,7.88,28.21,44.53,41.64,71.3,41.2v-18.5c0-2.89,6.77-14.73,6-15.49-10.87-1.39-30.7-10.37-31.94-22.62-.83-8.16,5.72-21.7,12.44-26.39,1.43-1,7.01-4.06,6.51-.51-.52,3.7-5.58,10.06-6.56,15.46-3.7,20.37,9.95,28.83,28.03,31.05,6.87-3.76,9.41-11.72,18.11-12.92,4.96-.69,27.83.62,29.94,4.91,1.72,3.51-1.88,5.54-1.52,5.99,4.47.44,10.27,4.76,4.27,7.79l-8.26,2.21c10.88,1.7,12.88,9.66,0,9.02-.3.2,3.27,4.59,1.86,6.86-5.66,3.54-11.78,1.3-17.92,2.58-1.12.23-7.7,2.61-5.94,4.55,5.54,2.23,10.37.08,15.46-.03,12.24-.28,22.68-.58,34.9-2.1,18.44-2.3,35.89-6.65,53.64-11.85,1.26,1.24-4.35,6.06-5.86,6.17,3.6,15.18,9.59,30.01,14.13,45.06,6.07,20.14,11.23,40.59,17.24,60.76,18.4,61.84,40.67,125.48,56.21,187.79,1.64,6.57,6.98,22.9,2.73,28.16-3.28,4.07-23.84,12.18-29.67,14.33-9.74,3.59-20.51,6.8-30.56,9.44-6.86,1.81-36.1,6.98-39.16,9.84-.73.69-1.31,1.41-1.61,2.39l.67,46.95c12.77,4.1,25.26,9.82,38.66,11.83,2.45.37,20.24,2.6,20.21-.23-.04-4.07-34.73-15.36-39.83-22.15-3.45-4.59-3.79-23.12-2.19-28.9.38-1.37.12-3.11,2.03-3.46,3.78,6.44,1.2,24.29,4.58,28.93,5.88,8.06,30.95,11.98,38.93,20.07,7.06,7.15,2.8,12.22-5.97,13.04-19.85,1.86-41.19-.69-61-1.1-3.48-.07-10.25,1.87-12.55.57-1.64-.92-.53-1.75.62-2.41,3.88-2.24,9.97-.64,14.39-1.11-5.05-20.9-3.73-42.69-6.01-63.98-11.15.04-22.31,2.35-33.45,3.03-15.02.92-33.93-.75-48.07.93-2.03.24-6.64,1.72-7.32,3.68l.3,40.38c12.96,5.67,27.84,10.91,42.05,11.95,2.33.17,17.49.75,17.47-1.49-.04-3.84-34.9-13.88-40-19.98-3.45-4.13-3.96-19.14-2.09-24.13,1.63-4.36,3.76,3.37,4.06,5.17,2.12,12.87-2.33,14,11.38,20.61,7.95,3.83,32.95,9.4,33.42,19.5.33,7.18-16.84,8.04-22.2,8.37-19.39,1.19-40.02-.97-59.54-.05-.39-2.29.2-1.96,1.96-2.48,3.56-1.06,8.29-1.4,12.03-1.52-5.43-20.11-4.06-41.35-6.01-61.98-8.53-.28-40.11-5.02-43.47-13.04-1.36-3.24-.69-22.46-.51-27.47.97-27.32,3.76-56.61,6-84,4.43-54.34,9.44-110.92,16.01-164.99,1.97-16.19,5.98-32.48,7.98-48.03.4-3.1-1.15-.5-1.5-.5h-16c-13.57,0-39.92-12.74-50.03-21.97-47.33-43.25,18.68-130.24,57.19-157.86,4.93-3.53,10.51-7.4,16.33-9.18l-8-9.99,2.86-.84c64.34,40.74,103.13-23.49,59.13-78.97-5.98-7.54-13.03-14.37-20.91-19.82-5.3,9.02-16.42,11.93-26.29,10.11-1.82,7.62-6.21,12.28-12.94,16.04,3.66,14.91-5.23,32.33-19.19,38.88,2.58,3.5,4.44,9.27-1.44,9.28-19.41-17.5-26.53,15.19-2.29,6.7,11.43-.07,20.1,10.45,15.08,20.62Z"/>
  <path class="cls-10" d="M500,512.01l-8.78,2.72c-1.13.58-4.94,0-5.22.27-.3.29.21,4.78.02,6l1.98-1.99c11.64,57.59,21.13,115.66,33.32,173.19,12.43,58.62,33.04,124.12,40.53,182.47,2.45,19.09,1.89,22.21-17.63,27.04-22.14,5.48-45.52,3.49-68.04,5.96-7.27,1.08-7.38,18.59-3.94,22.11,2.81,2.88,29.82,6.75,35.28,7.21,10.97.93,22.69,1.01,33.49-1,1.42-1.94-13.05-7.47-14.48-8.01-4.68-1.75-28.08-7.51-29.51-9s.08-1.81,1.48-1.99c10.9-1.38,32.09,4.83,41.83,10.19,13.34,7.35,11.22,15.1-3.93,16.69-14.19,1.49-33.43.05-47.59-2.17-4.12-.64-32.81-6.3-33.78-7.73-3.03-4.42,8.59-5.54,9-5.99.25-.28-1.01-5.74-1.05-7.44-.13-5.33.47-10.31,1.05-15.55-6.82-.18-21.45-1.02-25.42-7.09-4.72-7.23-9.77-34.03-12.1-43.9-5.46-23.1-13.92-55.44-15.47-78.53-.72-10.69,2.59-21.14-.51-31.5-7.75,37.92-13.44,76.39-21.81,114.2-2.25,10.15-7.78,39.45-13.68,46.32-5.42,6.32-22.03,6.48-30.01,7.49,2.75,3.48-1.83,22.18-1.01,22.99.51.51,10.11.22,7.97,4.95-24.22,6.13-49.28,10.1-74.44,8.04-6.37-.52-19.93-2.87-22.1-9.95-2.91-9.49,14.95-14.06,21.58-15.55,8.66-1.95,18.72-3.96,27.02.01-.05,2.21-35.69,8.15-39.99,12.02-2.2,1.98-.51,2.64,1.28,3.69,9.7,5.69,49,2.9,60.76.35,7.8-1.69,10.87-2.48,11.83-11.16.49-4.48.21-12.3-4.82-13.95-6.26-2.06-26.3-.06-34.55-.45-11.37-.54-27.37-2.05-38.35-4.65-19.23-4.54-18.42-11.47-16.04-29.73,3.4-26.12,12.42-57.05,19.17-82.83,20.29-77.45,44.25-155.98,67.22-232.78,4.48-14.99,10.3-29.77,13.5-45-18-.34-5.71-5.44,2.99-7.51s21.16-4.02,30.47-4.53c40.47-2.23,82.34,2.17,122.54,6.05Z"/>
  <path class="cls-10" d="M513.3,314.3c-1.56,1.15-3.35,6.68-4.85,8.64-5.45,7.1-16.99,6.11-23.36.47-7.3-6.46,6.78-.3,10.43-.33,2.05-.02,6.47-.98,7.48-3.08-7.56.91-13.52-2.84-18.99-7.52l-5.99-9.49c-2.56,6.87-7.18,14.02-11.99,19.52-6.08,6.96-25.16,23.44-33.35,26.65-9.47,3.72-18.67,3.68-28.48,1.12-5.81-1.52-11.76-6.17-16.94-7.06-21.15-3.61-40.3,17.19-56.53,27.99-30.92,20.58-61.15,29.45-92.2,2.74-6.14-5.28-18.14-18.93-20.52-26.49-.16-.51-.27-1.63.48-1.48,18.96,17.43,34.83,40.78,63.99,38.98,39.27-2.43,62.43-45.43,100.51-50.99-21.92-19.93-23.88-49.29-18.99-76.99-9.49.74-18.45-5.17-24.98-11.52l-7.01-11.47c-1.25,14.51,10.96,24.82,23.98,28.01.31,1.28-1.83,1.63-2.63,1.65-11.27.26-21.65-8.91-25.54-18.98-8.36-21.64,4.3-43.39,25.75-49.62-5.3-39.04,36.43-59.08,70.25-51.38,20.72,4.71,35.58,19.06,43.79,38.28,4.64-1.1,8.86-3.24,13.54-4.29,43.02-9.66,66.4,35.81,54.56,72.56-2.54,7.88-8.64,15.7-7.75,24.3,1.16,11.16,16.37,16.3,7.24,31.19-6.21,10.14-17.13,5.09-21.91,8.6Z"/>
  <path class="cls-18" d="M621,337c-1.81-.84-3.31-1.97-4.99-3,.66,2.22-.49,3.42-1.01,5,.75-7.16-1.53-14.01-8.33-17.17-7.3-3.39-7.21-.26-13.18.19-10.23.78-15.59-10.68-6.44-16.47,8.19-5.19,15.67,5.91,16.95,4.44.91-3.88-2.38-5.66-2.99-8.98,13-4,20.29-18.5,21-31.52.11-2.12-1.67-4.44-.88-6.82.34-1.02,7.24-4.66,9.32-7.74s2.87-6.43,3.58-9.94c9.6,2.84,22.72-.16,27.01-9.99l1.43.03c27.67,19.5,51.53,57.66,37.03,91.94-9.01,21.3-30.92,27.59-52.26,22.3-9.36-2.32-18.07-8.51-26.22-12.28Z"/>
  <path class="cls-10" d="M167,345c3.55,1.94,15.6,5.13,16.99,8.51,1.02,2.49-4.21,1.44-5.25,1.24-12.7-2.44-28.09-12.07-28.69-26.4-.1-2.31.95-4,.99-5.9.05-2.33-1.07-3.76-.61-6.45,1.19-7.05,9.31-3.67,13.58-7.52-3.37-5.18-23.12-32.05-16.09-37.05,5.38-2.01,8.78,2.68,12.04,6.1l11.02,15.46c-.33-5.97-10.31-24.82-3-28.54,6.18-3.14,10.77,8.88,12.87,13.18,2.37,4.87,6.9,19.08,9.67,22.33,1.2,1.41,4.15,1.37,6.01,2.99,8.1,7.03,2.09,29.12,6.48,39.03,8.95-5.46,12.93,2.32,6.43,9.94-4.53,5.32-37.78,24.59-42.44,20.05-.22-1.71-.14-2.22,1.01-3.48,1.62-1.76,14.28-5.53,18.29-7.71,3.09-1.69,11.77-7.31,12.47-10.57.84-3.87-2.31-9.28-2.76-13.74-.64-6.34,1.15-24.92-3.27-29.23-2.76-2.69-19.38,3.18-21.73,7.24,6.44,4.38,13.37-1.85,19.99-.01-2.37,4.69-8.13,6.28-12.99,6.52,3.23,3.95,8.12,14.4,2.41,17.89-2.24,1.37-4.75.57-6.16,1.36-1.29.72-.57,2.5-5.24,3.74-2.08-.31-2.75.02-2,1Z"/>
  <path class="cls-10" d="M846,322l6.99,3.99c-9.12,2.98-41.29-14.15-42.97-21.54-.22-.98-.33-3.59.12-4.31,5.76-2.95,10.48.15,15.85,1.85,2.09-10.92-5.11-20.2-2.32-30.82,1.83-6.98,6.4-4.9,8.16-7.84,2.02-3.38,3.6-12.18,5.4-16.6,1.92-4.7,8.78-23.16,15.07-21.61,8.33,2.05-2.55,27.3-3.29,32.87,4.85-4.89,10.95-22.09,17.75-23.81,1.24-.31,2.11-.44,3.26.27,7.94,4.88-10.16,32.14-9.01,33.54,2.05-2.1,6.63-2.97,8.76-.77.86.89.89,3.32,1.8,4.69,4.53,6.86,6.65,7.18,2.31,16.45-3.15,6.72-6.7,7.15-10.78,11.22-4.71,4.7-8.96,10.09-14.09,14.41-7.8-1.17,1.93-10.83,5.62-13.88l1.93-2.62c-8.38,2.25-8.94-4.98-8.66-11.37-2.12.15-18.09-2.96-14.31-6.46.37-.34.87-.53,1.41-.67-.67-3.18,14.37-2.24,15.09-1.84.76.43,1.28.91,1.41,1.84-.9-3.04-19.12-7.17-20.1-6.48-.32.23-.84,6.72-.29,7.8,1.71,6.38,3.01,11.28,2.69,17.95-4.3,12.57.09,16.64,11.45,21.37l.75,2.36Z"/>
  <path class="cls-10" d="M344,432c-1.58,3.24,2.26,4.07,2.06,5.47-.6,4.23-16.27,11.92-20.38,13.7-59.61,25.81-133.26-9.58-156.66-68.17,1.79-2.16,26.18,30.56,28.48,33.01,33.99,36.3,93.09,50.14,136.84,22.81,1.23-.77,8.99-7.72,9.67-6.82Z"/>
  <path class="cls-17" d="M739,437.01c27.4-1.25,51.57-10.27,72.02-28.5,24.83-22.14,32.85-44.28,45.72-73.28.54-1.21.5-2.96,2.26-3.23.51,14.02-5.78,27.99-12.47,40.02-19.2,34.53-51.74,66.37-93.15,69.85-4.76.4-15.06,2.01-14.37-4.86Z"/>
  <path class="cls-18" d="M846,322c-4.21-1.17-14.3-6.83-15.58-10.96s1.82-11.2,1.62-16.56c-.29-7.83-5.64-15.41-1.9-23.34,2.95-1.84,20.36,3.06,22.37,5.85.65.9-.79,2.01-1.02,2.01h-16.5c-.73,2.34,2.31,2.85,4.03,3.45,2.56.89,9.19,1.42,10.03,1.99,2.44,1.65-1.22,10.04,3.66,11.41,2.65.75,4.54-1.81,6.28.67-1,5.74-10.45,9.53-10.89,14.98-.08,1.03.93,2.31.89,2.5-.49,2.25-3.04,5.17-3,8Z"/>
  <path class="cls-6" d="M690.22,355.79c-.39-.71-.38-3.63-.23-3.79,1.93-2.04,45.26,15.03,53.63,15.87,33.15,3.33,47.02-30.17,58.2-55.56l4.17-6.31c.22,13.07-6.8,26.95-13.57,37.92-22.86,37.07-43.52,35.38-81.67,20.83-2.95-1.13-19.78-7.6-20.53-8.96Z"/>
  <path class="cls-17" d="M555.99,406.98c-1.5,2.12-8.51-.15-10.75-.72-31.15-7.97-45.69-46.96-76.26-59.74-1.76-.74-22.68-6.14-10.53-7.56,27.88-3.28,55.21,44.04,77.53,56.56,5.15,2.89,14.96,4.65,17.99,7.01,1.23.96,2.97,3.12,2.02,4.46Z"/>
  <path class="cls-1" d="M410.99,490c-2.69-1.21-3.16-5.17-3.71-7.78-4.64-21.66-5.57-59.77-2.21-81.66.74-4.83,5.25-7.11,5.98-1.12.89,7.37-1.82,18.24-2.09,26.01-.77,21.63,1.54,43.02,2.04,64.55Z"/>
  <path class="cls-17" d="M358.99,422c1.05.98.26,15.04,0,17.48-1.6,15.33-6.97,32.14-12.52,46.48-2.88,7.43-6.35,17.34-11.46,23.03-.13-11.15,6.1-20.97,9.25-31.24,3.61-11.75,7.05-25.12,8.72-37.28.45-3.23-.11-17.46,2.62-18.38.67-.22,3.22-.26,3.37-.11Z"/>
  <path class="cls-17" d="M724,423.01c6.4,1.89,8.46,10.26,10.75,15.74,8.5,20.39,14.06,41.95,22.88,62.23-2.56,11.71-9.79-8.61-11.37-12.73-8.12-21.13-13.62-44.14-22.25-65.24Z"/>
  <path class="cls-17" d="M477.52,432c1.37-.29,3.16,2.05,3.92,3.06,8.56,11.44,14.91,51.64,15.55,66.44.46,10.49-3.25,8.47-5.53.53-1.6-5.57-.74-11.25-1.58-16.42-1.49-9.16-3.65-19.93-6.16-28.84-1.24-4.41-7.79-19.13-7.79-21.3,0-1.58.24-2.55,1.59-3.48Z"/>
  <path class="cls-1" d="M693.02,484.99l-20.01-81.99c3.52,3.06,5.16,9.31,6.7,13.79,5.41,15.69,15.13,47.25,17.06,62.98.41,3.32.51,5.76-3.75,5.22Z"/>
  <path class="cls-22" d="M526.68,460.29c3.19,3.62-.92,4.1-4.41,2.93s-29.89-15.41-30.8-17.21c-3.83-7.58,6.04-4.14,9.54-2.54,3.98,1.81,23.25,14.08,25.66,16.82Z"/>
  <path class="cls-23" d="M257,112c.31.38-.2,3,.01,4l6.98-3c.7,2.87-1.9,3.91-2.99,5.98,9.99,1.9,2.89,2.74,2.01,4.04-.48.7,5.95,8.89-5,1.98-.25.32.05,7.24-2.49,5.99l-1.52-5.99-6.99,2.99,3.99-5.99-4-2,6-1.02-3-4.98,3.99,1.99c.21-.17,1.05-6.45,3.01-4Z"/>
  <path class="cls-1" d="M878,219c-1.66-4.37,4.64-30.12,9.48-28.99,1.01.23,2.39,3.34,2.47,4.55.19,2.89-6.21,20.38-8.09,22.82-1.28,1.66-1.62,1.94-3.86,1.63Z"/>
  <path class="cls-27" d="M767.02,99c.31.23,4.23-2.9,5.97-1.99l-1.99,4.98c7.92,1.33,1.44,2.43,1,3.03s2.76,2.27,2,3.97c-1.71.89-5.7-2.22-5.98-2-.22.17-.8,4.4-2.52,4.98l-1.5-4.98c-10.73,4.23-3.91.23-3.96-2.49,0-.38-5.83-1.59,2.97-2.51l-1.99-3.99c3.42,2.44,4.07-2.19,4.49-2,1.18.55,1.39,2.9,1.53,3Z"/>
  <path class="cls-21" d="M957.98,405.01c.97,5.5,2.92.07,7.01,1l-3,4.98c.87.61,6.06-1.46,3.64,2.75-.4.69-2.76-.41-.64,4.26-2.86.7-3.92-1.9-5.99-2.99,1.24,6.65-3.25,7.3-4.02,1l-5.98,1.99c-1.78-1.69,7.82-4.48,0-5.49l6-1.51-2.99-4.99,3.98,2.01,1.99-3Z"/>
  <path class="cls-27" d="M83.01,479l5.98-2.99-1.99,4.98c8.21,1.7,1.94,3.25,1.9,3.65-.12,1.26,1.28,2.11.6,3.36-1.26,2.36-4.99-2.52-5.5-2-.06,6.51-4.07,7.08-4.02,0l-5.99,1.99,3-3.97-3-2.01,5-1.02c-4.29-5.99-1.1-2.84.42-3.11,1.45-.25,2.19-6.87,3.59,1.12Z"/>
  <path class="cls-1" d="M106.01,289c-2.58-6.23,14.07-17.89,17.57-13.07.65,1.06.62,2.23.28,3.38-.52,1.74-16.39,11.16-17.85,9.68Z"/>
  <path class="cls-15" d="M124,261.99c-.31.48-5.3,1.13-6.49,1.1-1.51-.04-18.84-2.93-15.5-6.08,2.9-1.74,26.25-1.49,21.99,4.98Z"/>
  <path class="cls-16" d="M739,303c11.18,9.9,5.24,20.35-9,19.01-.27.18,1.09,2.09,1,2.99-.04.37-1.66,2.15-2,3v-8c14.13,2.44,11.51-7.63,9-17,.28-.87.62-.86,1,0Z"/>
  <path class="cls-27" d="M899.79,220.27c2.4-.23,4.38-.96,6.28,1.17,5.02,5.64-14.47,5.89-15.07,3.05s6.87-4.03,8.79-4.22Z"/>
  <path class="cls-27" d="M117.01,231.01c2.61-2.71,14.17,12.27,8.48,13.99-3.89,1.17-9.37-13.07-8.48-13.99Z"/>
  <path class="cls-7" d="M169,344c-.77.21-1.64.02-2,1-2.83-1.54-7.51-4.52-7.99-8,3.32,2.85,5.84,5.27,9.99,7Z"/>
  <path class="cls-18" d="M649.5,514c-.59.16-4.67,3.7-6.46,4.54-6.37,2.98-11.93,4.15-19.04,3.47-.54-5.63.52-10.59,2.82-15.69,3.38-7.52,4.98-5.38,9.68-9.32,3.07-2.57,8.81-10.04,11.76-11.24,4.64-1.88,11.32-.16,16.29-.8l9.44,2.04c-6.04,1.75-14.16,1.35-18.99,6,6.43-.25,12.73.07,19.01,1.51,1.11.25,3.23,0,2.98,1.49-5.91-.1-12.76.3-18.44,2.06-1.91.59-4.88,1.17-4.55,3.94,3.97.93,8.28.56,12.24,1.26,1.68.29,6.08.96,6.75,2.74-6.81-.1-12.63-1.4-19.46.04-8.76,5.63,12.98,2.85,15.46,7.97-5.32.91-14.8-1.23-19.5,0Z"/>
  <path class="cls-29" d="M787.99,797c-.92.85-13.61-5.53-16.29-4.85s-15.79,15.57-21.12,17.93c-8.55,3.77-25.83-9.23-33.9-12.92l-30.96,19.06c-1.01.56-2.1.81-3.25.86-6.77.29-24.61-12.61-32-15.06-3.34.1-17.96,16.02-22.53,17.53-1.68.56-3.92-1.25-3.93-2.04-.02-1.63,22.81-21.36,24.43-21.45,6.07-.34,25.04,14.76,32.05,16.89,12.56-5.68,23.05-14.84,34.99-21.59,9.43,3.16,25.21,15.71,34.85,11.49,5.2-2.27,16.7-15.02,19.36-15.69,2.12-.54,13.72,5.12,15.99,6.66.75.5,3.55,2.04,2.3,3.19Z"/>
  <path class="cls-2" d="M767,757.99c-3.55,1.38-13.6-5.18-15.36-4.84-1.33.26-15.64,13.19-18.74,15.25-1.77,1.18-2.99,2.59-5.37,2.66-6.87.18-18.72-9.82-25.03-12.74-6.27,2.75-22.42,17.31-28.09,17.67s-23.63-14.43-26.78-13.83l-16.64,15.34-3.99-1.02c-.28-1.41,17.29-18.95,19.72-19.33,4.82-.76,21.75,14.54,25.85,14.88,5.62.46,22.82-17.33,28.01-18.04,7.22-.99,19.83,13.28,28.45,10.57,5.56-1.74,19.67-14.93,22.64-15.36,2.02-.29,13.44,6.51,15.32,8.78Z"/>
  <path class="cls-2" d="M593.26,329.27c8.69-8.21,26.38,18.28,4.3,14.67-7.27-1.19-8.74-10.47-4.3-14.67Z"/>
  <path class="cls-19" d="M687,197c16.34,3.67,19.93,16.6,18.99,31.99l-4.22-14.27c-3.24-8.8-9.22-15.13-18.77-16.73.11-1.04,1.44-1.37,4-1Z"/>
  <path class="cls-3" d="M739,303h-1c-.2-.74-.98-1.47-1-2.57-.08-4.48,9.47-8.84,10.77-15.16s-.16-10.98-2.76-16.27c8.11,4.78,9.48,14.01,3.98,21.49-3.35,4.56-10.16,6.2-9.99,12.51Z"/>
  <path class="cls-19" d="M664.99,934.01l-11.5,1.97c-8.79.54-9.07.09-8.48-8.98,6.19,3.42,12.91,6.05,19.98,7.01Z"/>
  <path class="cls-26" d="M730.01,259c-.2-8.47,1.94-16.01-6.08-21.43l-6.93-3.56c11.74.25,24.17,15.6,13.01,24.99Z"/>
  <path class="cls-28" d="M759.99,934.01l-17.9,1.88-1.09-8.89c5.93,3.19,12.27,5.87,18.98,7.01Z"/>
  <path class="cls-8" d="M687,197l-4,1-8.99-.99c5.08-1.49,8.08-1.12,12.99-.01Z"/>
  <path class="cls-28" d="M627,527.01l-2.99,5.99c.31-3.39-1.71-7.02,2.99-5.99Z"/>
  <path class="cls-25" d="M463,223v16.5c0,8.69,10.86,21.43,18.08,25.92,7.91,4.91,21.21,4.63,18.69,16.85-1.64,7.96-10.55,10.66-17.77,9.73-.56-.47,3.67-12.39-.99-13.99-6.21,38.41-42.8,74.16-83.69,57.18-39.24-16.3-32.87-75.52-17.34-106.7,12.62-.04,23.7-1.83,33.52-10.19,14,11,33.91,13.82,49.5,4.71Z"/>
  <path class="cls-17" d="M672.14,269.14c-2.78,1.7-1.08,18.19,8.14,15.73,4.07-1.09,1.78-7.03,3.68-8.4,4.62-3.34,5.54,6.9,2.08,10.8-1.74,1.96-5.49,2.84-8.04,2.75l3.99,6.98c-3.65.91-9.29-6.68-10.63-6.9-1.09-.18-2.4,1.65-3.9,1.86-2.61.36-6.99.33-9.5-.42-2.86-.85-12.81-9.07-8.87-11.46,3.41-2.06,5.87,4.72,10.18,6.14,14.21,4.69,5.84-6.95,6.71-14.75.88-7.94,10.85-14.31,17.53-9.48,9.58,6.94-10.56,6.64-11.37,7.14Z"/>
  <path class="cls-1" d="M659.75,264.24c1.91,1.82,1.12,4.77-1.45,5.55-4.13,1.25-9.22-1.29-13.81-.83-2.75.27-3.99,1.81-6.48,2.03-2.76-2.61,15.4-12.83,21.74-6.75Z"/>
  <path class="cls-20" d="M664.83,313.22c.43.27.45,2.2,1.79,2.64,1.96.65,10.94-.71,6.47,4.73-3.86,4.7-14.19-2.2-13.08-6.06.42-1.46,3.53-2.11,4.82-1.31Z"/>
  <path class="cls-9" d="M175,304.99c-1.81.23-3.31,1.39-5.27.87-3.66-.96-17.22-22.6-16.72-27.86l21.99,26.99Z"/>
  <path class="cls-28" d="M180.09,301.9c-1.03-.87-7.22-22.72-7.08-25.9,4.34,4.06,5.73,10.96,8.13,16.36.8,1.81,4.86,7.68,4.83,8.15-.07,1.39-5.02,2.13-5.88,1.39Z"/>
  <path class="cls-3" d="M166.25,318.75c1.09,1.15,4.05,1.23,5.79,2.98,6.06,6.11,7.77,19.58-1.87,7.59-2.76-3.44-8.83-12.1-5.67-16.32,1.11,1.48.3,4.22,1.75,5.75Z"/>
  <path class="cls-12" d="M159,316c-.76,8.43,5.93,14.04,8.99,21-4.59-1.16-13.91-15.59-12.92-19.38.44-1.7,2.46-1.82,3.93-1.63Z"/>
  <path class="cls-11" d="M865.99,243c-2.07,10.21-7.54,19.42-11.49,28.98-1.05-1.62-4.56-2.13-4.39-4.29.31-3.75,12.07-21.57,15.87-24.69Z"/>
  <path class="cls-4" d="M850,236.01l-8,30c-.36.32-4.85-.82-5-1.03-.84-1.19,7.55-22.4,9.13-25.35.87-1.63,1.44-3.99,3.87-3.62Z"/>
  <path class="cls-11" d="M854.01,292c-.15-2.68.64-5.32,1.79-7.7.77-1.59,4.18-7.37,5.19-8.81,1.74-2.49,5.46-5.3,4.59-.44-1,5.54-6.87,13.75-11.56,16.95Z"/>
  <path class="cls-14" d="M870.01,278.01c1.71-.27,1.07,2.4.9,3.4-.46,2.71-1.9,6.28-3.48,8.53s-6.35,6.24-4.63,1.4c1.57-4.41,6.22-8.49,7.2-13.33Z"/>
  <path class="cls-24" d="M825,307.02c.1.13-1.22,3.06-1.49,2.97l-5.51-4.98c1.16.24,6.78,1.72,7,2.01Z"/>
  <path class="cls-17" d="M395.8,257.22c.28.16,1.48,2.81,2.63,3.84,3.07,2.74,8.16,4.15,11.89,1.93.91-.54.22-2.91,3.01-1.87,3.36,1.25,1.55,5.2,4.91,7.12,6.36,3.62,16.49-1.97,17.71-.21,3.75,5.37-10.1,7.26-13.46,6.98-5.32-.44-9.43-4.98-10-4.98-.99,0-13.07,14.39-15.5,11.97-2.17-2.17,7.83-10.92,8.99-12.99-4.78,1.17-14.65-4.41-14.76-9.34-.06-2.54,2.39-3.69,4.56-2.45Z"/>
  <path class="cls-15" d="M418.65,236.35c2.68,2.78,3.94,8.25-1.11,7.69-2.5-.28-3.78-3.64-6.31-4.77-3.91-1.75-11.93.36-11.04-4.62,1.01-5.64,15.13-1.74,18.46,1.7Z"/>
  <path class="cls-30" d="M433.25,247.75c-.43-.41-1.07-1.86-1.06-2.41.16-8.08,22.67.41,20.75,7.05-1.44,4.98-8.45-2.23-10.91-2.92s-7.06-.07-8.78-1.71Z"/>
  <path class="cls-30" d="M422.77,299.22c2.78,2.75-2.97,8.48-5.72,9.33-3.84,1.18-16.65.65-14.4-5.29,1.59-4.21,6.42.54,9.47.23,4.61-.47,7.39-7.48,10.65-4.27Z"/>
  <g>
    <path class="cls-5" d="M564.08,172.82c-6.21,3.67-25.06-18.37-14.46-23.61,5.83-2.88,7.25,2.5,9.32,2.99,2.13.49,3.89-4.24,7.23-4.81,7.01-1.2,9.3,3.78,7.58,10.1-.24.88-8.9,14.88-9.68,15.34ZM563.08,153.51c-.56.5.06,3.71-3.04,3.71-2,0-7.6-5.44-7.96-4.94-1.67,3.71,3.71,12.78,6.87,13.34,5.06.91,9.02-16.49,4.13-12.11Z"/>
    <path class="cls-13" d="M563.08,153.51c4.89-4.37.93,13.02-4.13,12.11-3.16-.57-8.54-9.64-6.87-13.34.36-.5,5.96,4.93,7.96,4.94,3.1,0,2.48-3.21,3.04-3.71Z"/>
  </g>
  <g>
    <path class="cls-5" d="M822.24,522.83c-6.21,3.67-25.06-18.37-14.46-23.61,5.83-2.88,7.25,2.5,9.32,2.99,2.13.49,3.89-4.24,7.23-4.81,7.01-1.2,9.3,3.78,7.58,10.1-.24.88-8.9,14.88-9.68,15.34ZM821.24,503.51c-.56.5.06,3.71-3.04,3.71-2,0-7.6-5.44-7.96-4.94-1.67,3.71,3.71,12.78,6.87,13.34,5.06.91,9.02-16.49,4.13-12.11Z"/>
    <path class="cls-13" d="M821.24,503.51c4.89-4.37.93,13.02-4.13,12.11-3.16-.57-8.54-9.64-6.87-13.34.36-.5,5.96,4.93,7.96,4.94,3.1,0,2.48-3.21,3.04-3.71Z"/>
  </g>
  <g>
    <path class="cls-5" d="M281.25,330.92c-6.21,3.67-25.06-18.37-14.46-23.61,5.83-2.88,7.25,2.5,9.32,2.99,2.13.49,3.89-4.24,7.23-4.81,7.01-1.2,9.3,3.78,7.58,10.1-.24.88-8.9,14.88-9.68,15.34ZM280.25,311.6c-.56.5.06,3.71-3.04,3.71-2,0-7.6-5.44-7.96-4.94-1.67,3.71,3.71,12.78,6.87,13.34,5.06.91,9.02-16.49,4.13-12.11Z"/>
    <path class="cls-13" d="M280.25,311.6c4.89-4.37.93,13.02-4.13,12.11-3.16-.57-8.54-9.64-6.87-13.34.36-.5,5.96,4.93,7.96,4.94,3.1,0,2.48-3.21,3.04-3.71Z"/>
  </g>
</svg>