<?xml version="1.0" encoding="UTF-8"?>
<svg id="Layer_1" data-name="Layer 1" xmlns="http://www.w3.org/2000/svg" viewBox="0 0 520.5 520.5">
  <defs>
    <style>
      .cls-1 {
        fill: #9f9e9e;
      }

      .cls-2 {
        fill: #252122;
      }

      .cls-3 {
        fill: #9a9898;
      }

      .cls-4 {
        fill: #fcfcfc;
      }

      .cls-5 {
        fill: #2c2729;
      }

      .cls-6 {
        fill: #b8b7b7;
      }

      .cls-7 {
        fill: #fbfbfb;
      }

      .cls-8 {
        fill: #231f20;
      }

      .cls-9 {
        fill: #9b9999;
      }

      .cls-10 {
        fill: #9d9b9b;
      }

      .cls-11 {
        fill: #d82f87;
      }

      .cls-12 {
        fill: #232021;
      }

      .cls-13 {
        fill: #262223;
      }

      .cls-14 {
        fill: #2b2728;
      }

      .cls-15 {
        fill: #d2d1d1;
      }

      .cls-16 {
        fill: #242021;
      }

      .cls-17 {
        fill: #b5b4b4;
      }

      .cls-18 {
        fill: #9f9d9d;
      }

      .cls-19 {
        fill: #9e9c9c;
      }

      .cls-20 {
        fill: #f7f7f7;
      }

      .cls-21 {
        fill: #272324;
      }
    </style>
  </defs>
  <path class="cls-8" d="M216.5,256.5c2.39-1.06,8.98-1.32,7,3,16.58,1.41,32.86,5.16,49.32,7.43,11.18,1.54,24.79,3.7,35.95,3.09,1.32-.07,6.1-.37,6.89-.61.89-.27,2.01-2.54,3.09-3.41,5.54-4.43,14.26-2.24,20.75-4.5-.62,4.75-8.85,3.45-12.62,4.12-4.64.83-9.5,4.07-10.67,8.88-.25,1.03.24,2.98,1.29,3.49.21-1.37.41-2.94,1.07-4.18.31-.58,4.29-5.53,4.93-4.81-.3,4.32-6.91,7.71-2,12-.01-1.72-.17-3.18.39-4.87.29-.89,3.82-5.61,4.37-5.62,2.49-.06-1.76,5.61-1.95,6.04-1.2,2.71-.44,5.43,2.7,5.95-2.31-4.27-.76-8.05,3.5-10,1.18,1.47-5.3,5.63-.52,9.28,3.87,2.95.44-1.96.54-3.5.32-4.73,5.8-2.08,8.29-1.83,3.84.39,6.36-1.36,8.61-4.27l-6.2-16.65-.49-4.55c6.25-2.81,13.16-3.68,19.6-6.38,10.23-4.29,21.9-13.7,28.17-22.83,13.37-19.45,25.3-67.45,58.14-49.17,21.26,11.84,39.93,58.26,41.37,81.63.05.8.37,3.42-.51,3.77-5.94-19.74-10.7-39.83-20.75-58.01-7.66-13.86-22.53-32.26-40.66-26.64-13.78,4.28-26.39,37.77-34.59,49.91-10.2,15.1-29.43,28.1-48.01,28.74,2.34,5.55,4.8,11.25,7.74,16.51,2.23,3.99,6.49,12.36,11.53,12.51,3.07.09,12.01-4.33,15.07-5.94,18.14-9.57,36.31-25.86,44.75-44.75l3.91-9.33c-.48,2.31.5,5.13.45,7.19-.23,9.46-19.44,29.11-26.71,35.29-7.84,6.67-28.56,20.79-38.56,21.46-5.6.38-6.44-5.55-8.34-5.37-.79.07-4.67,2.05-6.07,2.44-4.84,1.33-8.04,1.42-12.77-.51.45.89.46,2.69-.61,3.16-5.77,2.58-25-3.25-19.39-12.66-7.5,1.4-15.16,1.11-22.75.49-5.72-.46-12.18-1.34-17.93-2.07-16.98-2.14-33.76-6.02-50.82-7.42,1.99,2.99,1.6,5.43-.5,8.24-1.33,1.78-6.77,4.65-8.97,5.04-1.08.19-7.35.3-8.03-.04-2.29-1.13-.04-3.69-.25-5.25-8.54,7.91-22.36,12.45-33.94,10.44-3.4-.59-6.46-2.21-9.81-2.94-.41.38,4.89,8.81,5.49,9.76,8.72,13.7,20.18,25.09,30.5,37.5,4.32,5.19,8.17,10.81,12.52,15.98,14.39,17.08,29.58,33.42,44.63,49.91,1.45,3.62-7.63,15.03-10.15,18.09-1.68,2.03-3.76,3.73-5.49,5.76l.21,1.33-3.98,5.16c2.39,2.55,4.6,5.21,6.64,7.98,3.75-1.27,23.77-12.27,24.96-16.28.83-2.79-23.91,7.88-24.87,8.78-2.88.41-1.94-4.46.53-3.47,3.67-3.42,20.31-10.44,25.2-9.99,6.75.61,2.75,7.68.04,10.49-5.65,5.85-16.23,11.08-23.75,14.01,1.77,1.85,5.33,7.56.25,3.99-2.96-2.08-12.35-13.61-14.62-13.94-2.05-.29-9.4,6.79-13.41,4.46-1.9-1.1-8.81-10.39-10.7-12.8-4.67-5.94-21.15-27.44-21.04-33.96.19-11.53,4.67-24.54,1.98-35.99-3.05-13-17.74-30.15-26.7-40.3-.44-.5-3.87-4.44-4.25-3.99-.15.82.38,1.35.79,1.96,8.42,12.74,27.16,31.5,28.23,46.77,1.45,20.66-6.97,57.63-13.16,77.88-1.35,4.41-2.25,11.26-7.6,11.9-7.3.88-14.63-1-21.76-1.51l-1.14.94-8.14-.03c-.2.13-1.24,4.43-1.08,4.6.67.73,7.44,3.72,9.09,4.44,5.58,2.44,12.02,5.08,18.16,5.42,1.84.1-11.25-7.71-12.33-7.71-1.94-.85-6.6-4.22-2.57-4.16,5.9,1.85,13.15,4.13,17.74,8.51,4.01,3.83,3.44,7.51-2.47,8-8.76.73-21.8.25-30.52-1.03-.88-.13-.84.26-.75-.99h16.5c0-.85-1.66-.96-2.25-1-2.75-.22-5.71.17-8.5,0-6.57-.41-13.22-1.24-19.75-2-.14-.65.93-.8,1.37-.87,3.84-.59,7.8.15,11.63.38-.2-5.92,1.78-11.66,2.28-17.53-3.89-1.41-15.99-5.1-17.18-9.33-.82-2.9.49-7.15,1.26-10.02,4.58-17.07,17.63-42.2,17.15-59.34-.18-6.28-12.33-21.22-16.22-27.32-5.2-8.16-16.29-26.81-16.29-36.21v-7.75c-2.6,1.51-5.51,2.98-6.99,5.75.05.66,2.75,1.29,3.49,1.25-3.47,4.84-8.15.18-5.23-4.48,1.91-3.05,13.65-8.49,17.39-10.11,4.63-2,17.01-5.32,19.85-8.14.47-.47,1.31-1.36,1.31-2.02,0-1.16-7.52-6.51-8.68-8.15-2.68-.33-21.15-.06-22.15-1.11s2.5-1.4,2.81-1.43c4.94-.53,9.99-.73,14.95-1.06.75-.05,1.45.38,1.24-.75-5.94-7.43-12.1-16.01-16.58-24.42-1.71-3.2-3.93-6.56-3.41-10.33.82-.09,1.48.3,2.02.87,1.89,1.99,5.4,9.6,7.27,12.59,7.37,11.72,16.87,27.63,30.08,32.92,14.47,5.8,31.22,6.69,46.63,7.62-.35.9-2.52,1.21-3.38,1.37-3.44.65-6.9.49-10.38.63-.61.02-1.86-.38-1.74.49,9.07,3.01,17.82,2.42,26.63-1.11l6.86-3.38c-4.15.39-7.3-.22-10.99-2,1.43,3.24-2.36,6.7-3,3.25-1.03-5.61,3.21-14.08,6.29-18.71,1.25-1.87,2.77-3.18,4.16-4.85.33-.4.94-.37.06-.95-2.31-1.53-10.48-3.45-13.5-4-5.34-.99-16.53-1.14-20.75-2.75-1.66-.63-1.46-1.24.22-1.76,2.71-.85,22.82,1.97,26.71,2.84,2.77.62,9.43,2.45,11.68,3.82,2.64,1.62,2.75,7.12,1.39,7.1-1.19-.02-.46-3.88-2.25-3.49v5.5c4.91.18,10.78-.52,15.5,1,3.55,1.28,3.88,1.11,1-.5Z"/>
  <path class="cls-8" d="M466,454l-1.85-1.48-3.64-.26c1.47-1.55,6.82-.69,8.02-1.48.4-.26.82-2.16,1.47-3.03,3.29-4.42,13.33-9.51,12.4-15.87-.21-1.41-1.29-2.49-1.38-3.88,6.99,2.68,4.58,9.4.51,13.76-2.05,2.19-8.15,6.12-9.27,8.24-1.66,3.15,5.03,1.59,6.64,1.14,6.53-1.83,5.65-4.03,9.11-8.39,2.65-3.34,8.11-5.98,7.39-10.87-.24-1.64-5.55-11.16-6.63-11.25-3.11,1.57-6.64,2.12-9.78,3.61-5.52,2.61-17.35,11.9-22.76,12.24-.57.04-3-.4-3.27-.77-.81-1.14-1.78-6.11-2.44-7.95-8.17-22.67-22.97-42.96-31.02-65.48-2.74-7.67-4.25-10.91-2.12-19.14,3.09-11.95,9.38-23.49,12.13-35.62-2.37,2.17-3.45,5.62-4.73,8.52-4.41,10.02-7.95,20.5-11.72,30.77.27,9.92,4.79,19.72,8.74,28.71.79,2.93-4.08,10.92-5.7,13.84-3.12,5.6-6.97,11.58-10.68,16.82-4.38,6.19-19,25.22-26.19,26.31-3.44.52-6.73-2.78-7.72-2.26-.53.28-5.11,7-6.24,8.29-3.44,3.91-7.47,8.12-12.99,8.51-2.45.17-4.38-.5-6.5-.54-4.09-.06-8.19.09-12.27.02.25-.79.96-1.33,1.76-1.48,2.94-.58,8.01.06,11.24-.52l-3.31-.93-5.18-.56,9-1.01c-3.82-3.67-16.92-13.47-14.24-19.48,1.47-3.29,8.15-.65,10.57.4,5.09,2.2,10.41,5.97,13.16,10.84-.05.5-.79.25-1.15.15-2.1-.62-6.33-4.44-8.7-5.8-2.5-1.44-7.62-4.11-10.39-4.12-.81,0-.84-.11-.78.78.22,3.36,10.16,11.73,13.07,13.93,2,1.51,4.98,4.39,7.47,3.58,1.67-.54,11.93-11.88,11.93-13.04-3.79-2.27-5.51-6.16-8.25-9.19-3.56-3.95-7.91-7.5-11.18-11.82-1.39-1.84-3.58-3.82-2.8-6.26.6-1.86,10.41-10.64,12.54-12.97,19.97-21.82,39.32-49.24,50.12-76.88,2.92-7.48,4.71-15.71,7.58-22.94.2-.51-.27-.86.79-.68,4.94,3.72,11.64,6.92,16.08,11.17,4.19,4,8.98,11.33,12.59,16.16,6.76,9.06,13.73,21.6,21.5,28.78,2.51,2.32,12.93,26.96,15.83,32.39,5.17,9.67,11.33,18.84,16.55,28.48,2.07,3.43-8.76,10.41-8.76,11.26,3.92,4.79,9.96,12.75,8.24,19.27-1.03,3.88-5.53,6.17-7.78,8.72-1.4,1.59-2.26,4.37-3.97,6.03-1.18,1.14-7.44,4.23-8.77,4.23h-20.25c-.04-.33.66-1,.75-1h7.25Z"/>
  <path class="cls-8" d="M103,161.5c-.98,4.33-2.74,7.91-3.49,12.2.51,3.39,4.03,4.19,6.25,6.28,4.83,4.55,5.65,12.3-.39,16.13-6.98,4.44-16.85-2.13-23.16.34-2.83,1.11-4.11,5.75-5.95,8.05-4.27,5.34-13.14,5.9-17.96.93-3.21-3.31-4.42-10.59-8.45-12.55-5.21-2.53-12.22.75-17.61,1.1-18.14,1.15-24.04-19.34-12.49-30.99,8.9-8.97,14.37-7.11,16.24-22.76,1.63-13.67.48-23.66,6.58-36.92,8.66-18.84,31.14-30.58,48.92-15.82.69-14.15,16.49-20.53,28.34-14.08,13.56,7.38,14.88,25.8-.94,31.22-3.71,1.27-6.66-.3-5.66,4.39,1.89,8.9,7.06,13.92,16.04,14.95,4.31.5-.6,1.86-.77,2.03-.26.26,1.38,5.88,1.49,7.25.69,8.56-1.56,20.25-9.49,24.75,11.24,8.99,9.25,26.42-7,26.49,1.85-2.21,9.62-3.89,9.94-7.32.25-2.69-7.52.52-7.44-2.67l8.5-1v-2.51s-13-.5-13-.5c-.14-1.02-.09-.82.62-1.12,1.32-.56,4.6-1.06,6.18-1.32,2.92-.46,8,.2,2.16-3.78-4.34-2.96-9.72-1.87-14.97-3.78-.7-1.46.79-1.87,2.13-2.16,8.52-.08,15.24-4.92,17.14-13.37.18-.81.87-4.03.63-4.34-.5-.65-6.52-2.57-7.91-2.57-3.11-5.64,4.81-5.15,7.97-2.35.54-.93-.23-10.71-3.52-9.45l-4.58-2.96c-3.45,1.76-6.52,1.68-9.36-1.13-2.27-2.24-4.26-5.87-.12-7,.33.34,5.95,5.49,5.77,4.79-2.15-3.52-3.62-7.19-4.4-11.02-2.05,1.43-4.12,2.25-6.21,2.47-1.88,8.19-6.82,15.67-13.96,20.13-.45,2.95-2.76,3.19-6.93.71-11.28,1.82-2.64,15.14,5.65,10.51,5.23-7.2,9.02-2.12,3.15,3.34,4.54,1.83,8.78,4.88,11.1,9.29,1.29,2.46,1.74,3.62.95,6.09Z"/>
  <path class="cls-8" d="M395.49,81c2.22-4.52,8.26-7.62,13.24-8.01,16.15-1.28,30.22,14.2,32.21,29.33,2.17,16.51-4.76,34.73-23.94,34.19-.78.76,2.94,5.33,3.49,6.26.37.62.64,1.06-.26,1.24-2.98.61-6.17-6.97-7.52-8.97-.82-1.21-2.37-2.07-3.14-3.35-1.87-3.08.16-3.19-5.07-3.68l6.85-2.39c5.13-3.04,4.69-13.49-2.56-12.56-5.6.72-6.81,12.84-14.81,10.72-6.04-1.6-4.14-12.55-3.97-17,.02-.55.31-1.9-.52-1.76-.38,2.42-8.56,6.73-9,7.75-.39.9,1.82.5.91,2.91-.64,1.7-11.9,7.78-10.92,1.83-1.06.8-7.73,1.65-8,2.01-.12.17,1.64,3.48-.72,3.5-1.13,0-5.19-2.68-6.79-3.24-2.28-.81-4.71-.98-7.12-1.88-18.02-6.75-19.11-27.72-5.1-39.37s39.06-12.16,52,2.47h.73Z"/>
  <path class="cls-8" d="M412,263.75c.11-1.01,2.14-8.77,2.75-8.76,1.65,3.95.9,8.38.25,12.5,13.12-3.28,26.19-6.84,39.75-7.99,5.64-.48,25.72-1.52,29.89.6.59.3,1.87,1.73,1.84,2.15-.09,1.56-6.7-.36-7.99.25,6.34,15.29,3.59,33.4-.87,48.88-.84,2.92-6.52,20.89-7.61,21.89-2.54,2.35-2.73-.55-3.82-2.23-10.36-15.98-20.56-34.15-36.75-44.75-1.69-1.11-11.5-6.3-11.85-6.89-.99-1.69,1.7-7.14.89-9.4-.32-.36-6.5,3.22-6.5,1.25,0-2.35-.24-5.25,0-7.5Z"/>
  <path class="cls-15" d="M103,161.5c-1.11-7.72-6.86-12.69-14-15.01,2.3-2.11,4.73-3.4,3.49-6.99l-4.14,4.1c-8.92,4.61-16.97-6.56-9.83-11.32,3.76-2.51,4.83-.03,7.84.62,2.6.56,1.11-.53,1.9-1.88.33-.56,2.94-2.01,3.75-2.76,3.58-3.34,6.38-7.12,8.38-11.62.52-1.18,1.86-6.4,2.12-6.64.21-.19,1.41.61,2.15.43,1.02-.25,3.62-3.27,5.85-2.43-1.61,2.79,4.91,11.96,4.5,12.5-1.68,2.21-6.33-3.15-7.26-4.49-3.59,1.6,1.43,6.64,3.74,7.26,3.68.98,4.99-1.2,5.77-1.15.3.02,4.1,2.73,5.12,3.26.75.39,2.12.42,2.51.74.91.75,2.36,9.64,1.32,10.43-1.99.86-3.4-1.89-5.48-2.03-.75-.05-2.99.51-3.18,1.28-.56,2.26,2.44,1.53,3.61,1.8,1.65.38,3.02,2.62,5.36,1.9-.38,9.63-4.66,17.06-14.37,19.38-2.01.48-4.96-.18-6.63,1.62-.49-.18-2.28-.69-2.5-.5-.07.47.09,1.07,0,1.5Z"/>
  <path class="cls-8" d="M504.5,350.5c-10.57,11.63-27.3,2.97-35.99-6.77-19.06-21.36-25.68-46.85-54.83-59.67-7.29-3.2-14.94-3.69-21.67-6.33-2.9-1.14-4.78-3.51-.33-3.19,38.27,2.77,52.54,30.6,71.92,57.61,10.18,14.18,21.76,26.67,40.91,18.35Z"/>
  <path class="cls-8" d="M33.25,332c26.27-2.46,32.29-33.89,46.99-50.51,7.43-8.4,18.88-15.79,29.76-18.74,2.96-.8,6.88-2.4,8.99.5-.31.35-.63.7-1.01.98-2.11,1.56-11.87,3.89-15.46,5.54-22.54,10.36-26.17,27.25-38.61,45.39-8.14,11.87-24.55,24.58-39.4,17.08-1.29-1.98.55-.24.74-.24,2.54,0,5.54.23,8,0Z"/>
  <path class="cls-8" d="M441,163c-1.92.39-4.33-2.68-5.35-2.92-1.84-.43-21.41,8.62-23.99,10.32-2.11,1.39-3.78,3.13-3.68,5.83.06,1.48,2.83,6.72-1.17,5.8-.81-.19-2.72-6.69-2.77-7.86-.07-1.66,1.15-2.88.9-3.81-.36-1.35-5.35-5.92-6.79-6.25-2.2-.51-5.72.55-8.42.41-10.42-.53-25.11-7.87-25.72-19.52,2.38,2.28,3.59,5.37,5.98,7.77,4.09,4.11,11.05,7.57,16.83,8.17,3.85.4,9.4-.61,12.83.17,1.61.36,3.58,2.97,5.19,3.81,6.34,3.35,15.66-2.71,21.69-5.15,1.82-.74,7.76-3.32,9.26-3.3,2.03.03,5.28,4.38,5.23,6.53Z"/>
  <path class="cls-8" d="M155,237.5c-2.33.51-4.2-2.69-5.76-2.99-5.15-.99-14.32.42-19.91.3-7.63-.16-4.9-1.82.49-2.74s11.09-1.03,16.68-1.32l-8.47-9.98c-8.79.45-17.89.97-26.52-1.28.2-.94.99-.91,1.74-1.01,7.06-.96,14.63-.96,21.76-.99-2.53-3.65-5.75-7.22-8.99-10.25-.99-.92-4.67-3.22-4.93-4.08-.58-1.91.59-2.48,2.28-1.77,6.66,2.79,20.85,22.43,26.16,28.85.68.82,6.57,6.21,5.48,7.26Z"/>
  <path class="cls-9" d="M242.5,419c-.52.48-2.53,2.77-.75,2.51,8.53-3.4,16.72-9.26,26.24-9.01,1.58,1.51-6.7,7.57-7.84,8.4-5.57,4.05-11.92,7.64-18.42,9.94-2.8-2.8-5.02-6.26-8.23-8.59,2.24-1.91,3.62-4.54,5.49-6.75l3.5,3.5Z"/>
  <path class="cls-12" d="M84,274c-.65.86-2.11-2.16-2.25-2.5-5.04-12.02-1.83-53.07,2.39-66.11.56-1.72,2.69-7.78,5.04-7.31,2.74.54-.63,5.05-1.19,6.66-2.27,6.62-3.61,14.6-4.43,21.57-1.84,15.7-1.5,32.04.44,47.69Z"/>
  <path class="cls-9" d="M142,438c.13.66-.23,2.7.04,2.97.07.07,1.4.36,1.96.53-2.13-.29.18,1.46.53,1.72,4.2,3,11.09,5.21,14.7,8.8.77.76,1.51,1.15,1.26,2.49-10.85-.58-20.57-5.63-29.99-10.53l1.46-6.26c3.32.51,6.72.06,10.03.29Z"/>
  <path class="cls-16" d="M151,224.99c-1.45.14-2.3-.56-3.22-1.53-3.19-3.34-7.21-13.92-10.01-15.99-1.81-1.34-6.89-.56-7.77-2.23-.82-1.56,5.58-1,4.99-2.48s-5.18-7.27-6.51-9c-.92-1.2-4.9-5.13-5-6.03-.22-1.98,1.14-2.06,2.54-1,2.99,2.25,6.87,7.73,9.09,10.91,5.92,8.47,11.11,18.23,15.89,27.36Z"/>
  <path class="cls-16" d="M139.5,252.99c-.77-.75.17-.86.69-1.05.9-.32,2.74-.71,3.7-.81,7.59-.8,18.29-1.21,25.86-.63,1.98.15,7.67.64,4.51,3.5-1.46,1.32-14.15-.43-16.99-.53-2.63-.1-16.81.46-17.77-.48Z"/>
  <path class="cls-16" d="M357.95,124.55c.23,2.65-.36,5.39.55,7.94l2.98-6.27c.85-.65,2.23.21,2.4,1.09.39,1.99-6.42,12.71-.64,12.73,2.84,0,4.17-3.2,6.76-3.53-1.16,5.08-10.58,9.17-11.88,2.13-.21-1.13.1-2.41-.11-3.28-.11-.46-1.08-.59-1.44-1.15-.84-1.33-1.6-3.88-1.61-5.45-.01-2.15.31-5.67,2.99-4.2Z"/>
  <path class="cls-2" d="M370.95,124.05c.97.64-.4,6.6,2.89,6.87,2.73.23,4.17-10.18,6.43-6.94.52,4.24-2.81,10.56-7.91,9.41s-4.98-11.71-1.4-9.35Z"/>
  <path class="cls-2" d="M427.3,198.04c2.36-.78,2.02,1.53,2.6,2.81,1.21,2.64,2.7,4.54,5.69,5.31,1.47.38,6.75-.03,4.7,2.88-1.53,2.16-8.77-.91-10.53-2.54-1.39-1.29-5.17-7.55-2.45-8.45Z"/>
  <path class="cls-2" d="M381.62,247.13c1.15-1.11,2.05-.37,2.88.62,2.91,3.48,2.74,10.29-.5,13.5-1.34,1.32-3.53,1.65-3.52-.5,0-.84,3.14-3.81,3.04-6.98-.07-2.34-3.17-5.42-1.9-6.64Z"/>
  <path class="cls-21" d="M443.12,235.37c-3.77-3.91,2.01-14.61,6.06-13.33,3.42,1.08-1.9,3.93-2.39,4.49-2.65,3.04-.31,6.93-1.01,8.45-.49,1.05-1.88,1.19-2.65.39Z"/>
  <path class="cls-14" d="M105.5,247c.38,5.02-1.21,3.07-4.23,2.98-2.11-.06-11.35.53-12.27-1.23-.5-.96,2.23-1.19,2.75-1.24,4.53-.47,9.19-.51,13.75-.5Z"/>
  <path class="cls-13" d="M475.36,240.35c-1.36,1.5-3.5,1.23-4.25,4.51-.32,1.41.41,5.75-2.62,3.9-3.38-2.06,2.85-12.21,6.18-11.22,1.03.31,1.47,1.95.69,2.81Z"/>
  <path class="cls-2" d="M140.85,63.08c5.37-1.52-.76,11.8-2.6,11.41-2.01-.43.06-10.69,2.6-11.41Z"/>
  <path class="cls-2" d="M141,82.5c-.07-3.67,8.04-4.97,10.72-4.47,2.21.41,4.2,2.62.91,3.36s-8-.49-11.64,1.11Z"/>
  <path class="cls-21" d="M371.53,148.03c.52-.76,2.92.18,3.95-.27,1.66-.73,2.51-4.5,4.76-4.3,3.27.29-1.64,6.35-3.45,7.07-2.37.94-6.9-.09-5.25-2.5Z"/>
  <path class="cls-2" d="M315.91,82.64c1.69-.12,4.93-.06,4.05,2.55-.67,1.98-6.98.87-8.74,1.77l-1.69-1.27c-.33-1.9,5.1-2.96,6.38-3.05Z"/>
  <path class="cls-21" d="M322.67,73.33c.83,1,2.01.47,1.88,2.92-.35,6.26-7.47-3.04-7-4.9.9-3.55,4.27.95,5.12,1.98Z"/>
  <path class="cls-1" d="M462.62,220.88c-1.61-1.68-.31-5.73,2.57-3.82,3.1,2.05-.76,5.7-2.57,3.82Z"/>
  <path class="cls-19" d="M435.38,254.88c-2.82,2.79-6.17-2.99-2-3.79,2.44-.47,3.3,2.52,2,3.79Z"/>
  <path class="cls-18" d="M367.84,258.57c2.27-.2,3.47,5-.56,4.44-2.87-.4-1.92-4.22.56-4.44Z"/>
  <path class="cls-10" d="M402.85,221.59c3.73-1.12,3.84,4.02.82,4.3-2.56.24-3.03-3.64-.82-4.3Z"/>
  <path class="cls-18" d="M434.07,190.43c-.4-.25-.84-2.83-.35-3.46,4.71-2.26,3.88,5.67.35,3.46Z"/>
  <path class="cls-17" d="M216.5,256.5l5,1.99c-2.78,1.31-3.82-.79-6-1.49.47.08.75-.39,1-.5Z"/>
  <path class="cls-15" d="M221.5,268c-1.66.4-.83-1.83-1.45-2.71-.31-.43-1.34-.43-1.54-.29s1.7,3.83-.5,4.5c.87-1.64-2.06-5.88-3.5-4.5-.39.37,3.89,8.19-1.5,7.99.89-3.08,1.27-7.51-3-7.49,1.36,3.13,2.02,6.83-2,7.99-.31-.33,2.66-6.75-3.21-6.47-3.77.18-9,4.44-13.57.5-1.78-1.53,1.97-8.12,3.28-8.81.3-.16,5.59.31,6.76.3,3.39-.02,6.75-.45,10.35.11,4.33.68,10.15,3.89,9.88,8.87Z"/>
  <path class="cls-7" d="M139.5,453l-10.5-.49.5-5c3.34,1.7,7.03,3.3,10,5.5Z"/>
  <path class="cls-20" d="M342,279c3.28-.56,5.82-2.89,8.25-4.99l2.25,3.48c-3.4,1.1-6.86,2.48-10.5,2.51-1.33-.16-1.27-.62,0-1Z"/>
  <path class="cls-3" d="M342,279v1c-1.12,0-2.54-.18-3.51-.75,0-.53,2.84-.14,3.51-.25Z"/>
  <path class="cls-4" d="M121,100c4.75-7.84,2.4-17.42-4-23.49,9.85,2.83,14.91,18.69,4,23.49Z"/>
  <polygon class="cls-6" points="107 105.99 103.01 108 102.5 103 107 105.99"/>
  <path class="cls-4" d="M350.5,78l-5.9,6.84c-3.91,5.5-6.15,11.01-5.59,17.9.13,1.62,1.19,3.21.75,4.75-8.07-10.53-.17-24.94,10.74-29.5Z"/>
  <g>
    <path class="cls-5" d="M93.41,395.03c1,.99,1.02,3.93.93,5.34-.09,1.25-2.42,11.54-2.91,11.89-3.02,2.17-13.07-3.61-14.73-6.79-3.35-6.4,3.02-9.05,8.02-5.45-.53-4.4,5.58-8.11,8.7-5ZM87.67,408.89c-.56-2.04,5.25-11.1,1.84-11.82-2.29-.48-2.96,5.64-3.32,5.91s-5.74-2.55-7.37-1.47c-1.31,3.2,8.03,8.13,8.86,7.39Z"/>
    <path class="cls-11" d="M87.67,408.89c-.82.75-10.17-4.18-8.86-7.39,1.63-1.08,7,1.75,7.37,1.47s1.04-6.39,3.32-5.91c3.4.72-2.4,9.78-1.84,11.82Z"/>
  </g>
  <g>
    <path class="cls-5" d="M454.57,70.61c-4.46,2.63-18.01-13.21-10.39-16.98,4.19-2.07,5.21,1.8,6.7,2.15,1.53.36,2.8-3.05,5.2-3.46,5.04-.86,6.68,2.72,5.45,7.26-.17.63-6.4,10.7-6.96,11.03ZM453.86,56.72c-.4.36.04,2.67-2.18,2.66-1.44,0-5.46-3.91-5.73-3.55-1.2,2.66,2.67,9.19,4.94,9.59,3.64.65,6.48-11.85,2.97-8.71Z"/>
    <path class="cls-11" d="M453.86,56.72c3.52-3.15.67,9.36-2.97,8.71-2.27-.41-6.14-6.93-4.94-9.59.26-.36,4.29,3.54,5.73,3.55,2.23,0,1.78-2.31,2.18-2.66Z"/>
  </g>
  <g>
    <path class="cls-5" d="M273.05,261.95c.66.51,13.74-5.1,11.96,5.46-.47,2.77-13.8,11.69-15.36,11.39-5.96-1.14-11.09-23.49-1.31-22.63,4.04.36,4.23,5.41,4.71,5.78ZM269.89,261.06c-.37-.24-2.91-.57-2.9.47-.31,3.98.43,8.06,2.56,11.46,2.25.38,9.71-5.77,10.44-7.55,1.46-3.53-6.12.79-7.33.43-2.09-.61-2.31-4.52-2.77-4.81Z"/>
    <path class="cls-11" d="M269.89,261.06c.46.29.67,4.2,2.77,4.81,1.22.35,8.79-3.96,7.33-.43-.74,1.78-8.19,7.93-10.44,7.55-2.13-3.4-2.87-7.48-2.56-11.46,0-1.04,2.53-.71,2.9-.47Z"/>
  </g>
</svg>