<?xml version="1.0" encoding="UTF-8"?>
<svg id="Layer_1" data-name="Layer 1" xmlns="http://www.w3.org/2000/svg" viewBox="0 0 1040 1041">
  <defs>
    <style>
      .cls-1 {
        fill: #252122;
      }

      .cls-2 {
        fill: #2c2729;
      }

      .cls-3 {
        fill: #fbfbfb;
      }

      .cls-4 {
        fill: #f9f9f9;
      }

      .cls-5 {
        fill: #231f20;
      }

      .cls-6 {
        fill: #f8f7f7;
      }

      .cls-7 {
        fill: #d82f87;
      }

      .cls-8 {
        fill: #272425;
      }

      .cls-9 {
        fill: #262223;
      }

      .cls-10 {
        fill: #fefdfd;
      }

      .cls-11 {
        fill: #d2d1d1;
      }

      .cls-12 {
        fill: #242021;
      }

      .cls-13 {
        fill: #fefefe;
      }

      .cls-14 {
        fill: #272324;
      }
    </style>
  </defs>
  <path class="cls-5" d="M836,662c-1.86-1.48,5.26-4.26,6.01-4.5,13.19-4.23,26.31-4.57,39.32-11.68,24.47-13.36,40.11-49.67,21.68-73.83.43,6.56,2.92,13.95,3.04,20.47.84,45.61-46.87,61.48-85.05,59.53,7.57,40.42,11.13,93.48-19.99,125,6.81-20.7,15.51-38.26,17.98-60.51,7.16-64.44-33.82-151.95-80.47-195.52-9.34-8.72-13.69-12.65-27.16-13.85-22.69-2.02-43.1,7.52-67.15.15-25.77-7.89-31.76-31.88-60.71-30.27-20.3,1.13-41.38,5.46-61.97,6.03-4.94.14-23.54,1.19-25.54-3.55,4.69-3.53,10.51-2.37,15.99-2.5-13-13.15-5.28-34.11,11.99-38.48-1.73-1.18-1.31-3.59-3.4-3.53-5.52.17-14.99,8.89-17.35,13.76-1.43,2.94-2.72,12.83-3.26,13.26-.84.68-3.35-.09-3.83-1.66-3.94-12.71,9.22-29.28,21.44-32.31-4.47-24.38,11.34-47.93,36.4-50.04-14.66-34.8,15.23-72.22,52.01-68.99-1.36-47.22,52.55-73.08,92.36-52.14,20.99-28.72,68.79-26.06,87.05,4.21,3.51,5.82,6.49,11.9,5.57,18.93,47.97-3.68,76.04,55.67,49.01,92.98,21.54,4.41,36.63,25.67,39.86,46.65,2,12.96-.25,28.02-5.69,40.03-1.85,4.08-4.65,7.26-6.17,11.32,35.96,7.53,47.8,51.85,31.02,81.54,3.48,5.42,8.24,8.51,11.78,14.17,19.25,30.75,3.79,69.96-27.12,85.48-6.33,3.18-25.63,9.82-32.18,9.82h-15.5Z"/>
  <path class="cls-5" d="M340.65,243.35c5.43,5.43,9.38,12.86,12.85,19.63,15.65-13.33,39.5-4.54,51.52,9.5,12.21,14.24,12.37,29.44,5.98,46.52,32.64-6.51,31.33,55.76,6.4,56.96-8.35.4,1.63-4.73,3.1-5.95,4.26-3.56,8.74-9.08,8-15-4.86,7.99-11.52,13.05-20.34,16.15.68,12.69-4.4,25.73-16.25,31.48,2.99,26.84,2.14,56.6-14.89,78.86,8.71,4.11,17.01,9.38,22.41,17.57,2.35,3.56,1.86,5.98-2.66,3.67-3.82-1.95-8.57-6.46-13.1-8.91-2.29-1.23-9.02-5.07-11.13-4.86-1.35.14-16.1,14.7-20.62,17.45-30.67,18.65-51.54,5.92-81.49-1.35-20.52-4.98-31.72,4.56-45.95,17.9-47.01,44.05-99.85,123.82-95.52,190.57,1,15.47,6.78,28.34,11.34,42.66.32,1,1.46,3.19.21,3.79-7.57-8.17-12.44-16.94-15.21-27.79-19.61-76.8,48.3-173.79,102.69-222.72,8.15-7.33,18.49-16.64,29.01-19.5-11.65-10.59-22.97-23.64-24.99-39.99,10.66,13.82,19.19,26.53,33.67,36.82,44.95,31.91,104.82,19.66,117.83-37.81,7.43-32.83-1.21-64.63-13.62-94.89-21.84.63-45.55-5.47-61.39-21.11-7.23,20.14-31.35,35.13-52.49,27.99-1.37,13.77-14.29,20.6-25.88,25.13-1.98,3.12,14.98,29.4,2.24,37.74-4.26,2.79-9.21,2.47-13.33-.4-6.3-4.4-7.05-17.55-14.98-20.02-12.93-4.01-22.11,6.7-21.04,19.05,1.81,20.9,22.61,23.35,38.98,17.52-18.21,17.94-47.03,3.4-46.01-22-11.56,1.63-20.57-4.07-28.98-11.01,2.12,10.09,11.68,13.73,19.79,17.74,1.34.66,2.76-.65,2.2,2.25-24.18,5.04-34.31-25.02-32.98-44.48,1.3-19.05,17.77-37.5,36.98-39.52-12.24-22.04-1.76-54.03,18.47-68.02,17.54-12.12,37.01-11.57,56.52-4.97,6.28-43.89,62.67-56.67,92.66-26.66Z"/>
  <path class="cls-5" d="M492.01,685c3.34-2.74,4.09-8.03,6.99-11.5,9.81-11.74,34.21-5.46,47.22-2.22,43.4,10.84,109.72,35.58,153.32,32.75,10.24-.67,19.05-7.49,29.46-4.03-.13,3.35-3.8,5-6.45,6.04-18.49,7.24-57.76,2.4-77.56-1.53-8.73-1.74-21.85-6.76-29.62-7.43-9.92-.86-6.56,1.57-6.33,7.38.9,22.58-7.51,58.81-23.52,75.56-6.33,6.62-17.95,10.42-21.26-.79-2.69-9.11,1.46-34.4,4.45-44.02,4.35-13.98,4.63.48,4.33,6.33-.54,10.23-4.52,23.92-2.98,33.89.75,4.82,5.24,6.19,7.48,2.57.9-1.45-.69-7.76-.6-10.54.42-13.74,3.36-28.18,5.15-41.83-.11-.55-8.72-5.08-10.01-5.19-1.14-.1-15.19,8.44-20.82,9.31-3.17.49-16.66-.39-17.26.24-.99,1.05,2.27,5.42-5.8,9.7-8.34,4.43-26.73,6.3-34.13-.28-2.45-2.18-2.42-5.77-5.06-7.43-2.89,17.33-29.4,16.68-40.51,8-4.72-3.69-5.54-6.1-3.51-11.99-11.69.48-25.79-1.15-33.41-11.1-2.27-2.97-3.03-6.06-5.22-8.84l-19.28,5.03c-1.69,19.44.29,41.74-10.1,58.89,10.4.95,14.79-16.88,16.54-24.95,1.5-6.91,1.63-23.3,3.95-28.05.22-.44,1.25-1.25,1.5-.98,3.12,9.98,2.38,20,.7,30.18-1.99,12.05-8.27,33.31-24.13,30.76-9.7-1.57-13.85-22.62-15.26-30.73-4.03-23.2-1.47-44.96-.29-68.21-26.72,3.1-52.91,9.74-79.63,12.88-14.9,1.75-46.8,5.9-59.4-1.34-4.41-2.54-11.46-10.06-5.98-14.53,1.42,15.31,30.01,12.58,41.5,11.99,64.68-3.34,137.9-30.43,201.05-28.03,16.78.64,31.29,5.68,34.47,24.04Z"/>
  <path class="cls-5" d="M454,478.99l-4.99,1.51c34.21,23.15,72.42,66.05,54.48,110.49-2.38,5.89-7.69,14.66-13.59,17.4-7.83,3.65-7.94-1.58-8.39-1.38-2.36,1.04-4.22,5.39-9.1,5.97s-6.91-2.68-7.9-2.69c-1.45,0-5.74,6.01-12.84,3.55-2.43-.84-3.08-6.24-3.81-6.68-1.58-.94-8.51,1.25-9.69-3.87-1.29-5.6,13.4-19.56,10.63-31.59-.69-3.01-5.15-7.92-6.3-11.69-3.94-12.92.93-23.43,2.51-36.01-2.85-.54-1.61.76-2.26,2.18-3.88,8.45-7.62,22.41-18.73,22.82.73,6.05,12.71,6.72,14.52,9.97,1.58,2.85-.29,3.79-3.13,3.97-14.45.88-25.9-20.12-26.31-32.61-.56-16.9,9.07-39,23.58-48.17,5.32-3.36,16.26-8.31,21.34-3.17Z"/>
  <path class="cls-5" d="M789,790.01c-5.79,7.53-17.82,11.76-26.79,14.7-34.05,11.15-72.24,11.42-107.4,5.98-15.63-2.42-45.81-7.15-59.83-12.17-1.56-.56-2.7-.77-4.04-1.96-6.84-6.06,4.47-4.82,8.43-4.43,49.34,4.76,79.95,20.71,133.99,12.74,19.55-2.89,36.66-10.66,55.63-14.86Z"/>
  <path class="cls-5" d="M150,768.01c9.82,2.78,18.03,9.12,27.33,13.16,30.54,13.28,60.51,13.01,93.17,9.82,22.03-2.15,50.66-10.61,71.06-11.02,7.04-.14,16.17,4.85,5.71,6.79-42.41,7.88-104.42,17.69-146.08,8.56-17.71-3.88-40.25-12.46-51.18-27.31Z"/>
  <path class="cls-5" d="M344.12,390.12c8.06-4.95,9.25,16.81,3.9,22.4-4.11,4.31-9.83,3.17-15.03,2.99l10.01,17.48c-8.6-1.88-14.15-11.32-17.01-18.99-3.76.47-4.84,4.92-8.7,5.79-7.46,1.68-17.2-.42-22.78-5.8-2.21-2.12-7.62-9.52-3.5-11.5,4.83-2.32,5.23,3.15,7.95,6.05,4,4.26,13.7,7.81,18.59,3.51,6.64-5.83-4.92-28.17,7.41-40.59,5.76-5.81,22.49-9.53,28.02-2.95,7.55,8.99-13.55,5.21-16.4,5.58-19.31,2.53-12.05,35.06,1.92,35.01,11.38-.05,2.99-17.36,5.61-18.98Z"/>
  <path class="cls-12" d="M510.99,515.99c-2.25,2.45-17.34-16.83-18.97-18.52-20.55-21.3-46.12-32.13-74.98-38.02-6.18-6.9,1.36-5.87,7.18-5.18,16.77,1.99,47.77,16.36,60.79,27.21,4.19,3.49,30.29,29.83,25.98,34.51Z"/>
  <path class="cls-12" d="M458.98,817c-.46.3-2.35.07-3.04-.44-1.17-.87-3.49-24.51-4.26-28.74-1.19-6.58-7.25-26.3-5.55-31.18.44-1.26,2.62-2.11,3.81-2.2,6.74-.5,9.81,25.94,10.11,31.02.24,4.1.34,30.65-1.06,31.54Z"/>
  <path class="cls-12" d="M371.93,531.08c3.62,5.09-14.33,13.39-17.66,14.69-17.22,6.68-41.06,7.56-58.71,2.18-1.72-.52-3.38-.95-4.54-2.46-.64-2.17,3.31-1.9,4.48-1.92,6.14-.06,13.7,2.21,19.97,2.47,12.39.51,29.39-2.07,40.52-7.56,3.25-1.6,13.48-10.87,15.94-7.41Z"/>
  <path class="cls-12" d="M527.98,753c.76.72,2.83,8.81,3,10.51,1.55,15.23-1.65,31.64-3.19,46.78-1.18,3.16-5.75,1.84-6.59-1-1.75-5.93,2.97-24.35,3.79-31.81.79-7.21.13-16.15,1.01-23.01.18-1.39.51-2.87,1.99-1.48Z"/>
  <path class="cls-1" d="M507,611.01c6.87-.22,10.23,10.07,12.01,15.48,1.97,6,5,20.1,4.93,26.11-.03,2.68-3.43,2.93-5.32,2.28-3.75-1.28-3.21-19.17-3.87-23.14-1.22-7.33-5.08-13.95-7.76-20.73Z"/>
  <path class="cls-12" d="M294.74,373.24c3.99-.63,11.67-1.31,13.07,3.48,2.81,9.6-11.91,4.44-17.09,5.52s-6.97,5.97-9.73,7.27c-3.99,1.88-4.64-1.6-2.86-4.86,2.73-5.02,10.93-10.5,16.6-11.4Z"/>
  <path class="cls-14" d="M772.99,857c-9.53-10.29-6.7-28.17-9.06-41.34,1.56-2.03,5.13-1.71,6.53.39,3.08,13.27.72,27.39,2.53,40.95Z"/>
  <path class="cls-12" d="M311.28,455.73c1.22,1.48,6.18,3.13,8.24,3.29,3.08.24,11.8-3.44,12.54-.36,2.6,10.84-23.8,9.73-28.13-1.08-.8-2.01-2.09-6.52.7-7.45,6-2.01,4.79,3.35,6.65,5.61Z"/>
  <path class="cls-1" d="M416.74,184.18c6.3-1.03,4.09,3.56,2.07,7.14-1.48,2.64-12.44,15.34-14.75,17.25s-4.96,2.57-4.33-1.3c.9-5.55,11.25-22.14,17.01-23.08Z"/>
  <path class="cls-1" d="M412.35,218.35c3.59-3.55,23.56-13.56,25.54-5.66.33,1.31-.06,1.89-.82,2.88-1.06,1.38-21.06,7.84-23.81,8.22-1.98.27-2.94.62-4.25-1.29,1.54-1.01,2.2-3.02,3.34-4.15Z"/>
  <path class="cls-1" d="M219,842c-5.67,1.74-5.76-6.19-5.98-10.51-.15-2.98.93-21.1,2.57-21.56.97-.27,3.58-.05,4.45.52,4.11,2.71-2.87,25.97-1.04,31.54Z"/>
  <path class="cls-1" d="M625.74,555.15c9.34-1.7,13.2,14.49,2.67,15.83-11.18,1.42-11.01-14.31-2.67-15.83Z"/>
  <path class="cls-1" d="M585.99,262.99c-.9.92-6.95-1.44-8.37-2.12-2.73-1.3-10.07-5.68-12.56-7.44-5.2-3.67-7.89-10.17.75-7.75,3.82,1.07,17.11,9.79,19.25,12.74.76,1.05,1.49,3.98.93,4.56Z"/>
  <path class="cls-9" d="M421.05,231.06c1.41-1.73,17.37-.49,20.24.15,4.12.92,9.19,7,2.26,7.84-3.33.4-21.56-2.19-22.45-4.65-.24-.66-.31-3.02-.05-3.34Z"/>
  <path class="cls-9" d="M597.99,255c-2.08.46-2.27-1.1-3.22-2.27-2.95-3.69-11.06-17.51-11.38-21.7-.09-1.19-.46-2.59,1.16-3,7.78-2,14.69,21.11,13.44,26.98Z"/>
  <path class="cls-8" d="M556.04,278.95c-.61-.73.1-3.52.87-4.54,3.43-4.51,22.23-1.95,23.08,2.11,1.12,5.37-22.93,3.65-23.95,2.43Z"/>
  <path class="cls-1" d="M634.73,528.18c10.8-2.22,11.49,17.31-1.02,13.6-5.39-1.6-5.98-12.16,1.02-13.6Z"/>
  <path class="cls-11" d="M726.99,347c-1.09,23.63,16.02,43.92,38.77,48.75,3.39.72,6.08-1.3,5.24,3.26,4.55-.77,16.46-4.19,20.38-3.72,5.97.71,10.58,12.99,10.68,18.2.25,12.97-12.64,26.29-25.62,26.55-3.04.06-6.2-1.67-9.45-1.04,1.82-6.93,3.47-13.09,2.87-20.37-.09-1.08-.46-5.52-1.86-5.62-3.7,14.63-8.54,29.09-16.6,41.91-23.5,37.39-67.22,55.28-109.4,37.57-50.44-21.17-47.37-85.58-26.39-127.36,1.78-3.55,9.92-18.57,12.87-19.13,2.67-.51,6.14.38,9,0,7.25-.98,15.29-4.43,21.01-8.9,15.39,21.68,46.64,20.2,68.49,9.91Z"/>
  <path class="cls-3" d="M788,280.99c-1.57.24-5.86,1.84-6.91.92-.17-.15-.64-3.05-1.2-4.27-6.62-14.15-17.92-24.26-32.88-29.14l-17-2.48c26.37-4.14,49.31,9.93,57.99,34.98Z"/>
  <path class="cls-4" d="M833,370.99c-.49-.63,3.68-8.3,4.28-10.21,4.6-14.65,2.89-27.15.16-41.72-.19-1.03-1.31-3.28.55-3.05,7.29,13.46,9.11,41.86-.11,54.38-1.26,1.7-4.02,1.72-4.88.61Z"/>
  <path class="cls-6" d="M547.99,388.01l-10.5,8.98c-10.38,11.44-11,18.8-9.61,33.64.1,1.11.92,3.6-.87,3.37-9.56-17.42,1.53-41.89,20.98-45.98Z"/>
  <path class="cls-10" d="M391.01,398c-.54-5.47-1.82-10.93-3.29-16.21-1.72-6.2-9.86-19.83,1.94-20.49,11.34-.63,13.11,18.58,9.84,26.7-.56,1.39-7.05,11.52-8.49,10Z"/>
  <path class="cls-13" d="M452,733h15.5c2.91,0,5.51-4.69,3.99-7.98-3.62-7.86-28.13-4.36-36.03-4.98-13.5-1.06-22.21-8.62-24.47-22.03-2.52-.54-2.22,2.11-3.77,2.97-3.61,2.03-12.88,3.22-17.74,5-8.27,3.04-16.24,6.92-24.47,10.02-.21-9.96.76-21.23,5.17-30.32,5.46-11.25,10.3-9.6,21.49-11.51,18.84-3.23,66.06-10.61,82.33-3.67,17.62,7.52,15.87,50.38,7.01,63.01-5.04,7.18-23.29,6.06-29.01-.51Z"/>
  <path class="cls-11" d="M601,729c-1.35,1.4-13.06-6.86-15.31-8.19-3.5-2.06-8.82-2.22-10.24-6.76-.6-1.94.43-9.04-1.93-8.04-1.62.69-4.37,6.16-6,8-6.78,7.64-19.04,10.57-29,9.97-3.95-.24-29.08-6.28-24.03,4.02,1.51,3.08,6.63,2.65,9.27,3.74,5.58,2.3-7.95,5.04-10.27,5.23-5.43.46-13.39.81-16.26-4.71-5.4-10.4-.83-46.36,7.77-54.77,8.49-8.31,26.02-2.8,36.22-.21,12.62,3.19,25.03,7.86,37.57,11.43,4.12,1.17,14.6,2.52,17.21,3.79,7.21,3.5,6.64,29.47,5,36.5Z"/>
  <path class="cls-11" d="M477,574.5c-1.24,9.14-11.17,29.69-20.99,32.5-1.57-1.68,8.16-14.07,9.48-17.01,3.99-8.91,7.55-24.63.96-32.92-.94-1.18-1.65-2.41-3.43-2.06,1.43,9.29,3.1,14.17.03,23.53-1.11,3.39-10.49,23.46-15.03,19.46-.66-.58,4.48-7.74,5.19-9.3,2.47-5.46,3.92-13.08,2.6-18.98-.61-2.72-4.31-6.33-5.66-9.34-2.55-5.66-2.73-12.7-2.12-18.86,1.2-12.03,7.8-15.84-2.97-27.05-4.3-4.47-16.39-10.34-16.04-16.89.25-4.55,13.05-15.88,16.97-14.11,9.33,9.43,20.49,16.79,29.54,26.53,22.25,23.94,39.87,64.1,12.5,91.01,1.53-8.69,7.23-16.56,7.98-25.51.28-3.36-.75-18.82-5.49-18.47-3.43.26-.29,11.34-.5,13.39-.27,2.63-2.6,11.53-3.53,14.56-.84,2.75-10.57,22.64-14.47,19.02-.48-.44,5.11-10.13,5.76-11.73,4.07-10.09,8.96-26.62,1.53-36-.64-.81.04-1.83-2.29-1.26-.59,6.13.8,13.56,0,19.5Z"/>
  <path class="cls-5" d="M655.01,386.01c.34-.35,4.74.2,6-.01.85,6.97-1.51,13.54-5.17,19.34-2.3,3.64-20.27,23.21-23.83,19.66s10.93-12.04,11.99-14.51c.78-1.82-.73-1.3-1.45-1.51-4.25-1.26-7.65-1.4-9.61-6.4-1.45-3.71-1.93-18.17,2.57-18.64,7.67-.8-.97,12.65,4.54,17.52,3,2.66,6.05.99,8.89-1.03,6.85-4.86,5.42-13.75,6.08-14.42Z"/>
  <path class="cls-12" d="M670.69,393.15c9.26-2.69-1.3,15.45,6.01,17.64,11.92,3.58,16.72-11.32,21.21-12.35,1.12-.26,3.08.65,3.63,1.54,2.73,4.41-9.02,14.45-12.86,16.19-8.07,3.66-19.97,2.64-21.61-7.73-.54-3.44-.24-14.17,3.62-15.29Z"/>
  <path class="cls-1" d="M703.42,379.57c-1.68-1.08-2.67-3.34-5.99-3.55-2.94-.18-18.63,7.67-17.3-1.3,1.72-11.55,30.25-6.19,30.87,3.85.37,6.03-4.89,2.72-7.58.99Z"/>
  <path class="cls-9" d="M673.86,447.14c3.38,5.3-7.74,11.46-12.51,11.79-9.07.62-20.23-9.66-11.65-11.8,3.73-.93,6.31,6.71,15.04,3.11,1.78-.74,6.55-7.14,9.11-3.1Z"/>
  <path class="cls-12" d="M647.81,359.23c6.51-.45,22.39,5.39,16.27,13.35-4,5.21-9.72-5.69-13.82-6.43-3.36-.6-7.64,2.77-9.81.96-5.98-4.99,3.97-7.65,7.36-7.88Z"/>
  <g>
    <path class="cls-2" d="M448.75,416.99c1.35,1.35,1.38,5.32,1.25,7.23-.12,1.7-3.27,15.61-3.94,16.1-4.09,2.93-17.69-4.89-19.94-9.19-4.53-8.66,4.08-12.25,10.86-7.38-.72-5.96,7.55-10.97,11.77-6.76ZM440.98,435.75c-.75-2.76,7.1-15.02,2.49-16-3.09-.66-4.01,7.63-4.5,7.99s-7.77-3.45-9.98-1.99c-1.78,4.34,10.87,11.01,11.99,10Z"/>
    <path class="cls-7" d="M440.98,435.75c-1.11,1.01-13.76-5.66-11.99-10,2.21-1.46,9.48,2.36,9.98,1.99s1.41-8.65,4.5-7.99c4.61.98-3.25,13.24-2.49,16Z"/>
  </g>
  <g>
    <path class="cls-2" d="M459.82,412.58c-5.08,3-20.52-15.04-11.84-19.33,4.77-2.36,5.94,2.05,7.63,2.44,1.75.41,3.18-3.48,5.92-3.94,5.74-.98,7.61,3.1,6.21,8.27-.19.72-7.28,12.19-7.92,12.56ZM459.01,396.76c-.46.41.05,3.04-2.49,3.03-1.64,0-6.22-4.45-6.52-4.04-1.37,3.03,3.04,10.46,5.63,10.93,4.14.74,7.39-13.5,3.38-9.92Z"/>
    <path class="cls-7" d="M459.01,396.76c4-3.58.76,10.66-3.38,9.92-2.59-.46-6.99-7.89-5.63-10.93.3-.41,4.88,4.04,6.52,4.04,2.53,0,2.03-2.63,2.49-3.03Z"/>
  </g>
  <g>
    <path class="cls-2" d="M469.04,427.74c.66.51,13.74-5.1,11.96,5.46-.47,2.77-13.8,11.69-15.36,11.39-5.96-1.14-11.09-23.49-1.31-22.63,4.04.36,4.23,5.41,4.71,5.78ZM465.88,426.86c-.37-.24-2.91-.57-2.9.47-.31,3.98.43,8.06,2.56,11.46,2.25.38,9.71-5.77,10.44-7.55,1.46-3.53-6.12.79-7.33.43-2.09-.61-2.31-4.52-2.77-4.81Z"/>
    <path class="cls-7" d="M465.88,426.86c.46.29.67,4.2,2.77,4.81,1.22.35,8.79-3.96,7.33-.43-.74,1.78-8.19,7.93-10.44,7.55-2.13-3.4-2.87-7.48-2.56-11.46,0-1.04,2.53-.71,2.9-.47Z"/>
  </g>
</svg>