<?xml version="1.0" encoding="UTF-8"?>
<svg id="Layer_1" data-name="Layer 1" xmlns="http://www.w3.org/2000/svg" viewBox="0 0 520.5 520.5">
  <defs>
    <style>
      .cls-1 {
        fill: #c7c6c6;
      }

      .cls-2 {
        fill: #252122;
      }

      .cls-3 {
        fill: #2c2729;
      }

      .cls-4 {
        fill: #c4c3c3;
      }

      .cls-5 {
        fill: #fbfbfb;
      }

      .cls-6 {
        fill: #231f20;
      }

      .cls-7 {
        fill: #d82f87;
      }

      .cls-8 {
        fill: #262223;
      }

      .cls-9 {
        fill: #252223;
      }

      .cls-10 {
        fill: #242021;
      }

      .cls-11 {
        fill: #282425;
      }

      .cls-12 {
        fill: #a7a5a6;
      }

      .cls-13 {
        fill: #292526;
      }

      .cls-14 {
        fill: #272324;
      }
    </style>
  </defs>
  <path class="cls-6" d="M367,237c3.83.1,6.66,1.15,10.49-.26,6.05-2.23,8.03-10.03,2.96-14.44-4.14-3.61-10.24-.62-15.08-1.92-10.79-2.9-19.06-25.19-20.12-35.38l-2.24,2.25c3.63.82,4.43,11.45.19,8.28-.92-.69.38-6.32-3.22-5.33-2.2.61-16.72,17.8-15.98,18.79,2.26.76,4.31.74,6.5-.24,1.98-.89,3.79-4.2,4.76-4.29,1.19-.12,2.35.78,2.04,2.04-.98,4.02-7.25,6.71-11.06,6.53-1.09-.05-4.05-1.16-4.22-1.03-.5.37-4.23,10.18-4.65,11.61-.54,1.83-2.17,7.59-1.89,9.12.31,1.75,5.26,2.9,7.02,2.26,1.29,3.66-5.98,6.38-6.42,7.07-.67,1.04,1.7,7.78,2.34,9.27,3.77,8.77,12.67,15.45,21.1,19.4l9.99,3.5c-7.1,3.91-17.26-2.67-22.73-7.26-15.4-12.9-18.05-30.63-11.14-49.11l6.37-12.88c-2.21.64-11.59,5.15-10.94,7.65.28,1.09,2.61,1.84,2.44,3.35-7.94-.34-5.48-6.38-.66-9.91,3.76-2.75,10.7-4.19,13.42-6.58,3.02-2.65,6.38-7.99,9.47-11.03,2.76-2.71,6.38-5.11,9.26-7.73-8.6-4.45-15.67-10.25-14.44-20.95.37-3.23,2.21-6.36,3.44-9.3-8.35,6.06-13.12,18.82-3.45,26.21,2.1,1.6,4.52,2.16,6.46,3.79-15.15-.21-19.18-13.66-11.9-25.65,15.52-25.57,61.01-14.92,63.41,15.15,25.52-15.48,57.31,7.25,64.35,32.89,5.32,19.39-5,34.28-1.8,50.3,3.47,17.35,33.82,28.89,37.88,53.12,2.21,13.22-3.59,26.91-16.45,31.93-15.73,6.14-19.79-6.18-34.24-4.74-6.57.66-12.49,5.95-18.24,8.76-16.98,8.29-36.21,5.38-45.1-12.42-8.1-16.22.38-26.56,1.95-41.73.57-5.56.15-9.02-6.49-7.99-7.35,1.14-16.27,8.52-18.14,15.85-.68,2.66-1.65,6.15,2.42,4.92,2.98-.9,1.96-6.04,5-5.33,4.86,1.14-2.92,11.53-7.15,9.43,1.99,6.47,9.17,9.62,15.5,10-5.75,4.55-6.22,10.77-8.77,16.98-.23.55-.64,2.39-1.47,2.01-.94-.43-.7-1.3-.65-2.09.17-2.78,4.23-13.95,3.85-15.08-1.69-1.4-4.13-1.82-5.93-3.1-7.57-5.37-8.42-15.89-4.25-23.69,4.63-8.65,14.54-12.97,23.72-15.04-1.88-4.79-5.24-10.06-4.5-15.49-.26-.78-.36-1.38-.31-1.79-4.79-.07-9.59-3.64-10.13-8.6-.24-2.24.49-7.05,3.31-5.05-.03-2.73,1.11-4.8,3.42-6.22l.71-.83Z"/>
  <path class="cls-6" d="M100,213c-4.17.71-8.44-1.35-11.49-4l-1.5,6c8.18-5.78,1.72,3.65-1.27,5.99-18.67,14.66-46-5.08-37.12-29.12,2.95-7.97,11.3-11.98,12.25-19.25.67-5.17-2.18-10.48-2.39-15.85-.86-22.77,22.78-38.65,43.9-32.4,6.74,1.99,7.88,4.04,12.41,8.59.41.41.44.72,1.21.53.18-2.29,1.36-4.35,2.42-6.33,10.15-19.09,38.14-30.32,56.54-15.87,4.27,3.36,8.41,8.4,7.54,14.21,7.55-.69,14.05,7.29,14.5,14.26.86,13.31-12.53,24.77-24,28.74-.16.32-.33.62-.55.89s-.42.49-.67.56c-14.54,4.19-29.75,2.49-42.92-4.76-.93,9.44-6.8,17.45-15.03,21.96,4.23,8.54,2.06,25.61-9.97,14.77-3.69-5.72-10.6-14.55-14.39-3.49-.46,9.28,8.1,11.73,15.61,8.73,3.25,1.52-2.91,7.98-5.08,5.84Z"/>
  <path class="cls-1" d="M173,168.5c-.15,1.47.47,2.71,1,4,5.62,21.59,6.14,49.03-12.59,64.77-7.5,6.3-20.62,13.29-26.44,1.38l-7.1-12.25c-2.98-4.25-6.19-8.06-11.72-5.61-3.56-2.82-7.35-5.1-11.16-1.29-3.05-.65-3.11-4.57-5-6.5,2.34-.4,4.7-2.82,5.5-4.99-5.02,1.36-8.9,2.68-13.46-.8s-5.33-11.64.1-14.31c8.46-4.16,10.62,11.87,18.04,11.45s4.18-13.19,2.43-17.61c9.07-4.92,15.07-13.16,15.39-23.73,12.05,8.81,31.06,10.31,44.99,5.5Z"/>
  <path class="cls-6" d="M174,172.5c1.14,2.78,2.46,4.81,3.36,7.89,3.16,10.85,2.67,23.6.65,34.61,7.57-5.74,5.77,7.84,4.23,11.99-1.71,4.61-6.07,8.21-7.49,13.01-1.82,6.18,1.07,14.16,3.52,19.98,1.92,4.55,4.99,8.75,6.24,13.52.91.81,6.13-3.59,7.78-3.97,1.45-.34.27,1.87-.08,2.42-1.51,2.34-11.42,7.44-14.36,8.64-1.78.73-12.45,4.32-13.34,3.41-.19-2.71-.39-2.71,1.98-3.74l-10.99-26.26c-.76-.65-6.62,3.21-6.92,4.36,1.69,6.49-.79,13.59-.52,19.81.22,5.06,3.2,9.48,3.95,14.33,2.08.43,8.14-3.62,8.4-.13.2,2.69-7.55,4.03-9.8,4.48-8.26,1.65-18.02,2.41-26.34,1.64-1.51-.14-7.33-.7-4.4-2.39,2.43-1.4,7.38-.35,10.14-.11-1.82-9.73-5.54-19.23-10-28-.37-.08-.52.1-.5.5-.06.29.06.68,0,1l-1.48-.27c-2.31-2.84-10.95-5.58-11.51-9.02-.51-3.16,1.47-3.21,3.73-3.73.6-.14.91.38.75-.73-3.66-4.32-7.9-8.72-11.2-13.3-2.11-2.93-8.98-11.8-.57-10.43,1.74.28,6.89,4.82,7.28,4.47-1.72-3.5-8.78-10.65-9.01-14.29s6.18-2.86,8-.7c.3-.73-.5-1.62-.49-2,.07-3.63,5.41-3.38,7.95-2.2.97.45,3.07,2.55,3.3,2.57.31.02,1.93-.95,3.51-.91,8.16.21,13.68,17.04,18.24,22.3s11.34,2.34,16.52-.5c19.1-10.48,23.77-32.73,21.43-52.95-.49-4.25-1.74-8.47-2.3-12.71-.1-.8-.56-2.09.36-2.6Z"/>
  <path class="cls-6" d="M297.5,357.5c5.77,13.99,13.49,27.93,23.01,39.74,8.69,10.77,20.01,22.28,35.17,20.7,4.52-.47,11.65-2.08,10.08-7.95-1.3-4.86-6.37-3.49-7.06-4.45-2.32-3.22,4.64-4.36,8.31-.81,2.26,2.19,2.17,3.86,2.97,6.54.11.38-.18,1.09.76.72s5.68-4.28,6.77-5.24c7.9-6.91,12.52-14.87,19.24-22.26.6-.66,4.47-4.77,5.25-3.99-.17,1.14-.8,2.39-1.31,3.44-.77,1.59-2.57,3.62-2.44,5.06l2.25-2c-.26,2.51-2.33,4.91-3.8,6.95-11.55,16-35.9,33.84-56.38,24.98-12.75-5.52-25.8-22.86-33.03-34.47-11.34-18.21-27.45-52.51-20.43-73.85.6-1.81,3.9-6.94,3.94-7.36.29-3.13-5.41-10.42-7.84-12.46-10.94-9.18-22.4-8.8-31.58-22.42-2.79-4.15-10.53-16.53.64-14.14,6.46,1.38,13.23,12.78,20.72,12.78h8.25c.44-2.81-4.66-11.53-.15-12.38,7.36-1.39,9.15,8.68,13.16,12.62,1.3,1.28,3.31,2.08,4.73,3.27,7.05,5.89,3.41,8.67,5.29,15.71.62,2.32,2.1,3.7,2.97,5.78-7.27-1.33-5.44-6.93-6.05-12.19-.85-7.27-6.37-6.82-10.2-11.3-2.06-2.42-4.19-7.99-6.47-9.53-.47-.32-1.41-.93-1.78-.22.46,3.62,3.52,9.58.74,12.73-1.7,1.93-5.02,1.22-2.73-1.48h-10.25c-4.21,0-11.78-7.8-15.29-10.21-1.49-1.02-3.61-2.8-5.45-2.05,1.83,4.29,4.66,8.77,7.74,12.26,10.54,11.95,30.64,12.44,34.76,29.99,3.26-2.67,6.38-5.49,10.8-5.94,3.28-.33,10.72.46,13.84,1.56,15.15,5.32,35.55,33.25,36.85,49.15.05.58.42,2.74-.49,2.74-.29-1.96-1.2-3.91-2.08-5.68-8.57-17.26-28.83-53.51-52.76-39.4-16.11,9.5-7.89,36.56-2.67,50.58,1.66.54,3.05,2.88,2,4.5Z"/>
  <path class="cls-6" d="M82.51,331.5l1.49,1.5c-.39-3.1-1.51-5.89-.49-9l1.23.52c5.09,16.71,11.71,32.35,23.75,45.25,10.6,11.35,31.64,25.1,47.7,22.68,38.27-5.78,14.12-64.54,7.95-86.83-.7-2.55-1.75-5.5-1.39-8.11,4.93,7.9,8.09,16.84,10.76,25.74,7.91,26.33,18.13,80.77-27.11,72.61-24.27-4.38-47.58-26.68-58.34-48.16-2.38-4.75-5.07-10.95-5.56-16.19Z"/>
  <path class="cls-6" d="M100.5,260l1-.25c-2,3.87-6.24,6.39-9.26,9.74-20.79,23.01-41.5,78.47-50.88,108.62-2.08,6.69-3.4,14.82-5.85,21.15-.89,2.3-4.31,7.01-3.98,2.06.66-9.92,8.42-30.97,11.95-41.08,10-28.57,24.09-62.75,41.6-87.4,4.66-6.56,10.06-14.03,17.9-16.84l-2.49,4Z"/>
  <path class="cls-6" d="M445,341c.72-.74,4.24,3.92,4.7,4.54,12.77,17.23,24.48,51.09,30.54,71.96,3.02,10.39,7.93,25.68,9.53,35.97.2,1.28.82,7.55-1.03,7.52-.98-1.07-1.6-2.54-2.11-3.88-5.67-14.99-8.63-34.44-13.63-50.37-4.56-14.53-10.14-29.06-16.76-42.73-2.67,4.45-15.12.6-13.03-3.51,1.58-3.1,5.02,1.99,7.53,1.94.86-.02,3.51-1.42,3.67-2.26.31-1.66-10.24-18.35-9.43-19.18Z"/>
  <path class="cls-6" d="M164.51,286.5c1.45,1.27,2.71,3.5,3.51,5.24,9.74,21.13,13.45,66.23,38.49,75.51,1.85.69,8.63,1.77,9.26,2.74,1.48,2.28-5.63,1.47-6.79,1.29-20.44-3.18-29.58-33.3-34.98-50.02-2.91-9.01-6.66-20.17-8.74-29.26-.41-1.8-.87-3.63-.74-5.5Z"/>
  <path class="cls-6" d="M225,365.5c3.87-13.87-.27-29.42-4.37-42.88-2.36-7.77-5.38-16.41-8.7-23.8-2.29-5.1-5.86-10.06-7.22-15.34l1.03-1.46c1.37-.11,4.59,5.79,5.34,7.14,8.49,15.19,19.77,50.48,18.43,67.6-.24,3.09-1.06,7.81-4.52,8.73Z"/>
  <path class="cls-1" d="M367,237c1.07,1.99-1.03,2-2.01,3.24-3.09,3.88.47,9.69,5.39,7.39,2.14-1,1.16-4.51-.77-3.47-.13.07,0,1.16-.86.83-1.01-.38-1.46-1.98-1.26-2.99,10.68-1.67,9.2,14.93-.7,10.95-4.18-1.68-3.52-5.54-5.05-8.95-4.05,6.25,2.45,13.78,9.25,12.5.39.34-.94,2.59-1,3,.28-1.61-.81-.86-1.75-.98-7.69-1.01-12.02-5.52-10.63-13.65.91-5.3,4.47-5.96,8.51-7.4.73-.26-.18-.5.87-.47Z"/>
  <path class="cls-10" d="M216.49,318.5c-1.98-1.14-2.93-3.29-4.08-5.16-6.01-9.78-15.3-28.3-17.69-39.31-.36-1.68-.59-4.19,1.94-3.48,1.41.39,4.19,10.57,4.96,12.58,2.81,7.43,6.75,18.06,10.77,24.73.83,1.38,2.41,2.26,2.97,3.53.85,1.91.67,5,1.13,7.12Z"/>
  <path class="cls-10" d="M126.49,353.5c-.75-.38-1.45-2.22-1.74-3-2.16-5.81-1.21-12.19-1.76-18.24-.68-7.53-2.22-15.55-4.14-22.86-.41-1.58-4.7-10.74-1.1-10.24,1.66.93,2.11,2.94,2.75,4.59,3.85,9.87,4.23,20.62,5,31,.46,6.25,1.49,12.44.99,18.75Z"/>
  <path class="cls-10" d="M196.99,420.5c-2.84-1.6-3.51-5.51-4.26-8.48-1.55-6.11-2.58-12.81-3.98-19.02-.69-3.07-2.92-8.85-3.14-11.36-.18-1.96,1.32-5.35,3.14-3.14.36.44,1.37,4.01,1.6,4.9,2.51,9.63,5.09,23.57,6.52,33.48.17,1.21.17,2.41.12,3.62Z"/>
  <path class="cls-2" d="M156,311.5c1.13,1.22-3.1,3.86-4,4.25-6.07,2.64-17.27,2.7-23.64,1.14-2.56-.62-2.98-3.15.39-3.4,6.6-.49,11.99,1.82,19.78.28,1.23-.24,7.2-2.56,7.47-2.28Z"/>
  <path class="cls-2" d="M145.51,63.5c1.12-.65,2.03-1.74,3.49-1.5l-1.5,3.49c4.3-.46,4.79,1.87.5,2.51l1.5,3.49-2.99-1.5c.14,7.25-2.08,4.88-2.51-.5-1.26.77-1.12,2.74-2.99,3-.41-1.78.71-2.91.99-4.5-.44-.4-3.69.84-3.49-.75l3.99-1.26-1.99-3.99,3.49,2.5c.1-1.28-.42-3.82,1-4.5l.51,3.5Z"/>
  <path class="cls-2" d="M442.51,85l2.99-1.5-.99,3.5c6.88.49,0,2.41,0,2.75s4.36,5.15-1.5,1.25c.55,6.96-1.56,5.17-2.01,0-3.32,4.04-3.72,2.9-2-1.5l-3.5-.75c1.02-1.06,2.61-1.23,4-1.26l-2-3.49,3.49,2c.35-.5-.73-3.58,1-4l.51,3Z"/>
  <path class="cls-12" d="M439.83,410.69c1.89-.02,5.24.78,3.45,3.34-.71,1.02-7.34-.6-8.56,3.44-.46,1.51.33,4.35-2,4.55s-2.36-2.06-2.23-3.77c.35-4.85,4.81-7.52,9.34-7.56Z"/>
  <path class="cls-10" d="M384.82,437.56c3.42-1.14,2.33,2.01,2.79,3.59,1.12,3.88,9.15,1.54,9.42,4.63.35,3.98-8.26,1.65-10.27.23-2.32-1.63-4.37-7.63-1.93-8.44Z"/>
  <path class="cls-10" d="M350.96,432.04c1.22.72-3.04,10.25-3.59,12.08s-.72,8.11-3.12,7.38c-1.13-.35-.81-3.73-.7-4.69.2-1.79,3.96-13.97,4.94-14.55.68-.4,1.69-.33,2.46-.2Z"/>
  <path class="cls-12" d="M375.07,348.58c.11-.17,1.38-.57,1.69-.55,2.64.16.99,6.26,5.51,6.94,1.7.25,6.68-.66,4.48,3.04-1.95,3.27-10.45-.34-11.52-4.49-.24-.92-.52-4.38-.16-4.94Z"/>
  <path class="cls-8" d="M182,304.5c-1.41-1.21,5.8-3.16,6.34-3.41,2.65-1.2,6.95-3.29,8.99-5.26.74-.72,2.38-5.01,3.95-1.82,2.15,4.37-15.62,11.46-19.28,10.49Z"/>
  <path class="cls-12" d="M297.5,357.5c-.63-1.52-1.41-2.91-2-4.5,1.22,1,2.9-1.67,3.28-2.47,1.08-2.27.28-7.83,3.37-6.95,1.73.49,1.46,3.18,1.34,4.67-.33,4.14-2.91,6.8-5.99,9.25Z"/>
  <path class="cls-13" d="M33.5,153.99c2.71.19,2.78,1.75,0,2.01l.99,2.49-1.99-1v3c-1.83.52-1.2-2.59-1.51-3l-2.49,1.5,1-2.99c-4.31.14-2.72-.94,0-1.75l-1.5-2.25,2.49.99,1-2.5.75,1.99c2.29-1.76,2.6-.44,1.25,1.51Z"/>
  <path class="cls-11" d="M348.01,105c4.59-2.88,1.14,1.17,1.49,1.5l2.49.75-2.49.75,1.5,2.49-2.49-.99c.47,4.61-1.51,3.71-1.51,0l-2.49,2c-.24-.68,1.12-2.9,1-2.99-.27-.21-2.35.32-2.5-1l2.5-.51-.99-3,2.49,1.5.25-2.5.76,2Z"/>
  <path class="cls-14" d="M294.01,421.5c4.59-2.88,1.14,1.17,1.49,1.5l2.49.75-2.49.75,1.5,2.49-2.49-.99c.47,4.61-1.51,3.71-1.51,0l-2.49,2,1-2.99-2.5-.75c.42-.97,2.35-.61,2.5-.76.46-.44-1.49-2.08-.99-3l2.49,1.5.25-2.5.76,2Z"/>
  <path class="cls-9" d="M134.88,309.38c-2.21,2.21-7.75-1.21-5.83-4.08,3.11-4.63,8.99.91,5.83,4.08Z"/>
  <path class="cls-4" d="M120,268c-.22.08-.45.29-.5.5-1.79-3.71-7.58-5.27-9.85-7.64-.35-.37-.85-1.23-.17-1.63,6.45-1.31,8.24,4.28,10.52,8.77Z"/>
  <path class="cls-11" d="M490,205.5l.25,1.5c2.26-1.78,2.62-.44,1.26,1.5l2,.75-1.99.76,1,1.99-1.99-.5c.31,3.99-1.2,3.03-1.51,0l-1.99,1,.5-2.49-2-.25c2.31-1.55,2.84-.46,1.5-3.25l1.99,1,1-2Z"/>
  <path class="cls-13" d="M191.31,287.05c3.13-1.09,5.21,3.86,1.83,4.86-4.1,1.21-3.29-4.35-1.83-4.86Z"/>
  <path class="cls-5" d="M180.5,125.5c-.81-.33-3.22.5-3.53.29-.26-.18-2.13-4.71-2.76-5.75-1.99-3.27-4.63-6.09-7.86-8.14l-7.34-3.4c9.36.78,19.19,7.73,21.5,16.99Z"/>
  <path class="cls-5" d="M190,150.5c1.43-6.03,1.04-11.39-2.8-16.46l-4.7-4.54c10.58-.08,13.5,13.89,7.5,20.99Z"/>
  <path class="cls-6" d="M160.6,178.6c-1.98,1.1-3.12,9.36-2.49,11.54.45,1.57,3.81,5.38,5.9,4.11,2.64-1.59-1.87-8.53,1.32-9.16,2.8-.55,3.03,7.6,2.21,9.69-1.01,2.59-3.6,3.13-6.03,3.46l7,7.75c-3.36,1.64-9.58-7.96-10.25-7.99-.2,0-2.06,1.84-3.55,1.98-3.63.35-11.09-4.86-11.64-8.36-.19-1.2.99-2.45,2.12-2.1.81.25,3.29,5.85,7.68,6.85,5.59,1.28,1.98-6.11,2.14-9.62.26-5.89,3.13-12.62,9.75-13.26,2.25-.22,6.26-.11,5.18,3.17-.73,2.2-7.76,1.06-9.33,1.94Z"/>
  <path class="cls-10" d="M153.37,176.13c1.07,1.08.36,3.1-1.12,3.38-3.38.64-5.05-2.46-10.02-1.04-2.13.61-4.66,3.36-6.72,1.27,1.86-5.57,14.59-6.93,17.87-3.61Z"/>
  <path class="cls-8" d="M151.07,215.08c.21-.33,1.86-.72,2.43-.36.76.48.96,2.84,2.35,3.22,1.23.33,3.01-1.04,4.17-.21,2.41,1.7-2.14,5.11-6.37,2.88-1.66-.88-3.66-3.81-2.58-5.52Z"/>
  <path class="cls-1" d="M128.51,249c.73.72.9-.05.99-.74,1.05-7.78-6.56-16.42-8.76-23.25-.16-.51-.57-1.71,0-2.01,7.28,4.42,8.56,13.54,13.5,19.5,3.51,4.24,6.91,6.04,9.35,11.65,4.39,10.14.32,17.24,1.47,27.03.48,4.16,3.06,7.76,3.94,11.79-5.35,1.37-10.96,2.4-16.42,1.44-1.03-7.08-3.62-13.84-6.34-20.41s-4.87-11.44-9.25-16.75c-3.84-4.65-14.99-15.63-16.98-20.52-.09-.23-.13-.82.24-.74,6.94,4.29,11.08,11.43,16.75,17,.45-3.17-1.04-5.66-2.41-8.34-3.85-7.51-9.56-14.76-14.08-21.92,2.37-.41,5.64,2.66,7.26,4.24,5.96,5.8,8.02,13.48,12.33,20.17.58.9,1.69,2.81,2.91,2.84-.38-5.45-3.28-11.1-5.91-15.83-2.35-4.22-6.27-8.66-8.19-12.81-.22-.47-.79-1.54-.15-1.85,10.17,6.66,14.14,19.26,19.76,29.49Z"/>
  <path class="cls-1" d="M182.5,274.99c-4.46,1.93-9.14,3.36-14.02,3.8-.71-3.05-1.61-5.87-2.75-8.78-2.74-7-11.38-19.54-6.74-26.77,5.04-5.5,12.89-10.34,16.92-16.58,1.64-2.54,2.4-5.77,4.33-8.17,1.24,8.18-7.77,14.58-9.03,21.47-2.14,11.77,5.87,25.12,11.27,35.02Z"/>
  <g>
    <path class="cls-3" d="M237.66,147.33c1,.99,1.02,3.93.93,5.34-.09,1.25-2.42,11.54-2.91,11.89-3.02,2.17-13.07-3.61-14.73-6.79-3.35-6.4,3.02-9.05,8.02-5.45-.53-4.4,5.58-8.11,8.7-5ZM231.92,161.19c-.56-2.04,5.25-11.1,1.84-11.82-2.29-.48-2.96,5.64-3.32,5.91s-5.74-2.55-7.37-1.47c-1.31,3.2,8.03,8.13,8.86,7.39Z"/>
    <path class="cls-7" d="M231.92,161.19c-.82.75-10.17-4.18-8.86-7.39,1.63-1.08,7,1.75,7.37,1.47s1.04-6.39,3.32-5.91c3.4.72-2.4,9.78-1.84,11.82Z"/>
  </g>
  <g>
    <path class="cls-3" d="M266.57,237.93c-2.96,4.3-22.07-4.41-16.71-11.09,2.95-3.67,5.53-.57,7.04-.89,1.55-.33,1.26-3.98,3.28-5.37,4.24-2.93,7.26-.35,8.07,4.32.11.65-1.3,12.49-1.67,13.03ZM260.01,225.55c-.21.5,1.17,2.42-.86,3.36-1.32.61-6.65-1.25-6.74-.81.04,2.94,6.34,7.26,8.59,6.67,3.6-.95.89-13.58-.99-9.22Z"/>
    <path class="cls-7" d="M260.01,225.55c1.88-4.37,4.59,8.27.99,9.22-2.25.59-8.55-3.72-8.59-6.67.09-.44,5.42,1.42,6.74.81,2.04-.94.65-2.86.86-3.36Z"/>
  </g>
  <g>
    <path class="cls-3" d="M286.85,186c.46-.16,1.84-8.33,6.44-4.13,1.21,1.1,1.37,10.44.73,11.11-2.44,2.56-14.99-1.99-11.48-6.5,1.45-1.87,3.98-.36,4.31-.48ZM285.42,187.27c-.23.11-1.2,1.24-.69,1.57,1.85,1.41,4.08,2.33,6.41,2.36.9-.98.24-6.57-.4-7.49-1.26-1.83-1.54,3.24-2.1,3.73-.96.83-2.94-.3-3.23-.16Z"/>
    <path class="cls-7" d="M285.42,187.27c.29-.13,2.27,1,3.23.16.56-.48.84-5.55,2.1-3.73.64.92,1.3,6.51.4,7.49-2.34-.03-4.56-.95-6.41-2.36-.51-.33.45-1.46.69-1.57Z"/>
  </g>
</svg>