<?xml version="1.0" encoding="UTF-8"?>
<svg id="Layer_1" data-name="Layer 1" xmlns="http://www.w3.org/2000/svg" viewBox="0 0 1041 1041">
  <defs>
    <style>
      .cls-1 {
        fill: #2c2729;
      }

      .cls-2 {
        fill: #fff;
      }

      .cls-3 {
        fill: #d82f87;
      }
    </style>
  </defs>
  <path d="M419,897c-7.92-8.79-29.9-24.75-29.91-37.38,0-6.19,2.88-18.12,4.65-24.38,5.61-19.89,13.05-33.06,36.25-23.24.55-14.12-.69-28.43-.03-42.54.33-7.08,1.29-22.09,3.74-28.26s7.63-6.79,13.76-7.24c15.08-1.12,31.91,1.11,46.88,3.21,37.64,5.29,76.52,14.44,112.67,25.82l-51.99-69.99c16.53-1.57,33.85-3.96,49.76-8.74,21.14-6.35,39.44-19.43,60.78-25.05.99.51,1.37,1.01,1.4,2.17.12,3.82-3.99,17.14-5.23,21.84-10.23,38.66-24.58,76.26-35.21,114.79-3.19,11.55-11.99,38.07-2.4,47.4,7.58,7.38,20.78,6.64,29.47,11.59l-6.57,41h9.99c-.16-2.61-1.11-4.69-1.03-7.44.38-12.83,5.06-28.68,7.04-41.55-9.18-1.77-32.19-3.14-33.94-14.57-1.83-11.98,4.14-32.53,7.22-44.65,9.71-38.2,24.24-75,35.21-112.79,1.11-3.84,8-26.45,6.5-28-25.96,5.96-49.75,18.51-75.23,26.27-30,9.14-68.54,17.94-97.07.54-30.65-18.7-26.61-62.95-11.7-90.79-12.05-.64-24-4.03-32-13.51,10.1,0,17.94,6.82,28.51,7.49,20.73,1.31,70.04-20.25,94.47-25.49,12.43-2.67,26.52-6.01,39-3.49-6.53-13.94-.55-31.03,7.52-43.01.94-.65-.57-1.7-1.15-1.85-2.17-.56-10.86-1.03-13.82-1.18-21.23-1.04-44.89,2.47-65.73,6.37-6.2,1.16-26.04,7.24-30.26,6.7-7.45-.95-.79-8.78-.66-11.53.19-3.83-3.81-3.59-3.91-5.98,2.39-2.49,9.32.91,11.04,2.96,2.14,2.55.78,5.36,6.49,5.58,7.79.31,24.49-5.32,33.28-6.76,18.14-2.98,38.36-4.44,56.76-3.34,10.31.62,23.05,2.35,23.46,15.05,23.23-5.27,57.02-3.81,60,26,19.74-5.93,49,3.68,61.97,19.52,23.46,28.66,22.23,118,21.06,155.02-1.11,34.94-4.32,76.33-10.33,110.67-1.38,7.89-2.67,23.4-10.42,26.58-10.71,4.41-38.52,3.6-50.83,3.25-11.01-.31-37.36-4.69-46.17-1.25-1.51.59-3.4,1.31-4.08,2.92-1.79,4.23-4.84,27.22-5.2,32.8-.09,1.42-.59,4.81.57,5.6,16.22,3.8,35.26,5.2,51.9,3.87,1.54-.12,9.54-1.19,9.49-2.49-12.02-11.05-30.13-13.96-45.98-13.5-1.11-3.91,3.36-3.82,4.48-6.01,2.19-6.32,3.6-14.14,5.72-20.28.54-1.57,1.75-2.19,3.28-1.7,4.85,1.54-3.64,20.9-2.49,21.99,9.25-.41,19.01,2.37,27.35,6.15,7.07,3.2,15.97,7.82,14.64,16.86,7.84.86,7.66-1.51,5.49-8-4.86-14.53-26.23-17.39-39.49-19.01l2.47-16.04c.81-1.25,1.5-.68,2.55-.56,5.07.61,10.06,2.3,15.44,2.65,6.38.42,14.62.24,21.09,0,6.7-.26,24.88-5,28.69,1.22,4.81,7.85,1.1,23.64-5.26,30.21l-10.98,9.52h57.5c.15,0,2.63-1.21,2.5-1.5-10.32-8.39-31.19-36.93-17.5-48.51,9.04-7.66,20.96-.42,25,9,1.33-.6,2.65-13.49,3.38-16.62,2.65-11.33,10.39-27.18,18.1-35.9,6.93-7.82,19.56-18.35,30.39-12.34,16.73,9.28,4.29,44.26-3.37,56.86,8.48-3.96,18.63-10.26,28.27-5.76,18.73,8.75-11.41,39.2-21.74,43.8l-17.53,9.97h23.5c.99,0,12.12,2.71,10.5,3.99-17.06,2.55-34.33,1.56-51.54,1.97-142.07,3.39-285.49-1.36-427.91-2.01-92.26-.42-184.37.7-276.54,1.04-.23-1.45,1.76-1.39,2.8-1.68,10.91-3.08,24.86-3.07,36.2-3.32-12.98-8.87-25.08-17.06-34.97-29.52-12.71-16-38.73-65.69-15.72-80.66,29.35-19.09,54.67,30,57.7,53.19,2.61.46,1.55-.38,2.08-1.43,3.09-6.03,5.8-15.6,13.62-17.36,27.78-6.27,20.8,33.5,15.31,48.31-4.16,11.23-10.92,18.09-19.02,26.47l96.99-1-18.47-12.02c-9.6-7.56-27.28-29.99-13.47-40.41,10.84-8.18,22.77.02,31.93,6.44-3.2-17.41,1.79-58.08,25.51-58.07,25.46,0,16.79,42.65,13.51,58.07,9.81-10.46,27.66-10.11,29.02,6.46,1.58,19.19-19.24,30.32-32.03,40.54h93ZM701.99,540c-2.21-13.96-12.74-21.96-26.45-23.04-11.37-.89-38.33.42-44.74,11.33-7.48,12.72-1.4,17.14,11.87,17.32,13.56.19,25.18-12.47,38.36-1.14,2.63,2.26,3.82,6.61,7.98,6.51-4.41-8.22-6.42-18.45-18-18-.26-2.01-.18-1.64,1.24-2.25,5.4-2.32,10.55.24,14.28,4.24,3.28,3.52,4.17,9.61,8.48,11.01,1.85-2.15-5.41-12.4-7.02-14.47-.88-1.14-9.11-7.8-4.47-7.55,10.36.56,12.33,10.06,18.48,16.02ZM178,871v-19.5c0-11.81-14.71-43.92-23.46-52.54-13.76-13.56-34.38-11.74-33.59,10.59.85,23.67,19.78,54.43,37.57,69.42,5.01,4.22,11.66,9.97,18.47,9.03,1.98-1.98-5.55-20.21-7.12-23.38-.95-1.91-8.46-12.96-7.87-13.62l5.98,4.51,10.01,15.49ZM311.99,884.99c1.84-13.62,8.34-24.68,11.33-38.18,2.21-9.98,7.74-40.52-1.78-46.86-6.59-4.39-13.82-.55-17.74,5.35-9.55,14.37-9.45,35.43-6.34,51.73,1.5,7.84,4.45,15.31,6.55,22.96,1.41.24,1.46-1.77,1.7-2.77.71-2.96,3.58-22.18,5.79-22.2.82.83,1.93,1.5,2.3,2.69,1.03,3.34-2.43,16.85-2.79,21.8-.09,1.19-.83,5.47.98,5.48ZM834.01,882c13.61-14.99,27.81-29.22,34.74-48.75,3.44-9.7,10.91-38.96-8.02-35.02-5.27,1.1-14.17,10.01-17.75,14.25-14.84,17.55-21.21,47.27-15.96,69.52l12.4-25.11,2.58-1.88c2.43,3.22-8.22,21.96-7.98,26.99ZM426.5,816h-15c-1.06,0-5.87,6.81-6.67,8.33-4,7.53-10.46,29.98-8.62,37.97.96,4.18,19.5,22.59,23.78,26.22,4.92,4.17,8.59,7.55,15.52,7.57,15.32.05,8.25-7.13,2.47-14.56-9.62-12.36-36.33-35.1-8.91-45.14-.39-3.54,1.15-19.2-2.56-20.39ZM190.01,886.99c2.22,2.28,9.31-7.35,10.41-9.08,5.9-9.28,14.7-38,7.44-47.28-5.87-7.51-14.33.41-17.42,6.31-6.3,12.03-4.62,26.99-3.43,40.06,3.4-4.24,5.69-9.33,8.54-13.97.97-1.58,2.03-7.01,3.58-2.61,1.84,5.23-10.15,19.65-9.12,26.58ZM433.99,843c-16.37,2.26-7.14,14.52-.97,22.47,6.84,8.81,21.7,19.4,17.97,31.52l166.99,1-91.19-17.3c-23.13-5.98-48-9.72-70.6-17.4-11.36-3.87-20.95-6.41-22.22-20.29ZM293.99,881c-2.59-8.02-2.08-19.62-7.97-25.52-4.81-4.82-15.49-11.58-22.29-8.25-12.42,6.09,3.06,25.43,9.26,31.28,3.1,2.92,19.34,15.16,23.01,12.48-4.49-7.12-10.65-13.39-17-18.98,6.51-.47,10.34,5.59,14.99,8.99ZM322.01,890c10.62-2.89,43.06-31.22,25.33-40.89-6.16-3.36-18.18,7.46-21.19,12.54s-3.77,13.68-6.14,19.35l16.51-13.99c1.95-.73,1.71,1.41,1.47,2.47-.71,3.06-18.83,17.65-15.98,20.52ZM838,896.99c18-3.7,39.71-15.67,51.51-29.98,12.42-15.07,6.5-23.92-11.87-15.87-14.22,6.23-15.44,13.65-25.13,23.87-5.03,5.31-11.74,9.03-15.51,15.49,3.38.19,8-3.2,10.91-5.09,3.34-2.16,15.11-13.11,9.54-2.46l-19.45,14.03ZM811.71,871.29c2.89,3.13,4.53,12.72,7.81,16.69,1.43,1.73,2.4,0,2.54-1.49.66-7.13-6.04-27.45-12.12-31.93-4.05-2.99-11.74-4.08-12.92,1.96-1.95,9.99,8.29,26.24,15.97,32.48-2.34-6.07-4.13-12.41-3.98-19,.09-.12,2.4.96,2.7,1.29Z"/>
  <path d="M660,234v18.5c0,4.53-5.77,16.56-9.51,19.49-12.66,9.96-23.76-9.6-32.57-1.57-6.67,6.08-1.14,17.79,6.4,20.75l9.67,4.3c-7.67,3.84-13.51,10.24-21.62,13.38-25.55,9.92-56.23-3.2-69.17-26.57l-9.19-22.3c.4,8.35-.59,17.2,0,25.48,1.58,22.13,15.2,47.09,5.48,68.51-12.75,28.11-65.29,32.23-77.01,1l-7.84,9.65c-28.41,25.81-73.82-4.06-44.67-38.17,18.45-21.58,29.8-19.53,32.02-53.98,2.19-34.03-3.47-60,19.18-89.82,18.76-24.69,60.07-38.62,85.35-15.69,4.21,3.82,6.94,11.6,12.94,11,2.6-.26,8.48-6.1,11.23-7.79,19.29-11.85,42.77-19.09,65.51-13.89,7.2,1.65,11.42,5.66,17.79,7.7,14.57-42.67,73.01-38.46,85.04,4.47,13.21,47.15-36.13,85.42-79.03,65.53ZM730.99,202.99c10.47-25.11-2.65-57.07-30.98-60.98l13.01,8.48c16.61,14.08,18.22,28.36,16.95,48.98-.07,1.08-.64,3.79,1.03,3.52ZM554,184.01c-12.41-1.82-24.37,13.89-14.48,23.99,1.91.48,6.04-10.44,7.32-12.67.84-1.46,7.78-10.8,7.17-11.32ZM481.01,366.99c17.19,8.05,43.37,2.52,52.17-15.31,10.16-20.6-10.1-53.76-6.19-76.67-1.29-.27-1.61,1.86-1.74,2.73-3.14,20.95,4.8,43.21,2.74,63.75-1.15,11.47-9.54,18.43-19.73,22.27-9.55,3.6-14,3.28-23.89,2.36-1.12-.1-3.6-.92-3.37.87ZM447,362.01c-23.64,7.19-38.37,3.66-35.39-23.91.17-1.56,1.29-3.28-1.11-1.1-13.83,24.48,18.3,41,36.5,25.01Z"/>
  <path d="M775.13,257.16c1.95,7.07.64,19.56-8.12,20.83-.57-5.65,2.62-9.69,2.02-15.51-.5-4.84-5.3-8.48-5-12.93.33-4.81,6.69-13.37,4.96-19.56-6.69,6.24-14.45,22.39-14.02,31.45.14,3.06,6.77,24.35,8.44,25.64,6.88,2.02,14.9.43,22.13.87,4.07.25,33.47,3.6,34.42,5.1l-.02,2.86c-1.69,2.73-19.57-1.63-23.45-1.91-8.96-.65-20.96-.13-29.88,1.08-5.11.7-12.61,5.98-13.52-1.49l4.96-3.18c-2.79-9.66-7.92-19.19-8.05-29.42-13.62.92-16.91-12.36-15.86-23.39.42-4.43,1.13-8.44,5.16-10.84,8.99-5.34,27.82-7.46,38.06-11.7,1.68-1.09.78-5.02,6.41-5.89,4.39-.68,5.59,1.84,7.71,1.86.61,0,.46-1.83,1.74-2.38,5.95-2.54,6.61,2.1,9.08,2.11,7.15.04,18.55-7.22,25.64-3.2,9.97,5.65,9.35,27.4.6,34.42-4.27,3.42-5.2.59-8.87,1.05-15.13,1.89-30.88,7.49-44.52,14.1ZM818,212.01c-8.81,1.11-5.84,10.28-7.68,16.81-1.3,4.64-4.52,8.41-7.32,12.17,1.13.9,11.58-4.99,12.48-7.01,2.02-4.49-.72-16.28,2.51-21.98ZM796.99,213c-.84-.56-3.58.15-3.88,1.57,2.26,7.13.44,13.77-2.1,20.42,5.52-1.68,9.27-19.81,5.98-22ZM829.99,228c.8-.78-1.56-14.27-4.98-15-.28,5.08-.16,9.69,1.9,14.4l3.08.6ZM785.99,232c1.19-3.26,3.7-15.74,1.09-17.57-7.68-1.79-3.54,3.03-3.19,7.19.25,2.97-.23,6.17.11,8.9.17,1.39.57,2.92,1.99,1.48ZM799,235.99c2.08,2.09,6.85-8.87,7.27-10.21.75-2.36,3.01-9.9-.79-10.78-3.54-.82-2.39,8.83-2.75,11.24-.53,3.52-2.06,6.68-3.74,9.75ZM796.99,242.01c-8.59-2.87-17.39,1.77-18.91-9.6-.49-3.67.17-7.7-.1-11.41l-4,1.01c4.93,10.63-8.36,29.28,11.24,24.72l11.76-4.71ZM763,226.01c-.77-.68-14.98,3.21-14.98,4.49,2.22,1.08,5.25,7.89,7.38,7.46l7.6-11.95ZM742.99,248.99c-.09-3.99.66-10.21-2.98-12.99-.05,3.1-.16,6.14.28,9.24.23,1.59.19,4.5,2.7,3.76Z"/>
  <path d="M630.99,399c-8.76-3.25-.42-18-.04-24.64.23-4.11-2.02-6.44-5.02-8.79-10.24-8.03-23.88-13.35-33.42-23.58-2.12-2.27-6.16-6.89-4.04-10.03l3.53-.47c12.16,12.43,26.48,22.65,41.99,30.5,2.17-9.59,5.51-16.56.01-25.99,1.42-1.92,13.51.91,16.46,1.03,48.55,1.94,74.03-25.13,70.58-73.58-.6-8.44-3.77-16.9-3.54-25.46,7.67,5.78,6.71,15.95,9.45,23.55,2.41,6.68,11.9,14.86,8.3,23.19-1.79,4.13-8.08,6.68-10.11,9.88-1.92,3.02-2.14,7.87-3.64,11.36-8.12,18.92-22.73,31.33-42.86,36.14-10.64,2.55-21.7,1.59-32.14,3.86-1.69,4.62-7.71,12.83-7.39,17.56.1,1.45,1.65,2.53,1.9,4.03,1.22,7.2-11.1,22.4-10,31.42ZM727.01,285c5.62-2.6,3.78-6.99.49-10.99l-.49,10.99Z"/>
  <path d="M662,442.01c2.31-2.26,18.36,12.38,21.1,14.39,19.72,14.46,30.32,24.04,56.43,15.64,42.15-13.56,68.03-82.68,76.78-122.22,3.09-13.96,4.07-28.32,7.01-42,.25-1.15.13-3.98,1.66-3.81,4.04,15.81.75,33.09-2.67,48.81-13.84,63.68-66.29,173.53-145.8,111.16-6.93-5.44-9.52-9.31-13.29-16.71-.81-1.59-1.29-3.47-1.22-5.26Z"/>
  <path d="M579.99,342.01c3.56,3.67-30.05,36.14-33.51,39.98-8.82,9.79-17.81,19.7-25.88,30.12-22.42,28.9-66.82,99.21-64.59,135.38.13,2.13,3.93,17.59.49,17.49-7.07-6.82-7.25-20.11-6.48-29.46,3.01-36.92,48.91-107.03,73.01-135.99,13.76-16.53,33.78-39.3,49.96-53.04.95-.8,6.29-5.22,7.01-4.48Z"/>
  <path d="M757,309c-.75,22.94-5.59,47.17-13.97,68.53-8.13,20.71-26.35,49.34-48.03,22.98-.93-1.13-2.43-1.61-1.99-3.5,12.08,1.35,13.79,14.67,26.93,5.43,15.09-10.61,24.18-47.65,27.58-65.42.96-5,2.3-25.91,5.47-27.53,1.27-.65,2.65-.54,4.01-.49Z"/>
  <path d="M638,485.99c-3.1,2.98-8.55-9.86-9.48-12.01-5.7-13.17-9.17-29.17-9.56-43.53-.05-1.83.65-5.77,2.63-6.36,5.17-1.55,3.12,9.36,3.42,12.4,1.77,18.08,6.94,32.63,12.99,49.5Z"/>
  <path d="M799.99,250c.78,12.52-11.02,13.05-11.08,26.51,0,1.96,2.51,9.3-.39,8.48-6.03-2.32-5.22-11.46-3.84-16.8,1.55-6.01,6.19-8.43,9.18-12.82,1.86-2.73.46-6.42,6.13-5.36Z"/>
  <path d="M874,162.01c2.43,2.28-8.84,14.08-10.41,16.08-2.53,3.2-4.35,9.08-8.58,9.91-3.17-3.68,10.71-28.97,18.99-25.99Z"/>
  <path d="M717.89,263.9c-7.92,1.61-15.1-2.44-19.1-9.19-2.4-4.06-5.33-11.51,2.27-9.26,2.4,6.34,4.79,11.35,11.91,13.1,2.98.73,7.06-1.71,4.92,5.35Z"/>
  <path d="M868,207c6.76-.85,19.46,2.44,23.54,7.95,1.99,2.7,2.24,5.31-1.78,4.87-1.22-.13-19.93-8.55-20.76-9.33-1.25-1.18-1.13-1.9-1-3.49Z"/>
  <path d="M693.1,291.1l3.97.34c1.31.93,1.12,8.03,5.64,9.36,1.57.46,10.09-.22,7.85,4.22-3.97,7.88-23.23-5.33-17.46-13.91Z"/>
  <path d="M881.89,183.1c.79,1.79,1.15,3.63-.59,4.96s-15.18,7.03-16.29,5.94c-1.65-6.47,12.57-13.46,16.89-10.89Z"/>
  <path d="M159.99,747.01c1.28,1.34-3.04,14.37-4.19,16.3-.84,1.42-1.5,2.25-3.3,1.68-4.6-1.45.72-19.57,7.49-17.99Z"/>
  <path d="M134.01,753c3.82-3.8,10.91,10.36,11.56,12.95.92,3.64-2.09,3.68-4.63,1.61-1.91-1.56-9.04-12.46-6.93-14.56Z"/>
  <path d="M171.75,760.24c1.77-.47,3.59-.58,5.28.24,4.76,3.19-8.3,10.48-11.01,9.08-5.31-2.75,2.46-8.43,5.73-9.31Z"/>
  <path d="M909.01,829.99c-1.01-7.71,11.24-10.92,14.98-4.5.03,2.52-12.79,3.97-14.98,4.5Z"/>
  <path d="M899.01,825c.97-5.23-2.33-11.86,1.49-15.98,4.44-.04,1.66,14.35-1.49,15.98Z"/>
  <path class="cls-2" d="M178,871l-10.01-15.49-5.98-4.51c-.59.66,6.92,11.71,7.87,13.62,1.57,3.18,9.11,21.41,7.12,23.38-6.82.93-13.47-4.82-18.47-9.03-17.8-14.99-36.73-45.76-37.57-69.42-.8-22.32,19.82-24.14,33.59-10.59,8.75,8.62,23.46,40.73,23.46,52.54v19.5Z"/>
  <path class="cls-2" d="M433.99,843c1.27,13.88,10.86,16.42,22.22,20.29,22.59,7.69,47.46,11.42,70.6,17.4l91.19,17.3-166.99-1c3.72-12.11-11.13-22.71-17.97-31.52-6.18-7.96-15.41-20.22.97-22.47Z"/>
  <path class="cls-2" d="M834.01,882c-.23-5.04,10.41-23.78,7.98-26.99l-2.58,1.88-12.4,25.11c-5.25-22.25,1.12-51.96,15.96-69.52,3.59-4.24,12.48-13.15,17.75-14.25,18.93-3.94,11.46,25.32,8.02,35.02-6.92,19.53-21.13,33.76-34.74,48.75Z"/>
  <path class="cls-2" d="M426.5,816c3.72,1.19,2.18,16.85,2.56,20.39-27.42,10.04-.72,32.78,8.91,45.14,5.78,7.43,12.85,14.61-2.47,14.56-6.92-.02-10.6-3.4-15.52-7.57-4.28-3.63-22.81-22.05-23.78-26.22-1.84-7.98,4.62-30.43,8.62-37.97.8-1.51,5.61-8.33,6.67-8.33h15Z"/>
  <path class="cls-2" d="M311.99,884.99c-1.81,0-1.06-4.3-.98-5.48.36-4.95,3.81-18.46,2.79-21.8-.37-1.19-1.48-1.86-2.3-2.69-2.21.02-5.08,19.24-5.79,22.2-.24,1-.29,3.01-1.7,2.77-2.09-7.65-5.05-15.12-6.55-22.96-3.12-16.3-3.21-37.36,6.34-51.73,3.92-5.89,11.14-9.73,17.74-5.35,9.52,6.34,3.99,36.88,1.78,46.86-2.99,13.5-9.49,24.55-11.33,38.18Z"/>
  <path class="cls-2" d="M701.99,540c-6.15-5.97-8.13-15.47-18.48-16.02-4.64-.25,3.59,6.41,4.47,7.55,1.61,2.07,8.87,12.32,7.02,14.47-4.31-1.41-5.19-7.49-8.48-11.01-3.73-4-8.88-6.56-14.28-4.24-1.42.61-1.5.24-1.24,2.25,11.58-.46,13.59,9.77,18,18-4.16.09-5.35-4.25-7.98-6.51-13.18-11.33-24.8,1.33-38.36,1.14-13.27-.18-19.35-4.6-11.87-17.32,6.41-10.91,33.37-12.22,44.74-11.33,13.71,1.07,24.24,9.08,26.45,23.04Z"/>
  <path class="cls-2" d="M838,896.99l19.45-14.03c5.57-10.65-6.21.3-9.54,2.46-2.91,1.89-7.53,5.28-10.91,5.09,3.77-6.47,10.48-10.19,15.51-15.49,9.69-10.22,10.91-17.64,25.13-23.87,18.37-8.05,24.29.8,11.87,15.87-11.8,14.3-33.51,26.28-51.51,29.98Z"/>
  <path class="cls-2" d="M190.01,886.99c-1.03-6.93,10.97-21.35,9.12-26.58-1.55-4.4-2.61,1.03-3.58,2.61-2.85,4.64-5.14,9.73-8.54,13.97-1.18-13.06-2.86-28.02,3.43-40.06,3.09-5.9,11.55-13.82,17.42-6.31,7.25,9.28-1.54,38-7.44,47.28-1.1,1.73-8.19,11.36-10.41,9.08Z"/>
  <path class="cls-2" d="M293.99,881c-4.65-3.4-8.48-9.46-14.99-8.99,6.35,5.59,12.51,11.86,17,18.98-3.67,2.68-19.91-9.55-23.01-12.48-6.2-5.85-21.68-25.19-9.26-31.28,6.8-3.33,17.48,3.43,22.29,8.25,5.89,5.9,5.38,17.5,7.97,25.52Z"/>
  <path class="cls-2" d="M322.01,890c-2.85-2.87,15.26-17.46,15.98-20.52.25-1.05.48-3.19-1.47-2.47l-16.51,13.99c2.37-5.68,3.11-14.26,6.14-19.35s15.03-15.9,21.19-12.54c17.74,9.67-14.71,38-25.33,40.89Z"/>
  <path class="cls-2" d="M811.71,871.29c-.31-.33-2.61-1.41-2.7-1.29-.15,6.59,1.64,12.93,3.98,19-7.68-6.24-17.92-22.49-15.97-32.48,1.18-6.04,8.87-4.95,12.92-1.96,6.08,4.49,12.78,24.8,12.12,31.93-.14,1.49-1.11,3.22-2.54,1.49-3.28-3.97-4.92-13.56-7.81-16.69Z"/>
  <path class="cls-2" d="M481.01,366.99c-.23-1.79,2.25-.97,3.37-.87,9.89.93,14.34,1.24,23.89-2.36,10.19-3.84,18.58-10.8,19.73-22.27,2.06-20.54-5.89-42.8-2.74-63.75.13-.87.45-3.01,1.74-2.73-3.91,22.91,16.35,56.08,6.19,76.67-8.8,17.83-34.98,23.35-52.17,15.31Z"/>
  <path class="cls-2" d="M730.99,202.99c-1.67.27-1.09-2.44-1.03-3.52,1.27-20.62-.34-34.91-16.95-48.98l-13.01-8.48c28.34,3.91,41.45,35.87,30.98,60.98Z"/>
  <path class="cls-2" d="M554,184.01c.61.53-6.33,9.86-7.17,11.32-1.28,2.23-5.4,13.15-7.32,12.67-9.88-10.1,2.08-25.81,14.48-23.99Z"/>
  <path class="cls-2" d="M447,362.01c-18.2,15.99-50.33-.53-36.5-25.01,2.39-2.18,1.27-.46,1.11,1.1-2.98,27.56,11.75,31.09,35.39,23.91Z"/>
  <path class="cls-2" d="M796.99,242.01l-11.76,4.71c-19.6,4.57-6.32-14.08-11.24-24.72l4-1.01c.26,3.72-.39,7.75.1,11.41,1.52,11.37,10.32,6.73,18.91,9.6Z"/>
  <path class="cls-2" d="M818,212.01c-3.23,5.7-.49,17.49-2.51,21.98-.91,2.02-11.36,7.91-12.48,7.01,2.8-3.76,6.02-7.53,7.32-12.17,1.83-6.54-1.13-15.71,7.68-16.81Z"/>
  <path class="cls-2" d="M763,226.01l-7.6,11.95c-2.12.44-5.16-6.37-7.38-7.46,0-1.29,14.2-5.18,14.98-4.49Z"/>
  <path class="cls-2" d="M796.99,213c3.29,2.19-.46,20.32-5.98,22,2.54-6.65,4.36-13.29,2.1-20.42.3-1.43,3.04-2.13,3.88-1.57Z"/>
  <path class="cls-2" d="M799,235.99c1.68-3.07,3.21-6.23,3.74-9.75.36-2.4-.79-12.06,2.75-11.24,3.79.88,1.54,8.42.79,10.78-.43,1.34-5.2,12.3-7.27,10.21Z"/>
  <path class="cls-2" d="M785.99,232c-1.42,1.44-1.82-.09-1.99-1.48-.34-2.74.14-5.94-.11-8.9-.35-4.15-4.5-8.98,3.19-7.19,2.62,1.83.1,14.31-1.09,17.57Z"/>
  <path class="cls-2" d="M829.99,228l-3.08-.6c-2.06-4.72-2.19-9.32-1.9-14.4,3.43.73,5.78,14.22,4.98,15Z"/>
  <path class="cls-2" d="M742.99,248.99c-2.51.74-2.48-2.16-2.7-3.76-.44-3.09-.33-6.14-.28-9.24,3.65,2.79,2.9,9,2.98,12.99Z"/>
  <path class="cls-2" d="M727.01,285l.49-10.99c3.3,4,5.14,8.39-.49,10.99Z"/>
  <g>
    <path class="cls-1" d="M591.31,99.6c1.6,1.6,1.64,6.3,1.48,8.57-.14,2.01-3.88,18.5-4.67,19.07-4.84,3.48-20.96-5.79-23.63-10.89-5.37-10.26,4.84-14.51,12.87-8.74-.85-7.06,8.94-13,13.95-8.01ZM582.1,121.84c-.89-3.27,8.41-17.8,2.96-18.96-3.67-.78-4.75,9.04-5.33,9.47s-9.21-4.09-11.83-2.36c-2.11,5.14,12.88,13.04,14.2,11.85Z"/>
    <path class="cls-3" d="M582.1,121.84c-1.32,1.2-16.31-6.71-14.2-11.85,2.62-1.73,11.23,2.8,11.83,2.36s1.67-10.25,5.33-9.47c5.46,1.16-3.85,15.69-2.96,18.96Z"/>
  </g>
</svg>