<?xml version="1.0" encoding="UTF-8"?>
<svg id="Layer_1" data-name="Layer 1" xmlns="http://www.w3.org/2000/svg" viewBox="0 0 1040 1040">
  <defs>
    <style>
      .cls-1 {
        fill: #252122;
      }

      .cls-2 {
        fill: #2c2729;
      }

      .cls-3 {
        fill: #fbfbfb;
      }

      .cls-4 {
        fill: #231f20;
      }

      .cls-5 {
        fill: #878586;
      }

      .cls-6 {
        fill: #9b9999;
      }

      .cls-7 {
        fill: #d82f87;
      }

      .cls-8 {
        fill: #828081;
      }

      .cls-9 {
        fill: #777475;
      }

      .cls-10 {
        fill: #262223;
      }

      .cls-11 {
        fill: #252223;
      }

      .cls-12 {
        fill: #242021;
      }

      .cls-13 {
        fill: #b5b4b4;
      }

      .cls-14 {
        fill: #282425;
      }

      .cls-15 {
        fill: #656262;
      }

      .cls-16 {
        fill: #868485;
      }

      .cls-17 {
        fill: #fefefe;
      }

      .cls-18 {
        fill: #fafafa;
      }

      .cls-19 {
        fill: #f8f8f8;
      }

      .cls-20 {
        fill: #c2c1c1;
      }

      .cls-21 {
        fill: #838182;
      }

      .cls-22 {
        fill: #fdfdfd;
      }

      .cls-23 {
        fill: #272324;
      }
    </style>
  </defs>
  <path class="cls-4" d="M718,452c-2.91-.35-5.46.96-8.34.93-.82,0-7.65-.9-5.65-2.92,1.21-1.23,15.55-3.75,21.48-9.03,14.94-13.3,7.81-43.93-15.03-35.03-5.25,2.05-11.82,10.58-13.21,15.79-2.73,10.25,1.03,26.62-14.24,29.25.37-4.38,4.27-6.93,5.79-10.7,9.6-23.67-14.36-66.03-36.15-77.14-7.97,7.79-16.32,15.16-25.64,21.36l10.78,5.69c1.86,12.01-6.71,4.4-12.34,2.86-12.48-3.43-20.66,3.84-32.44,5.95,8.3,19.19,7.31,52.36-9.99,66.5-3.19,2.61-12.46,8.46-14.52,3.49,5.1-5.49,11.94-8.23,16.35-14.66s4.95-14.17,6.15-21.33c-5.56,6.9-9.81-2.23-10-8l-3.99.99c-3.41-8.36,11.12-5.43,12.86-8.13,1.41-2.18-1.52-16.17-5.36-16.87-4.95-.91-12.49.43-17.99-.01-41.49-3.36-63.97-44.1-39.74-79.71,20.86-30.67,61.97-36.2,94.67-22.3,23.1-51.16,81.58-69.37,131.23-43.14,46.92,24.79,50.07,55.71,62.2,101.8,5.99,22.75,13.8,57.02,44.39,52.13,5.56-.89,7.88-4.42,11.26-5.75,5.11-2.01-3.24,7.2-3.36,7.68-.28,1.14,1.01,7.8.83,10.8-2.06,35.34-29.62,75.81-62.31,89.68-20.2,8.57-12.42.15-11.69-13.69.5-9.39.27-20.94-1.96-30.06-.41-1.69.99-2.91-2.02-2.43-.27,4.43.36,9.08-.02,13.48-.69,8.03-3.33,32.59-6.08,38.92-2.42,5.55-21.06,14.17-27.24,16.76-22.37,9.4-49.68,13.91-72.24,2.87-1.36-2.27,15.09-23.44,17.59-27.52,5.83-9.54,15.98-30.07,15.98-41.02v-17.5Z"/>
  <path class="cls-4" d="M242,344c76.08,9.94,159.57-2.47,220.68-51.1l5.32-1.9c5.51-4.83,10.4-10.27,15.99-15-3.25,13.65-15.72,23.93-26.68,31.81-56.57,40.73-144.47,55.38-212.55,44.92-9.61-1.48-20.54-7.11-29.76-2.72.55,1.49,4.42,2.03,6,2.48,49.14,14.04,107.93,15.88,158.18,7.19,12.8-2.21,25.62-5.21,37.8-9.68.22,2.53-2.94,3.72-4.69,4.8-34.03,21.11-131.21,16.47-170.49,8.88-70.99-13.72-114.58-45.13-165.83-93.17-5.64-5.29-13.04-11.47-13.98-19.51,1.97-2.08,25.78,19.79,28.52,21.97,41.2,32.82,98.02,65.79,151.48,71.02Z"/>
  <path class="cls-4" d="M689,507.01c-.42,6.72-5.93,12.51-11.08,16.41-10.4,7.88-28.56,11.55-41.4,10.57-3.46-.26-13.77-3.65-15.53-2.53-2.28,6.83-14.47,18.29-15.48,24.45-.28,1.69,1.08,4.59,1.99,6.09,5.28-6.6,14.59-18.24,23.92-16.95,8.59,1.19,11.84,13.11,18.08,17.94,5.98-9.93,17.73-.24,19.26,8.75.92,5.42-.01,9.91-1.48,15.04-.8,2.79-3.43,6.07-3.27,8.64.19,3.02,6.8,12.05,8.27,16.8,3.41,11.03,3.19,24.39-7.79,30.77-1.39-4.02,2.79-7.48,4-11,2.17-6.32,1.31-11.84-1.01-17.98-1.95-5.18-10.24-14.75-10.47-18.6-.4-6.52,12.89-23.63-1.01-28.41-.16,9.16-8.46,19.02-16.09,23.41-1.57.9-6.89,4.73-6.95,1.07-.1-6.18,5.68-5.87,9.02-9.98-3.92-3.19-8.05-6.6-10-11.49-1.6-1.1-7.96,7.65-8.99,9.48l11.01,4.52c1.81,2.38-10.23,2.13-11.5,1.99-12.81-1.42-25.4-20.05-23.43-32.44.98-6.2,11.57-16.43,15.11-22.89,6.24-11.37-2.55-4.18-7.19-.19-6.72,5.78-16.89,18.72-18.53,27.46-2.51,13.3,7.93,30.36,14.37,41.72,16.63,29.34,39.71,57.44,43.27,92.23,11.66,2.99,24.05,2.67,35.9,1.09l-20.59-44.93c-.96-3.38,1.68-3.98,4.02-1,3.57,4.53,14.08,29.56,15.54,30.46,2.75,1.68,5.92-.59,8.52-.52,3.46.09,7.94,1.62,11.5,1.99l-7.99-7.5c11.54-1.81,20.13,9.28,11.04,19.05-10.09,10.84-34.63,13.41-48.59,12.5-5.67-.37-29.79-4.05-30.49-10.59-.62-5.74,5.22-2.4,7.4-2.74.68-.1,6.26-3.6,6.35-4.17.39-2.4-7.61-22.73-9.24-26.52-11.13-25.74-42.85-64.47-47.02-88.98-3.52-20.69,9.67-34.67,23.48-47.69-5.82-7.11-24.84-26.08-21.77-35.7.59-1.85,2.33-2.19,3.88-1.2.87.55,8.05,14.94,10.13,17.87,2.25,3.16,10.13,12.78,13.56,13.47,2.58.52,5.4-1.99,9.25-.27s2.3,6.51,4,7.99c.66.58,5.45,1.88,6.8,2.2,13.96,3.33,30.71.08,42.55-7.89l14.67-11.82Z"/>
  <path class="cls-4" d="M483.75,194.72c.22-.09.39-1.43,1.5-2,7.21-3.7,14.19-6.65,22.48-3.95,2.06.67,7.05,4.95,7.77,4.95.59,0,3.7-2.74,5.47-3.24,17.88-5.01,30.29,25.71,35.5,38.56,2.28,5.62,17.36,49.02,15.53,50.96-1.7.43-2-.67-3.01-1.48-5.04-4.06-10.59-26.98-13.5-34.5-4.01-10.36-17.5-43.97-28.2-46.8-.74-.2-6.31-1.21-5.28,1.27,1.81,2.27,17.54,15.86,14.99,18.51-13.78-5.49-26.34-29.11-43.59-21.09-.84.39-3.16.44-1.41,2.08.3.28,5.57,1.63,7.67,2.84,1.98,1.15,22.4,14.49,19.33,17.16-8.51-.46-14.97-8.92-22.99-12.5-3.64-1.63-12.77-4.47-16.55-4.53-7.72-.12-16.41,8.35-22.43,12.6,6,13.4,8.73,3.62,16.58.53s14.33.51,21.12,4.67c1.32.81,13.04,8.67,11.27,10.22-6.51,1.07-10.8-4.25-15.99-6.49-6.71-2.9-15.91-4.99-19,3.49,4.24,3.59,31.78,6.83,33,8.02,1.56,1.53-.37,1.72-1.39,2.1-6.44,2.4-15.01-.43-21.56-1.67-1.03-.2-3.28-1.31-3.05.55,4.8,1.49,9.02,4.34,13.96,5.54,2.06.5,22.29,1.7,15.02,6.96-10.59,7.65-36.5-11.59-47.98-12.48.89,13.44,20.57,15.37,28.51,21.98,3.35,2.78,6.5,9.46,10.09,12.91,12.56,12.09,31.27,7.91,43.39,20.09-2.26.62-3.91,1.13-6.35.95-6.98-.5-32.17-8.18-37.67-12.42-5.52-4.25-10.58-13.41-14.72-16.55-2.8-2.12-9.22-3.75-12.93-5.8-8.86-4.91-20.69-12.33-17.12-24.46.82-2.78,3.96-2.62,4.78-4.7-9.74-3.19-20.22-9.66-28.01-16.5-1.43-1.25-9.12-8.68-9.5-9.55-.53-1.24.5-2.61-.02-3.9-1.13-2.8-5.68-6.04-2.02-9.13,1.03-.87,1.19-1.17,2.54-.49,2.25,1.14,10.89,13.27,14.48,16.58,3.94,3.63,8.73,6.62,13.04,9.8,6.53-6.01,18.15-17.48,27.08-18.74,2.81-.4,6.97.57,9.17-.37Z"/>
  <path class="cls-4" d="M854.01,714c4.01,2.04.67,6.88.91,10.49.2,3.09,2.22,4.9,2.15,9.01-.17,10.65-16.08,43.83-21.91,54.18-13.23,23.5-45.9,63.74-70.91,74.09-36.9,15.27-73.9-6.55-95.08-36.45-17.15-24.21-47.89-94.04-45.19-122.82.35-3.72,1.72-7.09,4.22-2.21,3.67,7.17,6.55,28.24,9.29,37.71,14.69,50.88,51.63,137.19,118.94,117.94,26.16-7.48,47.26-34.71,60.98-57.02,16.1-26.18,26.69-55.92,36.6-84.91Z"/>
  <path class="cls-4" d="M71,281c5.58,26.29,2.12,53.71,2.96,80.54,3,95.42,14.44,191.45,18.08,286.92.91,23.95,3.97,62.24-2.04,84.54-.29,1.06-.74,4.14-1.99,3.99-1.2-18.78-.28-37.71-.97-56.54-4.31-117.29-17.57-234.66-22.08-351.92-.42-10.85-1.47-24.58-1.01-35.09.26-6.03,1.04-12.23,4.06-17.45,2.25.61,1.98,3.54,2.99,5Z"/>
  <path class="cls-4" d="M775,532.99c-2.87-2.68,7.43-2.11,8.54-2.03,49.76,3.87,95.8,84.9,114.32,125.68,15.52,34.17,34.25,83.96,41.46,120.54,1.11,5.62,3.55,11.85-.83,16.81-2.38.56-4.15-7.31-4.75-9.23-24.63-78.94-58.19-210.04-141.77-246.23-3.07-1.33-16.32-4.93-16.97-5.54Z"/>
  <path class="cls-4" d="M414.99,197c2.35,2.35-6.43,15.72-8.18,18.31-12.36,18.28-33.04,37.19-50.92,50.08-52.17,37.59-119.77,56.41-182.88,37.6-.25-1.53,1.87-1.17,3-1.47,15.37-3.96,26.67.65,41.45,1.52,67.78,4,136.26-33.53,177.94-85.15,3.28-4.06,12.36-18.82,15.63-20.37.92-.44,3.58-.91,3.97-.52Z"/>
  <path class="cls-4" d="M523.98,390c2.02,1.35,5.63,27.31,6.01,31.51,4.54,50.7-12.08,153.49,40.32,183.68l16.68,6.8c-23.06,5.96-40.67-17.14-48.85-35.63-21.31-48.16-11.74-106.93-16.15-158.85-.43-5.01-4.98-24.34-1.04-27.06.71-.49,2.58-.75,3.04-.44Z"/>
  <path class="cls-4" d="M102.01,733.99l6.06-5.43c43.59-24.06,91.46-43.31,139.17-57.83,14.36-4.37,49.81-15.39,63.32-13.78,10.2,1.22-1.39,6.13-4.79,7.31-21.33,7.43-46.79,11.71-68.98,18.02-28.74,8.17-57.22,17.66-84.75,29.25-14.72,6.2-29.08,14.88-43.36,20.64-2.15.87-4.25,1.92-6.67,1.82Z"/>
  <path class="cls-4" d="M305.99,395l2.05,29.46c-.23,66.21,11.54,132,14,198,.21,5.58.87,19.17-1.62,23.46s-4.08,3.58-4.46-1.37c-.81-10.61-.29-22.34-.97-33.03-4.08-64.84-13.7-131.34-11.99-196.02.17-6.43-1.37-15.39,2.99-20.49Z"/>
  <path class="cls-6" d="M242,344c54.24,5.31,105.55-1.77,156.25-21.25,27.32-10.5,51.47-23.83,72.27-44.74,2.25-.38,1.44.77,1.27,2.27-.44,3.84-2.92,7.05-3.79,10.72-28.61,25.09-64.94,40.83-101.99,49.51-40.28,9.44-83.37,11.81-124.01,3.49Z"/>
  <path class="cls-12" d="M186,234.01c1.67,1.81-3.78,3.34-4.74,3.74-33.27,13.84-75.17,27.7-110.79,14.28-2.86-1.08-6.53-3.25-4.38-6.96.97-1.68,26.07,4.59,30.43,4.91,16.93,1.25,31.41-.66,47.48-5.49,6.85-2.06,37.3-15.57,42-10.48Z"/>
  <path class="cls-12" d="M295,674c.81,4.56-4.9,5.1-8.23,6.26-16.21,5.67-35.04,8.54-51.77,13.23-30.22,8.46-59.24,18.87-86.98,33.51-1.94-1.95,8.73-8.77,9.97-9.52,28.43-17.11,94.05-36.93,127.17-42.83,3.32-.59,6.47-.95,9.84-.65Z"/>
  <path class="cls-12" d="M773.77,634.24c4.13,5.24-1.36,29.79-3.27,36.76-3.85,14.09-10.07,28.74-18.08,40.92-1.53,2.33-9.44,15.4-12.42,13.07,3.4-9.97,10.46-17.89,14.86-27.63,5.1-11.3,10.94-30.71,12.01-42.99.43-4.88-.84-13.88.32-17.68.71-2.31,4.95-4.51,6.57-2.46Z"/>
  <path class="cls-12" d="M749,761.99c-5.73,5.06-24.03-22.62-26.51-26.98-3.06-5.38-15.47-34.03-14.53-38.39.16-.73,1.98-.59,1.95-1.06-.16-2.54-2.84-4.75,1.37-6.84,3.39-1.68,4.03,1.51,5.21,4.28,8.28,19.44,8.76,39.65,23.1,57.9,1.11,1.42,10.68,9.96,9.41,11.08Z"/>
  <path class="cls-12" d="M136,214.01l10.95,16.5c-6.76,6.59-10.11-3.82-13.45-8.49-.52,0-4.09,7.92-4.68,9.3-1.1,2.63-3.52,11.65-4.33,12.67-1.56,1.96-4.14.82-5.02-1.01-2.64-5.47,9.49-24.99,8.52-25.98-5.01-1.13-15.74,10.17-17.82,3.28-1.9-6.32,7.28-8.49,11.81-9.79,8.35-2.4,16.07-2.19,24.53-3.52,7.42,4.84-5.63,8.08-10.52,7.04Z"/>
  <path class="cls-15" d="M677,597c-4.26-22.34,19.34-18.99,31.33-28.17,4.98-3.81,7.04-8.94,10.67-13.83,3.09,6.21-2.01,16.46-5.68,22.23-3.18,4.99-7.39,9.26-12.26,12.61-6.09,4.19-17.23,9.98-24.06,7.16Z"/>
  <path class="cls-4" d="M812.74,609.23c17.98-3.11,24.05,28.74,1.72,26.82-14.85-1.28-17.01-24.17-1.72-26.82Z"/>
  <path class="cls-12" d="M263,293c2.17,1.64-4.87,3.72-5.72,3.78-11.21.78-33.48-11.23-42.6-17.95-7.34-5.41-30.34-28.3-31.49-36.56-.57-4.1,1.43-5.47,4.74-2.69,3.95,3.32,9.49,13.69,13.57,18.43,14.99,17.44,37.98,33.56,61.51,34.99Z"/>
  <path class="cls-12" d="M719,555c.37-2.82-.4-9.54,5.34-7.91,7.8,2.21-2.14,25.51-4.81,29.94-9.24,15.37-24.21,26.41-42.94,23.87-5.53-.75-4.79-3.01.41-3.9,23.29-4.01,38.77-17.69,42-42Z"/>
  <path class="cls-4" d="M194,466c1.6-2.07,6.64-4.66,9.34-4.67.45,0,7.66,3.26,8.21,3.6,7.95,5.02,4.5,22.16-6.55,23.07-11.93.98-17.84-13.12-11-22Z"/>
  <path class="cls-12" d="M201.73,379.22c21.05-4.38,23.06,38.39-.79,33.33-13.68-2.9-13.96-30.26.79-33.33Z"/>
  <path class="cls-4" d="M699.71,787.22c10.66-2.44,17.3,4.77,15.26,15.26-1.34,6.93-13.14,6.88-17.93,2.98-6.06-4.94-5.44-16.39,2.67-18.24Z"/>
  <path class="cls-12" d="M261.7,441.21c3.5-1.07,11.16,1.27,13.16,4.44,7.27,11.45-5.24,25.43-15.82,16.82-6.39-5.2-4.83-18.97,2.66-21.25Z"/>
  <path class="cls-12" d="M272.73,505.2c12.98-2.83,17.86,17.01,7.33,20.35-16.46,5.21-17.96-18.03-7.33-20.35Z"/>
  <path class="cls-12" d="M796,176c1.56-1.5,4.66,1.31,4,2.16-.71.91-2.02-1.99-1-3.16.43-1.56-1.39-3.78,1.47-4.01,19.39-1.58,17.49,27.42-2.76,22.79-7.35-1.68-7.96-14.2-1.71-17.78Z"/>
  <path class="cls-12" d="M625.99,411.01c.3,5.77-8.38,7.7-12.99,8,1.98,4.16,3.06,16.09-4.28,14.82-5.98-1.04-9.72-14.19-6.2-17.81,1.2-1.24,22.6-5.85,23.47-5.01Z"/>
  <path class="cls-16" d="M878.7,762.21c1.99-.58,6.5-.46,8.58,0,7.11,1.6,8.6,14.85,1,16.57-14.25,3.22-18.67-13.91-9.58-16.57Z"/>
  <path class="cls-1" d="M655.76,823.24c2.77,2.86.57,12.05-.25,15.77-1.14,5.18-6.21,21.08-8.7,25.3-.84,1.42-1.5,2.25-3.3,1.68-4.53-1.42,1.51-12.3,2.21-14.78,1.63-5.82,3.49-12.78,4.27-18.73.35-2.72-.57-6.61-.03-8.82.4-1.62,4.55-1.72,5.8-.42Z"/>
  <path class="cls-1" d="M145.09,278.08c1.42-2.07,29.38-2.02,37.62-6.88,1.91-1.12,8.15-9.06,9.28-4.66,1.83,7.1-15.82,12.92-20.94,14-7.72,1.63-15.75,1.19-23.52,2.49-2.31.26-3.38-3.59-2.44-4.96Z"/>
  <path class="cls-12" d="M350.75,665.17c3.89-.66,21.09,6.08,22.1,9.52s-.43,3.99-3.3,4.36c-4.99.63-18.98-1.94-21.6-6.49-1.93-3.34-1.29-6.69,2.8-7.39Z"/>
  <path class="cls-1" d="M474,535c14.67-8.43,21.31,16.07,5.4,17.97-8.26.99-13.62-9.28-9.49-15.37.69-1.01,1.94-.47,2.08-.6.92.39,1.59-.27,2-2Z"/>
  <path class="cls-12" d="M571.72,529.21c14.65-3.3,15.93,19.22.23,14.34-7.11-2.21-8.05-12.58-.23-14.34Z"/>
  <path class="cls-12" d="M335.1,707.89c-3.09-2.14-4.08-28.94,2.4-28.96s1.67,22.12,2.51,26.57c.27,2.3-3.53,3.34-4.91,2.39Z"/>
  <path class="cls-11" d="M847,522c1.12-4.14.82-4.88,6.44-3.95,15.25,2.54,1.04,26.39-8.91,14.91-2.75-3.17-3.84-15.02,1.47-8.96.75,0,1.09-.66,1-2Z"/>
  <path class="cls-23" d="M226.74,706.75l-42.74,14.24c5.68-6.91,17.73-11.28,26.23-14.26,2.38-.84,13.94-4.74,15.35-4.71,2.93.07,2.67,2.86,1.15,4.73Z"/>
  <path class="cls-1" d="M623.87,486.13c2.53,4.02-4.11,11.85-7.5,13.73-4.11,2.28-16.14,3.51-14.21-3.17,1.26-4.35,5.57-1.31,8.84-2.12,6.2-1.55,5.45-7.18,7.7-8.66,1.18-.78,4.58-.73,5.18.22Z"/>
  <path class="cls-10" d="M967.01,575c3.67.34,6.59,6.02,8.5,2,2.76-5.81-6.95-1.39-7.29-7.51,3.76-5.74,13.1-1.13,13.31,5,.4,11.78-15.54,12.34-14.51.51Z"/>
  <path class="cls-12" d="M815.73,738.22c11.45-2.51,14.02,10.91,6.54,12.58-10.17,2.26-14.34-10.87-6.54-12.58Z"/>
  <path class="cls-5" d="M737.75,623.26c2.9,2.72,3.46,9.06-1,10.98-10.2,4.39-18.11-13.22-3.24-12.25,1.32.09,3.28.37,4.24,1.28Z"/>
  <path class="cls-16" d="M545.74,445.21c9.65-.93,13.27,15.8-1.03,12.57-6.95-1.57-6.76-11.82,1.03-12.57Z"/>
  <path class="cls-10" d="M492.01,753l3.99.99c-2.92-6.65,5.07-7.99,8.44-2.94,7.04,10.54-14.15,17.58-12.43,1.95Z"/>
  <path class="cls-23" d="M174,289.99c-1.18-7.86,9.75-6.07,15.06-7.44,3.91-1.01,5.42-2.72,8.46-4.55,1.24-.75,2.11-1.28,2.48.51,1.53,7.33-20.97,12.63-26,11.48Z"/>
  <path class="cls-14" d="M913.74,328.74c-5.4,5.7-14.04-1.92-10.27-7.78,2.17-3.37,2.87,1.78,4.52,2.03.61-12.3,11.34-.15,5.75,5.75Z"/>
  <path class="cls-21" d="M799,175c.14.05.43,1.19,1.09,1.42,3.1,1.06,7.13,1.23,7.75,5.31.98,6.49-10.96,11.16-10.93,1.78,0-2.05,3.04-8.19-.91-7.51.88-.5,1.4-1.58,3-1Z"/>
  <path class="cls-14" d="M284.01,591c.37-.44,4.26,1.61,4.99.99,1.85-1.57-2.02-1.75-2.1-3.44-.38-8.35,10.37-4.14,7.65,4.5s-13.84,1.84-10.54-2.05Z"/>
  <path class="cls-21" d="M474,535c.85,6.36,2.77,3.59,6.03,4.4,4.92,1.23,2.51,8.32-2.63,8.61-5.75.32-3.51-7.63-5.41-11.01.57-.54,1.59-1.76,2-2Z"/>
  <path class="cls-8" d="M847,522c1.06,3.31,5.3,1.16,6.58,2.92,3.54,4.87-7.25,10.21-7.58-.92,0-.11.78-1.17,1-2Z"/>
  <path class="cls-17" d="M545,315c-17.52,23.02-8.87,65.68,21.02,74.48l14.98,4.52h-15.5c-6.86,0-22.67-8.23-27.97-13.03-22.59-20.45-13.93-49.15,6.47-66.97,1.41-1.33,1.92-.77,1,1Z"/>
  <path class="cls-22" d="M727,467c1,16.3-3.54,33.55-10.14,48.36-1.54,3.46-8.99,18.04-11.29,19.71-3.26,2.37-7.03-.26-10.58-.07-.03-.78-.08-1.56.17-2.33.71-2.21,10.92-14.89,13.26-18.74,8.3-13.67,15.19-28.75,16.58-44.92.41-2.11,1.07-2.77,2-2Z"/>
  <path class="cls-3" d="M804.84,505.84c-.17.26-5.49,2.54-5.83,2.16,1.55-11.94,1.05-23.17-1-34.99,1.62,1.06,3.13,4.9,3.77,6.72,1.61,4.59,5.19,22.73,3.06,26.12Z"/>
  <path class="cls-13" d="M727,467l-2,2c.28-3.26-.21-6.71.01-9.99l1.99,7.99Z"/>
  <path class="cls-20" d="M544,314c1.84-1.6,3.81-5,7-4.99-.82,2.53-4.76,4.36-6,5.99l-1-1Z"/>
  <path class="cls-9" d="M200,531c1.46-1.59,4.65-3.98,6.71-4.79,4.18-1.63,7.66-.4,11.29-2.21,6.36-3.15,13.89,6.01,15.91,11.97,11.08,32.6-31.58,40.54-38.91,13.55-1.33-4.91-1.38-18.96,4.99-18.52Z"/>
  <path class="cls-4" d="M218,524c-1.99-.57-8.36-.62-8.99-2.51-2.01-6.03,11.41-3,14.68-1.68,22.19,9,19.18,48.16-6.2,50.17s-38.49-37.65-13.49-47.98l-3.99,8.99c-3.98,4.33-4.57,13.53-2.72,19.22,5.46,16.77,32.76,19.94,35.63-.8,1.7-12.26-2.87-21.97-14.91-25.41Z"/>
  <path class="cls-4" d="M131.99,488.01l-1.99,4.98c3.19,1.1,4.47-3.81,6.99-2.55,8.8,4.4,7.18,22.04-3.95,24.14-19.18,3.62-19.77-27.66-1.04-26.57Z"/>
  <path class="cls-12" d="M148,563c-.43,1.67-1.49,3.23-3.17,4.66-2.95,10.92,10.27,9.77,1.93-.67l1.24-1.99c3.23-6.13,7.69.66,8.56,4.95,4.51,22.25-29.84,17.01-20.33-3.22,1.76-3.73,10-10.69,11.77-3.73Z"/>
  <path class="cls-11" d="M230,622l2,3c.71-3.73-5.87-6.11-.27-7.82,7.86-2.39,10.79,10.68,2.33,13.39-10.41,3.33-7.2-11.38-4.05-8.57Z"/>
  <path class="cls-10" d="M152.28,662.74c-3.76-4.05,3.52-11.32,8.08-8.64,8.81,5.2-2.18,15-8.08,8.64Z"/>
  <path class="cls-18" d="M148,565c1.16,2.77,5.76,7.84,2.76,10.75-6.97,6.75-13.79-9.56-2.76-12.75.15.59-.19,1.55,0,2Z"/>
  <path class="cls-22" d="M628.75,551.14c4.1-.58,10.66,10.98,13.28,14.33,2.36,3,9.81,7.43,2.99,11.1-4.11,2.21-9.95-13.48-13.73-14.43-4.66-1.18-9.29,9.48-12.79,11.84-2.29-3.29-6.55-7.47-4.76-11.69,1.19-2.82,12.06-10.73,15.01-11.15Z"/>
  <path class="cls-19" d="M269,444.01c.26.16-.72,1.4-.44,2.07,1.09,2.61,6.79,12.83-1.04,11.98-6.85-.74-3.55-17.07,1.48-14.05Z"/>
  <path class="cls-12" d="M213.76,532.16c3.94-.64,11.05,3.21,12.03,7.55,2.09,9.27-1.62,17.78-12.22,16.23-12.8-1.88-10.67-22.02.19-23.78Z"/>
  <path class="cls-18" d="M217.99,536c.55,3.29,4.16,10.18-.66,11.85-10.11,3.49-9.41-12.08.66-11.85Z"/>
  <g>
    <path class="cls-2" d="M128.96,432.48c-8.14,6.38-39.09-21.4-25.01-30.85,7.74-5.2,10.78,2.19,13.82,2.49,3.13.3,4.73-6.77,9.37-8.21,9.75-3.02,13.93,3.63,12.69,12.93-.17,1.29-9.84,22.84-10.87,23.64ZM123.9,405.2c-.7.81.78,5.27-3.62,5.84-2.85.37-11.83-6.3-12.25-5.52-1.68,5.58,7.69,17.47,12.28,17.68,7.36.33,9.72-25.14,3.59-18Z"/>
    <path class="cls-7" d="M123.9,405.2c6.13-7.14,3.77,18.34-3.59,18-4.6-.21-13.96-12.09-12.28-17.68.42-.78,9.4,5.89,12.25,5.52,4.4-.57,2.92-5.03,3.62-5.84Z"/>
  </g>
  <g>
    <path class="cls-2" d="M904.79,493.94c.89.69,18.48-6.86,16.08,7.34-.63,3.72-18.55,15.72-20.65,15.32-8.02-1.53-14.91-31.58-1.76-30.42,5.44.48,5.69,7.28,6.33,7.77ZM900.54,492.75c-.5-.32-3.91-.77-3.9.63-.42,5.36.58,10.84,3.44,15.41,3.03.51,13.05-7.76,14.04-10.15,1.96-4.74-8.23,1.06-9.86.58-2.82-.82-3.11-6.07-3.72-6.47Z"/>
    <path class="cls-7" d="M900.54,492.75c.62.4.91,5.65,3.72,6.47,1.63.48,11.82-5.33,9.86-.58-.99,2.39-11.01,10.66-14.04,10.15-2.87-4.57-3.86-10.05-3.44-15.41,0-1.4,3.4-.95,3.9-.63Z"/>
  </g>
</svg>