<?xml version="1.0" encoding="UTF-8"?>
<svg id="Layer_1" data-name="Layer 1" xmlns="http://www.w3.org/2000/svg" viewBox="0 0 520 520">
  <defs>
    <style>
      .cls-1 {
        fill: #2c2729;
      }

      .cls-2 {
        fill: #fff;
      }

      .cls-3 {
        fill: #d82f87;
      }
    </style>
  </defs>
  <path d="M142.17,239.15l-.18,4.35c2.47.9,4.97,1.58,7.4,2.62,1.94.84,4.22,3.72,5.62,2.38l-7.99-6.49c3.75-.5,6.71,1.9,9.48,4.01,13.26,10.11,17.99,25.72,3.7,37.47,6.73,9.95,10.3,21.85,12.84,33.51,16.72-10.14,37.23-22.82,47.81-39.68,5.81-9.26,13.12-29.98,20.27-36.73,6.66-6.28,21.07-6.11,27.81.06-.35,10.02-12.35,2.23-17.85,5.9-2.57,1.71-2.86,5.63-5.56,7.43-1.49-1.85,3.06-9.37,4.2-10.05,3.16-1.89,17.36.29,17.28-2.44-24.34-13.82-29.81,12.28-38.81,28.17-7.58,13.39-15.5,23.78-28.15,32.83,5.45,4.11,7.11,9.99,10.48,15.48l15.51-17.5-2-.49.48-1c4.65-1.97,8.95-3.71,11.95-8.06,2.7-3.92,4.49-15.07,6.53-16.47,5.53-3.8,1.86,6.77.04,8.53,3.73,1.2,8.68-4.04,7.86-7.28s-6.49-3.91-7.86-6.7c4.31-.58,6.86,2.08,9.5,4.97,6.1-6.9-.54-8-6.16-9.87-1.56-.52-2.86.87-2.34-2.1l13.44,4.03,1.46-4.37c-.86-3.15-11.08-4.19-13.91-3.67,1.67-3.76,11.5-1.84,14.08.42,5.4,4.73-1.61,11.21-1.08,11.58l6.9,1.1c2.37,3.59-6.28,7.83-8.91,8.51-1.79.46-3.71-.58-3.88-.48-.55.35-2.23,4.84-5.41,6.16-2.06.85-4.14-.14-4.76.21-1.19.68-3.43,7.38-5.4,9.55-2.37,2.6-6.4,3.54-8.25,5.26-.82.76-13.79,16.26-14.13,17.33-.82,2.56.08,6.94-.61,10.43-2.12,10.78-20.28,32.91-30.08,36.93-.59.24-1.68.19-1.48-.48,9.48-11.39,28.64-20.35,26.88-37.9-.76-7.57-5.3-16.13-11.61-20.47l-73.28,38.85c-2.82-2.56,26.15-18.89,30-18,1.7-1.96-11.77-19.67-14.03-22.46-8.27-10.21-22.71-24.6-34.29-30.71-5.52-2.91-11.43-3.27-16.77-6.23-2.96-6.6.91-13.4,3.08-19.59-4,1.48-8.4,2.35-12.61,2.88-14.69,1.82-29.97.82-43.73-5.02-3.84-1.63-12.76-5.97-13.62-10.38-1.79-9.2,5.33-26.7,7.48-36.47,5.82-26.41,8.9-52.56,22.32-76.68,7.42-13.34,23.64-31.53,39.67-33.34,4.05-.46,14.05,1.29,15.81.85,3.37-.83,5.98-6.17,15.21-6.83,28.41-2.02,43.07,19.03,50.98,42.98,9.64,29.18,13.98,60.86,27.06,89.08-13.46,17.49-37.43,22.47-58.39,24.06ZM148.99,137.01c-7.97.97-15.2-2.31-21.98-6.01-1.37,5.86-7.57,9.87-12.01,13.51,3.63.43,10.56-3.18,9.99,3.49-3.4-.45-5.67-.65-8.96.52s-9,6.35-9.56,6.47c-1.23.28-2.73-1.24-2.47-2.47l5-4.5-15,1c2.7,5.29,5.76,12.57,6.01,18.53.12,2.82-.8,14.66-4.34,14.35-4.07-.37-9.91-12.14-18.23-3.95-9.84,9.68,4.47,20.3,14.41,19.4,4.15-.38,6.41-2.42,10.14-3.33.38,5.43-5.03,3.65-6.99,6.98,1.44.05,2.6.95,3.55,1.96,5.37,5.69,15.55,22.89,15.48,30.58-.03,3.3-3.09,5.37-2.87,6.79.75,4.91,17.79,21.55,24.84,18.69l2.48-22.98c.86-2.09,10.62-8.56,13.05-11,21.93-21.99,15.05-59.45,6.46-86.03-5.66,2.1-15.8,2.15-16.79,9.72-.49,3.77,6.86,21.57,10.31,21.22,4.77-4.37,1.38-10.52,1.49-15.94,2.69-3.23,6.31,11.11,2.02,17.26-.72,1.03-2.73,1.33-2.97,2.3-.42,1.73,5.41,9.56,3.48,13.43-1.69,3.4-9.31,2.47-11.53-.51-1.84-3.9,9.45,2.03,8.97-1.95-1.38-11.35-22.48-32.14-11.64-43.2,2.15-2.2,6.05-2.07,7.66-4.33ZM109,241.98l-1.49-2.96c-9.69,4.15-16.98,13-16.5,23.98l7.47-15.01,10.52-6Z"/>
  <path d="M472.22,161.2c-.76,1.32.04,5.67-.44,8.07-1.48,7.38-10.84,11.29-17.73,10.77-.16,4.7-2.47,9.64-4.87,13.62-1.36,2.25-3.15,6.33-6.16,6.33-1.64-1.79,10.8-15.58,8.93-19.91l-5.93-4.08c7.77,2.96,25.5.62,23.59-11.06-1.61-9.83-16.6-6.46-13.59,2.04-7.97.81-13.15-6.24-15.3-13.19-2.83-9.15.51-20.21-8.75-26.24-4.97-3.23-7.48.86-10.95,4.43,4.37.24,12.14,2.13,14.03,6.46.6,1.36,1.56.87-.52,2.52-3.33-1.06-8.06-4.15-11.25-4.74s-7.01.38-9.61-.24c-.77-.18-.68-2.02-1.11-1.97-1.05.1-4.62,2.03-6.54,2.48-8.78,2.05-16.91,3.11-26,2.5-1.68,9.89-1.22,19.26,1,28.99l7.5-5.99c1.49-.26,1.77,0,1.5,1.5-.74,4.2-11.44,7.49-10.82,13.86,4.04,6.62,11.84,2.04,17.81,3.13-2.09,5.71-16.47,4.46-19.07.06-3.49-5.9,1.81-9,1.7-11.04-.04-.83-2.2-4.54-2.52-7.15-.43-3.4.24-6.85-.28-10.23-43.66-19.29-32.45-75.62,18.7-71.2,19.11,1.65,35.31,15.62,51.42,24.62,9.85-7.64,18.49-10.55,30.08-4.12,20.56,11.42,15.37,37.28,2.97,53.03-1.6,2.03-7.53,6.26-7.79,6.7ZM378.99,85.01c-20.07,3.49-31.35,23.74-23.98,42.98l.12-10.36c1-9.74,4.65-18.37,11.86-25.14l12.01-7.48Z"/>
  <path d="M420.99,349l-68.32-40.81c-6.68,2.14-17.82,11.31-18.65,18.41-1.36,11.59,17.6,27.62,26.25,33.62,15.89,11.02,36,20.48,55.72,18.27-7.97,5.65-22.83.81-31.52-2.47-22.83-8.64-55.8-29.87-53.43-57.47.15-1.78,1.89-3.34,1.75-4.9-.15-1.71-11.34-15.1-13.3-16.66-3.07-2.43-6.91-3.06-10.04-5.96-2.37-2.19-4.87-8.26-5.42-8.64-1.04-.71-2.91.62-4.32.41-5.59-.83-7.71-12.6-15.2-12.83-3.07,6.52,7.87,6.73,9.48,10.53,1.71,4.02-8.47-2.39-9.54-3.46-5.15-5.17-4.24-9.96,3.54-8.05.42-3.17-2.57-4.6-2.98-7.57-1.26-9.24,10.79-7.9,16.98-6.41l-11.04,1.44c-4.19,1.74-5.07,4.29-1.47,7.44,3.94-2.98,8.8-3.13,13.51-3.89.46,2.68-.47,1.74-2.17,2.27s-9.58,1.68-9.91,3.37l1.1,5.35,10.99-3.99c-1.39,2.77-6.17,3.18-7.55,6.02s4.5,8.1,5.55,6.97l-.99-5.99c6.2-1.21,5.86,7.04,8.8,11.69,3.74,5.9,9.37,7.99,16.19,8.31l-2.99,3.48,15.49,17.5,11.5-9.48c-5.54-5.38-11.99-10.07-17.02-15.98-9.56-11.21-14.5-25.56-21.8-38.2-1.45-2.5-4.8-8.79-6.65-10.35-5.01-4.24-17.59-3.99-22.5.52,4.48,5.85,10.56-.71,16.37,2.62,2.53,1.45,5.61,7.01,4.11,9.88-1.73-1.47-2.07-3.84-3.49-5.51-4.79-5.61-17.16.63-18.62-5.43-1.91-7.94,16.64-7.14,21.66-5.61,5.81,1.77,8.2,7.04,11.12,11.88,6.63,10.98,11.26,24.91,19,35,10.68,13.92,36.63,32.79,52.47,40.53,9.43,4.61,19,6.66,27.69,13.31,1.37,1.05,10.88,9.51,9.66,10.83Z"/>
  <path d="M411,244c12.1,2.55,17.42-9.01,24.49-16.02,1.07-1.06,1.73-2.35,3.52-1.97-6.65,17.57-32.6,27.86-26.9,49.9,4.44,3.04,27.38-15.75,32.86-18.45,4.42-2.18,9.35-2.95,13.72-5.28,11.78-6.28,16.53-17.95,2.32-24.68l-11.99-3.49c14.98-3.03,30.7,9.22,18.97,24.46-6.48,8.42-14.85,8.75-23.3,13.7-8,4.69-24.2,22.07-33.64,16.28-3.98-2.44-2.48-9.05-3.26-12.73-1.61-7.54-6.53-17.13.33-24.21l-3.36-26.28c-11.26-5.59-21.19-17.53-22.74-30.25,5.52,5.04,7.2,13.24,12.47,19.02,3.84,4.22,9.45,6.54,13.31,10.69l3.21,29.29Z"/>
  <path d="M88,268.01c-8.19,6.23-14.25,10.73-15.74,21.75-3.67,27.09,9.84,64.64,26.77,85.71,9.26,11.52,13.08,13.47,27.19,16.82.99.24,3.01.3,2.77,1.7-15.61,3.16-27.6-10.14-35.81-21.67-10.42-14.65-18.09-32.65-21.69-50.31-3.63-17.8-7.74-50.3,16.51-54Z"/>
  <path d="M336.99,367c-4.44-2.62-5.71-9.5-11.98-9-3.54,10.42-1.22,16.52,3.01,26,4.3-.3,5.02-5.46,7.49-7.99,1.73,14.44-20.1,18.74-28.52,8.51-17.24-20.95,21.74-46.5,30-17.51ZM320.71,357.18c-9.53.62-18.24,14.21-12.21,22.8,2.64-3.97,9.23-6.75,11.36-10.62,1.23-2.23,4.46-12.42.85-12.18ZM315.99,386l3-12-8.95,7.6c-.42,1.98,5.13,5.14,5.95,4.4ZM326.01,387l-.48-4.03-4.52-7.96-3.01,11.99h8.01Z"/>
  <path d="M430,371.99l16.02-14.46c17.52-19.18,43.35-62.81,35.03-89.08-1.59-5.02-5.23-10.36-9.05-13.95,3.61-1.05,8.2,5.01,9.82,8.18,13.29,26.12-12.94,72.46-29.85,92.79-5.25,6.31-13.47,16.45-21.97,16.52Z"/>
  <path d="M95.01,424l4.5,5c6.39-4.47,6.13-13.27,3.48-20-1.35-1.03-7.19,5.1-7,6.99-2.4-.29-.39-4.74.57-5.93,8.86-10.99,30.21,2.48,21.64,17.64-5.57,9.85-21.84,7.52-23.19-3.7ZM115.99,425c2.06-7.38-2.93-15.73-10.99-15.99.99,7.43,3.69,13.1,10.99,15.99ZM109,430.99l-2.49-7.99-3.5,7.99h6Z"/>
  <path d="M175,367l-2,8.98c3.89.44,6.54,3.08,5.61,7.07-.75,3.19-4.18,2.16-6.17,3.89-2.59,2.25-2.44,9.07-9.31,6.93l-1.14-3.87c-5.54,1.74-10.65,5.79-11-3-2.84,1.23-5.48,3.17-8.51,3.99-.83.22-3.62,1.62-3.46-.49.14-1.85,16.94-5.97,16.85-10.82-5.91-7.09-3.13-13.81,6.12-9.19l-5.99,2.52c-.77,2.92,3.05,4.95,2.99,7.51s-5.55,4.48-3.98,8.47l7.98-4,3.52,6.98c2.55-1.36,1.89-5.54,2.98-7,1.43-1.91,7.1-.57,6.53-3.5-.46-2.41-2.21-1.84-3-3.26-1.59-2.85-.84-6.3-.03-9.23l-7.5,3.99c-2.06-3.27,7.82-7.67,9.5-5.99Z"/>
  <path d="M406,235.99c-4.18.56-7.29-2.09-11.5-1.07-15.1,3.67-9.67,23.66-2.94,33.01,1.87,2.59,6.56,5.66,7.42,8.59,1.33,4.53-7.07-3.02-7.96-4.04-7.54-8.56-13.5-26.49-5.04-35.99,4.6-5.16,15.91-7.25,20.02-.49Z"/>
  <path d="M434.13,409.17c-.8,1.37,2.71,8.11-.06,10.41-2.75,1.99-6.87-1.59-7.09-4.57-5.32,6.04-9.59,1.36-6.97-4.99-6.76-.47-7.35-9.73.99-8l-3.98,3.49c5.69,2.99,4.6,4.92,4.99,10.5l4.5-3.06,5.48,4.06c.47-2.65-1.75-5.84-.88-8.33.67-1.92,4.9-1.74,3.95-6.08-.32-1.46-4.18-.59-4.05-2.58,3.26-1.48,6.07-.44,7.86,2.69,1.37,4.75-4.12,5.4-4.74,6.46Z"/>
  <path d="M207.98,350l13.01,40.99c-2.58.64-2.66-2.34-3.43-4.04-3.5-7.69-10.64-27.61-11.5-35.54-.22-1.97.2-1.47,1.93-1.42Z"/>
  <path d="M464.99,394.99c-2.67.89-2.84-3.93-2.99-5.5-1.02-11.21-.32-24.11-1-35.49,1.92-.31,2.68.79,2.99,2.5,1.21,6.65-.27,18.55-.04,26.04.12,3.97,1.86,8.18,1.04,12.45Z"/>
  <path d="M411.99,146c-3.17,17.13,4.74,13.41,10,1.48l2.01,1.04c-4.06,16.81-19.28,17.14-15-2.53h2.99Z"/>
  <path d="M371.01,310c-1.64-10.58,3.12-21.26,6.24-31.25l4.74-9.75-10.98,40.99Z"/>
  <path d="M385,146.01h2.99c1.3,16.25,6.94,7.27,11-1.52l2.01,1.04c-3,13.96-15.63,18.71-16,.49Z"/>
  <path d="M427.99,311c-1.58,9.87-12.12,17.25-18.98,23.99-.84-4.79,2.93-6.04,5.98-8.51l13-15.49Z"/>
  <path d="M178.65,274.35c2.24,1.97,7.36,10.63,8.86,13.64.46.92,2.41,3.62-.02,4-2.86.45-9.03-18.66-15.48-18.01-.56-4.33,5.08-1,6.64.37Z"/>
  <path d="M306.89,424.1c1.92,2.55-.9,4.45-.86,6.4.04,1.67,3.03,3.93,1.95,6.48-3.84.97-5.34-1.39-9.46,1.02-1.31-5.21-6.62-3.38-5.52-9l2.75.49c-.96,2.83,4.16,2.58,3.26,6.51,3.48-3.4,3.39-.82,6.98,0,.73-2.23-2-3.92-2.01-5.5-.02-1.77,2.5-2.49,2.01-4.49l-3.99-2,4.88.1Z"/>
  <path d="M385,299.5c.15-1.8.74-4.73,1-7.01.17-1.48.77-3.09,1.99-1.48,1.1,8.25-2.16,16.44-.31,24.54l-2.68,1.46c.34-5.7-.47-11.86,0-17.5Z"/>
  <path d="M381,380v15.5c0,1.57-2.09,5.81-1.01,8.49h-1.99s0-18.49,0-18.49c0-.9,1.84-3.63,1-5.51h2Z"/>
  <path d="M361.01,396c-3.12-7.63,2.97-14.43,3.48-21.99,2.82,4.55-.45,12.86-1.5,18.49-.27,1.46,0,3.1-1.98,3.5Z"/>
  <path d="M411.5,189.02c4.68,4.92-5.23,12.24-9.49,7.46.22-3.69,3.18-1.01,4.97-1.91,1.6-.8,2.64-4.49,4.53-5.55Z"/>
  <path d="M481.02,348h.97c-.46-3.12,2.69-1.87,5.01-1.99,3.04,2.86-10.86,11.53-8.99-1l3.01,2.99Z"/>
  <path d="M50.73,353.37c.2.11.26,1.65.83,1.67,1.31.04,3.58-1.67,5.43-1.03l-.14,3.85c-5.75,2.74-9.2,2.51-8.85-4.85.98-.03,1.79-.18,2.73.36Z"/>
  <path d="M244.99,407c.88,7.68-4.38,9.03-8.99,3.48l1.6-2.43c3.53,1.47,4.32-.17,7.39-1.05Z"/>
  <path d="M211.99,137.01c.9.92-1.58,5.89-2.95,6.52-3.83,1.76-10.81-6.44-2.69-5.54l1.62,2.01c-.38-2.06,2.89-4.13,4.01-2.99Z"/>
  <path d="M276.5,197.02c2.74-.07.45,13.98-1,13.96-3.06-1.79-1.47-13.89,1-13.96Z"/>
  <path d="M267.99,218c-1.52,1.6-5.69-5.33-6.16-6.32-.38-.79-3.09-6.83-.33-6.65.72.05,7.27,12.16,6.49,12.98Z"/>
  <path d="M294.99,204c1.23,1.33-4.82,12.14-7.99,11.99-.8-2.25,6.25-13.88,7.99-11.99Z"/>
  <path d="M93,382v15.5c0,.31.97.64.98,1l-1.48,1.48-1.5-1.48v-16.5h2Z"/>
  <path d="M164.7,377.16c4.49-1.28,5.72,3.74,3.36,5.39-4.75,3.33-8.99-3.79-3.36-5.39Z"/>
  <path d="M127,338.99l-3.87-1.62-5.12-10.37c1.87-1.95,8.17,10.84,8.99,11.98Z"/>
  <path d="M497,203.01c-.36,7.19-8.12,5.77-6.98-1.01,2.38,2.33,3.97,1.14,6.98,1.01Z"/>
  <path d="M429,400.99c-3.82.5-4.24-3.62-6.99-4.99l-2,4.99c.22-11.28,5.17-6.38,8.99,0Z"/>
  <path d="M189.99,390c-3.24-2.44-2.22-9.25-2.98-13,4.04,2.76,2.84,8.85,2.98,13Z"/>
  <path class="cls-2" d="M148.99,137.01c-1.61,2.26-5.5,2.13-7.66,4.33-10.83,11.06,10.26,31.85,11.64,43.2.48,3.98-10.81-1.95-8.97,1.95,2.21,2.98,9.83,3.91,11.53.51,1.93-3.87-3.91-11.7-3.48-13.43.24-.97,2.26-1.27,2.97-2.3,4.29-6.15.67-20.49-2.02-17.26-.11,5.42,3.28,11.57-1.49,15.94-3.45.35-10.8-17.45-10.31-21.22.99-7.57,11.12-7.62,16.79-9.72,8.59,26.58,15.47,64.04-6.46,86.03-2.43,2.44-12.19,8.91-13.05,11l-2.48,22.98c-7.05,2.86-24.09-13.77-24.84-18.69-.22-1.42,2.84-3.49,2.87-6.79.08-7.7-10.1-24.89-15.48-30.58-.95-1.01-2.11-1.91-3.55-1.96,1.96-3.33,7.37-1.55,6.99-6.98-3.73.91-5.99,2.95-10.14,3.33-9.94.91-24.25-9.72-14.41-19.4,8.32-8.19,14.16,3.58,18.23,3.95,3.55.32,4.46-11.53,4.34-14.35-.25-5.96-3.31-13.25-6.01-18.53l15-1-5,4.5c-.26,1.23,1.24,2.75,2.47,2.47.56-.13,6.43-5.36,9.56-6.47,3.29-1.17,5.57-.97,8.96-.52.57-6.67-6.36-3.06-9.99-3.49,4.44-3.64,10.64-7.64,12.01-13.51,6.78,3.71,14,6.98,21.98,6.01ZM116.01,166.01c-1.8,1.72,6.12,10.31,8.25,11.24,10.6,4.61,13.19-11.27,7.23-17.24-2.12-.41-1.61.9-1.4,2.39.35,2.49,2.06,5.6,1.73,7.89-.65,4.44-4.16,5.6-7.77,3.16-2.16-1.46-5.77-9.62-8.04-7.44ZM150.99,198.01c-3.02-.98-4.1,2.83-6.44,2.95-2.07.11-4.31-2.16-6.55-1.95-.17,6.82,8.44,5.55,12.81,2.82l.18-3.82Z"/>
  <path class="cls-2" d="M109,241.98l-10.52,6-7.47,15.01c-.48-10.97,6.81-19.83,16.5-23.98l1.49,2.96Z"/>
  <path class="cls-2" d="M378.99,85.01l-12.01,7.48c-7.2,6.77-10.86,15.4-11.86,25.14l-.12,10.36c-7.36-19.24,3.91-39.49,23.98-42.98Z"/>
  <path class="cls-2" d="M320.71,357.18c3.61-.23.38,9.95-.85,12.18-2.13,3.87-8.73,6.64-11.36,10.62-6.02-8.59,2.68-22.19,12.21-22.8Z"/>
  <polygon class="cls-2" points="326.01 387 318 386.99 321.01 375.01 325.53 382.97 326.01 387"/>
  <path class="cls-2" d="M315.99,386c-.82.74-6.37-2.43-5.95-4.4l8.95-7.6-3,12Z"/>
  <path class="cls-2" d="M115.99,425c-7.3-2.89-10-8.56-10.99-15.99,8.06.25,13.05,8.61,10.99,15.99Z"/>
  <polygon class="cls-2" points="109 430.99 103 430.99 106.5 423 109 430.99"/>
  <path d="M116.01,166.01c2.27-2.17,5.88,5.98,8.04,7.44,3.61,2.44,7.12,1.29,7.77-3.16.33-2.29-1.38-5.41-1.73-7.89-.21-1.49-.72-2.8,1.4-2.39,5.96,5.97,3.37,21.84-7.23,17.24-2.13-.92-10.05-9.51-8.25-11.24Z"/>
  <path d="M150.99,198.01l-.18,3.82c-4.38,2.73-12.98,3.99-12.81-2.82,2.23-.21,4.47,2.06,6.55,1.95,2.34-.12,3.43-3.93,6.44-2.95Z"/>
  <g>
    <path class="cls-1" d="M41.03,441.9c1.08,1.08,1.11,4.25,1,5.79-.09,1.36-2.62,12.49-3.16,12.88-3.27,2.35-14.15-3.91-15.95-7.35-3.63-6.93,3.27-9.8,8.69-5.9-.57-4.76,6.04-8.78,9.42-5.41ZM34.81,456.92c-.6-2.21,5.68-12.02,2-12.8-2.47-.53-3.21,6.11-3.6,6.4s-6.22-2.76-7.99-1.6c-1.42,3.47,8.7,8.81,9.59,8Z"/>
    <path class="cls-3" d="M34.81,456.92c-.89.81-11.01-4.53-9.59-8,1.77-1.17,7.58,1.89,7.99,1.6s1.12-6.92,3.6-6.4c3.69.78-2.6,10.59-2,12.8Z"/>
  </g>
  <g>
    <path class="cls-1" d="M276.24,269.17c-5.08,3-20.52-15.04-11.84-19.33,4.77-2.36,5.94,2.05,7.63,2.44,1.75.41,3.18-3.48,5.92-3.94,5.74-.98,7.61,3.1,6.21,8.27-.19.72-7.28,12.19-7.92,12.56ZM275.42,253.35c-.46.41.05,3.04-2.49,3.03-1.64,0-6.22-4.45-6.52-4.04-1.37,3.03,3.04,10.46,5.63,10.93,4.14.74,7.39-13.5,3.38-9.92Z"/>
    <path class="cls-3" d="M275.42,253.35c4-3.58.76,10.66-3.38,9.92-2.59-.46-6.99-7.89-5.63-10.93.3-.41,4.88,4.04,6.52,4.04,2.53,0,2.03-2.63,2.49-3.03Z"/>
  </g>
  <g>
    <path class="cls-1" d="M495.55,27.95c.52.41,10.91-4.05,9.49,4.33-.37,2.2-10.95,9.28-12.19,9.04-4.73-.9-8.8-18.65-1.04-17.96,3.21.28,3.36,4.3,3.74,4.59ZM493.04,27.25c-.29-.19-2.31-.46-2.3.37-.25,3.16.34,6.4,2.03,9.1,1.79.3,7.71-4.58,8.29-5.99,1.16-2.8-4.86.63-5.82.35-1.66-.48-1.83-3.59-2.2-3.82Z"/>
    <path class="cls-3" d="M493.04,27.25c.36.23.54,3.34,2.2,3.82.96.28,6.98-3.14,5.82-.35-.59,1.41-6.5,6.29-8.29,5.99-1.69-2.7-2.28-5.94-2.03-9.1,0-.83,2.01-.56,2.3-.37Z"/>
  </g>
</svg>