<?xml version="1.0" encoding="UTF-8"?>
<svg id="Layer_1" data-name="Layer 1" xmlns="http://www.w3.org/2000/svg" viewBox="0 0 1040 1040">
  <path d="M419,441l1.01-46.99,1.96,1.5c4.85,68.67,4.43,138.12,6.07,206.95,2.85,119.33,8.71,238.73,10,358,.05,4.48-2.27,22.22-.06,24.06,2.44,2.03,12.12,1.24,9.51,6.49-5.08-.41-11.92,1.78-15.11-3.45l-2.39-75.55c-4.48.65-10.08,1.76-14.5,1.99-66.22,3.36-132.8-2.36-198.94-3.04-12.91-.13-25.5,1.67-38.4.19l-6.14,71.85c3.93-.26,7.47.07,11.2,1.33,1.02.34,3.65.4,2.79,2.16-1.81,3.69-14.86-.81-17.98,3.52-.07-10.42-.44-21.09-.05-31.54,4.14-110.98,14.5-225.01,23.03-335.97,4.59-59.74,8.82-119.71,14.68-179.33,3.25-33.11,6.68-66.25,11.34-99.16,3.84-1.11,1.18,5.19,1.99,6.01l44.01-.5c6.19-7.31,10.85-15.8,16.58-23.42s16.69-18.82,20.87-26.13c1.55-2.7,1.49-5.35,3.08-7.92,1.01-1.64,9.63-9.3,10.94-9.04,2.86,1.46-1.36,7.24-2.66,9.32-6.23,9.98-15.38,19.23-22.24,28.76-12.3,17.11-25.32,35.97-35.76,54.24-2.31,4.04-10.46,22.77-12.84,24.16-1.27.74-2.62.55-3.99.5,3.42-15.73,13.62-28.99,20.99-42.98l-39-1.01-6,84.01c4.94.68,9.64-1.07,14.5-1.07,4.5,0,16.22,3.22,18.96-.97,3.36-5.13,4.25-21.18,8.51-27.53-.11-3.65-9.67-3.51-10.02-9.91-.08-1.53-.12-1.78,1.53-1.53,4.49.68,12.56,5.66,17.72,7.29,31.09,9.86,62.79-.35,94.21,5.6,2.57,9.94-2.48,19.4-3.42,29.11h64ZM244,446c-6.82-.2-13.72.25-20.55.04-2.77-.09-9.26-2.54-11-.08l-8.46,86.04c8.34-1.24,16.84,2.82,24.86-.15l15.15-85.85ZM419.01,447.99l-58.55-1.04-3.43,1.55c12.15,12.18,26.75,22.96,38.01,35.97,2.38,2.76,6.72,7.74,8.15,10.85,4.89,10.69-2.8,26.52-4.18,37.67h21.01s-1-85-1-85ZM307,533c10.5-2.16,31.34,3.82,40.31-.19,1.77-.79,3.63-7.52,3.57-9.35-.1-3.03-12.48-17.35-15.37-20.47-4.97-5.36-10.39-10.32-16.03-14.98-2.09-.33-1.19.29-1.59,1.37-1.69,4.56-12.48,42.02-10.9,43.62ZM227.99,539.01l-25-1.01-6,83,26.01,1.01c-.59-27.81,1.74-55.42,4.99-83ZM346,540.01c-13.53,1.72-27.16-1.32-40.86-.88l-17.13,82.86h45c-.45-9.87,2.83-19.46,5-28.98-3.8-.15-8.99-1.95-8.97-6.37l16.96-46.63ZM421.01,539.99c-4.24,1.09-21.81-1.74-23.77.25l-19.4,57.59-18.18-.67-5.65,10.83c10.3-1.32,30.22,1.78,31.03,14.96l33.49-.99,3.46,3.02-.98-85ZM354,598.01l-11.99-2.01c.29,3.93-6.08,20.49-3.06,22.57,13.26.85,26.85,3.67,40.06,1.43-7.28-7.96-20.8-8.2-31-9l6-12.98ZM194.5,715c12.91-1.33,27.86.98,41,0l1.5-1.5v-24c-4.69-3.89-11.5-2.1-12.76-9.23l-2.23-51.27-25-2-6,89c1.46.58,2.8-.92,3.49-1ZM425,715l-3.01-88-6.44,2.05-128.5-.99-9.57,54.93c-2.65,4.99-27.95,3.49-33.94,13.06-2.74,4.39-1.33,10.32-1.41,15.31l2.36,1.64,44.87-.13c4.97-1.24-5.25-5.93-6.39-6.35-7.68-2.8-16.11-2.62-23.97-4.54,2.6-3.91,9.3-3.3,13.53-3.02,7.3.48,28.44,5.53,23.46,16.03,42.85,2.06,86.17,1.09,129,0ZM425,722c-76.37,4.6-152.87-2.55-229.57-.95-1.38.03-2.7-.4-3.98-.8l-7.45,91.74c3.83-.86,7.47-1.79,11.45-2.04,21.52-1.35,43.6.95,65,1.09,51.75.35,103.63.64,155-1.08,3.93-.13,7.75-.13,11.54,1.03l-1.99-89ZM427.01,817c-8.81,1.03-17.65.68-26.49,1.02-48.95,1.84-98-.19-147.05-.97-2.36-.04-4.55-1.05-6.92-1.08l-62.44.15-6.1,89.89c13.78-1.3,27.67-2.11,41.54-2.04,61.52.28,123.25,3.41,185,2.08,8.09-.17,17.16-2.71,25.45-.04l-2.99-89Z"/>
  <path d="M849,706c-7.59-11.9-12.51-23.96-17.27-37.23-1.89-5.26-5.27-20.62-7.22-23.78-1.22-1.98-4.48,2.11-7.55,1.62-9.31-1.49-10.14-15.16,2.04-12.6l-.99,3.99,3.9-1.09-.9-10.91c7.55,3.79,7.33,16.26,9.71,23.78,4.22,13.37,9.56,27.86,15.43,40.57,1.86,4.02,11.73,16.03,2.86,15.64.97,1.52,2.66,1.32,3.05,3.5,1.38,7.71-8.29,14.39-14.59,16.45-.3,12.37,2.57,25.09,3.53,37.56,3.93,51.15,6.97,104.78,8.05,155.95.28,13.29.5,27.49-1.04,40.54h-31c.53,2.19,1,4.14,1.05,6.45.11,4.25-.48,11.81-1.06,16.04-.55,3.96-.55,8.69-3.99,11.01l3,2.49c-29.61,4.54-60.12,5.12-90,3-.56-2.28.89-2.34,2.73-2.72,3.94-.82,9.16-.88,13.26-1.28-3.57-8.11,5.23-11.4,11.33-14.17,6.87-3.12,15.1-6.37,22.67-5.82-1.88,5.74-28.89,12.58-28.98,15.49,1.2,1.83,2.65,1.41,4.44,1.54,4.44.33,10.57.21,15.09,0,2.9-.13,13.37-.91,15.23-1.71,3.67-1.57,7.96-22.7-1.5-23.15-16.34.42-32.86,4.47-49.11,3.15-.91-.28-2.95-1.02-3.16-1.85-.7-2.81,4.11-1.59,3.99-3.47-2.49.36-5.84-3.01-7.51-3.02-1.78,0-2.49,2.48-4.48,2-.58-13.22.64-26.25,2.14-39.35,5.72-49.9,18.94-98.94,22.85-149.15l1-37.49c-4.66,1.69-9.05,1.6-4.03-3.54,14.26-14.6,75.99-30.86,96.42-30.36,3.06.08,7.61,1.76,10.61,1.9ZM812.26,958.77c-.51-.88,1.7-17.27,1.78-20.23,1.19-42.98-.58-89.16-3.03-132.05-.36-6.3,2.4-18.46-5-20.48,3.37,35.53,2.52,70.92,2.95,106.54.03,2.36,1.06,4.55,1.08,6.92.08,8.64,1.05,60.97-2.28,64.3l-15.77,2.23c.74,8.39-.95,16.44-3.01,24.49,5.13-1.63,11.45-.58,16.49-1.51,7.45-1.37,6.64-23.51,8.55-29.42-.04-.6-1.62-.52-1.78-.79Z"/>
  <path d="M834.15,465.89c.91.52,3.95-.94,6.08-.71,7.18.76,14.98,9.41,17.07,16.03,5.71,18.09-8.85,32.11-6.23,49.23,1.33,8.69,12.88,19.67,17.12,27.88,18.94,36.63-13.53,80.45-49.67,49.67-10.82,6.55-27.02,11.38-37.42,1.42-10.6-10.16-.29-20.51-3.62-28.38-1.65-3.9-11.85-7.01-15.14-10.35-3.52-3.59-3.83-9.92-5.63-12.38-1-1.37-14.41-9.72-17.72-12.77-20.24-18.65-35.73-47.33-45.98-72.51,1.63-.18,2.96.61,4.03,1.74,4.67,4.91,11.21,21.24,15.54,28.18,11.04,17.68,26.85,36.76,44.41,48.08,2.59-11.02,10.77-20.43,21.01-25.01l-2.97-2.49c-.24-2.53,14.27.46,15.06-7.99,1.19-12.7-19.82-3.1-16.66-19.55.69-3.57,4.2-6.49,4.42-7.61.26-1.32-2.07-4.43-2.45-6.33-.9-4.6,1.55-9.07,3.61-13.02l-4.99-1.01v5s-3.95-.06-3.95-.06c-.93-10.43-13.82-12.89-12.86-25.16,1.6-20.46,25.41-20.49,38.29-9.78,1.63,1.35,2.79,4.37,4.16,4.84,2.29.78,7.02,0,10.38.62,5.78,1.04,13.87,5.86,17.39,10.61,1.27,1.72,5.99,11.4,6.71,11.82ZM831.99,585.99c1.91-6.73-2.85-12.17-6.98-16.99l6.98,16.99ZM818.01,595c4.7-3.2,3.55-9.44,1.98-13.99l-1.98,13.99ZM844.01,601c6.07-4.76,4.35-15.29-1-20,1.53,6.9,3.07,12.9,1,20ZM802.01,597l2.03-3.46-3.04-9.54,1,12.99Z"/>
  <path d="M408.98,44.01c.24.21,2.14,4.87,2.76,5.76,6.02,38.43,7.33,77.53,11.27,116.23,12.73-16.61,39.13-14.81,46.46,5.89,14.92-7.93,31.38,8.13,32.51,22.62,1.26,16.18-12.28,31.52-28.91,23.91-.94-.43-1.96-2.23-2.57-2.24-.43,0-7.23,4.02-7.52,4.34-.98,1.06-.77,2.95-1.15,3.3-.6.54-3.47.08-4.9.6-2.43.89-4.28,2.74-6.93,2.58l1-4.98c-5.07-.53-9.03-3.08-13-6.01-.19,8.26-7.36,21.7-16.97,15.46-3.82-2.48-5.55-11.12-10.83-9.82-10.53,2.6-4.32,17.63,5.79,16.36-2.8,8.74-15.49.35-16.01-6-23.5,28.63-57.69-16.85-21.99-29.01-12.4-25.48,13.54-47.44,37.99-36.99l-9-121.49,1.99-.5Z"/>
  <path d="M758.89,410.9l-12.77,3.22c.2,8.51-9.3,13.82-14.63,19.87-2.19,2.48-3.79,5.52-5.99,8.01-4.57-10.37,9.78-16.36,14.5-23.99-9.75,1.72-20.09,14.23-30.34,13.91-1.5-.05-12.79-3.54-12.64-.42,7,5.13,15.16,4.76,20.42,12.56,1.35,2.01,2.66,7.26,4.2,7.8,5.93-.19,11.95.36,17.36-1.86.93,2.97-2.65,4.48-5,5.5-6.58,2.86-24.5,2.83-21.24,12.23,1.32,3.81,8.23,8.1,4.72,11.27-3.55.9-12.03-11.4-12.46-14.58-.99-7.26,6.47-8,11.98-9.43-2.44-4.52-4-9.96-8.64-12.84-5.66-3.51-15.74-3.83-17.92-11.23l-13.21,3.31c-.56,5.9-7.43,11.69-8.77,16.75-1.91,7.16,6.99,15.6,9.73,21.85,2.14,1.27,8.47-2.34,11.08-3.07,1.38-.39,1.93-1.82,1.73.73-7.75,9.79-21.26,10.54-31.37,15.64-1.89.96-4.35,1.92-4.58,4.33-.15,3.15,9.36,24.22,11.94,26.07,6.47,4.64-.67-7.46.04-8.48,11.85-4.28,17.73,13.84,4.97,15.97v1.47c19.09,28.71,39.15,56.03,63.99,80.03,3.86,3.73,12.54,8.94,13.99,14.01,1.06,3.69-6.06-.55-6.91-1.1-26.5-17.08-77.97-87.51-89.93-117.07-4.86-12.02-5.67-17.03,7.94-21.97-3.72-21.26-31.79-13.7-42.53-28.04-6.98.99-28.99,10.19-34.54,7.14-.68-.38-3.03-4.16-3.04-5.02-.03-3.05,12.07-6.01,15.04-6.97,51.71-16.65,105.74-28.39,157.75-44.31,5.71-.22,5.84,4.1,5.14,8.71ZM671,437.01c-5.33-.06-8.75,5.24-13.1,7.39-9.15,4.53-17.82,2.8-27.28,3.72-10,.98-4.77,4.29,1.1,6.65,11.98,4.81,26.58,4.24,32.96,18.3l7.32-1.08c-10.75-12.9-11.82-21.6-1-34.98Z"/>
  <path d="M233.99,213.99c3.87-.26,9.55,3.27,10.61,6.98.73,2.53-.63,4.09-.38,5.42.28,1.51,2.94,1.9,2.9,6.12-.03,3.05-1.75,4.01-1.94,5.19s2.11,2.64,1.83,5.69c-.53,5.77-11.37,8.63-13,5.09-.77-1.67,5.66-4.37,6.99-4.5-5.96-6.15-5.26-7.5,1.98-11.49l-5.8-4.99,2.81-4.94c-1.14-5.24-28.08-2.97-28.04,7.93.01,2.68,8.89,20.11,11.03,22.03,6.77,6.08,15.21,2.56,21.96,7.1l-7.92,31.36c23.59-8.67,45.76-21.09,69.03-30.46,18.12-7.3,35.35-14.58,54.33-4.45,11-17.5,21.82,2.13,32.97,7.87l.66,3.05c-8.59,1.9-17.39-15.4-26-8.49-2.38,1.92-1.15,4.62-3.47,4.58-10.07-2.16-16.75-7.79-27.9-6.98-22.64,1.65-66.01,27.49-89.66,36.36-5.37,2.01-11.23,5.23-16.98,3.52.82-12.1,3.63-22.75,8-33.98-4.55,1.44-19.62-3.1-22.07.67-.84,1.3-2.18,5.83-2.95,7.8-3.66,9.34-13.95,38.42-12.89,46.94.21,1.69,3.4,10.13,2.91,10.57-5.24.61-7.88-8.26-8.06-12.48-.32-7.5,12.25-47.42,16.19-54.89,1.78-3.37,2.88-4.14,6.88-4.64-2.06-8.38-12.22-19.62-10.79-28.24s12.89-12.99,20.75-13.79c.21-7.12,1.14-14.27,2.2-21.3,6.92-45.52,13.99-96.06,23.15-140.85.64-3.12.73-8.1,3.67-9.82l1.06,18.55-24.05,153.44Z"/>
  <path d="M467,225c4.98.73,4.27,8.31,5.5,12,1.56,4.65,10.29,22.58,2.8,24.82-2.51.75-6.25-.6-8.32.67-.56.34-4.29,7.15-5.96,9.04-8.47,9.56-23.71,13.32-36.01,10.48-1.03,1.21,1.86,28.17,2.83,31.66,5.29,19.04,59.85,52.88,79.12,59.88,6.56,9.18-5.95,3.21-10.31,1.31-29.03-12.6-61.12-38.05-78.27-64.73-3.66-5.68-8.92-13.36-8.88-20.12,3.43,2.17,6.68,6.03,7.52,9.99,2.63,2.07,2.37-13.92,1.23-16.74-2.34-5.8-14.89-6.84-15.27-13.74-.08-1.34-.06-1.98,1.51-1.51,3.13.95,9.19,5.92,13.53,7.47,18.54,6.61,38.56,1.19,45.76-18.21.7-1.88,3.23-10.44,3.23-11.77v-20.5Z"/>
  <path d="M560,397.99c7.19,1.48,23.76,3.03,19.05,13.57l-4.05.94c3.43,2.57,5.61,3.92,5.06,8.85-5.27,3.99-12.29-.96-18.06-1.33,1.37,2.28,4.71,2.6,6.46,5.02,6.1,8.45-7.69,8.16-12.45,3.97-1.05,1.33,4.74,6.52,2.5,11l-2.23,1.87c-5.58,1.53-12.8-10.18-16.24-13.41-4.82-4.53-11.31-8.54-17.93-9.57l-.11-3.89c14.07-.01,20.1,10.31,28.48,19.01,1.04,1.08,1.76,2.33,3.51,1.98.81-.83-2.11-4.67-2.77-5.72-2.08-3.28-6-5.75-6.22-9.27,2.24-3.25,15.38,7.07,18.99,5.5-1.83-3.36-16.7-8.65-15.99-11.99,1.01-4.72,18.48,3.56,21.99,1.99-4.56-4.16-12.41-4.15-17.61-6.33-1.8-.76-1.39-1.22-2.37-2.68.23-4.21,20.01,1.1,22.97.5l-1.99-2.45-19-5.07c-1.17-3.23,10.84-10.68,8.99-12.47-9.02,3.5-16.3,8.74-26.5,8.79-2.91.01-10.36-2.26-12.46-1.33-5.77,2.55-11.32,16.69-17.03,20.54-.08-6.9,5.52-12.83,8.17-19.32.94-2.31,2.06-9.32,3.36-9.67,10.34,5.12,17.58,6.56,28.72,2.75,4.47-1.53,17.32-10.63,20.26-4.76s-6.04,12.47-5.51,12.99Z"/>
  <path d="M511.99,381.01c.51.53-1.32,6.55-1.8,7.68-1.19,2.77-14.95,26.78-16.15,27.85-2.63,2.31-6,1.65-9.28,1.2-21.16-2.88-74.43-39.22-87.73-56.27-1.14-1.46-3.41-4.05-3.03-5.95l2.48-.51c22,19.2,46,40.25,73.16,51.85,6.71,2.87,16.23,8.21,22.39,1.67,1.68-1.79,15.87-31.8,19.97-27.52Z"/>
  <path d="M740.01,622c.48-.38,2.44,1.88,2.85,2.63,9.77,17.72-4.95,74.13-6.86,95.88-.41,4.65.74,10.72-.02,14.98-.25,1.42-.82,2.65-2.48,2.5-3.45-.79-2.77-17.08-2.55-20.54,1.44-23.35,9.75-46.2,10.08-69.91.12-8.64-2.31-17.24-1.03-25.55Z"/>
  <path d="M759,465.01c2.12,1.99-10.99,12.32-12.51,13.98-2.34,2.56-8.59,10.57-9.47,13.54-.93,3.16,3.44-.02,4.99.95,2.33,1.46.35,4.75-1.72,5.33-3.36.94-5.19-1.6-6.02,2.92-1.55,8.44.15,19.86,6.32,26.18,2.62,2.69,9.75,4.52,7.9,9.1-9.79,1.32-18.11-14.43-19.24-22.76-.75-5.58-.17-10.86,1.22-16.26.85-3.3,6.34-12.75,6.28-13.49-.09-1.15-4.5-3.42-3.81-7.96.71-4.64,13.55-5.09,17.29-6.79,2.89-1.31,4.62-5.5,8.75-4.74Z"/>
  <path d="M206,333.01c9.9-.9,19.92-.14,30.01-2.5,6.7-1.57,16-5.68,22.35-8.65,9.5-4.44,18.29-11.21,27.93-14.72l2.69,2.36c-13.28,9.81-30.56,19.87-46.54,24.44-9.67,2.77-29.4,7.43-36.44-.93Z"/>
  <path d="M364,392.5c.52-5.14,3.1-13.19,4.5-18.5,4.54-17.21,11.75-33.61,18.51-50,2.78-.64,2.14,1.43,2.02,3.53-.56,10.47-12.47,36.43-15.75,49.25-2.69,10.49-4.69,20.9-6.2,31.63l-3.09.59c.39-5.32-.53-11.27,0-16.5Z"/>
  <path d="M819.01,689l-1.02-5-5.5,4.05c-6.45,0-2.09-17.59,9.27-12.31,5.54,2.57,3.83,13.92-2.75,13.25Z"/>
  <path d="M759.99,669l.02-4.98c8.63-1.04,13.24,10.62,3.79,13.35-8.35,2.41-11.17-10.8-3.81-8.37Z"/>
  <path d="M723.01,576l3.98,1.01.93-3.59c6.54-1.9,8.49,5.41,6.59,10.59-8.13,5.07-13.18,1.33-11.5-8.01Z"/>
  <path d="M759.72,471.16c4.56-.71,15.07,10.82,6.81,9.87-2.16-.25-3.35-2.88-4.02-2.88-.73,0-4.43,4.63-7.56,2.41s1.68-8.92,4.78-9.4Z"/>
  <path d="M456.99,230.99c-2.62,6.89,4.73,9.31,5.78,11.22,3.46,6.24-7.26,4.6-9.33-2.15-.9-2.94-.33-6.07-.44-9.06h3.99Z"/>
  <path d="M448.51,260.01c5.34-.18.97,6.1,6.47,8.49l-2.63,2.33c-4.19.87-7.7-8.06-3.85-10.82Z"/>
</svg>