<?xml version="1.0" encoding="UTF-8"?>
<svg id="Layer_1" data-name="Layer 1" xmlns="http://www.w3.org/2000/svg" viewBox="0 0 520.5 520.5">
  <defs>
    <style>
      .cls-1 {
        fill: #262324;
      }

      .cls-2 {
        fill: #b3b2b2;
      }

      .cls-3 {
        fill: #c7c6c6;
      }

      .cls-4 {
        fill: #252122;
      }

      .cls-5 {
        fill: #fcfcfc;
      }

      .cls-6 {
        fill: #2c2729;
      }

      .cls-7 {
        fill: #a4a2a3;
      }

      .cls-8 {
        fill: #d9d8d8;
      }

      .cls-9 {
        fill: #b2b1b1;
      }

      .cls-10 {
        fill: #f9f9f9;
      }

      .cls-11 {
        fill: #231f20;
      }

      .cls-12 {
        fill: #f1f1f1;
      }

      .cls-13 {
        fill: #d82f87;
      }

      .cls-14 {
        fill: #828080;
      }

      .cls-15 {
        fill: #242021;
      }

      .cls-16 {
        fill: #b5b4b4;
      }

      .cls-17 {
        fill: #b4b3b3;
      }

      .cls-18 {
        fill: #ebebeb;
      }

      .cls-19 {
        fill: #282425;
      }

      .cls-20 {
        fill: #f4f4f4;
      }

      .cls-21 {
        fill: #fefefe;
      }

      .cls-22 {
        fill: #fafafa;
      }

      .cls-23 {
        fill: #848282;
      }

      .cls-24 {
        fill: #f7f7f7;
      }

      .cls-25 {
        fill: #a4a3a3;
      }

      .cls-26 {
        fill: #c5c4c4;
      }

      .cls-27 {
        fill: #fdfdfd;
      }

      .cls-28 {
        fill: #e6e6e6;
      }

      .cls-29 {
        fill: #838181;
      }
    </style>
  </defs>
  <path class="cls-11" d="M201,470.5c.09-.75-.75-.42-1.18-1.11-3.42-5.47-2.96-18.96-.32-24.89-7.69-1.15-20.14-3.16-23.39-11.37-6.53-16.5-1.75-48.61.97-66.3,3.5-22.78,8.2-45.58,13.92-67.83-5.63-.34-14.67-2.41-13.47-9.73.34-2.09,6-8.62,7.56-11.44.84-1.52,1.84-3.41,2.51-4.99.79-1.86.47-5.42,3.41-4.06.46,5.91-3.48,10.62-6.51,15.21,25.12-4.18,51.48,6.38,70.75,22-.57-6.67-.09-13.53.82-20.18.22-1.63,2.2-13.31,3.18-13.31s.79,3.38.74,4.23c-.63,9.7-2.14,17.82-2.01,28.03.02,1.42,1.22,3.13-.49,4.01-1.41.72-6.98-2.44-8.24-3.77.62,8.73-.05,17.88.23,26.77.87,27.51,7.23,54.58,8.54,81.46.62,12.71,1.69,21.85-13.28,23.81-.92.12-2.09-.49-2.76-.26-1.72.6-5.13,4.47-7.92,4.27-.14,3.48-1.54,6.58-1.09,10.14,6.43,2.91,16.9.33,22.27,5.31,1.03.96,1.69,2.82,1.83,2.92,1.02.64,9.02-1.08,8.42,1.82-.14.68-1.22.67-1.75.76-5.27.93-10.69.36-16.02.48-8.29.19-15.78.87-23.57-.97-1.03-.24-5.66.51-5.65-.76.01-1,4.9-2.28,5.99-1.75-2.6-4.66-1.36-10.08-.5-14.99l-11.19.47c-1.05,3.53-3.24,13.58-.82,16.29,3.35,3.75,19.98,2.13,23.25,7.25.7,1.1.59,2.51.86,2.89.2.28,5.2.96,2.92,2.36-.4.25-3.92.7-4.75.75-10.03.72-20.51-.27-30.5-.54-8.44-.23-16.81-.52-25.27-.48-.25-1.16.14-.8.64-1.12.77-.49,4.29-1.37,5.11-1.37h16.75Z"/>
  <path class="cls-11" d="M329.5,172.5c7.18,5.5,18.02,4.57,26.65,9.6,13.06,7.61,13.3,24.84-2.15,28.91,1.65,5.49,6.37,12.58.67,17.42-1.53,1.3-4.9,2.13-5.55,2.7-.74.65-2.18,6.67-4.12,7.63,2.05,0,14.96,5.68,12.5,8.24-3.36.94-6.23-.55-9.5-.99,1.74,1.74,8.63,9.11,6.38,11.37-2.09,2.09-5.74-2.8-7.37-3.87.11,2.25,1.96,4.59.53,6.79-2.47,1.79-6.46-5.98-8.01-7.56-.92-.94-3.81-2.48-4.02-2.74-1.36-1.63,2.21-.58,2.94-.19,3.01,1.61,4.09,4.56,6.55,6.7,0-1.45-.86-2.95-1.58-4.16-.42-.69-5.62-6.14-4.16-6.34,4.58-.32,7.52,3.97,10.74,6.5-.38-2.84-3.37-5.15-5.64-6.61-.85-.54-5.19-1.54-2.87-3.16,1.29-.9,8.46,1.38,10.51,1.26l-4.01-2.24c-.89-.74-6.23-1.54-6.45-1.8-1.75-2.07,4.26-5.25,3.95-7.46-4.39,4.23-8.75,6.82-15.05,6.79-.48,2.91-1.54,5.63-2.94,8.21,5.63-.28,6.31,7.29,8.75,11,1.28-1.32-1.83-5.84-1.25-6.5,3.7.2,4.98,10.03,1.75,10.01-3.39-.02-4.73-12.84-8.73-13.82-.37-.09-3.29,2.38-4.19,2.89-13.59,7.63-34.04-4.48-45.29-12.38-9.45-6.63-24.13-23.17-35.04-10.71,2.79-12.42,14.71-7.09,22.15-2.41,8.1,5.1,15.19,12.13,23.83,16.67s28.91,11.7,35.51,2.49c8.32-11.63-10.86-23.38-19.16-28.33-6.62-3.95-23.75-11.13-28.04-15.96-2.11-2.38-.87-5.5-4.91-3.81-5.47,2.29-16.94,13.55-20.78,4.01s2.39-12.35,4.92-19.37c1.34-3.7-1.08-4.54-4.38-5.67-6.13-2.09-12.42-.86-15.4,5.38-.64,1.35-1.49,6.29-1.75,6.51-1.2.98-2-1.04-2-2.24,0-2.79,1.59-5.66,3.09-7.93.92-1.39,3.09-2.49,2.7-4.33-1.24-2.48-12.6.45-14.04-2-1.34-2.28,1.02-9.8,2.35-12.16,6.53-11.57,21.81-5.63,30.9-.85,1.67-7.27,7.47-12.39,13.5-16.25-2.43-1.16-8.97-4.19-9.42-7.1-.1-.65.06-1.53.68-1.65.71-.14,8.61,6.7,12.55,6.98,1.68.12,3.56-.88,5.42-1,2.19-.14,4.81-.05,7.04,0,3.14.06,3.67,1.68,6.23-1.73,2.92-3.9,2.72-11.11.28-15.11-2.84.96-8.79.15-7.78-3.64.66-.68,6.47,3.33,7,.74.39-1.94-8.7-12.72-9.5-15.49,2.36-1.13,5.77,4.63,6.26,4.75.76.19,2.45-1.66,2.19-2.66-.43-1.65-8.14-4.49-8.95-6.84,3.14-.49,6.88,2.01,9.46,3.79,6.19,4.27-.58,6.15-.35,8.87.07.8,3.75,7.09,4.41,9.06,1.65,4.95,2.64,9.95,1.01,15.05-.74,2.29-2.21,3.19-3.03,5.22l12.51,5.24c2.42.77,5.32,3.8,7.47,4.53s9.75,1.32,10.44,3.59-1.83,3.76-1.83,4.4c0,.37,3.86,4.87,4.52,5.88.49.75,4.14,5.67.89,4.86l-1.75-.46c-2.96-3.73-6.09-7.32-9.37-10.75,3.18,4.48,6.55,8.84,10.56,12.61l.57,1.6Z"/>
  <path class="cls-11" d="M259,126c1.37,1.27-6.71,4.48-8,3.5,2.53,4.33,3.84,9,2.5,13.99,3.29-2.54,1.2-6.15,1-9.5,4.91,1.33,3.88,8.97.77,12.02-4.22,4.14-13.89,2.6-18.03-1.01-1.26-1.1-1.14-2.41-1.25-2.51-.42-.37-3.1,1.84-4,2.25-11.49,5.19-24.21-1.88-23.02-15.02.25-2.75,1.64-4.19,2.02-6.73-15.93-2.05-18.1-22.7-2.38-27.63,4.32-1.35,10.31-.67,10.42-6.62.17-9.24-2.81-16.94,4.54-24.92,9.14-9.92,22.83-7.32,30.92,2.42.59.71.7,1.6.96,1.94,1.13,1.47,1.18-1.37,1.66-2.31,4.68-9.11,15.85-14.44,25.56-9.82,8.48,4.04,9.95,14.94,5.02,22.39-7.17,10.84-22.79,2.03-28.13,11.87-2.98,5.5-.93,9.75,2.43,14.41,2.28,3.16,9.79,8.94,10.02,12.02.35,4.56-3.52,5.28-7.25,4.71-5.07-.78-13.04-10.51-18.05-4.99-5.78,6.37,7.1,11.92,12.27,9.52Z"/>
  <path class="cls-11" d="M327.5,388c-.1.33.23.5,1,.5,8.6-1.59,17.07-3.95,24.94-7.81,3.09-1.52,9.56-6.31,12.06-6.98,1.25-.33,1.85-.01,3,.3.54.73-4.07,4.36-4.84,4.91-5.17,3.68-11.77,6.25-17.62,8.64,4.27,20.13,6.67,40.82,11.21,60.96.95,4.22,2.51,8.35,2.84,12.66.6,1.79,10.87,5.68,12.41,7.59.71.88.39,2.09.52,2.23.7.74,9.47-1.57,9.48,2.27,0,1.02-18.7.01-20.31,1.21-4.49-.88-9.14-.27-13.7-.46,1.42-2.03,4.76-2,7-2-.98-2.84.07-6.86-.23-9.26-.1-.76-6.22-11.43-7.2-13.56-8.3-18.03-13.9-38.11-19.33-57.19l-8.24,1.01-5.92,67.7c.19.82,12.82,6.63,13.81,9.66.21.63,0,2.13.1,2.13h10.75c.26,0,2.2,1.62,0,2-5.74-.58-11.89,1.14-17.54.53-1.55-.17-2.19-.89-3.44-1.06-5.89-.82-13.67.67-19.77.02-.6-1.06,2.08-1.5,2.25-1.5h8.25l-7.5-79c-9.94-.91-20.32-1.66-29.5-5.74.57-.83,1.37-.72,2.22-.78,4.47-.31,9.47,1.71,14.03,2.02,25,1.73,52.4-4.58,73.74-17.49-1.78,4.64-8.47,7.51-12.82,9.43-6.82,3.01-14.48,5.12-21.68,7.07Z"/>
  <path class="cls-9" d="M298.5,324c-1.42-6.94-2.99-13.91-3.51-20.99-4.29-.23-8.69-1.45-11.99-4.26l7.89,2.11,3.61.14-.57-15.69c-.41-1.18-4.73-1.04-5.43-2.81l5.49.99c.42-.43-1.12-2.72.5-3-1.28,6.25,7.4,2.68,11.01,2.5-.79-5.28-1.1-10.66-1-15.99,1.11-.18,1.19.46,1.47,1.27.7,2.04,1.53,13.71,2.03,14.23l10.42-3.07c-.31-6.48-1.59-12.93-1.43-19.43h1.5s2.54,18.47,2.54,18.47c.41.34,5.36-.72,6.47-.75.59-.02,1.14-.33,1.49.54.5,1.25.1,1.01-.74,1.24-1.39.37-6.29.6-6.71,1.83-.64,1.88,2.65,11.94,2.96,14.68q-1.12,1.66,0,0c1.35-.46,8.75-2.64,8.96-3.32-1.46-8.84-3.02-17.66-2.46-26.67l5,26.5,5.49-1c.85,3.13-3,2.01-5.01,3.26l4.75,17.75c1.03,1.33,3.49-1.01,2.8,2.71-.11.58-1.3.11-1.49.3-.8.82,4.68,19.46,5.31,22.37.4,1.87,2.42,10.71,2.09,11.78-.47,1.51-1.83.69-2.31-.55-1.13-2.9-1.44-8.36-2.28-11.72-1.7-6.82-4.35-13.41-5.35-20.4-.69-.67-8.98,2.69-10.5,3-1.42-.61-1.42-.44,0,.5,1.5,5.59,2.69,11.26,3.5,17,1.01.96,7.03-3.53,7.5-1.24.35,1.69-6.31,2.73-6.52,3.57l3.53,20.67c.52.37,10-4.34,11.97-4.77.47-.1,3.66-.8,3.02.52-.7,1.44-13.69,5.64-14.39,6.86-.55.96.18,4.53-.11,5.9-1.68-1.01-.9-3.55-1.74-5-8.06,3.76-16.76,6.74-25.75,7-.92-.82-1.89-1.37-3-2-.52-.63-1.07-1.3-1.26-2.11-.7-3.07-3.3-15.83-2.76-17.69.12-.41.31-.81.51-1.2.57-.99,1.4-1.83,2.5-2.5,3.07-2.07,6.62-2.87,10.28-2.91-1.36-5.75-2.68-11.42-3.96-17l.69-1.09c.25-1.54,2.21-1.78,3-.5.71.65,1.24,1.42,1.59,2.31l2.89,14.56c.39.25,8.54-2.6,8.84-2.96.5-.6-2.71-14.9-3.39-15.28-2.78.41-5.56,1.08-8.34,2.02l-1.58-.66-1.13-.48c.04-1.79-1.79-1.46-1.02.21l-.86.77-.83.84c-3.24.81-6.44,1.55-9.61,2.21l4.31,17.17-.88.78-.09.7c-1.19.23-2,.83-2.41,1.8l-1.24,1.2-10.05.4,3.19,18.26c3.4.71,6.93.76,10.6.17l1,.98c1.49.23,1.41,2.21,0,2.5.36-1.51,2.58-1.42,3,0,.01,1.12.37,5.31-1.69,4.97-1.77-.29-1.22-3.71-1.31-4.97-4.25.39-7.71.23-12,0l.5,8c-.67-.1-1.62.18-2.19.03-.9-.24-.91-7.1-1.39-8.45-1.13-.5-7.86-1.86-7.91-2.83s1.48-.45,1.9-.42c1.87.16,3.68.87,5.59.67l-3.04-19.96-8.46-1.54c-.75-.61.06-.95.76-1.02,2.03-.2,4.94,1.09,7.24.52-.72-4.86-1.54-9.85-1.99-14.75-.26-2.79,1.34-7.77-2.5-7.75l2.03-1.3.47-12.69c.63-.83.91.05,1,.74.49,3.82.14,8.81.5,12.76,3.5.34,6.97.64,10.5.5,1.12.61,1.3,1.5.5,2.5q-1.02,1.21,0,0c-.03-.87.48-1.2,1.52-1-.44-.94-.28-1.61.48-2,3.46-1.58,7.23-2.22,11.32-1.91-1.73-5.27-3.05-10.81-4.23-16.27-.09-.43-.03-.89.04-1.38s.21-.97.38-1.44c.86-1.4,1.73-1.54,3-.5l1.38,1.89,3.84,15.59c.13.39,7.79-1.4,8.04-1.73.52-.69-2.95-16.29-3.51-16.94-2.9.35-5.83,1.02-8.78,2.01l-.95-.81c-1.48-.56-1.38-1.86,0-2.5l.8-1.22,8.02-2.15c.29-.59-1.99-12.39-2.39-12.91-.26-.34-8.11,1.8-8.24,2.2l2.17,13.2-.87.88c-.71,1.53-1.83,1.7-3,.5l-.86-.95c-.92-4.54-1.89-9.06-2.89-13.55l-.57,1c-1.58.3-6.76.44-7.43-1-.56.94-1.3.56-.62-.07.63,4.83,1.28,10.06,1.53,14.97,3.17-.24,6.37-.64,9.62-1.21l1.22.8c1.12.61,1.29,1.5.5,2.5-2.75,2.09-7.56,2.27-10.87,1.44,1.69,5.29,2.81,10.98,3.83,16.51.09.47.02.98-.06,1.5s-.23,1.04-.4,1.56c-.05,1.52-1.57,1.73-2.5.5Z"/>
  <path class="cls-11" d="M215.5,248.5c1.75-5.98,8.89-10.29,14.38-12.37,10.41-3.96,22.62-4.96,33.62-6.12-5.38,5.25-15.26,4.59-22.6,6.14-5.41,1.15-12.24,3-16.76,6.24-8.87,6.35-8.57,18.12,2.76,20.97,11.17,2.8,26.96.44,37.98-2.72,4.42-1.27,11.74-4.97,15.62-5.44,1.02-.12,1.55.04,2.5.31,1.35,1.73-15.32,7.39-16.5,7.74-10.11,3.04-36.16,7.99-44.97,1.97-.53-.36-3.18-2.77-3.53-3.22-2.59-.8-3.33-3.81-3.78-6.28-.42-2.27-.89-6.09,1.28-7.22Z"/>
  <path class="cls-11" d="M270.49,386.5c-1.02.94-1.22-1.46-1.33-1.9-.75-2.99-1.05-8.14-1.19-11.33-1.53-34.81,5.33-69.89,11.68-103.86l2.84-9.9c.71,2.29.64,4.8.44,7.18-.96,11.81-4.97,25.16-6.85,37.15-3.97,25.26-5.47,49.44-5.1,74.94.02,1.34.61,2.58.57,3.98-.02.67-.77,3.48-1.06,3.75Z"/>
  <path class="cls-11" d="M340.51,264c.81.41,1.36,2.15,1.73,3.01,9.35,21.48,13.17,51.83,19.91,75.09,1.47,5.07,8.28,22.13,7.89,25.66-.06.5-.25,1.74-.78,1.72-2.85-.11-11.04-27.94-12.11-31.88-6.56-24.26-11.02-49.12-16.64-73.61Z"/>
  <path class="cls-15" d="M213.5,249c-.12,3.74-6.51,1.04-8.36-.79.98,2.35-.36,3.42-4.03,3.21,2.18-.23,4.98.97,2.84,3.11-5.16,1.53-16.93,5.15-4.35,1.99,2.68-.74,5.85.57,3.36,3.2,2.84-.6,10.12-1.96,12.04.63v1.14c.29,1.95-3.06.4-4.25.46-5.72.25-11.7,2.65-17.01,3.03-6.8.49-4.24-2.84-4.49-7.75-.02-.39-.68-.87-.71-1.47-.17-3.64,7.43-8.24,10.95-7.78-1.39-2.45-3.63-5.43-2.68-8.41.43-1.35,1.66-2.53,3.16-1.85s5.2,6.16,7.28,7.75,4.28,1.9,6.24,3.51Z"/>
  <path class="cls-3" d="M213.5,249c.54-.19,1.43,0,2-.5-1.29,4.41-.35,9.88,2.5,13.5-.86-.22-2.25-.21-3-.5s-1.37-1.18-2.35-1.4c-5.73-1.26-14.2,2.37-20.15,2.39.94-1.83,10.41-2.65,10.49-4.24.14-2.74-11.09,1.69-11.49,1.25-1.12-1.26,2.14-2.6,2.82-2.93,3.07-1.47,6.51-1.9,9.68-3.08-.19-.91-.98-.93-1.73-1.01-3.8-.43-7.76,1.33-11.27,2.52.4-5.36,12.98-4.23,13.49-5,.88-1.32-3.24-3.54-4.1-5.14-.69-1.28-1.1-2.34-.89-3.85,3.17,3.17,6.88,8.7,11.84,8.84,1.2.04,1.47-.61,2.16-.84Z"/>
  <path class="cls-15" d="M226,176.5c.57,2.98-.08,5.6-.75,8.5-2.48,10.75-12.29,37.3-18.15,46.35-.81,1.25-1.92,2.88-3.6,2.65-.53-.55,1.82-5.89,2.26-6.98,4.78-11.76,10.03-22.61,14.24-34.76,1.51-4.34,2.5-9.22,4.11-13.39.1-.25,1.1-3.37,1.88-2.37Z"/>
  <path class="cls-9" d="M254.49,237c.67.58,2.19,5.14,3.49,5.76.94.45,4.51-2.33,5.02-.51.56,2.02-2.45,1.86-3.49,2.49.73.62,1.08,1.61,1.73,2.27.39.41,7.97,5.86,4.51,6.48-.47.08-3.88-2.48-4.47-3.02-1.25-1.12-3.34-4.38-4.54-4.5-.63-.06-8.54,2.48-10.12,2.87-1.99.49-4.07.93-6.1,1.15.76,1.25,5.88,5.36,2.68,5.96-.62.12-3.15-2.58-3.69-3.21-.58-.69-.94-2.15-1.04-2.22-.42-.31-8.94,1.45-10.46.97-.24-1.51.37-.8,1.21-1.01,2.53-.62,5.21-1.1,7.79-1.49.29-.29-2.41-6.75-.75-7.99,1.02,1.57,1.58,6.74,3.51,7.02,3.31.48,11.97-3.71,15.74-4.03.4-.45-1.84-5.05-1.98-6.27-.11-.92.55-1.09.97-.72Z"/>
  <path class="cls-4" d="M349.5,262.01c1.46-1.15,5.74,5.25,6.4,6.34,5.15,8.61,6.27,19.98,3.89,29.69-.55,2.23-2.44,3.82-2.81.74-.67-5.61,1.19-13.04.39-19.4s-4.77-11.88-7.87-17.37Z"/>
  <path class="cls-4" d="M167.49,158.5c-5.66,4.87-8.47-5.46-2.23-5.27,1.6.05,1.89,1.62,2.78-.44,1.19-2.75-.46-5.1-2.55-6.79,3.34-.27,4.74,2.22,4.73,5.24,0,1.72-.98,3.01-1.07,4.07s.48,2.46.36,3.93c-.35,4.29-6.07,8.69-6,6,.01-.4,5-4.58,3.98-6.75Z"/>
  <path class="cls-2" d="M144,228.51c-.81,1.49-3.34,1.6-3.93,3.34-.5,1.5.72,1.08,1.14,1.67,3.08,4.38-2.26,8.06-5.21,3.49.2,2.1-.39,2.78-2.5,2.5-.13-2.5-.26-4.26,1.72-6.03.78-.71,1.77-.86,2.23-1.27,2.07-1.88,2.63-4.51,6.55-3.69Z"/>
  <path class="cls-4" d="M270.5,99.5c1.25-1.25,5.72,4.5,9.17,3.43,2.56-.8-2.94-4.8-1.44-6.94,1.64-2.35,5.48,5.49,5.06,7.03-.79,2.89-4.54,2.86-6.93,2.37-1.99-.41-6.9-3.35-5.86-5.88Z"/>
  <path class="cls-4" d="M399.5,197.5c-.11,2.56,1.27,4.68,2.01,7,1.3.21,1.63-1.34,2.5-1.74,4.83-2.23,6.04,7.49-1.01,5.75l.5,4.5c-3.46.83-2.13-3.79-2.61-6.14-.29-1.44-1.79-3.11-2.17-4.83-.14-.62-.66-6.29.78-4.53Z"/>
  <path class="cls-26" d="M329.5,172.5c-6.42-4.92-10.95-12.75-16-19,.38-.35,2.75,1.61,3.24,2.01,5.21,4.2,8.32,9.14,12.76,13.99v3Z"/>
  <path class="cls-4" d="M313.34,47.07c.53-.05,1.03.3,1.14.72.19.77-5.07,11.69-5.73,11.69-3.06-2.9.95-12.1,4.59-12.42Z"/>
  <path class="cls-16" d="M257.5,252.5c1.75,1.77-6.6,4.05-7.48,4.26-5.06,1.24-10.8,1.62-16.01,1.73-.85-.64.06-.91.74-.99,4.06-.52,8.28-.83,12.27-1.74,1.63-.37,10.09-3.66,10.48-3.27Z"/>
  <path class="cls-19" d="M273.88,86.12c.72.66.52,1.76-.39,2.15-1.03.44-2.33-.43-4.33.63-1.11.59-5.44,6.1-6.15,3.33s7.7-9.02,10.88-6.11Z"/>
  <path class="cls-1" d="M323.9,59.13c1.76-.15,5.23-.03,3.59,2.61-1.82.02-7.11,2.27-8.25,2.25-1.3-.03-1.83-1.02-1.18-2.15.99-1.71,3.97-2.54,5.84-2.71Z"/>
  <path class="cls-17" d="M421,286.5c0,.86.11,1.8-.11,2.64-.36,1.37-5.57,5.42-7.39,5.36-.29-1.51,2.22-1.48,2.44-2.82.14-.84-2.55-2.57-.71-4.18,2.35-2.06,3.31,1.09,3.51,1,1.06-.45.06-2.68,2.25-2Z"/>
  <path class="cls-14" d="M329.5,320.5l-2.5.5c-.51-2.61-1.28-3.38,1.99-3.5.02.86.27,1.69.5,2.5.04.15-.04.34,0,.5Z"/>
  <path class="cls-14" d="M307.5,369c1,0,2.01,0,3,0,.02.66-.02,1.34,0,2,0,.17,0,.33,0,.5-.99.06-2.02-.09-3,0-.06-.82.08-1.68,0-2.5Z"/>
  <path class="cls-25" d="M327.5,388l1,.5c-2.1.39-4.24,1.41-6.5.99l5.5-1.49Z"/>
  <path class="cls-21" d="M209,447.5c-1.44,6.03-3.85,14.52,3.15,17.59,5.12,2.25,11.09,1.99,16.34,3.91.12.16-.28.65-.49.75-1.08.53-8.02.33-9.78.26-2.1-.08-5.44-.29-7.47-.53-1.68-.2-7.38-1.07-8.29-2.21-1.59-1.97-2.07-15.88-1.13-18.17.64-1.57,6-1.74,7.67-1.61Z"/>
  <path class="cls-5" d="M230.5,444c-1.37,7.43-1.79,10.3,6.38,11.87,4.59.88,11.28-.21,14.62,3.12-3.58.38-7.12.63-10.74.5-1.89-.07-5.07-.32-6.94-.56-1.16-.15-6.07-1.02-6.7-1.55-1.5-1.25-1.22-9.67-.52-11.54.38-1.02,2.83-1.92,3.9-1.84Z"/>
  <path class="cls-27" d="M193.5,288l-2.82,8.04c-16.47-2.85-10.4-10.29,2.82-8.04Z"/>
  <path class="cls-24" d="M245,433.5h-2c.76-5.2.65-10.96.52-16.27-.03-1.18-.51-2.28-.54-3.46-.28-9.77-.34-19.5-.97-29.27l1.99,14.25c.61,11.58,2.37,23.17,1,34.75Z"/>
  <path class="cls-21" d="M256,172.5c-8.82-3.53-18.63-3.15-28-3.5,1.02-10.23,8.05-15.75,18.22-12.97,1.38.38,9.62,3.71,10.04,4.44.3.52-.76,3.74-.76,4.78,0,1.32,1.12,6.39.49,7.25Z"/>
  <path class="cls-12" d="M360,194.25c-.3-2.12-2.18-4.74-3-6.75.98-.23,1.18.51,1.7,1.04,3.81,3.95,4.61,10.35,1.54,14.95-1.59,1.4-.24-1.08-.24-1.24,0-2.39.31-5.79,0-8Z"/>
  <path class="cls-20" d="M348.5,229.5c.11-1.54,1.8-1.79,2.72-3.03,3.08-4.14.15-7.67-.22-11.73-.05-.54-.36-1.87.49-1.74,2.23,7,6.53,13.04-2.99,16.5Z"/>
  <path class="cls-7" d="M323,157c-.58.52-2.75-1.86-3-2.49l3.28.98c.14.16-.23,1.46-.28,1.51Z"/>
  <path class="cls-22" d="M283.5,78.5c2.68-6.81,2.27-13.74-3.76-18.5-1.07-.84-2.59-1-3.25-2,10.66.29,14.83,13.49,7,20.49Z"/>
  <path class="cls-24" d="M318,396c.44.43-1.31,10.55-1.06,12.19l-.93,4.81.5-17c.4.06,1.4-.1,1.5,0Z"/>
  <path class="cls-20" d="M320.5,472h-7c.66-.92-.08-4.25,1.26-4.01s4.66,2.96,5.74,4.01Z"/>
  <path class="cls-8" d="M345.99,403.5l-2.99-11.5c1.1-.18,1.2.46,1.47,1.27.92,2.71,1.1,7.28,1.52,10.22Z"/>
  <polygon class="cls-18" points="364.5 470.51 360 470.99 360.5 469 364.5 470.51"/>
  <path class="cls-21" d="M308.5,302.5c1.34,6.5,3.26,12.96,4.5,19.5-3.99.81-7.97,1.16-12,1.5-1.14-6.7-2.89-13.29-4-20,3.82-.04,7.74-.41,11.5-1Z"/>
  <path class="cls-21" d="M311.5,302c1.73-.32,9.7-2.92,10.53-2.3l3.95,18.78-10,2.31c-1.27-6.24-3.4-12.54-4.48-18.8Z"/>
  <path class="cls-21" d="M316.5,324c3.08-.66,6.49-1.86,9.64-2.63.49-.12.56-.67,1.12.11.16,2.47,4.29,15.94,3.52,17.03-.33.47-10.38,3.88-10.78,3.48-1.05-5.99-1.99-12.12-3.5-18Z"/>
  <path class="cls-21" d="M339,314c-1.63.38-9.24,3.39-10.03,2.79-.88-.67-2.92-14.48-3.94-16.61-.05-.75-.21-1.38.47-1.94.52-.43,8.66-3.07,9-2.74.96,6.27,2.7,12.43,4.5,18.5Z"/>
  <path class="cls-21" d="M308,300c-3.9.65-7.37,1.5-11.47.97-.72-5.29-1.61-10.62-1.52-15.97.54-.19,1.09.5,1.25.5h8c.19,0,.73-.69,1.25-.5,1.04,4.96,1.51,10.03,2.5,15Z"/>
  <path class="cls-21" d="M311,299.5l-2.46-14.97,10.18-2.55,2.78,15.02c-3.44.32-6.67,1.78-10,2.5-.17.43-.33.43-.5,0Z"/>
  <path class="cls-23" d="M311,299.5c.16-.03.34.03.5,0,.09.79-.13,1.75,0,2.5-.99.19-2,.34-3,.5-.17-.83-.33-1.67-.5-2.5.99-.17,2.01-.3,3-.5Z"/>
  <path class="cls-29" d="M313.5,324.5c-.25-1.3-.83-2.7.76-3,2.23-.42,1.77.69,2.24,2.5-1.04.22-2.06.31-3,.5Z"/>
  <path class="cls-14" d="M339,314c.74-.17,1.6-.96,2.53-.29,1.67,1.2-.14,3.28-2.01,2.78-.35-.77-.31-1.77-.52-2.49Z"/>
  <path class="cls-29" d="M301,323.5c.15.88.84,1.86.5,3h-2.5c-.17-.83-.33-1.67-.5-2.5.92-.04,1.73-.43,2.5-.5Z"/>
  <path class="cls-14" d="M324.5,296c.24,2.18,0,3.34-2.5,3-.43-3.39.43-2.3,2.5-3Z"/>
  <path class="cls-21" d="M332,341l3.99,20.46c-1.71.48-12.39,5.19-12.98,4.54l-2.5-21.49c1.76-.08,10.77-4.23,11.5-3.51Z"/>
  <path class="cls-21" d="M304,348c.87,6.97,2.77,13.87,3.5,21-4.2.03-8.13,1.04-12.43-.07l-3.57-20.43c4.14-.08,8.41.23,12.5-.5Z"/>
  <path class="cls-21" d="M307.03,347.54l10.96-2.54c1.52,6.99,2.05,14.12,2.94,21.22l-.42.53c-1.66.66-9.42,2.54-10.3,1.28l-3.18-20.49Z"/>
  <path class="cls-21" d="M313.5,324.5c.13.69.69,1.5.86,2.38,1.07,5.36,2.06,10.74,3.12,16.1-3.67.78-7.34,1.63-10.98,2.52-.36-2.59-5.04-18.17-4.48-18.97,3.79-.83,7.69-1.24,11.48-2.03Z"/>
  <path class="cls-14" d="M306.5,345.5c.06.42.11,1.76-.06,1.94-.82.12-1.63.41-2.44.56-.06-.48-.77-1.24-.49-1.98.93-.48,2.14-.31,2.99-.52Z"/>
  <path class="cls-21" d="M299,326.5c.51,2.48,4.68,18.78,3.99,19.49l-11.99,1.01-2.97-21.26,1.01-.55,9.96,1.31Z"/>
  <path class="cls-10" d="M166.5,155.5c.57.76-1.51,2.47-2.49,1.99-.83-2.03,1.6-3.18,2.49-1.99Z"/>
  <path class="cls-28" d="M403.5,206.49c-.18-.22,2.12-2.97,2.5-1.24.25,1.14-1.49,1.89-2.5,1.24Z"/>
  <g>
    <path class="cls-6" d="M323.9,119.78c1.02,1.02,1.04,4.01.94,5.45-.09,1.28-2.47,11.78-2.97,12.14-3.08,2.21-13.34-3.69-15.04-6.93-3.42-6.53,3.08-9.24,8.19-5.56-.54-4.49,5.69-8.28,8.88-5.1ZM318.04,133.93c-.57-2.08,5.36-11.33,1.88-12.07-2.33-.49-3.02,5.76-3.39,6.03s-5.86-2.6-7.53-1.5c-1.34,3.27,8.2,8.3,9.04,7.54Z"/>
    <path class="cls-13" d="M318.04,133.93c-.84.76-10.38-4.27-9.04-7.54,1.67-1.1,7.15,1.78,7.53,1.5s1.06-6.52,3.39-6.03c3.47.74-2.45,9.98-1.88,12.07Z"/>
  </g>
  <g>
    <path class="cls-6" d="M332.25,116.45c-3.83,2.26-15.47-11.35-8.93-14.58,3.6-1.78,4.48,1.55,5.76,1.84,1.32.31,2.4-2.62,4.46-2.97,4.33-.74,5.74,2.34,4.68,6.24-.15.54-5.49,9.19-5.98,9.48ZM331.63,104.52c-.34.31.03,2.29-1.88,2.29-1.24,0-4.69-3.36-4.92-3.05-1.03,2.29,2.29,7.89,4.24,8.24,3.12.56,5.57-10.18,2.55-7.48Z"/>
    <path class="cls-13" d="M331.63,104.52c3.02-2.7.57,8.04-2.55,7.48-1.95-.35-5.27-5.95-4.24-8.24.22-.31,3.68,3.05,4.92,3.05,1.91,0,1.53-1.98,1.88-2.29Z"/>
  </g>
  <g>
    <path class="cls-6" d="M339.2,127.89c.5.39,10.37-3.85,9.02,4.12-.35,2.09-10.41,8.82-11.58,8.59-4.5-.86-8.36-17.72-.99-17.07,3.05.27,3.19,4.08,3.55,4.36ZM336.82,127.23c-.28-.18-2.19-.43-2.19.35-.24,3.01.32,6.08,1.93,8.64,1.7.29,7.32-4.35,7.88-5.7,1.1-2.66-4.61.6-5.53.33-1.58-.46-1.74-3.41-2.09-3.63Z"/>
    <path class="cls-13" d="M336.82,127.23c.35.22.51,3.17,2.09,3.63.92.27,6.63-2.99,5.53-.33-.56,1.34-6.18,5.98-7.88,5.7-1.61-2.56-2.17-5.64-1.93-8.64,0-.79,1.91-.53,2.19-.35Z"/>
  </g>
</svg>