<?xml version="1.0" encoding="UTF-8"?>
<svg id="Layer_1" data-name="Layer 1" xmlns="http://www.w3.org/2000/svg" viewBox="0 0 1040 1040">
  <defs>
    <style>
      .cls-1 {
        fill: #b3b2b2;
      }

      .cls-2 {
        fill: #c7c6c6;
      }

      .cls-3 {
        fill: #252122;
      }

      .cls-4 {
        fill: #2c2729;
      }

      .cls-5 {
        fill: #b2b1b1;
      }

      .cls-6 {
        fill: #c4c3c3;
      }

      .cls-7 {
        fill: #c6c5c5;
      }

      .cls-8 {
        fill: #231f20;
      }

      .cls-9 {
        fill: #f1f1f1;
      }

      .cls-10 {
        fill: #2c2829;
      }

      .cls-11 {
        fill: #d1d0d0;
      }

      .cls-12 {
        fill: #d82f87;
      }

      .cls-13 {
        fill: #262223;
      }

      .cls-14 {
        fill: #d2d1d1;
      }

      .cls-15 {
        fill: #242021;
      }

      .cls-16 {
        fill: #2a2627;
      }

      .cls-17 {
        fill: #282425;
      }

      .cls-18 {
        fill: #2d292a;
      }

      .cls-19 {
        fill: #fefefe;
      }

      .cls-20 {
        fill: #fafafa;
      }

      .cls-21 {
        fill: #292526;
      }

      .cls-22 {
        fill: #f0eff0;
      }

      .cls-23 {
        fill: #bbbabb;
      }

      .cls-24 {
        fill: #c7c5c6;
      }

      .cls-25 {
        fill: #fdfdfd;
      }

      .cls-26 {
        fill: #272324;
      }
    </style>
  </defs>
  <path class="cls-8" d="M184,305l3.72,12.89c7.59,46.11,25.52,88.2,56.52,123.79l32.59,39.72c3.26,4.19,6.11,8.68,8.18,13.59.82,4.94,5.64,10.42,4.98,16.01-.49-.1-.83-1-.98-1.01-1.36,1.05-1.81,1.07-1.36.05-3.89,20.5-6.83,41.12-8.84,61.86,0,5.18,3.74,8.54,11.2,10.09,40.81.4,93.95-18.82,134.4-11.9,4.94.85,10.42,2.21,13.59,6.41.26,3.06-1.08.49-1.49.49h-15.5c20.83,47.71,33.49,99.39,46.72,149.78,14.43,54.99,35.48,124.42,42.14,179.86,2.17,18.08,3.69,22.76-14.18,30.54s-44.44,11.3-64.19,12.81c-3.38.26-9.17-.71-11.87.15-1.74.56-1.22,1.88-1.62,2.86-3.93,25.2,36.94,25.23,53.26,22.85,3.38.34,4.29-.94,2.74-3.85-8.16-4.57-18.24-6.1-26.68-9.82-.98-.43-4.58-1.61-3.81-3.19,7.73-1.36,37.7,6.98,40.06,13.94,4.56,13.49-23.46,11.56-31.05,11.06-5.47-.37-44.79-7.58-46.33-10.15-2.98-4.97,5.01-4.02,5.74-6.47.38-1.26-2.32-9.61-2.82-11.98-.38-1.81.3-4.17-.23-5.77-.78-2.36-9.64-1.47-13.08-7.92l-7.8-32.7v28.5c0,.36-2.05,4.77-2.54,5.46-4.35,6.19-19.24,6.64-26.32,8.18.87,3.08-4.82,19.09-4.14,19.85.56.63,9.81.24,9,5-22.03,5.15-46.78,9.83-69.53,8.05-6.78-.53-16.69-2.6-11.52-11.59,3.63-6.31,30.28-13.56,37.56-13.53,8.46.03,5.83,3.61.18,6.27-8.31,3.91-21.98,4.31-29.68,8.82.22,1.04.83,2.2,1.84,2.26,10.4.66,45.43,1.54,52.34-8.38,2.71-3.89,5.2-9.77,1.82-13.88-6.59-2.46-10.47-.06-16.46.04-18.16.32-41.15.51-58.53-4.55-7.81-2.27-13-4.12-15.52-12.48-1.64-5.44-2.24-15.55-2.53-21.47-4.48-92.4,10.9-199.98,24.17-291.91,1.65-11.47,3.15-23.14,6.89-34.11-14.67-1.35-17.38-1.58-15.89-16.89,2.21-22.69,11.47-43.68,9.87-68.11-.18-2.77-1.86-15.4-5.49-15.41-.44,0-5.36,3.63-7.53,4.37-16.54,5.68-15.84-6.92-24.91-9.05-4.19-.98-8.14.72-12.59.63-10.53-.22-20.79-3.95-22.38-15.64-2.57-18.83,16.97-27.6,13.85-45.87-.65-3.84-14.75-25.64-17.8-32.19-8.55-18.35-25.76-71.06-23.19-89.91.29-2.12.87-3.7,3.04-4.45.9,2.63,1.4,5.29,2.01,8Z"/>
  <path class="cls-8" d="M514,495c5.44,11.31,8.3,23.78,8.58,37.39l3.53,50.75c.95,8.67,3.29,18.39,13.64,17.92,22.2,1.21,44.28.85,66.25-1.06,27.7-.8,55.86-1.43,83.37-5.13,2.86-.38,16.79-2.21,17.72-3.51,1.75-2.46.2-14.32,1.41-14.37,3.1,3.54,5.15,10.66,10.21,11.8,28.57.64,56.82,4.9,84.84,9.95,3.93-.71-.85-14.65-.54-17.74,4.14,2.54,11.01,17.18,9.83,21.28-1.52,5.31-9.38,1.07-12.83,2.21,3.8,8.84,6.25,18.17,8.5,27.5,7.93,32.8,13.83,66.93,20.97,100.03,11.66,54.02,29.29,115.65,32.5,170.5.44,7.49.98,24.19-2.56,30.42-5.38,9.45-34.43,15.76-44.94,17.06-9.65,1.19-19.75.29-29.04,1.95-1.69,8.42,1.29,12.88,9.5,14.62,6.25,1.33,18.07,2.37,24.51,2.48,8.6.15,17.03-1.37,25.54-2.04.31-2.7-3.06-3.6-5.01-4.48-3.69-1.67-21.14-5.75-21.98-6.53-1.5-1.39.1-1.81,1.48-1.99,7.14-.92,22.75,2.21,28.86,6.16,7.64,4.95,5.84,9.81-2.11,12.56-14.49,5.01-48.9,2.24-64.47-.98-20.98-4.34-4.89-8.04-4.68-9.34.09-.58-2.94-10.72-3.27-11.2-1.35-1.91-20-1.15-25-10.51-3.28-6.14-4.94-22.72-5.79-30.21-4.37-38.43-4.43-77.46-8.02-115.98-.11-1.23-.37-5.34-1.98-5.51.75,7.55-.61,15.11-1,22.51-1.77,33.93-2.34,70.32-8.3,103.7-.99,5.52-2.49,15.63-6.31,19.69-4.42,4.71-16.33,5.28-17.22,6.29-.96,1.09-1.71,13.98-3.19,16.81,2.58-.13,5.28.4,6.99,2.51-20.61,8.24-45.29,11.28-67.52,9.54-6.03-.47-20-2.78-15.72-11.8,3.19-6.74,31.24-11.05,38.76-10.24.43,1.94-3.36,3.63-4.8,4.2-8.36,3.35-17.59,3.06-25.7,7.8-.16.64-.23,1.19,0,1.38,4.24,3.61,31.4,1.56,37.95.83,8.14-.92,19.79-2.51,24.05-10.21,2.91-13.32-9.69-10.12-17.49-11.01-17.21-1.97-56.82-8.76-65.72-25.28-5.42-10.07-.5-39.9,1.37-52.04,2.17-14.09,5.37-28.7,8.32-42.68,15.42-73.14,37.71-144.71,52.51-217.98-12.04,2.23-24.4,1.36-36.53,1.96-33.22,1.63-72.24,6.31-104.94,3.03-8.51-.85-9.67-3.42-10.5-11.5-1.43-13.95-.84-28.93-2.03-42.97-1.42-16.83-5.78-34.77-6.97-51.03-.39-5.23.45-18.36,4.98-7.48Z"/>
  <path class="cls-8" d="M478.11,275.9c.63.74,15.92,4.15,16.89,9.09-12.1-1.26-24.33-6.46-36.46-7.03-16.12-.75-17.23,4.96-20.25,18.83-11.53,52.91-12.77,112.27-69.94,137.06-22.19,9.63-33.34,5.18-52.27-7.44-34.64-23.1-49.25-53.4-60.58-92.42-2.33-8.01-8.85-41.57-13.94-45.06-8.93-6.13-47.84,2.4-59.56,4.05,1.28-5,16.39-7.99,16.93-9.62l-7.97-49.92c.36-13.28,8.78-25.17,22.1-28.03-4.01-26.38-9.78-53.35-12.06-79.93-.51-5.94-1.64-15.42-1.01-21,1.08-9.49,5.81-10.86,14.47-11.53,37.54-2.94,80.7.81,119.08.08,33.16-.64,66.77-3.45,99.92-4.08,13.92-.27,32.64-1.24,46.08,0,6.46.6,8.7,1.83,9.46,8.54,1.39,12.33-.55,25.77-.99,38.01-.87,24.25-1.91,48.56-3.82,72.76,2.46,2.49,9.86,19.2,11.44,19.67,6.11,1.82,10.95-18.17,18.37-14.48,6.9,3.44-1.6,21.91-5.47,26.56-8.99,10.78-27.28,13.64-30.08,28.92-.27,1.49-1.03,6.16-.34,6.96Z"/>
  <path class="cls-8" d="M820.5,363c-1.8.4-5.02,4-8.48,4.62-1.84.33-4.22-.78-5.05-.21s-5.83,14.62-7.45,17.61c-5.6,10.35-14.05,19.93-24.51,25.48,24.66,18.28,46.47,43.8,61.17,70.83,10.62,19.54,28.53,62.43,10.87,81.22-15.52,16.51-65.84,21.62-87.43,19.34-6.79-.72-3.27-2.59-4.52-3.39-1.58-1-5.55-.23-6.09-2.48,22.86-1.73,45.19-.22,67.82-5.69,28.47-6.87,35.23-18.58,28.69-47.33-7.57-33.24-36.76-75.46-62.5-97.5-2.1-1.8-6.9-6.11-9.17-6.82-8.65-2.72-21.76,4.4-31.34,4.33-11.46-.09-23.38-9.5-31.98-9.01s-25.04,7.15-33.2,10.84c-2.44,1.1-14.1,8.39-15.32,7.17-.54-5.12,6.09-8.21,9.98-10.51,11.98-7.11,25.61-11.5,39.01-14.98-10.81-9.52-18.55-22.56-19.87-37.13-.4-4.41.75-12.25-.31-15.69-.49-1.58-3.58-3.04-5.07-4.93-1.91-2.43-3.5-8.33-3.86-8.64-.47-.41-9.15-.14-12.44-1.07-5.86-1.66-7.33-5.93-12.45-8.04,3.6,8.43,10.04,12.01,18.75,13.73,2,.4,10.03-.3,5.62,3.33-3.6,2.97-10.05,1.54-14.17.23-22.5-7.12-24.83-43.15.77-47.35-9.3-46.41,54.81-67.98,82.52-34.04,37.79-34.69,98.87-5.35,88.53,47.04,19.02,4.41,24,27.42,14.38,42.96-5.07,8.2-19.28,17.15-28.39,10.59l10.98-4.5c-4.51.66-11.37-.91-15.5,0Z"/>
  <path class="cls-8" d="M497,303c.41-4.2.47-7.93,2.01-12,3.15-2.46,3.12,17.92,3.03,19.54-1.99,37.69-20.79,78.88-35.9,112.91,1.66,7.8,3.55,16.61,7.15,23.76,5.05,10.04,23.16,25.47,8.73,36.3-8.51,6.39-17.83-.32-26.52.43-6.41.55-10.34,6.87-13.39,7.57-1.92.44-4.76-1.77-5.1-1.52-2.6,1.95-2.3,20.7-11.02,19,.74,17.6,11.5,42.16,19.77,57.74.15,13.29-9.61-5.05-11.63-9.38-7.62-16.37-13.2-38.41-12.65-56.35,2.36,1.06,2.85,7.67,4.5,8-.24-5.82,2.03-11.31,3-17,10.6-33.51,24.24-66.02,40.93-97.51,14.07-29.2,23.97-59.6,27.07-91.49Z"/>
  <path class="cls-8" d="M627,449l-1.68,2.09c-17.88.57-40.48,3.19-34.02,27.12,3.53,18.38,2.45-4.3,1.61-10.17,1.81-8.64,9.39-5.42,10.14,2.15,3.25,19.4,4.92,21.52,5,6.35-1.93-4.59-3.84-23.34,5.63-17.07,3.45,7.47,5.35,15.81,5.7,25.01.26-6.65.05-13.31-.62-19.99-.05-8.33,9.18-7.09,9.39.75,1.16,15.25,2.08,13.28,2.75-5.91l2.1-1.32c.64,1.37,1.77,2.45,2.33,4.16.69,2.08.35,5.78,1.11,6.9,1.51,2.21,22.01-.9,26.02-1.1,6.3-.31,12.71.19,19.03.03,8.18-.2,22.05-4.99,25.57,5.45,2.77,8.2,2.76,21.01,1.93,29.56-7.39-4.48-3.33-24.15-7.48-29.01-.56-.65-1.12-.99-2-1l-46,2.03c-4.55,1.23-10.25.39-13.55,4.45-3.12,3.84-3.24,12.59-8.02,13.98-2.94.85-4.37-.29-6.09.06-1.49.3-3.53,2.67-5.84,3.11s-3.9-.76-5.46-.56c-2.45.31-4.56,1.99-7.09,1.98-3.44-.02-4.81-2.84-7.02-3.03-1.72-.15-3.88,1.06-5.97,1.08-9.61.08-9.5-13.1-19.23-14.86-13.59-2.46-33.23,1.61-47.28,2.3-1.68.08-2.55,1.17-3.98-1.05-.56-2.7,7.79-4.04,9.61-4.37,15.97-2.87,32.53-1.93,48.43-4.57,2.58-4.53.88-10.35,3.09-14.91,5.73-11.79,31.93-18.37,41.86-9.64Z"/>
  <path class="cls-8" d="M730,568c-6.73,4.11-19.18,6.62-27.53,6.99-17.71.8-17.75-14.75-21.92-28.04-5.92-1.63-24.03-2.68-23.36-11.24.12-1.49,1.91-3.71,3.31-3.71h33.5c-1.77-4.24-14.08-20.73-3.44-20.94,9.86-.2,17.36,14,25.76,18.12,2.54,1.24,16.24,5.17,17.65,3.79.57-.56-.6-7.33,5.75-8.75,7.53-1.68,21.3.3,29.83-.17,10.61-.59,15.86-2.83,25.46-5.54,4.63-1.31,9.42-1.97,13.99-3.5-2.52,10.07-19.46,13.37-28.46,14.03-7.92.58-33-1.79-38.11,1.89-2.72,1.96-4.24,12.16-4.41,15.58-.26,5.24,2.87,21.39,1.04,23.9-1.93,2.66-4.47-1.62-5.06-3.41-1.96-.7-2.57-.47-4,1Z"/>
  <path class="cls-14" d="M734.68,560.49c-1.46-.06-2.75.24-4,1,.53-2.98-1.43-2.09-3.35-1.88-5.12.55-10.89,2.5-16.16,2.87-1.45.1-17.75.59-15.49-1.98,2.17.13,4.86-.75,3.99-3.5s-11.29-.3-10.99-5.5c2.87.53,10.15.19,8.99-4.49-.7-2.85-6.87,1.18-10.02-2-1.31-1.32-2.2-4.09.51-4.51,2.47-.38,8.44.36,8.52-4-9.75-2-21.17-.47-30-5.51,17.57-2.55,48.74,9.81,27-19.49,7.86,2.58,12.04,11.43,18.86,15.63,4.9,3.02,14.44,3.85,17.18,6.82,4.48,4.87,2.62,19.41,4.97,26.53Z"/>
  <path class="cls-14" d="M627.68,442.49c2.97,2.61,4.37,5.53,6,9l-2.01,27.99c-1.55-.18-2.16-3.69-2.5-4.98-1.08-4.06-2.02-17.47-3.38-19.43-.87-1.25-2.89-.38-4.1-.59-1.12,8.44,2.05,17.47-.01,25.5-.36,1.38.04,3.12-1.98,3.5-3.24-6.2-2.73-23.74-5.9-28.42-1.07-1.58-4.76-.86-5.16,1.94s1.92,9.05,2.09,12.93c.23,5.47-.64,10.32-2.05,15.55-5.89-3.02-5.53-25.7-9.58-26.91-1.5-.45-2.75.02-3.24,1.57-1.16,3.65,1.45,13.12.74,18.75-.94,7.45-4.08,2.11-5.42-2.39-9.09-30.54,12.55-32.74,36.52-34.02Z"/>
  <path class="cls-2" d="M429.68,485.49c9.96-58.36,48.19-101.49,62.13-158.37,2.48-10.11,3.54-20.51,5.87-30.63-1.14,11.61-1.91,21.48-4.49,33.01-12.42,55.45-45.86,102.51-63.51,155.99Z"/>
  <path class="cls-2" d="M285.68,488.49c-29.96-39.01-63.63-71.37-82.49-118.01-9.83-24.32-12.85-46.87-18.51-71.99,6.54,13.96,8.1,30.31,12.28,45.22,15.16,54.06,38.96,77.04,72.69,118.31,7.46,9.12,14.23,15.68,16.02,26.48Z"/>
  <path class="cls-2" d="M514.68,488.49c2.53-.52,3.14,3.1,3.74,4.75,10.01,27.36,4.7,61.67,12.55,89.46,3.28,11.64,7.59,11.09,19.17,11.83,17.35,1.12,38.77-.53,56.54-1.04l-25.46,2.04c-7.38.2-46.58.88-50.3-1.28-2.39-1.39-5.78-14.19-6.11-17.38-2.53-24.53-.91-66.29-10.12-88.38Z"/>
  <path class="cls-15" d="M574.15,532.15c.78-1.22,4.63-1.5,5.94.26,1.04,1.4,2.29,10.33,4.03,13.97,1.01,2.1,3.55,7.39,6.29,6.56,7.27-5.37,1.14-19.49,2.72-24.29.74-2.24,3.87-2.27,5.4-.68,4.64,4.82,2.69,25.59-3.02,30.04-13.78,10.75-24.12-21.54-21.36-25.86Z"/>
  <path class="cls-15" d="M617,530.02c-2.22,3.3,7.34,6.35,9.49,7.99,5.26,4,8.03,10.48,2.95,15.94-4.46,4.79-20.44,5.99-18.38-1.31,1.03-3.64,15.54,1.06,13.53-6.7-1.1-4.24-17.05-5.04-14.4-17.2,2.08-9.55,22.85-7.84,16.88-.14-2.14,2.77-6.76-.76-10.07,1.43Z"/>
  <path class="cls-24" d="M289.68,503.49c-.44-.05-.86.01-.99.5-.16,3.62.26,7.26-.14,10.87-1.35,12.28-9.03,40.58-6.4,50.66,1.07,4.11,5.49,7.3,8.53,9.97-12.59-.12-14.04-3.69-12.88-16.38,1.31-14.23,5.64-35.04,8.11-49.89.07-.4,1.78-9.32,3.77-5.73Z"/>
  <path class="cls-2" d="M347.68,947.49c3.65,1.36,3.35,3.17,2.58,7.05-2.52,12.68-10.51,13.04-21.25,14.79-12.87,2.1-26.37,3.01-39.33,1.16-.37-1.84.69-2.23,2-2.99,1.04,1.66,3.79,1,5.49,1.02,16.07.2,54.57,3.85,50.51-21.02Z"/>
  <path class="cls-7" d="M691.68,945.49c-1.62,7.4-5.36,7.62-12.18,9.32-12.61,3.15-33.44,4.57-46.25,2.6-2.29-.35-4.28-1.65-6.58-1.93.14-1.86,2.21-1.53,3-1.99,11.91,3.05,26.17,2.53,38.38.88,8.41-1.14,17.11-3.09,23.62-8.88Z"/>
  <path class="cls-6" d="M474.68,965.49c1.24.69,5.32,2.19,3.52,4.02-5.23,5.29-49.86-.61-55.79-5.97-2.98-2.69-5.29-13.2-3.73-17.04.63,17.91,14.24,21,29.46,22.04,8,.55,19.5.76,26.54-3.04Z"/>
  <path class="cls-13" d="M497.86,59.15c2,3.15-2.77,16.11-4.4,19.85-.54,1.23.04,2.44-1.94,1.99-4.3-2.2-2.8-20.33,2.53-22.53,1.02-.42,3.46.13,3.82.69Z"/>
  <path class="cls-13" d="M516.99,68c2.92,5.21-12.62,17.69-15.48,17-1.34-.32-1.48-1.71-1.1-3.07.93-3.32,13.46-17.14,16.58-13.93Z"/>
  <path class="cls-26" d="M504.66,92.16c3.64-1.17,19.9,2.09,18.34,7.31-1.47,4.91-20.83-2.16-19.99-5.95.09-.42,1.09-1.17,1.65-1.35Z"/>
  <path class="cls-21" d="M569.72,438.28c.63.63,1.75,3.27,1.28,3.72-2.94-.47-22.97-3.65-22.98-5.49,3.38-6.67,18.1-1.84,21.7,1.78Z"/>
  <path class="cls-26" d="M569.61,418.05c4.14-1.21,12.03,11.01,12.27,13.6.9,9.53-20.34-11.23-12.27-13.6Z"/>
  <path class="cls-17" d="M582.53,412.01c6.98-2.08,7.04,20.89,2.97,20.97-2.25.04-2.4-13.42-4.47-15.55l1.5-5.42Z"/>
  <path class="cls-1" d="M354.41,457.65c7.72-1.18,9.26,12.02-.25,11.92-8.01-.08-5.79-11,.25-11.92Z"/>
  <path class="cls-23" d="M734.39,422.69c9.96-3.01,9.67,11.94.76,11.69-7.33-.2-6.79-9.87-.76-11.69Z"/>
  <path class="cls-5" d="M349.68,443.49c.58.45,1.16.93,1.63,1.5,2.92,3.55,3.4-.56-1.63-1.5.77-1.07-.19-6.56,6.01-3.51,5.82,2.87-.14,14.55-6.37,10.41-6.49-4.31.02-6.42.36-6.9Z"/>
  <path class="cls-5" d="M360.68,479.49l-1.62,1.57c-4.42-2.64-4.41,3.95-.41.43l2.03,1c-.82,4.34-5.35,5.28-9,3.5-7.39-3.61,6.96-17.52,9-6.5Z"/>
  <path class="cls-18" d="M360,486c.12.67.13,2.33,0,3-6.09,4.65-7.95,1.02-5.98-4.98l5.98,1.98Z"/>
  <path class="cls-9" d="M255.68,480.5c2.73-.19,5.56-.61,8.22-1.29,3.52-.91,5.06-4.37,7.76-.22.04,1.48-14.59,6.32-15.98,1.51Z"/>
  <path class="cls-19" d="M476.68,89.49c3.03,1.68,4.62,5.02,4.77,10.02.34,26.02-.73,51.98-3.21,77.9-.11,7.4-2.3,13.42-6.56,18.08-.15.29-1.93.8-2.48,2-.62,1.34-.39,3.85-.52,4.02-.21.27-4.88-1.55-6.54.94-1.23,1.86.15,6.14-.55,6.95-.31.35-3.11.32-4.24,1.01-5.84,3.58,5.69,19.74,4.19,25.36-.45,1.68-4.47,4.43-5.83,6.25-5.35,7.15-5.47,13.76-5.03,22.47-2.98-.13-11.41,1.35-13.06,3.7-3.68,5.24-6.38,40.29-8.44,40.32-7.58-28.42-36.79-51.91-67.04-42.05-7.32,2.39-16.11,8.52-18.47,16.04-23.61-22.5-65.97-13.75-80.51,14.98l-5.47,13.01c-2.51-7.78-4.59-32.76-13.72-34.78-2.68-.59-14.99-.18-16.2-1.3.06-4.27-2.72-11.51-2.11-15.36.38-2.38,3.11-3.58,4.23-5.85,1.24-2.52,1.49-5.64,2.94-8.06,4.02-6.72,9.64-3.17,14.77-6.23,6.9-4.11.38-8.18.41-9.9.02-1.23,2.98-2.53,1.16-6.49-.99-2.16-4.65-3.4-5.21-4.3-.68-1.1-.25-2.74-1.7-4.8-1.32-1.87-4.27-3.68-6.57-3.94-.19-1.68,2.28-.85,2.89-2.6,2.65-7.59-8-7.44-11.9-8.39-.74-.88-1.45-1.78-2.04-2.75s-1.14-1.9-1.39-2.91c-4.12-16.47-7.26-33-10.24-49.7-.77-4.3-5.64-39.78-1.4-44.02,3.15-3.15,16.79-4.47,21.48-4.49,34.1.81,67.96.43,101.6-1.13,46.59-.83,95.6-6.1,142-4Z"/>
  <path class="cls-19" d="M375.67,322.49c2.73,10.95,11.18,14.68,21.06,17.66,2.96,32.29-10.54,85.18-51.58,82.38-38.17-2.6-57.16-48.24-54.33-81.9,13.07-2.13,24.51-8.69,31.37-20.12,10.16,12.2,31.63,14.11,45.2,7.18,1.74-.89,7.01-6.12,8.28-5.2Z"/>
  <path class="cls-19" d="M226.68,204.5l-10.32,5.16-5.67,5.82c5.81.27,10.62-3.11,16.5-3.07,2.58.01,7.04.58,8.49,3.07-5.85-.37-16.03.89-20.36,5.14-3.26,3.21-1.38,5.3,2.78,4.86,6.68-.71,17.5-8.89,24.59-1-8.72-.72-20.44,1.67-24,10.49,3.74,4,8.88-1.74,13.19-2.79s10.37-1.92,12.82,2.3c-5.76,1.02-11.44.64-15.65,5.36-3.02,3.39-3.01,8.75-5.49,12.01-1.71,2.25-6.64,3.99-7.42,5.61-1.42,2.95,3.98,5.03,6.56,3.04-2.09,3.68.13,7.83-1.95,11.54-2.57,4.58-11.33,4.52-16.05,4.46-.46-15.12-5.51-30.81-6.87-45.62-1.73-18.86,10.83-28.33,28.87-26.37Z"/>
  <path class="cls-19" d="M479.69,207.49c9.62,5.55,8.52,26.84,23.33,16.84,2.97-2.01,4.16-5,6.37-7.57.58-.68.67-2.84,2.28-.79-2.36,17.16-16.03,20.06-26.9,29.1-9.38,7.8-7.62,10.23-9.07,20.95-.2,1.51.56,1.59-1.5,1.47-10.31-.6-18.87-2.6-17.53-14.53.83-7.4,9.12-11.2,10.02-16.01,1.01-5.44-6.86-20.49-5.99-21.46,2.18-.51,2.22,1.22,3.2,2.29,4.95,5.33,6.32,13.73,12.78,17.71-.84-10.24-8.57-18.3-9.98-28,5.54,1.43,13.42,22.24,15.58,22.92,4.35,1.37,3.64-5.42,3.17-8.18-.88-5.16-5.45-9.4-5.75-14.73Z"/>
  <path class="cls-2" d="M334.68,93.49c-1.57,1.28-4.61,1.62-6.63,1.87-31.76,4.04-63.19-.77-94.86,1.14-4.07.25-18.51,1.49-20.58,4.42-1.36,1.93-.23,19.39.09,23.06,2.21,25.26,8.02,49.99,13.99,74.51-6.06-1.47-7.56-8.47-8.7-13.8-3.99-18.58-11.4-66-10.36-83.74.44-7.51,4.83-7.03,11.52-7.51,36.75-2.62,78.1.71,115.54.04Z"/>
  <path class="cls-2" d="M476.68,89.49c1.95.09,3.93-.28,5.86.14.67,1.35,1,2.85,1.14,4.35,1.87,19.62-1.8,48.66-3.04,68.97-.59,9.66,2.44,28.84-8.96,32.54,5.3-10.51,6.37-36.97,7.04-49.46s1.93-32.27.99-44.08c-.35-4.36-1.57-8.4-3.04-12.46Z"/>
  <path class="cls-25" d="M285.66,341.54c-1.77,6-.75,11.68-.22,17.71s-5.97-1.05-7.19-2.82c-5.52-8-4.55-19.52,7.41-14.89Z"/>
  <path class="cls-20" d="M402.69,359.49c.38-6.75-.62-13.42-2.01-19.99,13.31-.49,10.82,15.02,2.01,19.99Z"/>
  <path class="cls-14" d="M754.68,311.48c-4.04-.61-7.2,5.72-2.49,6.07,2.32.17,4.7-2.18,7.99-2.17,2.83.01,4.33,1.52,6.16,1.73,7.35.82,13.36-.26,20.33-2.62-.69,6.77,3.47,11.56,9.32,14.18,1.95.88,7.65,1.91,8.25,2.75,1.46,2.06-2.03,23.19-3.05,27.07-9.11,34.74-42.79,59.52-77.87,41.85-36.72-18.51-25.87-58.54-16.68-90.44,14.38,2.67,28.66-5.54,37.54-16.39.69,0,4.56,9.56,5.66,11.31s5.83,5.29,4.83,6.65Z"/>
  <path class="cls-11" d="M807.69,359.49c.14-3.28,1.44-6.39,1.87-9.62.58-4.35.25-12.07,1.08-15.71.56-2.44,8.7-3.93,11.48.39,6.43,9.97-5.73,21.59-14.43,24.94Z"/>
  <path class="cls-11" d="M692.67,342.49c-7.68-4.34-9.5-29.33,1.41-28.95,9.43.33,3.35,7.3,1.88,12.73s-2.76,10.73-3.29,16.22Z"/>
  <path class="cls-22" d="M460.68,469.5l-12.68,2.8-8.31,6.18c.66-10.69,12.76-12.01,20.98-8.99Z"/>
  <path class="cls-21" d="M356.99,467.01c.01,1.34.28,2.78-.48,4.01-1.95,3.17-8.82-4.89.48-4.01Z"/>
  <path class="cls-10" d="M737.76,432.26c3.22,3.12-3.6,9.53-6.32,5.78-1.75-2.42,2.59-9.39,6.32-5.78Z"/>
  <path class="cls-18" d="M349,450c.88-2.08,6.37-.44,5.93,2.37-.72,4.58-7.97,2.48-5.93-2.37Z"/>
  <path class="cls-8" d="M448.99,240.01l-7.99,3.5c-32.13,5.47-65.03,4.72-97.55,5.45-24.82.56-55.54,3.34-80.01,1.09-4.91-.45-11.13-4.94-4.95-6.04,4.4-.78,11.18.28,16.04.04,50.33-2.51,101.46-2.65,151.92-4.08,7.49-.21,15.05.23,22.54.05Z"/>
  <path class="cls-15" d="M317.74,151.24c23.25-3.76,27.65,31.25,7.52,34.52-22.81,3.7-27.51-31.28-7.52-34.52Z"/>
  <path class="cls-15" d="M380.01,167c-.89,4.09,1.68,8.62.99,12.45-.77,4.24-5.6,4.79-6.78.83-1.01-3.39-2.32-24.42-.29-25.85,7-4.92,15.31,17.66,22.07,18.56,2.08-2.42-3.08-19.26-2.04-23.32.35-1.38,3.22-1.8,4.59-.78,5.58,4.17,9.2,40.63-7.87,29.94-4.66-2.92-6.64-8.37-10.66-11.83Z"/>
  <path class="cls-15" d="M284.99,159c-.85-.78-8.32,6.26-9.91,1.38-2.18-6.67,21.68-16.86,23.76-9.68,1.9,6.54-7.28,2.94-7.84,5.83-1.06,5.37,15.97,16.81,9.42,28.39-6.17,10.91-27.34,2.06-24.3-7.26,1.91-5.85,8.52,4.35,12.63,5.15,15.83,3.11-4.37-18.91-3.76-23.81Z"/>
  <path class="cls-13" d="M351.69,151.11c6.26-1.55,3.97,11.71,4.32,15.38s2.88,12.77,1.08,15.08c-6.17,7.94-7.94-13.22-8.08-16.08-.17-3.39-1.21-13.42,2.68-14.38Z"/>
  <path class="cls-3" d="M340.13,361.15c1.42-2.35,4.38-.37,5.71,1.52,1.58,2.24,9.11,17,9.72,19.31.35,1.34.97,2.56-.52,3.56-6.14,4.13-9.25-14.04-11.57-14.55-1.19-.27-3.25,2.34-5.18,2.8-4.15.97-16.93-1.06-18.23-5.42-.45-1.51,1.25-4.07,2.43-4.15,1.92-.13,7.38,6.71,14.56,4.33,4.9-1.62,1.97-5.56,3.09-7.41Z"/>
  <path class="cls-17" d="M335.75,345.26c6.37,6.41-10.39,5.59-12.2,5.79-2.27.24-7.15,4.34-8.45-.74-1.41-5.5,15.58-10.14,20.65-5.04Z"/>
  <path class="cls-13" d="M349.01,361.01c2.23-2.24,11.46,7.51,16.01,2.51,1.48-1.63.61-6.73,4.47-5.5,1.54.49,1.63,3.05,1.57,4.47-.38,9.15-14.72,9.38-20.12,4.08-1.16-1.14-3.06-4.43-1.94-5.55Z"/>
  <path class="cls-13" d="M349.31,344.29c3.95-4.46,19.39-5.19,18.76,2.19-.38,4.44-7.05,1.23-10.55,1.49-2.27.16-5.64,2.09-6.89,1.84-2.71-.54-2.97-3.66-1.33-5.51Z"/>
  <path class="cls-26" d="M341.62,398.08c3.54-1.1,4.41,2.66,6.9,2.94,2.82.32,11.53-6.4,11.53-.51,0,4.52-9.87,6.02-13.49,5.44s-9.26-4.98-4.94-7.86Z"/>
  <path class="cls-15" d="M726.83,348.82c1.35-.78,7.27-14.48,8.69-14.81,1.95-.45,4.3,3.35,3.32,5.24-2.58,3.15-14.73,27.72-16.34,27.73-3.81.03.26-11.14,1.5-12.97-8.83,1.56-11.95-16.96-7.02-19.53,5.28-2.75.68,11.25,6.02,14.02,1.06.55,2.75.94,3.83.32Z"/>
  <path class="cls-3" d="M766.97,339.03c2.19,1.53-1.83,7.68-3.14,9.3-9.15,11.32-24.04,8.87-20.8-7.8.82-4.23,5.08-4.31,5.73-.91.43,2.25-3.29,9.83,2.78,10.41,7.35.7,10.85-14.18,15.43-10.99Z"/>
  <path class="cls-21" d="M732.03,382.03c.71-1.07,8.19.43,10.29-.21,2.32-.71,2.71-4.23,4.28-4.72,4.05-1.26,4.12,4.04,1.84,6.85-5.53,6.83-20.18,3.75-16.41-1.92Z"/>
  <path class="cls-16" d="M739.97,322.97c-1.27,1.87-9.19-1.76-11.56-1.89-2.56-.14-8.95,3.19-7.47-3.48.81-3.67,23.5-1.22,19.03,5.37Z"/>
  <path class="cls-25" d="M329.33,170.13c-11.04,11-23.34-11.02-13.05-17.55s21.44,9.19,13.05,17.55Z"/>
  <g>
    <path class="cls-4" d="M156.37,390.76c1.35,1.35,1.38,5.32,1.25,7.23-.12,1.7-3.27,15.61-3.94,16.1-4.09,2.93-17.69-4.89-19.94-9.19-4.53-8.66,4.08-12.25,10.86-7.38-.72-5.96,7.55-10.97,11.77-6.76ZM148.6,409.53c-.75-2.76,7.1-15.02,2.49-16-3.09-.66-4.01,7.63-4.5,7.99s-7.77-3.45-9.98-1.99c-1.78,4.34,10.87,11.01,11.99,10Z"/>
    <path class="cls-12" d="M148.6,409.53c-1.11,1.01-13.76-5.66-11.99-10,2.21-1.46,9.48,2.36,9.98,1.99s1.41-8.65,4.5-7.99c4.61.98-3.25,13.24-2.49,16Z"/>
  </g>
  <g>
    <path class="cls-4" d="M857.21,413.86c.66.51,13.74-5.1,11.96,5.46-.47,2.77-13.8,11.69-15.36,11.39-5.96-1.14-11.09-23.49-1.31-22.63,4.04.36,4.23,5.41,4.71,5.78ZM854.06,412.98c-.37-.24-2.91-.57-2.9.47-.31,3.98.43,8.06,2.56,11.46,2.25.38,9.71-5.77,10.44-7.55,1.46-3.53-6.12.79-7.33.43-2.09-.61-2.31-4.52-2.77-4.81Z"/>
    <path class="cls-12" d="M854.06,412.98c.46.29.67,4.2,2.77,4.81,1.22.35,8.79-3.96,7.33-.43-.74,1.78-8.19,7.93-10.44,7.55-2.13-3.4-2.87-7.48-2.56-11.46,0-1.04,2.53-.71,2.9-.47Z"/>
  </g>
</svg>