<?xml version="1.0" encoding="UTF-8"?>
<svg id="Layer_1" data-name="Layer 1" xmlns="http://www.w3.org/2000/svg" viewBox="0 0 1040 1040">
  <defs>
    <style>
      .cls-1 {
        fill: #a3a1a1;
      }

      .cls-2 {
        fill: #c7c6c6;
      }

      .cls-3 {
        fill: #252122;
      }

      .cls-4 {
        fill: #bfbebe;
      }

      .cls-5 {
        fill: #b6b4b5;
      }

      .cls-6 {
        fill: #2c2729;
      }

      .cls-7 {
        fill: #b1afb0;
      }

      .cls-8 {
        fill: #cecdcd;
      }

      .cls-9 {
        fill: #e2e2e2;
      }

      .cls-10 {
        fill: #231f20;
      }

      .cls-11 {
        fill: #333030;
      }

      .cls-12 {
        fill: #d82f87;
      }

      .cls-13 {
        fill: #7f7c7d;
      }

      .cls-14 {
        fill: #d7d6d6;
      }

      .cls-15 {
        fill: #262223;
      }

      .cls-16 {
        fill: #eee;
      }

      .cls-17 {
        fill: #d2d1d1;
      }

      .cls-18 {
        fill: #242021;
      }

      .cls-19 {
        fill: #bcbbbb;
      }

      .cls-20 {
        fill: #898788;
      }

      .cls-21 {
        fill: #6c6a6a;
      }

      .cls-22 {
        fill: #959494;
      }

      .cls-23 {
        fill: #dcdcdc;
      }

      .cls-24 {
        fill: #e4e4e4;
      }

      .cls-25 {
        fill: #fefefe;
      }

      .cls-26 {
        fill: #8f8c8d;
      }

      .cls-27 {
        fill: #fdfdfd;
      }

      .cls-28 {
        fill: #f3f3f3;
      }
    </style>
  </defs>
  <path class="cls-10" d="M419,441l1.01-45.99c3.02-.49,1.6.74,2.02,2.43,2.02,8.14,2.67,21.4,3.02,30.03,2.23,55.55.6,111.48,1.92,167.08,2.88,121.87,9.76,244.1,11.08,365.92.05,4.48-2.27,22.22-.06,24.06,2.44,2.03,12.12,1.24,9.51,6.49-5.22-.61-12.3,2.19-15.08-3.46l-2.42-75.54c-4.48.65-10.08,1.76-14.5,1.99-66.22,3.36-132.8-2.38-198.94-3.04-12.9-.13-25.49,1.76-38.4.19l-6.02,70.28c.51,2.07,6.98,1.65,9.68,2.28,1.13.26,4.72.92,4.19,2.78-1.77,3.69-14.89-.8-17.98,3.52-.07-10.42-.44-21.09-.05-31.54,3.8-101.82,13.42-206.12,21.03-307.97,6.52-87.32,12.25-174.96,22.02-261.98,1.67-14.88,4.18-29.67,6-44.51,3.84-1.11,1.18,5.19,1.99,6.01,1.55,1.56,38.65-.84,44.01-.5,6.79-8.95,12.9-18.38,19.6-27.4,8.25-11.12,13.67-18.26,20.93-30.07,1.01-1.64,9.64-9.3,10.95-9.03,3.16.64-1.69,7.74-2.66,9.32-6.13,10.05-15.39,19.21-22.24,28.76-12.11,16.89-25.53,36.24-35.76,54.24-2.3,4.04-10.14,22.22-12.25,23.74-1.04.75-3.98,1.48-4.57.92-2.75-2.6,18.1-38.03,20.99-42.98l-39-1.01c1.03,28.17-5.03,55.9-6,84.01,4.94.68,9.64-1.07,14.5-1.07,4.51,0,16.19,3.22,18.96-.98l8.52-27.53c-.11-3.65-9.67-3.51-10.02-9.91-.08-1.53-.12-1.78,1.53-1.53,4.7.71,12.99,5.87,18.49,7.52,7.28,2.18,17.93,4,25.52,4.48,12.62.8,60.64-4.02,67.91.89,3.45,2.33-3.2,24.54-3.42,29.12h64Z"/>
  <path class="cls-10" d="M849,706c.84,1.17,2.64,1.28,3.04,3.52,1.37,7.65-8.43,14.6-14.87,16.64.37,12.4,2.85,24.91,3.82,37.35,4,51.07,7.01,104.92,8.05,155.95.27,13.29.5,27.49-1.04,40.54h-31c.53,2.19,1,4.14,1.05,6.45.11,4.25-.48,11.81-1.06,16.04-.55,3.96-.55,8.69-3.99,11.01l3,2.49c-29.61,4.54-60.12,5.12-90,3-.56-2.28.89-2.34,2.73-2.72,3.94-.82,9.16-.88,13.26-1.28-4.03-8.38,7.69-12.9,14.02-15.48s13.28-5.05,19.98-4.51c-1.87,5.67-28.9,12.78-28.98,15.49-.04,1.43,3.38,1.47,4.44,1.54,4.64.35,11.39.27,16.09,0,2.61-.15,13.04-1.27,14.71-2.05,2.43-1.13,8.38-21.63-2.84-22.98-16.01.99-32.29,4.5-48.24,3.33-.91-.28-2.95-1.02-3.16-1.85-.7-2.81,4.11-1.59,3.99-3.47-2.49.36-5.84-3.01-7.51-3.02-1.78,0-2.49,2.48-4.48,2v-23.48c8.02-67.58,26.51-133.99,25.99-202.51-4.66,1.69-9.05,1.6-4.03-3.54,14.9-15.26,76.16-30.59,97.53-30.54,3.39,0,6.62,1.97,9.51,2.08Z"/>
  <path class="cls-10" d="M763,462c-6.09-7.53-7.91-13.44-3.03-22.53,7.38-13.74,25.89-9.29,36.07-1.01,1.43,1.16,2.05,3.85,3.62,4.38,2.21.75,6.57-.02,9.58.42,5.86.87,14.12,5.57,17.76,10.24,1.62,2.07,6.15,11.73,7.13,12.43.4.28,3.53-1.03,5.25-.91,7.24.5,15.38,8.79,17.67,15.43,7.86,22.76-15.69,36.51-.86,60.86,9.38,15.39,19.31,22.17,17.84,43.23-2.03,29.04-32.97,46.42-54.63,23.53-12.42,7.57-36.85,12.52-42.47-5.51-2.72-8.75,3.29-16.11-.05-21.95-3.09-5.39-14.09-6.22-18.4-15.59-.96-2.09-1.03-5.62-1.75-6.75-.53-.84-5.2-2.77-6.64-3.86-17.13-13.02-31.6-31.02-42.26-49.73-3.43-6.03-13.45-24.47-14.77-30.24-.75-3.29,3.7-.23,4.8,1.21,5.13,6.7,9.83,19.45,14.72,27.28,11.11,17.79,26.72,36.1,43.93,48.07.46.15,2.89-7.96,3.49-8.99l-.86-2.41c3.87-5.71,9.09-10.46,15.05-13.93-1.42-2.45-.86-4.52,1.87-5.29,16.96-.42,15.83-10.31.17-12.86-7.98-4.93-5.64-13.18-.44-19.28-1.54-4.47-2.04-8.95-1.52-13.46-4.06,1.36-6.48-.78-7.26-6.42-3.14-2.15-4.48-4.26-4-6.35Z"/>
  <path class="cls-10" d="M423.01,165c2.73-.02,3.31-3.04,5.65-4.84,13.33-10.3,36.05-5.54,40.37,11.85,18.43-8.73,35.25,11.46,32.72,29.24-1.98,13.92-15.11,23.37-28.65,17.18-.94-.43-1.96-2.23-2.57-2.24-.43,0-7.23,4.02-7.52,4.34-.98,1.06-.77,2.95-1.15,3.3-.6.54-3.47.08-4.9.6-2.43.89-4.28,2.74-6.93,2.58-.7-1.41,1.18-4.81,1-4.98-.52-.5-11.5-2.4-13-6.01.49,8.57-8.25,22.28-17.53,15.02-2.51-1.96-4.6-7.6-6.47-8.52-11.26-5.53-12.83,17.01,1.99,15.51-2.7,8.69-15.44.46-16.01-6-23.62,28.76-57.6-16.94-21.99-29.01-12.72-25.66,13.58-47.31,37.99-36.99l-8.99-121.99c1.79-.4,1.97.53,2.83,1.66,4.46,5.82,4.35,24.32,5.17,31.83,3.17,29.13,5.37,58.34,8,87.51Z"/>
  <path class="cls-3" d="M735,451c4.86-1.16,6.94-.23,1.72,3.22s-21.49,5.36-23.63,8.38c-3.97,5.59,5.5,10.67,5.8,14.06.53,6.13-6.62-.71-8.3-2.73-8.48-10.25-8.16-17.03,6.42-18.93-2.45-4.53-4-9.97-8.65-12.84s-13.46-3.83-16.82-8.23c-.6-.78-.37-2.68-.58-2.88-.51-.49-13.23,2.69-13.77,3.15-.28.24-1.76,5.19-2.67,6.84-1.49,2.68-5.34,7.61-6.08,9.94-2.4,7.54,8.24,15.25,9.61,22,.83.77,9.28-2.69,11.22-3.19,1.32-.33,1.91-1.9,1.72.71-7.78,10.29-22.86,10.66-32.68,16.32-1.49.86-3.08,1.52-3.09,3.48-.02,3.45,9.24,24.59,11.75,26.25,1.34.89,2.85-.17,3.03-1.05.13-.66-8.13-10.2,2.27-8.34,8.53,1.53,9.68,16.96-.25,17.34,18.43,28.92,39.08,57.36,63.98,81.02,1.96,1.86,17.18,12.47,14.01,15.48-4.51.32-8.57-3.81-12.01-6.48-25.76-20.03-73.5-83.5-85.17-113.83-2.62-6.8-5.89-13.95,1.83-18.53,3.93-2.33,8.49-.56,5.59-6.89-7.42-16.22-31.99-10.46-41.71-23.96-6.51,1.04-27.43,9.7-32.58,8.28-1.9-.52-5.47-4.94-4.89-6.94l6.41-3.68,166.31-46.75c4.27-.56,7.77,4.46,5.31,8.11-1.45,2.16-12.55,3.24-13.01,3.74-.22.24-.05,4.08-1.19,6.32-3.12,6.14-15.67,12.61-17.88,20.62,1.31,2.26-1.01,3.37-2.77,2.21-5.66-3.73,3.73-17.43,8.19-19.88-9.26,6.22-19,11.94-30.57,8.86,9.53,3.9,16.84,7.03,20.07,18.02,4.73-.58,8.57-.03,13.08.79Z"/>
  <path class="cls-10" d="M233.99,213.99c3.87-.26,9.55,3.27,10.61,6.98.73,2.53-.63,4.09-.38,5.42.28,1.51,2.94,1.9,2.9,6.12-.03,3.05-1.75,4.01-1.94,5.19s2.11,2.64,1.83,5.69c-.53,5.77-11.37,8.63-13,5.09-.77-1.67,5.66-4.37,6.99-4.5-5.96-6.15-5.26-7.5,1.98-11.49-9.89-6.65-3.82-5.49-3.02-9.06,1.46-6.5-28.36-3.95-27.92,6.96.12,2.92,8.62,19.97,10.91,22.14,5.75,5.46,20.73,3.54,21.95,7.1,1.53,4.47-8.85,24.68-7.89,31.35,24.2-8.82,47.19-22.02,71.01-31.48,16.83-6.69,28.6-11.32,46.78-5.81,1.51.46,3.58,2.35,4.57,2.19,1.17-.2,5.07-5.44,7.68-6.34,10.14-3.49,17.99,10.79,26.3,14.4,2.61,4.16-1.8,3.53-5.06,2.27-5.79-2.23-11.66-12.85-20.25-7.68-3.79,2.28,1.11,6.44-8.58,3.51-8.44-2.55-12.21-6.71-22.81-5.94-22.5,1.64-66.08,27.52-89.66,36.36-5.37,2.01-11.23,5.23-16.98,3.52.82-12.1,3.63-22.75,8-33.98-4.43,1.38-19.85-2.67-22.07.68-1,1.51-3.02,8.31-3.95,10.8-3.35,8.94-12.88,35.8-11.9,43.94.35,2.92,6.07,14.65-.64,9.64-10.04-7.49.93-35.7,4.29-45.83,1.71-5.15,6.67-22.25,10.52-24.49,1.11-.64,3.61-.63,3.75-.76.87-.85-9.82-19.24-10.53-21.95-3.33-12.73,9.85-19.14,20.48-20.07,2.64-31.87,9.61-63.15,14.87-94.63,3.69-22.06,6.05-45.84,10.48-67.52.64-3.12.73-8.1,3.67-9.82,1.6,6.39.86,12.99,1.05,19.54-6.7,51.01-16.5,101.57-24.05,152.45Z"/>
  <path class="cls-2" d="M763,462c1.36,1.68,4.6,3.18,5.88,5.62,1.99,3.8-.67,6.35,5.12,5.38v-5s5,1,5,1c-.65,3.08-2.58,3.85-3.02,7.47-.55,4.52,1.97,10.97,1.82,11.85-.51,3.07-5.58,5.09-4.61,11.91,1.51,10.59,17.97,3.67,16.89,15.28-.69,7.44-9.81,5.45-14.1,6.97-3.25,1.16,2.73,2.43,2.01,3.5-6.74,2.91-14.35,9.72-18,16.01-4.72-.67-9.73-2.95-14-5l.89-1.83c-9.17-5.72-13.68-11.96-14.93-22.82-.92-7.97-.89-15.8,8.71-16.23-2.43.15-4.5.03-5.51-2.55-2.23-5.69,19.17-24.52,23.84-28.57,1.58-.66,3.24-1.28,4-3Z"/>
  <path class="cls-10" d="M455,270c6.25-5.64,12-18,12-26.5v-19.5c5.08,2.3,3.96,8.4,5.25,12.25,1.67,4.96,7.87,18.8,6.1,23.48-1.43,3.79-8.8,1.2-11.37,2.76-.91.55-2.98,5.68-4.46,7.54-8.28,10.43-24.77,15.34-37.52,11.98.07,2.48-.18,5,0,7.49.44,6.02,1.38,18.93,2.83,24.17,3.73,13.46,42.59,41.29,55.49,48.51,5.78,3.24,19.71,8.18,23.63,11.37,2.92,2.38,2.95,5.75-.98,5.05-5.48-.98-18.59-8.06-23.99-11.07-22.6-12.6-45.98-31.96-60.79-53.21-2.21-3.16-14.13-21.82-12.18-24.31,2.75-.45,8.1,9.66,8.98,9,1.3-6.06,2.88-14.57-2.48-19.01-1.82-1.51-16.49-7.55-12.51-11.98.56-.62,12.93,6.74,15.02,7.47,12.73,4.5,26.75,3.75,36.98-5.48Z"/>
  <path class="cls-10" d="M560,397.99c5.82.74,22.97,3.46,19.9,12.37-.82,2.38-3.38.97-4.89,2.13,3.06,2.29,6.07,4.32,5.06,8.85-.82,3.7-13.28-.63-16.07-.33,12.42,9.4,2.67,14.6-7.99,7.99-.76.96,6.98,11.02.27,12.86-5.86,1.61-16.49-14.61-22.35-18.29-2.82-1.77-11.44-4.18-11.8-4.7-.53-.78.03-2.73-.14-3.86,13.93-.39,20.21,10.42,28.48,19.01,5.25,5.45,3.09-.04.74-3.74-2.08-3.28-6-5.75-6.22-9.27,2.24-3.25,15.38,7.07,18.99,5.49-4.53-4.93-12.83-6.14-15.99-11.99,1.02-5.02,18.59,3.7,21.99,1.99-4.56-4.16-12.41-4.15-17.61-6.33-1.8-.76-1.39-1.22-2.37-2.68.23-4.21,20.01,1.1,22.97.5l-1.99-2.45c-2.69-2.47-18.52-3.18-19-5.07-.92-3.63,10.9-10.62,8.99-12.47-7.98,2.52-14.97,8.5-23.66,8.92-3.65.18-13.13-2.42-15.3-1.47-5.65,2.5-11.32,17.06-17.03,20.54-.08-6.9,5.52-12.83,8.17-19.32.94-2.31,2.06-9.32,3.36-9.67,10.34,5.12,17.58,6.56,28.72,2.75,4.47-1.53,17.32-10.63,20.26-4.76s-6.04,12.47-5.51,12.99Z"/>
  <path class="cls-18" d="M511.99,381c.25,3.3-1.12,6.16-2.45,9.04-1.52,3.29-13.9,25.08-15.51,26.49-5.27,4.64-19.82-1.85-25.71-4.36-19.8-8.43-45.39-26.14-61.34-40.66-2.55-2.32-15.8-14.29-12.98-17.51,2.2.33,4.76,2.61,6.47,4.02,16.67,13.8,30.63,27.05,49.61,38.39,6.42,3.84,26.13,14.79,32.65,15.36,11.21.98,14.93-15.22,20.46-23.1,2.16-3.09,4.67-7.49,8.81-7.68Z"/>
  <path class="cls-18" d="M732.01,738c-.25-.21-.98-5.4-1.05-6.46-1.68-24.49,7.51-47.83,9.03-72.05.72-11.52-.9-22.83-1.03-33.95-.06-5.11,1.56-4.8,3.9-.89,10.31,17.27-5.51,75.94-6.84,97.86-.26,4.37,2.06,11.33-.55,14.46-.86,1.03-2.77,1.6-3.45,1.03Z"/>
  <path class="cls-18" d="M849,706c-8.77-12.32-15.47-30.76-20.29-45.21-1.22-3.66-2.8-13.48-4.21-15.8-1.24-2.05-4.81,2.31-7.78,1.86-8.6-1.32-9.8-16.27,1.73-12.91.37.11.87,5.5,3.54,3.06.41-.37-2-9.03-.99-10.99,1.87.67,3.17,1.51,4.22,3.27,3.06,5.1,4.47,17.15,6.5,23.5,4.07,12.71,9.48,26.83,15.09,38.91,1.71,3.69,11.02,14.65,2.18,14.32Z"/>
  <path class="cls-18" d="M759,465c-1.49,6.28-8.17,9.24-12.51,13.99-2.34,2.56-8.6,10.57-9.46,13.55-.77,2.68,3.99,1.09,5.47,1.46,1.63,7.59-7.47,1.54-8.39,8.58-1.13,8.68.23,18.82,6.51,25.31,1.99,2.06,7.43,4.69,8.27,6.73,1.17,2.85-.96,2.58-2.88,2.38-18.21-8.74-20.32-27.11-13.48-44.98.74-1.94,4.3-7.1,4.3-7.53,0-.78-4.55-3.47-3.87-7.96s12.68-5.25,16.35-6.73c3.24-1.31,5.81-3.18,9.7-4.8Z"/>
  <path class="cls-3" d="M228.5,332c13.54-1.37,31.32-11.17,43.52-17.48,1.15-.6,18.61-12.67,16.97-5.04-1.08,5.02-39.83,22.62-46.48,24.54-9.49,2.73-29.73,7.78-36.51-1,1.02.3,2.15-1.01,2.5-1.01,6.27,0,13.98.61,20,0Z"/>
  <path class="cls-18" d="M366.98,409c-.47.3-2.35.07-3.04-.44-1.62-1.2-.19-13.28.17-15.94,1.79-13.3,7.45-30.16,12.14-42.86,3.22-8.74,7.05-19.59,12.74-26.75,1.15,10.59-5.2,19.61-8.28,29.21s-6.31,19.59-8.64,29.36c-1.02,4.27-3.91,26.68-5.09,27.42Z"/>
  <path class="cls-22" d="M735,451c-2.15.51-13.78,1.85-14.89.88-.49-.43-2.25-8.06-6.08-11.41-2.74-2.4-16.96-7.54-17.01-8.97-.11-2.98,8.77-.5,10.44-.46,14.02.34,20.45-9.24,32.53-14.04.44,1.88-1.05,2.38-1.99,3.5-5.59,6.67-14.89,11.09-12.99,21.5l1.99-1.01c1.14,3.66,3.49,10.4,8,10Z"/>
  <path class="cls-3" d="M817.99,684c-12.08,12.62-11.51-13.07,3.06-8.54,10.5,3.27-1.64,22.51-3.06,8.54Z"/>
  <path class="cls-3" d="M723.01,576c6.37,2.22,2.84-.96,4.91-2.57,4.92-3.85,13.18,10.12,3.37,12.36-7.78,1.78-10.01-3.05-8.28-9.79Z"/>
  <path class="cls-15" d="M767.73,675.75c-2.42,2.57-8.38,3.16-10.63-.35-1.98-3.09-2.11-8.71,2.89-6.4-1.69-4.09-.44-6,4.06-4.56,4.25,1.36,6.77,8.03,3.68,11.31Z"/>
  <path class="cls-15" d="M453.24,231.25c3.93-4.36,3.73,4.56,4.51,6.5,1.16,2.89,8.54,5.67,5.28,7.78-5.89,3.81-13.98-9.64-9.79-14.28Z"/>
  <path class="cls-11" d="M455,270c-.1.14-2.86.81-3.35.74-4.4-.58-7.38-8-3.69-10.28,4.92-3.05,3.02,3.81,3.47,4.53.54.87,5.39,2.4,3.56,5.01Z"/>
  <path class="cls-25" d="M427,817l2.99,89c-7.13-1.49-15.16-1.22-22.54-1.04-58.82,1.43-117.16-.5-175.9-1-17.86-.15-35.93-.75-53.54,2.04l5.99-90c17.49.29,35.05-.35,52.54-.04,32.79.59,66.1,2.7,98.91,3.09,30.52.36,61.17.43,91.55-2.05Z"/>
  <path class="cls-25" d="M425,722l1.99,89c-8.32-2.64-17.25-.12-25.45.05-68.1,1.44-138.56-4.48-206.1-1.1-3.77.19-7.87.9-11.44,2.05l5.99-91,109.55.96c2.36.04,4.55,1.04,6.92,1.08,39.47.7,79.12,2.36,118.54-1.05Z"/>
  <path class="cls-25" d="M243,696.5c2.4-8.55,31.5-8.44,34.45-13.55l10.12-54.99c32.68.32,65.28.92,97.97,1,10.53.02,21.22,1.39,31.9-.02,1.83-.24,2.99-1.23,4.55-1.94.19,29.39,2.32,58.64,2.02,88h-127.01c2.04-13.93-24.7-17.76-34.27-15.78-1.11.23-5.12,2.02-2.74,3.3,2.85,1.53,14.56,1.84,19.05,2.95,1.44.36,13.39,4.59,11.97,6.52-15.89,3.63-31.92.62-48,1.01.79-4.44-1.08-12.66,0-16.5Z"/>
  <path class="cls-25" d="M346,540.01c1.86,1.76-18.03,41.83-16.82,48.27,1.22,4.34,8.48,4.35,8.83,4.74.99,1.1-7.9,24.29-5,29h-44s16.13-82.87,16.13-82.87c13.59-.41,27.42,2.99,40.86.87Z"/>
  <path class="cls-25" d="M420,540l2,84.5c-1.26,1.66-1.56-2.5-2.5-2.5h-34.5c-.23,0,.21-2.6-.94-4.54-4.61-7.75-21.83-10.18-30.05-10.95,1.47-1.48,4.26-9.12,5.7-9.52,4.47-1.25,12.94,2.61,18.14.85l19.16-57.84h23Z"/>
  <path class="cls-25" d="M237,714c-15.35.2-30.86-.94-45.99,2l5.99-88,25.01,1c-.11,17.36,1.01,34.76,2.43,52.07,1,6.04,8.73,4.88,12.57,8.43v24.5Z"/>
  <path class="cls-25" d="M399,533c1.49-9.47,7.07-23.05,5.91-32.41s-22.29-28.96-29.9-36.1c-2.31-2.17-17.97-14.78-17.99-15.99-.07-3.42,15.99-.51,18.44-.46,10.62.24,21.58.98,32.04,1.05,3.81.03,7.55-1.74,11.5-1.1l1,85h-21Z"/>
  <path class="cls-25" d="M244,446l-14.94,85.39c-.74,2.87-21.4-.5-25.06.61l8-86h32Z"/>
  <path class="cls-25" d="M228,539.01l-5.99,83c-8.38.06-16.72.25-25-1.01l6.14-81.34c.34-1.27,1.21-1.53,2.38-1.7,3.17-.45,12.07,1.99,15.97,2.05,2.13.04,4.26-1.42,6.5-.99Z"/>
  <path class="cls-25" d="M307,533l12.49-44.99c5.16,4.51,10.31,8.97,15.03,13.98,3.05,3.24,16.26,18.28,16.37,21.47.03,1-1.31,6.16-1.78,7.14-2.51,5.13-10.41,2.36-14.56,2.36-9.18,0-18.37.1-27.54.05Z"/>
  <path class="cls-27" d="M353,598.01c1,1.13-3.65,11.25-5,12.98,10.26,1.63,23.58.57,31,9-13.24,2.13-27.64-.32-40.88-2.11-.56-.89,3.13-20.17,4.01-20.74,1.9-1.22,8.36.69,10.86.87Z"/>
  <path class="cls-25" d="M812.26,958.77c1.69,2.89,1.2,5.79.62,10.6-.42,3.53-2.34,15.48-4.39,17.61-2.87,2.98-15.02,2-19.5,3.5,2.06-8.05,3.75-16.1,3.01-24.49.55-.52,13.25-.45,15.02-1.48s2.79-10.36,2.98-13.02c2.64-36.94-1.06-80.57-2.03-117.95-.41-15.87.4-31.77-1.95-47.54,7.42,2.06,4.65,14.21,5,20.48,2.45,42.89,4.22,89.07,3.03,132.05-.08,2.96-2.3,19.36-1.78,20.23Z"/>
  <path class="cls-16" d="M844.01,601c2.07-7.1.53-13.09-1-20,5.35,4.71,7.07,15.24,1,20Z"/>
  <path class="cls-28" d="M827,571c2.91,4.75,6.92,8.93,4.99,14.99l-5.99-13.99c-.33-1.3-.28-1.6,1-1Z"/>
  <path class="cls-23" d="M818.01,595l1.98-13.99c1.57,4.55,2.72,10.79-1.98,13.99Z"/>
  <path class="cls-9" d="M855.99,591.99l-4.98-16.99c5.12,4.25,5.45,10.9,4.98,16.99Z"/>
  <polygon class="cls-24" points="802.01 597 801.01 584.01 804.05 593.54 802.01 597"/>
  <path class="cls-8" d="M853,610.99l-10.99,2c.95-1.48,6.2-3.92,7.58-4,1.55-.09,3.03.3,3.41,2Z"/>
  <polygon class="cls-4" points="810.99 458.01 807.63 458.88 796.01 457.01 810.99 458.01"/>
  <path class="cls-7" d="M764.99,564c-4.27-3.04-2.74-9.54-2.98-13.99l2.98,13.99Z"/>
  <path class="cls-13" d="M764.99,455c-3.93-2.47-2.82-7.37-1.98-10.99l1.98,10.99Z"/>
  <path class="cls-14" d="M841.99,504c-.82.93-7-5.87-5.98-7,1.24.92,7.9,4.83,5.98,7Z"/>
  <path class="cls-21" d="M809.99,448.01c-.55,1.74-6.16,1.16-7.51.99-1.46-.19-3.1-.76-1.48-2l8.99,1Z"/>
  <path class="cls-17" d="M844.99,482c-2.94-1.59-4.84-2.12-3.98-6l3.98,6Z"/>
  <path class="cls-1" d="M811.99,555.01l-.98,6.99c.25-2.08-3.16-7.72.98-6.99Z"/>
  <path class="cls-19" d="M796.99,491c-.84-.16-2.14-1.33-2.49-2-2.55-4.89,3.76-3.53,2.49,2Z"/>
  <path class="cls-26" d="M827,571l-1,1-2.99-7c2.35,1.01,2.79,4.04,3.99,6Z"/>
  <path class="cls-20" d="M772.99,561c-2.05-.66-1.74-5.24-1.98-6.99,2.81.96,1.94,4.55,1.98,6.99Z"/>
  <path class="cls-2" d="M672,471.99c-9.63,3.48-6.78-.16-11.96-5.53-8.11-8.41-20.04-7.89-29.73-12.27-2.15-.97-5.5-2.35-5.31-5.18,10.75-2.16,22.77.41,32.9-4.61,4.32-2.14,8.09-6.89,13.09-8.4,1.01,1.11-6.49,11.07-7.22,13.26-2.97,8.93,3.86,15.78,8.23,22.73Z"/>
  <path class="cls-5" d="M719,423.01c-.82,1.58-5.43,3.3-6.97,3.6-1.86.36-2.74.67-4.02-1.11l10.99-2.48Z"/>
  <path class="cls-15" d="M756.31,473.32c5.96-5.47,14.04,4.49,13.68,6.16-1.04,4.84-7.05-1.33-7.49-1.33-.72,0-3.47,3.85-6.87,2.76s-1.06-6.01.67-7.59Z"/>
  <g>
    <path class="cls-6" d="M616.09,390.55c1.35,1.35,1.38,5.32,1.25,7.23-.12,1.7-3.27,15.61-3.94,16.1-4.09,2.93-17.69-4.89-19.94-9.19-4.53-8.66,4.08-12.25,10.86-7.38-.72-5.96,7.55-10.97,11.77-6.76ZM608.31,409.31c-.75-2.76,7.1-15.02,2.49-16-3.09-.66-4.01,7.63-4.5,7.99s-7.77-3.45-9.98-1.99c-1.78,4.34,10.87,11.01,11.99,10Z"/>
    <path class="cls-6" d="M627.16,386.14c-5.08,3-20.52-15.04-11.84-19.33,4.77-2.36,5.94,2.05,7.63,2.44s3.18-3.48,5.92-3.94c5.74-.98,7.61,3.1,6.21,8.27-.19.72-7.28,12.19-7.92,12.56ZM626.34,370.32c-.46.41.05,3.04-2.49,3.03-1.64,0-6.22-4.45-6.52-4.04-1.37,3.03,3.04,10.46,5.63,10.93,4.14.74,7.39-13.5,3.38-9.92Z"/>
    <path class="cls-6" d="M636.37,401.3c.66.51,13.74-5.1,11.96,5.46-.47,2.77-13.8,11.69-15.36,11.39-5.96-1.14-11.09-23.49-1.31-22.63,4.04.36,4.23,5.41,4.71,5.78ZM633.21,400.42c-.37-.24-2.91-.57-2.9.47-.31,3.98.43,8.06,2.56,11.46,2.25.38,9.71-5.77,10.44-7.55,1.46-3.53-6.12.79-7.33.43-2.09-.61-2.31-4.52-2.77-4.81Z"/>
    <path class="cls-12" d="M608.31,409.31c-1.11,1.01-13.76-5.66-11.99-10,2.21-1.46,9.48,2.36,9.98,1.99s1.41-8.65,4.5-7.99c4.61.98-3.25,13.24-2.49,16Z"/>
    <path class="cls-12" d="M626.34,370.32c4-3.58.76,10.66-3.38,9.92-2.59-.46-6.99-7.89-5.63-10.93.3-.41,4.88,4.04,6.52,4.04,2.53,0,2.03-2.63,2.49-3.03Z"/>
    <path class="cls-12" d="M633.21,400.42c.46.29.67,4.2,2.77,4.81,1.22.35,8.79-3.96,7.33-.43-.74,1.78-8.19,7.93-10.44,7.55-2.13-3.4-2.87-7.48-2.56-11.46,0-1.04,2.53-.71,2.9-.47Z"/>
  </g>
</svg>