<?xml version="1.0" encoding="UTF-8"?>
<svg id="Layer_1" data-name="Layer 1" xmlns="http://www.w3.org/2000/svg" viewBox="0 0 1041 1041">
  <defs>
    <style>
      .cls-1 {
        fill: #c7c6c6;
      }

      .cls-2 {
        fill: #252122;
      }

      .cls-3 {
        fill: #2c2729;
      }

      .cls-4 {
        fill: #b0afaf;
      }

      .cls-5 {
        fill: #b1afb0;
      }

      .cls-6 {
        fill: #fbfbfb;
      }

      .cls-7 {
        fill: #231f20;
      }

      .cls-8 {
        fill: #f1f1f1;
      }

      .cls-9 {
        fill: #2c2829;
      }

      .cls-10 {
        fill: #d82f87;
      }

      .cls-11 {
        fill: #262223;
      }

      .cls-12 {
        fill: #2b2728;
      }

      .cls-13 {
        fill: #242021;
      }

      .cls-14 {
        fill: #282425;
      }

      .cls-15 {
        fill: #f9f8f8;
      }

      .cls-16 {
        fill: #aeadad;
      }

      .cls-17 {
        fill: #e6e5e5;
      }

      .cls-18 {
        fill: #fafafa;
      }

      .cls-19 {
        fill: #292526;
      }

      .cls-20 {
        fill: #afadae;
      }

      .cls-21 {
        fill: #fdfdfd;
      }

      .cls-22 {
        fill: #272324;
      }
    </style>
  </defs>
  <path class="cls-7" d="M487,735.01c-.19,9.22-16.37,20.08-15.95,27.54.07,1.19,11.38,18.38,12.93,19.97,6.61,6.82,13.89,3.72,22.27,5.73,10.65,2.56,16.79,12.06,26.26,16.74-.11-8.93-13.6-14.74-20.5-19.01l.5-1.99c12.45-1.18,21.87,7.39,29.49,16-1.66-5.81-5.11-11.88-10.05-15.44-2.65-1.91-6.16-2.92-9.05-4.97-1.18-.84-2.45-.03-1.88-2.58,8.46-.91,13.96,2.03,19.5,7.99,2.67,2.87,4.05,8.04,8.49,8-3.94-11.74-11.56-14.88-21.99-19.5-.71-1.48,1.03-1.85,1.98-2,2.15-.33,9.66,1.23,12,2.02,1.78.6,8.4,5.01,9.01,4.48-6.88-14.36-21.45-10.52-34.2-13.29-8.74-1.89-25.88-9.16-28.62-18.38-.36-1.22-.76-2.86,1.3-2.3,3.94,1.08,9.59,7.6,14,10,14.03,7.64,24.59,4.41,37.74,8.26,7.23,2.11,17.58,12.6,17.84,20.26.22,6.45-4.22,4.6-5.06,5.46-.41.42,2.1,6.44,1.96,8.44-.24,3.44-3.56,9.47-6.9,11.11-1.43.7-8.27,3.15-9.62,3.38-13.19,2.18-21.81-8.8-37.95,3.06-17.79,13.08-38.62,44.96-49.67,64.33-4.81,8.43-7.7,18.96-14.82,25.67-.82-10.48,5.85-21.53,10.82-30.67,12.35-22.73,30.11-47.36,49.64-64.36,4.71-4.1,9.77-7.97,15.52-10.47-6.5-7.14-16.48-3.03-24.99-6.01-12.13-4.25-13.43-20.71-23.71-27.39-7.72,3.09-14.31,9.17-22.31,12.38-5.68,2.28-11.76,3.95-17.94,3.57-2.08,15.34-2.59,30.97-2.09,46.49.47,14.38,3.73,29.56,2.06,43.98-.69,6.01-3.73,6.03-8.82,7.18-20.25,4.61-42.43.19-62.42,2.58-7.12.85-14.55,3.27-15.69,11.31-.38,2.7-.84,15.26,1.66,16.4,3.06,1.39,18.48,2.82,22.7,3.05,13.76.76,27.85-.2,41.54-1.05-1.19-6.81-12.69-10.05-18.78-11.71-4.29-1.17-19.08-2.43-20.08-6-.77-2.75,3.47-9.95,4.86-8.3,0,1.3-.16,2.85.49,4,.83,1.45,18.06,4.58,22.03,5.99,8.35,2.96,20.57,8.27,17.28,19.32-1.05,3.53-15.45,4.52-19.26,4.74-15.54.9-30.62-1.18-46-2.08-4.86-.29-21.83,1.83-23.53-2.47-.69-1.74,1.06-1.63,1.99-1.95,2.99-1.02,6.82-1.45,10-1.55-4.49-10.23-.74-22.21-.03-32.96-8.55-1.75-24.14-3.62-27.46-13.04s1.64-29.6,3.8-40.18c5.24-25.67,23.78-80.78,19.45-104.07-1.85-9.95-10.99-3.26-16.78-.26-17.47,9.02-33.88,22.58-54.97,21.53,4.21,12.34,11.33,23.82,16.46,36.03,13.01,30.91,31.29,88.36,12.95,118.89-5.04,8.4-12.79,15.52-22.41,18.09-.44,1.93,8.62,1.28,5.99,3.97-3.89,3.99-42,3.39-49.54,3.06-30.64-1.35-62.2-8.25-91.67-16.33-11.88-3.26-57.44-16.62-62.66-26.34-5.2-9.67,1.62-27.11,1.94-37.72-9.24-5.65-24.68-6.79-24.15,7.86s19.34,19.64,17.03,33.93c-.89,5.49-6.45,7.91-11.43,8.56-4.51.59-22.86,1.43-26.35.33-9-2.85,3.83-5.65,3.82-6.83-16.45-14.96-15.14-42.71-8-62.02,10.16-27.48,35.16-29.56,53.02-7.97-14.96.61-25.76-14.4-39.64-1.15-15.46,14.76-19.16,61.5,4.83,69.96,4.77,1.68,18.75,3.28,17.67-4.56-.62-4.51-12.63-14.53-15.34-21.76-4.88-13,.51-27.34,15.94-27.01,11.3.24,11.08,6.19,17.73-8.3,4.27-9.31,11.4-37,21.08-40.92,8.48-3.44,20.56,3.07,28.42,6.07l58.32,32.17c-10.98-22.7-25.26-43.72-35.85-66.64-14.94-32.31-24.99-64.75-14.64-100.35,2.07-7.12,5.41-13.36,8.5-19.99-1.97.51-14.08-5.18-12-7,11.2-1.32,21.24,4.1,31.78,6.71,42.8,10.59,77.28,10.79,120.4.97,6.81-1.55,22.42-3.83,24.6-11.41,2.32-8.1-13.49-32.66-15.34-43.23-.55-3.13-.56-4.99.56-8.04,2.43-.3,3.55,2.2,4.54,3.94,7.01,12.36,12.83,30.27,19.27,43.73,21.45,44.79,49.89,95.84,83.66,132.34,13.09,14.14,18.96,22.74,39.72,18.69,22.1-4.31,33.28-19.21,49.29-32.71,1.12-.95,1.63-2.42,3.5-1.99Z"/>
  <path class="cls-7" d="M551,638c-5.87,2.36-6.36,6.83-10.5,10.98-5.38-7.21,7.32-17.12,13.52-19.47,6.78-2.56,9.37-1.05,15.98.48-.62-2.91-.86-13.18-2.95-14.54-12.42-.47-25.35-6.18-28.98-19.02-1.57-5.55-4.97-16.9,3.26-17.06,14.15-.27,38.3,10.29,34.46,27.89-.42,1.91-2.3,3.63-2.48,5.34-.26,2.39,1.62,6.73,1.74,9.84.3,7.81-.3,15.72-.03,23.53,14.09-6.95,25.77,3.26,30.22,16.28.27.8,2.1,7.1-.71,5.72-2.05-1.91-3.03-4.81-4.51-6.99-5.11-2.3-3.31,1.82-1.33,5.15,2.9,4.87,10.47,11.33,16.33,9.85.96-2.73-2.04-14.94-3.6-17.9-3.25-6.17-9.01-7.94-14.38-11.6,6.84-7.87,19.08,5.16,21.28,11.7,1.5,4.45,5.48,22.97,0,24.59-7.42,2.2-19.79-4.31-24.82-9.77-4.96-5.39-6.09-10.35-5.53-17.58.16-2.05,2.69-4.08,1.07-4.96-3.89-2.1-10.83.03-13.53,3.51l-4.49,50c.95.75,8.17-5.23,10.73-5.76,11.85-2.45,21.89,3.89,22.28,16.26-6.28,3.53-5.82-9.2-11.01-8.49-3.85,9.2,4.3,15.21,11,20,1.96.76,3.59,2.43,6,2,.56-8.91,2.23-19.76-4.98-26.51-2.88-2.7-12.05-5.58-12.05-7.97,0-5.77,11.11-.25,13.53,1.49,10.11,7.27,10.52,18.96,9.49,30.48-.9,9.97-2.49,11.05-11.66,7.69-12.43-4.56-22.67-13.97-22.33-28.17-1.3-1.45-8.53,5.57-9.42,7.07-2.64,4.44-3.33,15.83-3.62,21.38-.89,17.23.92,34.37,2.09,51.5,24.66,2.77,46.61,17.54,63.45,35.03l7.5-8.97c-3.71.73-12.4,2.02-13.84-2.71-2.98-9.81,22.04-13.14,26.82-18.8-5.57-1.44-18.63-17.93-8.42-19.51,7.7-1.19,15.54,8.7,27.88,6.95,10.56-1.5,2.2-6.89,2.49-13.42s10.74-14.39,15.59-18.49c18.79-15.86,40-28.98,56.99-47.01,2.38-2.53,14.31-15.61,15.24-17.24.84-1.46-.15-5.28.68-7.85,1.11-3.44,5.8-4.17,6.35-5.14,2.2-3.87-1.34-14.17,8.73-14.86,1.98-.14,11.16,1.69,7.5,3.58-2.67,1.38-8.32-.91-9.81,4.2-2.01,6.91,3.72,9.47,3.79,15.28-1.95,1.93-13.62-7.75-9.99,7-1.14.14-2.94-.41-3.84.16-.51.32-4.65,8.34-6.19,10.32-11.2,14.46-26.41,26.02-40.52,37.48-6.75,5.48-36.32,25.69-38.04,32.01s18.72,29.32,24.06,34.06c10.14,9.01,17.86,13.99,31.23,6.18,9.23-5.39,31.77-28.06,40.33-36.67,26.71-26.88,63.84-69.87,66.94-109.06,1.28-16.17-2.38-32.01-2.97-47.99-.25-6.75-.58-17.31,3.98-22.49,2.04,7.24,1.38,14.36,2.02,21.49.83,9.27,2.42,18.75,2.98,28.02.45,7.42-2.29,27.3,3.48,31.52,5.76,4.21,30.09,3.25,38.07,3.01,2.13-.06,4.08-.98,5.97-1.03,18.56-.49,37.31-2.04,55.49,2-1.76,4.47-15.19,2.28-15.99,2.99.94,3.21,3.16,5.81,4.48,9.01,14.94,36.29,7.22,89.88-28.95,111.01l-23.52,12.96,33.45-3.03c8.84.82,29.55.3,35.01,8.08.49.69,2.54,5.1,2.54,5.46v38.5c4.23-2.17,10.89.37,14.69,2.81,5.98,3.84,5.56,9.53,13.32,12.68,10.59,4.29,19.39,0,28.02,10.02.78.9.69,2.71,1.22,3.23,1.03,1.03,5.52.56,6.75,2.76-12.1,6.25-27.94,2.84-41.54,3.45-28.94,1.3-55.62,8.53-84.09,11.91-43.14,5.13-87.72,6.17-130.88,5.14-6.37-.15-15.88,1.79-20.49-3l6.99-2.51c-27.19-14.33-30.96-45.86-24.32-73.33,1.41-5.82,4.47-11.45,4.83-17.17-2.23,1.26-3.79,1.21-5.38,3.62-2.33,3.51-6.11,15.99-7.39,20.61-6.34,22.91-5.63,37.19,9.29,56.23,1.82,2.33,10.52,8.16,6.31,10.62-3.34,1.96-25.08,2.87-28.67,1.73-1.32-.42-1.94-1.45-1.67-2.82l8.99-1.5c-42.07-18.82-25.82-63.06-4.93-91.95l-14.38-11.43c-1.28.19-11.38,8.37-12.13,9.92-2.98,6.17-.29,27.39-6.55,30.46-8.17,4-8.65-9.36-8.02-14.51-5.01,2.85-8.04,12.12-14.51,12.08-9.19-.07-1.55-14.18,1.52-18.07-6.44,2.48-11.97,6.92-19,8,14.9,17.18,28.09,38.61,35.03,60.45.76,2.39,2.53,13.03,3.11,13.39,1.36.84,13.61-.28,11.85,5.6-.98,3.25-8.83.64-11.24.78-5.43.3-9.01,3.67-16.28,2.78-6.21-.76-11.97-7.11-18.88-6.93-4.53.12-8.13,3.69-12.59,3.9.87-8.08,12.01-8.61,18.39-7.89,7.91.89,15.29,8.98,19.39-1.82,2.88-7.58-1.54-14.9-4.61-21.97-5.79-13.33-16.49-30.96-26.75-41.25-18.68-18.72-32.44-33.33-59.58-40.42-3.58-.94-15.99-1.34-16.84-5.17-.52-2.35,4.51-3.27,6-3.5-6.18-28.8-2.05-58.88-1.02-87.99l-9.99,3.03c5.22,14.69-1.34,28.1-15.32,34.15-3.25,1.41-13.73,5.4-16.21,2.85-5.98-6.16.37-24.99,4.69-31.36,3.19-4.7,10.99-12.2,16.83-8.17-10.85,10-19.46,17.17-18,33.5,6.59.74,15.27-6.79,18.17-12.71,1.19-2.43,3.78-10.02.83-10.29-5.32,3.46-5.52,10.59-6.01,11-2.61,2.16-4.14-2.5-3.81-5.23,1.47-12.07,19.32-21.25,29.87-23.42l3.02-52.74-8.06-2.62c.54,13.26-10.7,27.51-23.74,29.77-8.47,1.46-12.36.88-13.26-8.25-1.81-18.24,14.86-49.04,35-31.52-9.38,1.28-16.83.04-22.99,8.51-3.36,4.63-8.25,20.39-6,25.5,6.54,1.9,15.65-5.26,18.97-10.68,1.46-2.39,3.89-7.84,1.03-9.32Z"/>
  <path class="cls-7" d="M623,449c-9.1-3.95-4.43-1.59-11.73-.23-8.22,1.54-7.33-2.52-11.29-4.25-5.95-2.61-9.05-.13-14.42-7.58-9.09-12.63-1.79-26.66,10.42-33.44-23.1-15.83-7.02-54.33,21.01-40.5-.39-12.81,6.98-29.45,21.5-30.07,5.57-.24,9.31,2.15,14.44,3.01,12.82-27.47,40.32-10.15,38.08,15.06,19.11-15.92,47.45-6.99,46,20,21.97-9.33,46.3,7.28,38.99,32,13.09-.17,23.09,10.02,20.77,23.27-.54,3.06-2.95,5.51-2.76,8.73,11.95-1.02,19.61,13.32,14.2,23.7-1.12,2.16-4.81,4.75-5.04,5.94s3.8,7.81,3.74,11.75c-.2,13.32-10.43,17.41-21.89,12.61.9,6.55-5.39,15.49-11.73,16.77-2.68.54-6.03-.39-8.29.71s-2.72,5.28-8.72,7.28c-8.92,2.97-8.61.28-15.27-1.77-3.88-1.26-4.73-3.43-5.76-7.13-6.8,2.77-15.7,4.84-13.48-5.89l2.43-13.23c-3.14-1.71-4.39-4.23-1.27-6.79,18.23-8.11,15.04-30.07-5.42-14.32-16.15,6.81-22.33-9.61-24.74-22.32-8.99,2.94-19.5,5.28-27.47-1.59-7.02,7.62-18.4,10.27-27.14,3.99-5.07,4.98-8.35,7.65-15.15,4.29Z"/>
  <path class="cls-7" d="M541.5,354c12.66,1.7,27.26,14.89,29.26,27.74,4.4,28.29-13.47,51.87-43.54,42.54-9.03-2.8-21.45-12.37-22.23-22.29-13.59,5.03-27.51,4.37-37.49-6.98-5.44,11.3-20.07,27.92-34.24,22.22-4.56-1.83-5.05-8.06-10.64-9.44-8.15-2.01-15.94,6.09-13.97,13.98s8.29,9.22,13.35,14.21c-1.44.99-7.28,1.78-7.79,2.22-.45.39-.37,2.32-1.14,3.32-2.51,3.25-12.39,5.26-16.52,5.51-44.93,2.72-53.6-57.6-37.36-89.36,11.73-22.95,45.25-40.28,69.17-25.54,2.74,1.69,3.4,4.64,3.67,4.85,1.65,1.28,4.79-5.28,6.49-6.98,1.83-1.83,6.26-4.98,8.57-6.43,30.05-18.78,64.23-5.5,70.93,29.41,1.68-.91,2.24-2.95,3.97-4.52,3.57-3.23,15.41-10.96,20.04-7.99,3.27,2.09-4.05,5.07-6.33,6.7-2.88,2.05-6.32,4.25-8.68,6.82,4.58.43,10.05-.6,14.5,0Z"/>
  <path class="cls-1" d="M623,449c6.32,1.07,11.9-2.07,14.02-8,5.53,5.99,13.38,6.47,20.65,3.17,2.5-1.13,7.33-6.15,7.83-6.15.25,0,2.42,2.5,3.8,3.18,7.81,3.84,17.41,1.7,24.69-2.2,2.86,10.9,5.15,27.95,20.29,24.77,5.51-1.16,17.42-14.57,21.95-1.5,3.75,10.84-6.97,13.49-13.22,19.24-.47,2.24,2.98,1.51,3.11,3.98.18,3.5-4.2,17.37-2.07,19.47,4.57.61,8.85-1.29,12.95-2.96.17,3.71,1.8,7.12,4.01,10-4.84-1.49-10.66.21-14,4l-4.83,2.31c-43.33,48.68-102.36,12.93-98.16-48.62l2-2.69c.92-3.28,9.95-1.84,12.81-.88,6.05,2.03,9.01,5.55,9.99,11.94,2.36,15.28-13.81,9.48-15.76-1.52-4.89,4.35,7.26,14.04,12.85,13.38l.76,1.41c-4.75,25.93,1.64,7.23,3.04-5.78,1.88-17.53-6.28-24.49-23.02-21.4l-.67-5.15c-1.65.32-1.99-1.02-1-4,3.88-5.36,2.48-4.06-2-6Z"/>
  <path class="cls-1" d="M225,222c-2.11,4.44-10.96-1.01-14.32-3.14-19.74-12.52-25.21-38.4-8.72-56.24,3.21-3.47,9.49-9.67,14.04-7.62,5.09,1.86,9.86.56,15.44,2.06,34.67,9.33,29.34,63.58-6.44,64.94Z"/>
  <path class="cls-7" d="M378,451.01c-.43,1.77-2.32,2.17-3.76,2.72-9.33,3.53-23.9,4.65-34.45,7.55-64.42,17.72-129.84,64.51-174.3,113.7-5.48,6.06-26.76,35.7-30.51,37.49-6.88,3.3-2.93-3.8-1.15-7.15,6.64-12.49,21.35-29.27,31.14-39.86,40.31-43.6,100.07-86.26,156.51-105.49,17.56-5.98,37.95-11.96,56.52-8.97Z"/>
  <path class="cls-7" d="M488.99,724c-1.09,1.14-6.05-2.53-7.03-3.46-47.15-44.32-76.33-76.23-103.82-136.18-4.81-10.5-10.85-21.97-12.13-33.36,3.07.5,5.49,5.63,8.29,4.89,5.92-1.56,8.93-15.36,9.72-15.89.69-.46,2.8-.05,3.52.97,1.97,2.82-7.82,23.94-6.46,32.47.91,5.73,14.19,31.69,17.76,38.23,10.68,19.56,27.14,42.4,42.14,58.86,7.39,8.11,46.33,41.68,47.78,47.22.54,2.05.21,4.18.24,6.25Z"/>
  <path class="cls-7" d="M957.99,666c-2.04.35-2.84-1.29-3.82-2.66-6.06-8.45-11.63-23.38-16.99-33.01-28.14-50.5-56.81-86.99-107.5-116.5-10.06-5.85-21.27-10.17-30.67-16.82,14.44.91,29.04,8.78,41.31,16.18,43.1,26.01,71.95,61.07,96.87,104.13,4.24,7.33,21.74,37.96,21.85,44.18.03,1.58-.87,2.97-1.04,4.49Z"/>
  <path class="cls-7" d="M225,222c24.93,3.17,42.89-15.97,41.03-40.54-.57-7.55-4.73-14.11-6.03-21.45,5.81,1.55,9.24,10.63,10.53,15.96,9.63,39.79-34.84,68.32-67.01,43.01-33.72-26.53-7.09-77.7,32.85-73.85,6.71.65,16.18,3.9,18.61,10.87-14.33-4.29-24.65-7.4-38.99-1-20.21,9.02-28.14,32.35-15.84,51.34,4.28,6.61,16.69,15.97,24.84,15.66Z"/>
  <path class="cls-7" d="M515,459c.56-1.45,3.84-8.63,4.51-8.99,1.74-.93,1.8,1.95,2,2.98,2.73,13.81-15.44,38.72-26.04,46.99-15.76,12.3-39.85,14.16-58.16,7.2-4.36-1.66-18.85-11.28-20.73-11.19-4.27.2-6.28,5.94-9.65,8.45-7.73,5.75-19.55,4.67-27.27-.6-2.39-1.63-8.77-7.54-2.62-6.41,3.8.7,6.65,3.53,11.45,3.66,7.57.19,17.26-5.87,18.44-13.64.41-2.69-1.29-9.53,2.56-9.48,2.36.03,9.33,9.63,12.03,12.01,20.93,18.47,54.8,20.59,75.46.52,10.56-10.26,12.97-18.56,18.01-31.49Z"/>
  <path class="cls-7" d="M723,646.99l4.98,1.51c-10.69,7.52,1,10.23,1.04,11.01.36,7.53-9.37.63-11.6,8.46-1.62,5.69,7.84,4.14,4.47,8.42-1.28,1.63-2.89,1.3-3.54,1.94-6.73,6.57-11.43,14.92-17.38,22.13-2.22,2.69-17.08,20.58-18.46,20.52-4.95-.24,1.89-10.35,3.09-11.89,7.89-10.15,20.65-20.45,22.97-34.03.75-4.39-.43-9.94,1.56-13.44s7.62-4.26,7.89-4.64c.1-.15-1.11-2.12-.99-3.4.83-9.28,4.48-20.32,5.03-31.03.97-18.86-1.91-40.3,1.2-58.8.27-1.6.92-4.22,2.74-4.74.47,1.84.91,3.52,1.06,5.45,1.51,18.79,2.04,47.4-.18,65.92-.67,5.56-1.81,11.39-3.87,16.62Z"/>
  <path class="cls-7" d="M626,459l.56,3.49c2.4.71,1.98,3.89-.56,4.51,0,17.11.24,31.9,9.58,46.92,18.23,29.3,53.46,32.96,78.94,10.11,3.56-3.19,6.95-11.31,12.48-8.02-1.43,1.62-1.39,3.55-2.54,4.97-34.15,42.04-91.68,25.98-102.8-26.12-2.65-12.42-4.08-29.58,3.34-39.84.97,1.2.67,2.77,1,4Z"/>
  <path class="cls-7" d="M467.99,666c-2.33,2.32-9.41-5.74-10.96-7.53-14.29-16.4-30.87-49.81-39.89-70.11-4.99-11.24-12.94-26.37-8.13-38.35l4.03,6.45c8.3,27.83,22.7,57.24,38.15,81.85,3.54,5.65,14.33,17.76,16.05,21.95.5,1.21,1.32,5.18.75,5.74Z"/>
  <path class="cls-13" d="M747.01,661c.11-14.6,1.54-28.89-.02-43.48-2.4-22.47-11.35-44.72-8.98-67.51,1.8-.4,1.96.55,2.83,1.66,2.78,3.58,3.33,19.75,4.33,25.67,4.16,24.51,11.12,50.89,7.75,76.08-.41,3.07-1.95,8.54-5.91,7.58Z"/>
  <path class="cls-13" d="M515,459c-4.65,2.96-8.61,3.98-13.99,2-.3,5.71,1.51,12.76-3.51,16.98-2.18-1.72-2.31-3.87-2.55-6.43-.75-8.25-1.58-32.71,8.1-36,3.93-1.34,14.76-.93,16.46,3.43,2.16,5.52-9.1,1.82-11.02,1.93-5.88.32-10.13,12.29-5.49,14.59,5.32,2.64,11.45-5.87,12,3.5Z"/>
  <path class="cls-13" d="M507.99,906c-.74.76-11.53-3.9-14.53-3.82-5.56.15-9.46,6.88-15.03,7.76-8.1,1.28-13.28-2.68-19.99-2.97-3.98-.17-15.42,5.28-16.43,1.47-.86-3.24,7.14-6.74,9.72-7.19,8.59-1.5,11.95,1.45,19,2.51,12.01,1.81,13.83-8.88,27.7-6.69,2.87.45,12.04,6.38,9.56,8.93Z"/>
  <path class="cls-13" d="M595.89,909.91c-.64.46-3.55-.21-5.14.33-2.4.82-4.11,2.94-7.49,3.52-16.32,2.83-20.15-12.17-33.78-11.82-1.9.05-8.11,2.6-7.46-.42,1.77-8.16,18.52-2.88,23.67-.71,3.2,1.35,6.54,4.77,9.9,5.17,5.47.65,10.15-3.72,17.45-1.53,2.32.7,5.12,3.81,2.84,5.46Z"/>
  <path class="cls-11" d="M788,639.01c-1.15-.17-2.99.38-3.85-.15-2.96-1.81-4.29-41.22-.13-46.86l2.23,2.25c1.05,14.75,1.92,29.85,1.75,44.75Z"/>
  <path class="cls-11" d="M461.62,440.08c4.52-1.46,9.55,10.15,18.79,8.91,1.98-.27,4.21-2.45,5.98-1.95,5.44,6.13-4.62,8.51-9.8,7.87s-22.76-12.32-14.97-14.84Z"/>
  <path class="cls-11" d="M489.85,433.85c-3.86,2.39-5.17-2.08-7.08-3.1-1.29-.69-4.8-1.46-6.37-1.64-4.3-.48-13.99,2.57-14.18-2.43-.13-3.19,4.91-3.32,7.42-3.55,5.19-.48,11.8-.38,16.33,2.41,2.01,1.23,7.02,6.37,3.88,8.31Z"/>
  <path class="cls-22" d="M459.6,477.09c5.82-1.93,3.6,7.27,8.41,9.4,2.11.93,12.85-.47,8.56,5.59-.99,1.4-6.28,1.16-8.02.87-7.09-1.18-14.37-14.06-8.94-15.85Z"/>
  <path class="cls-11" d="M270.65,226.35c-.89-.99-2.84-1.45-3.63-2.85,1.33-1.73,4.76-3.94,6.95-3.03.95.4,13.06,15.01,13.01,16.04-.06,1.1-2.2,1.56-3.41,1.48-4.26-.27-10.09-8.49-12.92-11.64Z"/>
  <path class="cls-19" d="M176.99,190c1.72,11.97-9.37,6.81-16.67,6.37-2.56-.15-8.22,2.46-4.83-3.39,2.16-3.73,16.99-.85,21.5-2.99Z"/>
  <path class="cls-22" d="M200.36,141.66c1.21,1.52,4.02.75,1.68,3.86-1.78,2.36-4.69,2.99-6.98.93-.57-.51-7.26-11.41-8.07-12.94-2.3-4.35.57-5.14,3.94-3,4.12,2.62,6.59,7.56,9.44,11.14Z"/>
  <path class="cls-22" d="M302,194.01c1.09,1.33-.44,3.61-2.5,3.99s-19.76-1.29-20.51-2c-.92-.88.93-5.51,3.51-6,1.8-.34,18.87,3.24,19.5,4.01Z"/>
  <path class="cls-2" d="M181.19,238.18c.85-1.48,10.91-6.19,12.44-9.1,3.53.61,4.44,4.79,2.44,7.51-.41.56-11.08,7.17-11.76,7.28-2.24.36-4.24-3.75-3.12-5.68Z"/>
  <path class="cls-12" d="M237.99,258c-6.51.45-5.41-13.78-5.58-19.01-.12-3.66,2.76-4.01,5.18-2.08,3.8,3.04-.89,16.26.4,21.09Z"/>
  <path class="cls-14" d="M291.99,151c1.6,8.1-13.36,5.27-15.01,11.99-1.65,1.25-4.37-3.26-3.86-5.29,1.08-4.27,14.94-5.37,18.87-6.69Z"/>
  <path class="cls-4" d="M551,638c.74-.3,1.28-1.65,3-.99.75,7.6-1.77,12.38-7.67,16.82-2.86,2.16-13.38,8.6-15.33,4.17,10.09-.87,18.84-10.09,20-20Z"/>
  <path class="cls-5" d="M547,707c.36-.24.15-1.54,1.99-.99,2.59,12.95-7.96,22.53-19.61,25.89-2.02.58-1.27-.61-1.39-1.9,9.67-3.28,19.62-11.91,19-23Z"/>
  <path class="cls-9" d="M246.99,138.01c-13.08,1.46,1.34-16.96,2.5-16.99.39-.01,2.43,2.13,2.33,3.3-.31,3.57-5.71,9.32-4.83,13.69Z"/>
  <path class="cls-20" d="M600,661c-1.96.57-.05,3.06.47,4.03,2.81,5.24,8.09,11.15,14.53,10.97-1.17,3.31-11.11-2.24-12.94-3.56-4.53-3.27-8.59-8.86-6.94-14.81.16-.59,1.21-2.07,1.88-1.14,1.11,1.44,1.99,3.03,2.99,4.52Z"/>
  <path class="cls-16" d="M604,726c-5.98-2.33-14.87-7.7-13.8-15.23.2-1.39,1.14-4.54,2.8-4.77.79,8.58,5.28,14.17,11,20Z"/>
  <path class="cls-1" d="M677,816.5c-2.37-15.99-10.84,7.85-15.99,9.5-.15-3.66,9.54-16.82,7.98-18.98-2.49-3.46-14.49,6.95-17.69,8.78-1.34.77-8.68,4.78-9.3,4.19-.25-1.98,1.69-3.34,2.98-4.51,5.53-4.98,15.08-8.34,17-16.49-6.65.93-13.22,4.75-19.76,5.73-1.38.21-4.76,1.35-4.24-1.23.38-1.3,22.17-6.56,23.83-12.23,2.31-7.87-12.36-8.69-12.81-16.28,7.25,3.63,15.95,8.82,24.38,7.94,2.71-.28,7.51-3.36,9.58-2.48,1.5.63,10.19,13.35,10.09,14.97-15.75,7.66-12.48,17.49-14.18,31.95-.12,1.06-.39,4.69-1.88,4.62-.5-4.84.69-10.84,0-15.5Z"/>
  <path class="cls-21" d="M961,866.5c.17-1.6,1.89-4.1,1-6.5,12.89-.62,14.72,13,23.32,17.18,8.1,3.93,18.67,1.93,25.68,7.81l-47.53,2.08-1.3-.23c-.15-.73-1.17-1.98-1.17-2.34,0-5.63-.57-12.6,0-18Z"/>
  <path class="cls-6" d="M543,586c10.45.88,26.28,5.22,25.99,18l-13.49-12.99c-.57,3.36,2.67,9.09,4.5,12-3.13,2.97-9.31-1.8-11.85-4.54-2.76-2.99-5.51-8.4-5.15-12.46Z"/>
  <path class="cls-4" d="M560,603c1.1,1.74,3.13,3.07,4,4.99-9.83.67-17.78-5.51-20.72-14.77-.53-1.66-2.36-6.52-.28-7.22,2.94,8.37,8.14,14.65,17,17Z"/>
  <path class="cls-8" d="M605.71,436.3c1.92,1.54,2.93,6.43,7.29,5.71-5.29,6.62-7.7-2.43-9.99-3.54-3.03-1.47-5.6,1.55-9.97-2.01-6.59-5.38-7.24-16.27-1.53-22.45.29,2.63-1.28,4.3-1.55,7.44-.43,4.88.4,11.41,5.99,13.11,3.09.94,7.19-.33,9.77,1.74Z"/>
  <polygon class="cls-18" points="729 498.99 732.01 484 743.98 492.5 729 498.99"/>
  <path class="cls-17" d="M609,366.01l-7.93,4.55c-6.79,5.46-8.04,9.95-7.35,18.23.09,1.1,1.19,3.4-.71,3.2-5.37-12.09,1.23-27.84,15.98-25.98Z"/>
  <path class="cls-15" d="M539,420.99l11.54-6.95c9.03-9.41,11.41-17.53,10.44-30.53-.26-3.49-2.24-6.98-1.49-10.51,12.39,17.12,2.51,47.85-20.49,47.98Z"/>
  <path class="cls-13" d="M626,459c.29,1.08,1.58,2.28,1.01,4.01,8.51-4.88,21.87.8,24.31,10.18,2.17,8.35-1.06,23.48-3.99,31.64-1.59,4.42-3.87,4.36-4.38-.29s1.58-8.88,2.06-13.53c-6.45,3.06-19.49-11.8-14.07-15.57,5.03-3.5,4.56,4.87,7.54,7.59,2.43,2.22,5.42,2.13,8.53,1.98.16-3.95.17-8.15-1.8-11.71-3.85-6.96-12.62-5.97-19.21-6.29v-8Z"/>
  <path class="cls-2" d="M685,481c1.38,8.34-9.63,11.14-16.27,9.76-8.59-1.77-13.45-14.37-5.37-11.65,2.3.78,2.06,5.98,9.14,5.97,5.85,0,6.75-5.17,12.5-4.09Z"/>
  <path class="cls-2" d="M682.87,466.89c-1.71,1.11-10.25-1.98-13.33-1.91-4.67.11-7.98,3.67-12.55,3.03-2.41-6.84,9.34-9.19,14.34-8.93,1.88.1,9.95,1.88,11.22,2.87,1.54,1.2,1.41,4.22.3,4.94Z"/>
  <path class="cls-2" d="M676.78,511.22c4.92,4.93-10.28,19.17-14.86,13.35-3.7-4.69,3.73-4.36,6.59-6.56,2.49-1.91,4.19-10.88,8.26-6.8Z"/>
  <g>
    <path class="cls-3" d="M573.02,774.74c-6.74,3.98-27.22-19.95-15.7-25.65,6.33-3.13,7.87,2.72,10.13,3.24,2.32.54,4.22-4.61,7.85-5.23,7.62-1.3,10.1,4.11,8.24,10.97-.26.95-9.66,16.17-10.51,16.67ZM571.93,753.76c-.61.54.06,4.03-3.3,4.03-2.18,0-8.25-5.91-8.65-5.36-1.81,4.03,4.03,13.88,7.46,14.49,5.49.98,9.8-17.91,4.49-13.16Z"/>
    <path class="cls-10" d="M571.93,753.76c5.31-4.75,1.01,14.14-4.49,13.16-3.43-.61-9.28-10.47-7.46-14.49.39-.54,6.47,5.36,8.65,5.36,3.36,0,2.69-3.48,3.3-4.03Z"/>
  </g>
  <g>
    <path class="cls-3" d="M957.72,316.61c1.35,1.35,1.38,5.32,1.25,7.23-.12,1.7-3.27,15.61-3.94,16.1-4.09,2.93-17.69-4.89-19.94-9.19-4.53-8.66,4.08-12.25,10.86-7.38-.72-5.96,7.55-10.97,11.77-6.76ZM949.95,335.37c-.75-2.76,7.1-15.02,2.49-16-3.09-.66-4.01,7.63-4.5,7.99s-7.77-3.45-9.98-1.99c-1.78,4.34,10.87,11.01,11.99,10Z"/>
    <path class="cls-10" d="M949.95,335.37c-1.11,1.01-13.76-5.66-11.99-10,2.21-1.46,9.48,2.36,9.98,1.99s1.41-8.65,4.5-7.99c4.61.98-3.25,13.24-2.49,16Z"/>
  </g>
  <g>
    <path class="cls-3" d="M179.91,329.95c.66.51,13.74-5.1,11.96,5.46-.47,2.77-13.8,11.69-15.36,11.39-5.96-1.14-11.09-23.49-1.31-22.63,4.04.36,4.23,5.41,4.71,5.78ZM176.75,329.06c-.37-.24-2.91-.57-2.9.47-.31,3.98.43,8.06,2.56,11.46,2.25.38,9.71-5.77,10.44-7.55,1.46-3.53-6.12.79-7.33.43-2.09-.61-2.31-4.52-2.77-4.81Z"/>
    <path class="cls-10" d="M176.75,329.06c.46.29.67,4.2,2.77,4.81,1.22.35,8.79-3.96,7.33-.43-.74,1.78-8.19,7.93-10.44,7.55-2.13-3.4-2.87-7.48-2.56-11.46,0-1.04,2.53-.71,2.9-.47Z"/>
  </g>
</svg>