<?xml version="1.0" encoding="UTF-8"?>
<svg id="Layer_1" data-name="Layer 1" xmlns="http://www.w3.org/2000/svg" viewBox="0 0 1041 1041">
  <defs>
    <style>
      .cls-1 {
        fill: #252122;
      }

      .cls-2 {
        fill: #a8a6a7;
      }

      .cls-3 {
        fill: #f6f6f6;
      }

      .cls-4 {
        fill: #2c2729;
      }

      .cls-5 {
        fill: #f0f0f0;
      }

      .cls-6 {
        fill: #d5d5d5;
      }

      .cls-7 {
        fill: #f9f9f9;
      }

      .cls-8 {
        fill: #231f20;
      }

      .cls-9 {
        fill: #d82f87;
      }

      .cls-10 {
        fill: #ddd;
      }

      .cls-11 {
        fill: #f7f6f7;
      }

      .cls-12 {
        fill: #252223;
      }

      .cls-13 {
        fill: #828080;
      }

      .cls-14 {
        fill: #f0efef;
      }

      .cls-15 {
        fill: #cbcaca;
      }

      .cls-16 {
        fill: #b6b5b5;
      }

      .cls-17 {
        fill: #242021;
      }

      .cls-18 {
        fill: #9f9d9d;
      }

      .cls-19 {
        fill: #f1f0f0;
      }

      .cls-20 {
        fill: #f4f4f4;
      }

      .cls-21 {
        fill: #6f6d6d;
      }

      .cls-22 {
        fill: #a7a5a6;
      }

      .cls-23 {
        fill: #fefefe;
      }

      .cls-24 {
        fill: #ededed;
      }

      .cls-25 {
        fill: #f7f7f7;
      }

      .cls-26 {
        fill: #e6e6e6;
      }

      .cls-27 {
        fill: #272324;
      }
    </style>
  </defs>
  <path class="cls-8" d="M691.01,446c6.72-2.79,10.73-6.41,18.45-7.04,23.42-1.89,40.64,11.56,47.99,33.08,13.17,38.51-7.11,71.04-4.45,109.45,2.15,31.03,24.52,58.45,20.99,90.01-1.53,13.67-15.24,17.1-27,15.51,7.18,17.75,4.63,39.41-.97,57.39l10.98,37.6c16.42-22.32,42.53-22.69,45.02,9.47,2.23,28.8-11.31,61.69-37.03,76.03.86,1.39,2.13,1.2,3.44,1.56,10.35,2.79,22.9,3.8,33.74,6.26,19.8,4.49,40.13,10.51,59.57,16.43,3.06.93,8.62,3.87,11,4.11,3.39.33,5.39-4.4,10.26-3.46,7.22,1.39,5.74,10.29,7.57,10.69,4.71,1.02,6.06-6.6,12.44-4.65,6.79,2.07,4.48,8.32,4.96,8.58.93.49,4.58-.55,6.99.53,3.34,1.49,3.14,6.33,5.62,8.38,3.95,3.25,17.4,8.66,23.06,11.94,12.59,7.28,26.32,15.43,38.05,23.95,1.93,1.4,19.12,13.47,16.27,16.22-2.47.31-4.3-1.14-6.3-2.19-14.23-7.51-29.37-20.39-44.03-28.97-10.22-5.98-20.72-11.69-31.61-16.41l-20.76,14.38c-9.14.92-18.2-1.24-27.29-1.8.3-4.86,5.37-4.12,8.99-4-.49-4.41-3.14-8.26-3.74-12.75-.45-3.36.57-13.25-1.24-14.76-23.02-7.58-46.22-15.02-70-20-15.46-3.24-28.48-5.62-44.55-4.53-23.88,1.62-47.8,6.26-71.97,7.03-34.38,1.09-62.34-5.15-95.26-11.72-6.1-1.21-30.25-2.88-33.31-6.69-.95-1.19-1.09-2.1-.92-3.58l11-1.99c-24.85-3.65-49.85-4.66-74.99-4.02,0-4.44,7.03-4.77,10.46-5.03,18.58-1.43,39.1.73,57.54,3.03-8.87-11.09-21.5-24.68-22.99-39.5-3.47-34.38,29.58-36.92,53.99-25.5-31.82-27.12-26.94-67.95-19.54-105.03,6.87-34.38,23.42-73.5,59.54-84.98-9.47-16.4-13.21-35.18-10-53.99-.45-.46-10.04,1.04-9.98-1.5.06-2.93,21.47-4.56,17.78-16.8-2.7-8.93-16.89,8.48-19.56-6.43-2.39-13.32.43-28.23-12.87-37.2-.97-.17-13.86,12.3-14.35,13.44-.76,1.75,2.48,2.38,3.49,2.34,2.59-.11,10.56-6.02,10.55-.35-.01,4.67-10.04,5.91-13.49,5.45-1.75-.23-3.92-2.12-4.95-1.88-4.76,1.13-16.42,29.76-15.6,35.92,2.72,2.31,12.56-6.97,12.81.35.13,3.92-9.61,5.62-12.81,5.66.85,23.88,19.53,34.3,37,45.99-13.84.78-27.44-9.71-34.42-21.07-6.86-11.17-8.6-20.29-7.62-33.46.24-3.26,3.29-13.82,3.12-14.85-.14-.84-8.16-2.14-6.88-8.84,1.09-5.66,24.36-16.12,27.79-23.27-24.63-8.79-15.64-44.45-2.02-60.02,29.83-34.1,96.33-26.81,112.04,17.53Z"/>
  <path class="cls-8" d="M464.99,782.01c-.57,2.47-8.34,2.38-8.99,3,11.63,17.69,13.13,41.69,8.51,62-2.52,11.06-9.27,22.63-19.51,28-1.35,1.99,14.11,3.2,11.56,8.01s-28.73,2.6-35.1,2.94c-3.93.21-8.18,1.81-11.98,2.02-43.96,2.43-114.61.1-151.8-25.17-23.43-15.92-69.77-64.35-47.68-94.31,19.47-26.42,67.45-10.07,87.5,8.48,1.14-1.07,2.61-2.43,3.08-3.94,1.02-3.31-1.75-7.01,1.08-7.89,31.76-1.48,63.29,2.06,94.7,5.99,22.91,2.87,46.02,6.54,68.63,10.87Z"/>
  <path class="cls-8" d="M346,548c-8.07.69-16.13-7.73-20.97-13.53-11.48-13.76-15.44-29.19-14.02-46.96.22-2.81,2.57-7.78,1.89-9.84-.29-.88-3.59-2.85-4.93-5.14-8.01-13.72,17.14-19.93,25.37-24.69,5.02-2.91,9.25-7.8,14.64-10.34-26.58-14.68-12.2-42.98,12.22-49.8,20.39-5.69,40.79.96,50.33,20.31,31.84-24.89,62.52-.08,74.22,31.75,4.12,11.22,4.73,26.99,20.25,28.25-1.85,6.66-10.07,2.68-13.99,0,.9,29.97-2.06,66.15-29.28,84.23-11.82,7.85-27.55,11.86-41.73,9.77-24.62-1.74-40.68-25.61-36.63-49.73-4.72-.01-14.16-2.6-8.75-8.2l11.43-2.25c6.56.88,10.76-13.27,5.39-13.78-10.24,4.06-16.32,2.18-18.26-5.67.07-6.64-3.24-38.82-10.45-40.22,4.34,10.54-6.74,6.99-12.53,4.21-3.62,1.75-6.9,4.03-9.84,6.84,4.39-2.87,13.03-5.98,11.58,2.1s-14.62,9.55-20.95,6.83c-4.2,2.06-14.26,29.84-11.54,30.12,4.2-2.51,16.07-9.31,14.93.44-.61,5.18-10.7,8.29-15.08,9.6,1.38,9.45,5.41,18.5,11.77,25.6l16.78,16.66c1.47,2.26,1,4.48-1.85,3.45Z"/>
  <path class="cls-15" d="M346,548c-.03-.07.95-.73.78-1.35-.63-2.29-15.39-15.1-18.3-18.64-6.48-7.9-10.54-17.81-11.45-27.97,3.81.68,18.56-4.86,14.88-9.95-2.57-3.55-10.37,6.29-14.92,3.91-1.48-5.97,8.81-32.86,13.6-33.78,1.44-.28,4.31,1.22,6.25,1.21,5.7-.04,14.54-1.87,13.15-9.42-5.44-.71-9.29,5.89-14.99,3.5,3.03-3.09,10.98-10.26,14.99-11.09,2.29-.48,13.01,6.99,11.92.23-.36-2.24-4.29-2.67-4.91-4.63,7.14-4.13,12.09,6.91,14.03,12.45,3.57,10.18,2.7,19.01,4.03,28.97,1.62,12.18,12.92,3.65,17.25,4.72,5.7,1.4,3.7,12.05-.35,15.31s-16.4,3.82-16.95,4.55c-2.42,3.22,9.26,5.01,10.99,4-4.88,19.17,4.86,39.43,22.63,47.87,2.1,1,9.48,3.84,11.38,4.12l-1,1-2,1.49c-21.13-4.9-43.56-7.97-65.22-5.81l-1.78-1.68c.25-3.58-2.68-5.95-4-9Z"/>
  <path class="cls-8" d="M164.15,421.86c2.62,1.53,10.78-8.28,14.35-.87,3.55,7.38-6.54,19.39-6.58,27.5-.02,3.32.99,6.15,1.83,9.26.7,2.6,5.05,15.05,6.15,16.63.72,1.03,5.84.7,8.67,3.55,3.87,3.91,3.44,9.9,5.37,12.63,1.14,1.61,9.05,6.05,11.59,8.41,10.84,10.05,26.08,34.84,27.46,49.54.12,1.3.84,6.21-.97,6.48-6.11-12.37-11.87-25.41-19.79-36.71-9.85-14.06-25.86-31.49-44.92-22.48-22.56,10.68-6.84,48.42.52,64.87,13.6,30.38,34.77,55.09,67.18,65.82,12.86,4.26,27.7,7.76,40.94,11.06,4.27,1.06,7.95.51,12.74,2.26,3.8,1.38,17.86,10.33,14.3,15.19-26.03-14.16-61.23-15.12-86.66-28.83-32.75-17.66-73.93-79.04-66.23-116.57.51-2.5,3.59-8.48,3.56-9.09-.05-.89-3.02-4.05-3.7-5.96-3.84-10.71,6.99-13.91,7.03-15.05-5.7-7.5-7.54-15.78-15.07-21.92-6.27-5.11-19.68-9.28-19.44-19.1.12-4.92,4.35-6.43,4.53-7.19.58-2.43-.69-4.63,1.1-7.68,1.65-2.82,4.34-2.27,4.75-2.75,1.25-1.45-.85-13.74,10.14-9.87-2.33-6.99-6.29-15.24-6.88-22.62-1.16-14.52,6.45-7.76,11.3-.29,3.18,4.89,15.1,32.83,16.73,33.78Z"/>
  <path class="cls-8" d="M249,868.99c-35.65,9.85-71.74,18.22-105.97,32.55-31.83,13.32-54.04,28.55-82.72,46.28-2.78,1.72-6.02,4.2-9.31,4.18,4.23-8.49,12.77-12.54,19.33-18.16,1.04-.89,2.1-.97,1.66-2.83-6.77,1.14-28.95-9.33-26.6-17.02,3.33-10.91,24,.13,30.6,3.01-.71-5.03-2.16-9.22-1.99-14.47.6-18.4,12.52-22.56,15.01-2.53l6.01-10.47c13.24-5.86,10.34,9.84,7.76,17.75-.43,1.31-5.91,9.76-2.3,8.71,31.21-18.48,65.43-31,100.3-40.7,10.5-2.92,30.98-9.58,40.87-10.2,2.89-.18,7.25.09,7.34,3.91Z"/>
  <path class="cls-21" d="M419,563c3.56,1.11,6.57,1.37,8.58,4.91,3.49,6.13,2.87,14.31,2.42,21.09,39.37,3.32,47.05,56.51,52.69,87.82,3.34,18.55,11.07,56.63,5.09,73.46-1.84,5.17-8.07,15.73-14.52,12.97-1.12-.48-1.62.16-1.13-1.6.79-2.85,5.95-7.41,7.75-11.28,6.5-14,.54-47.67-2-63.75-3.6-22.75-10.07-62.47-25.36-79.64-3.86-4.33-16.89-14.14-22.26-14.86-2.67-.36-4.45,3.61-6.79.9-1.41-2.11,2.62-15.1-1-20.99-2.21-3.59-22-6.18-27.1-6.9-9.01-1.26-17.26-2.12-26.36-2.14-3.57-.79-7.23-.79-11,0-13.6,2.59-12.19,7.62-13,19.52-.07,1.11.55,3.31-1.49,2.47-8.58-3.51-6.99-24.9,6.49-27.99,14.5-3.32,54.25,1.38,69,6Z"/>
  <path class="cls-8" d="M802.01,921c7.17-6.17,16.69-2.76,13.03,7.55-1.7,4.8-14.51,17.55-19.6,18.4-8.06,1.34-17.33-1.32-25.45-.96.61-2.52,6.56-2.48,7-4.51.3-1.35-15.16-19.33-6.57-24.54,7.11-4.31,12.99,4.91,16.07,10.05.78-3,1.85-12.69,5.15-13.83,6.38-2.2,10.02,1.67,10.35,7.83Z"/>
  <path class="cls-17" d="M446,636c8.06-.83,9.44,10.48,9.9,16.61,2.75,37.24,8.73,75.12,10.14,112.85.09,2.47-.05,10.52-3.54,10.53-2.38,0-3.23-9.36-3.49-11.49-3.64-29.16-3.25-59.21-7.13-88.87-1.74-13.26-5.29-26.31-5.87-39.63Z"/>
  <path class="cls-17" d="M337,583.99c-5.1,1.19-10.27,1.22-15.49,1-11.16-.46-28.41-2.27-39.14-4.86-12.4-2.99-22.17-10.26-33.86-14.14-3.78-1.25-16.36-3.09-17.36-5.64-1.76-4.5,2.61-3.64,6.33-3.33,16.6,1.41,31.92,14.23,48.46,17.54,11.84,2.36,24.69,1.74,36.43,3.57,4.78.74,11.44,1.86,14.62,5.87Z"/>
  <path class="cls-17" d="M320.91,649.09c3.78,2.54-3.81,30.89-5.2,36.12-4.64,17.53-11.21,38.4-17.7,55.3-1.18,3.06-2.29,7.68-5.01,9.48-.54-4.91.53-9.29,1.48-14.01,3.98-19.88,12.31-40.83,16.83-61.17,1.37-6.16,2.02-18.41,3.94-23.06.86-2.09,3.83-3.89,5.65-2.67Z"/>
  <path class="cls-22" d="M171.01,196c1.99,1.93,3.46-6.12,6.46-6.7,4.98-.95.92,8.14,1.53,8.69,14.45-.24,2.03,5.75,2.02,6.5,0,.44,4.25,3.12,2.98,5.49l-6.99-.99v7.99c-3.02,1-4.72-4.77-5.03-4.99-1.7-1.21-3.8,3.78-5.98,2.99l.99-6.99c-3.05-.08-6.58,2.71-8.98-.51l6.98-4.52-4.99-6.98,7.99,1.99-.99-9.99c2.94.37,3.67,7.68,4,8Z"/>
  <path class="cls-12" d="M763.01,184.99c1.82-.5,2.93-5.53,5.47-4.99,3.32.7-.79,6.78-.48,6.99l5.99,1.52-3.99,2.5,1.99,4.98-5.99-.99-.02,5.99c-2.88.96-3.72-3.77-4.02-3.99-.51-.39-3.39,2.69-4.97,1.99l.99-5.99c-6.82,2.64-8.01-2.2-.99-3.01l-3-5.98,5.99,1.99.02-7.99c2.13.88,2.69,5.01,3,6.99Z"/>
  <path class="cls-1" d="M457.01,229c11.38-10.34,5.12,2.19,5.99,3h4.99c.8,2.63-3.85,3.36-3.96,4.49-.14,1.43,5.85,5.79-4.03,3.52,1.26,6.64-3.25,7.29-4.02,1l-4.98,1.99.99-4.99h-5.99c-2.08-1.67,5.15-4.04,5.99-4.02.4-.53-10.49-7.29,2-3.99l.02-6.99,3,5.99Z"/>
  <path class="cls-27" d="M362.01,79c2.03,1.95,2.76-4.57,5.47-3.99,2.96.63.56,5.62-.49,6.98,11.73.23,2.08,3.43,2.03,4.51-.03.5,2.7,1.72,1.97,3.5-1.25.23-4.18-.48-4.88.12-.55.47-1.54,11.03-4.12.88l-4.98,2,.99-4.99h-5.99c-.31-2.75,2.87-3.69,4.99-4.02l-2.99-4.98c8.36,3.02,2.47-1.64,6.98-5,.11.98.68,4.67,1.02,5Z"/>
  <path class="cls-1" d="M898.01,464.99c1.55-.27,3.06-4.95,4.49-4.97,2.95-.06.27,6.67.49,6.97.34.46,11.17,1.46,1,4.02l2,4.98-4.99-.99v5.99c-4.69-.96-2.47-6.17-8-2l.98-6c-6.51,2.86-8.12-1.86-.99-3.02l-2.99-5.98,4.98,1.99.02-7,3,5.99Z"/>
  <path class="cls-2" d="M693.99,137c.06-1.56,1.82-4.36,3.5-3.99,2.82.62-.08,5.11.53,5.95.41.57,9.82,1.61-.01,4.05l1.99,3.98-4.99-.99v4.99c-4.08-.71-1.66-4.61-7-2,.61-5.12-.39-4.08-5-4.01-.83-3.17,3.92-2.14,4.99-4.5.2-.44-8.77-4.94,2-2.5l.02-6,3.98,5Z"/>
  <path class="cls-18" d="M51.98,501c1.35-5.21,6-3.85,3.02.99h4c.95,2.73-1.86,1.9-2.56,2.93-.86,1.26,3.2,4.9-3.44,2.08v3.99c-2.65.88-2.69-2.75-3.03-2.99-.62-.44-2.26,2.76-3.97,2,1.11-5.04-2.96-2.22-4.01-3.01-2.53-1.91,3.84-2.79,4-3.01l-2-2.98c4.61.06,5.62,1.12,5.01-4.01l2.97,4Z"/>
  <path class="cls-16" d="M936,355l.51,3.01,4.49-2.01c1.02,1.09-3.63,4.84,3,5.01.06,1.53-2.59,1.65-2.89,2.1-.23.34,1.33,2.73.88,3.88l-2.98-1v3.99c-3.94-.18-1.49-4.48-6-1.99.58-3.77-.6-3.21-4-3.02,0-2.02,3.86-2.8,4-3.01.44-.63-2.77-2.27-1.99-3.98l2.98,1,2-4Z"/>
  <path class="cls-13" d="M369,563c-3.66-.01-7.34,0-11,0,3.31-.63,7.92-2.5,11,0Z"/>
  <path class="cls-23" d="M637.79,608.22c2.99,4.12,6.55,8.76,10.2,12.3,9.16,8.88,27.05,18.47,34.01,26.99,12.21,14.95,20.24,59.1,49.02,39.02l5.96-7.52c7.77,11.76,8.92,25.68,8.06,39.54-.15,2.39-.84,8.51-1.52,10.48-.85,2.42-1.09.79-1.78-.24-6.54-9.79-8.31-23.76-18.25-30.77-.96.08-.53,1.64-.41,2.4,1.28,8.59,12.66,31.2,16.19,41.82,5.55,16.7,9.61,33.93,14.74,50.76-28.05,7.84-57.49,9.02-86.55,8.05-2.36-.08-4.55-.98-6.92-1.08-17.61-.78-35.21-1.08-52.49-5.01,1.78-19.4,8.34-38.16,10.82-57.58.34-2.67-.13-5.29.13-7.87,1.44-14.06,4.51-27.71-1.02-41.5-1.6.16-1.88,4.3-1.98,5.51-.38,4.6.34,9.37-.02,13.98-2.15,27.2-8.91,53.59-17,79.51-12.54-10.57-24.17-25.73-25.87-42.62-2.88-28.69,6.23-80.57,21.46-105.29,8.29-13.46,25.6-34.2,43.21-30.87Z"/>
  <path class="cls-7" d="M883,899c1.3,8.18,1.31,15.83,0,24-5.51-2.7-6.6-19.22-3.45-22.96,1.16-1.38,1.82-1.13,3.46-1.04Z"/>
  <path class="cls-3" d="M901.99,905c2.39,2.57-10.42,16.8-12.98,18.99-.69-3.17,10.22-21.96,12.98-18.99Z"/>
  <path class="cls-3" d="M911.99,913c1.28,1.3-.85,2.97-1.65,3.84-1.37,1.48-12.25,9.09-13.34,8.15.79-3.14,12.27-14.76,14.99-11.99Z"/>
  <polygon class="cls-5" points="566 508.01 561.98 516 558.02 513.5 566 508.01"/>
  <path class="cls-6" d="M318.99,462.01c.29.3-2.33,6.66-2.74,7.79-.31.85.23,2.97-1.74,2.2-6.04-2.36-1.1-10.12,4.48-9.98Z"/>
  <path class="cls-10" d="M172.99,425.01c-.57,7.72-8.02,15.8-7.99,23.5,0,2.71,1.89,8.35,2.73,11.26.73,2.53,5.08,12.07,5.02,12.75-.2,2.48-12.54,6.45-13.7,5.43-2.71-9.52-6.44-18.91-14.14-25.36-2.94-2.46-17.12-9.93-15.9-14.02.47-1.55,5.56-1.94,5.91-4.18.24-1.54-3.87-3.51-.97-7.93,2.04-3.11,1.97-.36,2.12-.26,6.27,4.33-1.03-8.21,3.42-10.19,1.12,1.56,2.75,4.77,4.54,5.53,1.14.49,5.72-.31,5.95-.56,1.23-1.34-8.71-26.55-7.98-30.98,6.13,5.73,13.95,35.25,20.93,37.58,4.88,1.63,6.01-1.49,10.05-2.57Z"/>
  <path class="cls-20" d="M187.99,487.99c-4.99-.7-10.39-.36-9.99-6.99,4.82-.68,9.44,1.77,9.99,6.99Z"/>
  <path class="cls-3" d="M174,482c2.22,7.29-9.88,9.68-9,1l9-1Z"/>
  <path class="cls-14" d="M160.99,485c-.41,2.02,1.25,4.55.84,6.3-1.76,7.54-12.08-4.29-.84-6.3Z"/>
  <path class="cls-11" d="M77,925.99c-4.86.5-8.23-.1-12.67-1.82-1.57-.61-13.46-6.98-11.32-9.17,8.19,2.86,17.75,4.32,23.99,10.99Z"/>
  <path class="cls-24" d="M82,916c-5.32-4.74-2.52-13.81-1.99-19.99,1.01-.43,1.99,2.33,1.99,2.49v17.5Z"/>
  <path class="cls-26" d="M91.99,914.99c-1.8.24-.91-2.17-.74-3.23.75-4.77,3.1-12.53,6.74-15.76.44,6.94-3.99,12.69-6,18.99Z"/>
  <path class="cls-25" d="M793.72,937.72c-.18.24-2.61,1.39-2.71,1.28-1.44-3.09.22-21.91,4.47-21,3.47.75-.09,17.45-1.76,19.71Z"/>
  <path class="cls-3" d="M784.99,939.99c-5.54,1.88-11.96-16.95-10.99-17.99,1.88-.39,2.41.94,3.41,2.08,1.57,1.79,8.76,14.73,7.58,15.91Z"/>
  <path class="cls-19" d="M809.99,923c2.23,2.51-6.32,12.32-9.99,11.99-1.31-1.37,5.88-13.17,9.99-11.99Z"/>
  <g>
    <path class="cls-4" d="M820.55,643.17c.66.51,13.74-5.1,11.96,5.46-.47,2.77-13.8,11.69-15.36,11.39-5.96-1.14-11.09-23.49-1.31-22.63,4.04.36,4.23,5.41,4.71,5.78ZM817.39,642.28c-.37-.24-2.91-.57-2.9.47-.31,3.98.43,8.06,2.56,11.46,2.25.38,9.71-5.77,10.44-7.55,1.46-3.53-6.12.79-7.33.43-2.09-.61-2.31-4.52-2.77-4.81Z"/>
    <path class="cls-9" d="M817.39,642.28c.46.29.67,4.2,2.77,4.81,1.22.35,8.79-3.96,7.33-.43-.74,1.78-8.19,7.93-10.44,7.55-2.13-3.4-2.87-7.48-2.56-11.46,0-1.04,2.53-.71,2.9-.47Z"/>
  </g>
  <g>
    <path class="cls-4" d="M224.31,655.79c1.35,1.35,1.38,5.32,1.25,7.23-.12,1.7-3.27,15.61-3.94,16.1-4.09,2.93-17.69-4.89-19.94-9.19-4.53-8.66,4.08-12.25,10.86-7.38-.72-5.96,7.55-10.97,11.77-6.76ZM216.54,674.55c-.75-2.76,7.1-15.02,2.49-16-3.09-.66-4.01,7.63-4.5,7.99s-7.77-3.45-9.98-1.99c-1.78,4.34,10.87,11.01,11.99,10Z"/>
    <path class="cls-9" d="M216.54,674.55c-1.11,1.01-13.76-5.66-11.99-10,2.21-1.46,9.48,2.36,9.98,1.99s1.41-8.65,4.5-7.99c4.61.98-3.25,13.24-2.49,16Z"/>
  </g>
</svg>