<?xml version="1.0" encoding="UTF-8"?>
<svg id="Layer_1" data-name="Layer 1" xmlns="http://www.w3.org/2000/svg" viewBox="0 0 520 520.5">
  <defs>
    <style>
      .cls-1 {
        fill: #b3b2b2;
      }

      .cls-2 {
        fill: #bebcbd;
      }

      .cls-3 {
        fill: #252122;
      }

      .cls-4 {
        fill: #2c2729;
      }

      .cls-5 {
        fill: #bdbbbc;
      }

      .cls-6 {
        fill: #bdbcbc;
      }

      .cls-7 {
        fill: #b1afb0;
      }

      .cls-8 {
        fill: #7c797a;
      }

      .cls-9 {
        fill: #878585;
      }

      .cls-10 {
        fill: #b2b1b1;
      }

      .cls-11 {
        fill: #c4c3c3;
      }

      .cls-12 {
        fill: #cccbcc;
      }

      .cls-13 {
        fill: #231f20;
      }

      .cls-14 {
        fill: #c8c8c8;
      }

      .cls-15 {
        fill: #f5f4f4;
      }

      .cls-16 {
        fill: #d82f87;
      }

      .cls-17 {
        fill: #acaaab;
      }

      .cls-18 {
        fill: #ddd;
      }

      .cls-19 {
        fill: #262223;
      }

      .cls-20 {
        fill: #d2d1d1;
      }

      .cls-21 {
        fill: #242021;
      }

      .cls-22 {
        fill: #b5b4b4;
      }

      .cls-23 {
        fill: #bcbabb;
      }

      .cls-24 {
        fill: #282425;
      }

      .cls-25 {
        fill: #fefefe;
      }

      .cls-26 {
        fill: #bfbdbe;
      }

      .cls-27 {
        fill: #d8d7d7;
      }

      .cls-28 {
        fill: #f7f7f7;
      }

      .cls-29 {
        fill: #fdfdfd;
      }
    </style>
  </defs>
  <path class="cls-13" d="M353.99,281c3.74,11.57,8.31,22.7,11.74,34.5,4.64,15.97,8.94,32.24,12.5,48.49,6.22,28.48,18.71,87.47-28,85.53-3.74-.16-6.31-1.97-9.65,1.3.25,4.38-1.02,18.91,1.57,22.05,3.05,3.69,17.83,3.67,22.33,2.13.21-1.03-.51-1.16-1.15-1.59-3.1-2.09-13.43-4.84-14.78-7.21-1.68-2.96.46-10.7,2.19-13.68,3.14,2.47-.51,9.8.98,12.01.33.49,9.36,3.72,10.95,4.54,5.25,2.7,10.23,6.93,1.81,9.7s-22.69,2.24-31,.52c-1.06-.22-2.64-.79-3.47-1.53.53-.12,2.01-.75,2.25-.75h9.24c-.75-1.08-2.23-1.46-2.93-2.81-.57-1.09-.79-2.75-1-4-1.3-7.77-.11-16.23-.64-24.11-4.01-1.58-7.92-4.23-10.62-7.62-1.61-2.03-2.39-4.34-3.67-6.31s-1.2.75-1.73,1.99c-3.85,8.95-12.55,15.75-22.36,16.37,1.49,5.77,3.07,21.02-.57,25.68-1.19,1.53-3.46,1.11-3.43,2.81.54-.28,6.35.06,4.99,1.5-13.86,1.93-28.04.93-41.95,0-.12-.71.88-.73,1.39-.85,1.4-.35,8.23-.89,8.54-1.21.1-.1.19-1.79.62-2.63,1.75-3.38,13.06-7.26,16.87-8.36-.49-3.29,1.87-15.48-.19-17.45-.71-.68-4.04-1.11-5.38-1.62-6.99-2.62-13.31-6.23-17.26-12.73-15.25-25.14-2.35-82.58,4.14-110.66,3.29-14.23,6.87-28.44,11.79-42.19-.09-.59-8.93-3.26-9.43-5.15l-2.59-35.15,2.24,4c2.25,9.41,2.29,19.11,2.76,28.73l.71,1.29c7.61,3.63,15.63,6.54,22.6,11.36,1.78.3,15.87-8.93,19.28-10,3.44-1.09,2.98.4,5.21,1,.96.26,2.05,0,3.15.35,5.1,1.65,9.66,4.69,14.61,6.69l19.34-11.2.92-1.08c.55-4.27.3-8.63.6-12.9.23-3.23,2.37-18.66.3-20.31-1.17-.93-4.62.07-4.83-2.21-.24-2.59,5.51-3.73,4.03-5.23-.23-.24-5.21.56-6.26-1.49s.63-4.06,2.75-4.01c-.22-1.01-1.98-.98-2.52-1.84-2.17-3.54,3.3-4.96,6.01-4.65,1.76-1.51-9.27-5.93-3.64-8.88,4.57-2.39,15.2,5.01,18.39,8.37,5.94,6.26,4.31,12.41,5.83,19.66.82,3.91,4.46,1.15,4.87-1.93.16-1.21-.32-5.95-.49-7.45-.2-1.8-2.95-11.74-.24-11.75,1.54,0,2.99,8.75,3.18,10.3,1.16,9.66.49,36.09-8.45,41.91-7.14,4.65-13.19-4.88-13.96-10.98-.06-.49-.37-2.35.49-2.25,1.72,2.65,5.81,11.88,9.23,11.94,7.36.13,10.19-20.48,9.75-25.95-.86,1.42-4.58,1.29-4.92,1.57s-.02,2.43-1.06,2.43c-1.12-6.55-.24-14.56-3.07-20.68-2.31-5-9.11-9.96-14.42-11.31-.97.92,6.32,4.53,7.01,5.23,5.24,5.3-6.82,2.39-9.77,2.77-.69.09-1.46.28-.74.99.27.27,5.88,1.65,6.87,1.88,2.06.47,4.04-.72,3.62,2.63h-10.99c-.21,1.3.19.9,1.08,1.14,1.92.53,9.77.22,10.39.87.37.4-.03,2.94-.99,3.22l-7.48,2.75c2.91,1,5.46-.19,8.24,0,.4.03,1.75-.23,1.24.75-.59,1.13-4.31,1.26-4.51,2.09l-1.48,26.41c-.91,2.72-.07,6.27-1.13,8.87-.78,1.91-4.63,3.25-6.36,4.38.35,1.95-1.31,2.56-.23.97.07-.11.37-.06.73.03Z"/>
  <path class="cls-13" d="M210.12,270.5c1.95-.4,4.05-.44,5.99,0,.15-.95.55-.9,1,0,.56.03,1.63-.35,1.49.49-1.8.73-3.42,1.81-5.49,1.51,4.37,26.36,9,52.77,14.23,79.01,4.46,22.4,10.29,44.96,14.09,67.4.94,5.56,3.42,17.59,1.93,22.61-2.4,8.09-23.18,10.19-30.24,10.48,1.45,9.29,1.77,18.58,1.5,28-2.09.39-3.07-1.15-2.96-4.61-2.61,2.51-5.45,3.88-8.53,4.11l-.17.56c-2.59-.07,2.72.52,3.67-.06,1.89-1.4,5.23-.79,7.32.15l3.67.35c.28.12,2.08.35,1,1.5-.51.54-12.77,1.42-14.7,1.5-5.19.21-11.37.27-16.54.02-1.62-.08-12.72-1.09-13.22-1.52-.64-.56.06-.89.62-1.13,1.76-.75,7.6-.08,7.87-.37.17-.18-.14-2.61,1.75-4.5,2.82-2.81,15.96-8.4,16.98-10.5,1.47-3.03-1.42-10.63-1.99-14.02-4.65-1.42-12.54-2.16-15.75-6.24-2.53-3.23-3.81-13.23-4.43-17.57-1.49-10.5-1.79-21.19-3.32-31.68-1.58,12.26-1.69,24.87-3.89,37.11-.61,3.38-1.89,10.46-3.92,13.07-3.89,5.01-18.12,3.93-23.9,4.83,1.42,9.29.06,18.86-.96,28.17.55,1.74,6.48,0,6.45,1.57s-14.49,2.18-16.69,2.26c-7.73.3-17.97.87-25.53.51-1.88-.09-5.13-.4-6.72-1.27,2.99-.98,6.33-1.18,9.49-1.25-3.17-4.89,1.98-6.92,5.66-8.58,2.76-1.25,14.57-4.85,15.68-6.55,2-3.04-.63-12.57-.37-16.36-9.21-.48-29-6.94-29.01-18.26,0-8.46,4.45-23.73,6.67-32.35,10.98-42.66,27.33-83.98,34.35-127.67.38-1.94-2.24-1.81-2.78-2.71-.26-.43-.4-1.85-.25-2,.68-.7,16.7,2.62,19.3,2.93,16.95,2.06,33.61,1.12,50.64,1.06Z"/>
  <path class="cls-13" d="M185.15,106.5c7.8-15.88,29.32-13.79,39.97-1.76,9.35,10.56,8.88,24.67,11.91,37.58,2.26,9.63,6.75,19.27,8.41,29.08.73,4.32,1.2,7.52-.85,11.6,2.12.08,15.92-1.09,16.48-.5.05.05.06,1.29-.04,1.45-.75,1.17-15.94,1.79-18.56,2.17-3.36.5-6.87,3.15-10.26,4.23-7.4,2.36-19.79,3.46-26.93.24-.88-.4-4.26-2.89-4.64-2.6-4.59,10.07-21.95,17.24-31,8.77-2.71-2.54-3.51-6.47-5.82-9.18l-74.36-20.62c-5.91.16-5.93,13.69-6.95,18.04-.67,2.84-1.52,7.13-4.76,7.98.81-5.49,1.98-10.45,2.49-16l-.93-.73c.68-2.95.7-5.76.04-8.44l-4.58-1.31c-14.82-2.28-29.69-5.61-43.6-11.65,6.5,3.63,16.42,9.69,4.43,14.85,4.41-1.04,8.75-1.52,13.01-1.44,2.33,1.61,4.68,2.66,7.54,2.18,4.42-1.14,8.03-1.31,12.57.11,2.58.81,7.35,2.4,8.03,4.93-4.39.43-9.72-2.38-13.79-2.45-4.45-.07-6.72,2.76-12.68.7-1.27-.44-2.76-1.93-3.72-2.02-3.55-.34-9.53,1.7-14.5,1.27-9.4-.82-10.57-9.42-4.26-15.24-2.08-1.44-10.8-7.61-4.24-8.25s11.96,3.19,17.85,5.14c12.22,4.04,23.76,5.09,35.86,8.1,2.22.55,4.26,1.86,5.75,2.25.25.06.35-2.23,4.34-1.87,4.38.4,10.56,2.38,14.99,3.51,6.33,1.61,12.57,3.65,18.87,5.35-.77-3.72.1-8.19.74-12.01,3.48-20.73,14.79-51.47,37.22-57.74,8.01-2.24,18.45-1.25,24.98,4.25,1.82.94,2.15.94,1,0Z"/>
  <path class="cls-13" d="M266.07,216.5c-15.43,5.15-14.22,16.56-18.24,30-2.31,7.72-1.98.26-2.24,0-.09-.09-1.52.08-2.12-.12-2.85-.94-3.92-2.87-5.87-4.88-1.14,7.71-1.87,29.35,11.33,24.1,5.51-2.19,9.07-10.12,10.15-15.6,1.54.94,1.18,5.08.95,6.71-.64,4.62-6.41,11.4-10.93,12.56-18.91,4.86-15.68-24.14-13.26-34.77,4.06-17.83,16.51-37.84,28.47-51.5,5.6-6.39,11.75-11.86,18.73-16.74-6.41-4.65-10.15-10.84-13.73-17.74l-2.25,1.5c.24,1.08,1.86.61,1.49,1.73-4.3,4.82-11.56,2.96-14.89-2.07-2.55-3.86-2.69-8.99-4.34-13.16-2.26-5.72-7.73-9.91-8.61-16.39-3.86-28.53,32.9-47.4,53.31-27.12,6.52-13.08,23.59-16.08,36.15-9.93,14.64,7.17,19.89,23.26,13.9,38.27-1.49,3.73-5.23,7.66-6.25,10.75-1.61,4.91.29,10.09-3.33,14.66-2.21,2.78-6.69,4.57-9.77,2.26-.2-1.91,1.89-1.87,3.07-2.47.53-.27.94.26.71-1.04-1.66-.18-2.55-1.07-3.24-2.51-.57.25-1.84,7.14-2.36,8.64-3.01,8.67-11.45,19.93-21.18,20.8-8.49.76-12.97-5.61-21.13-.14-14.5,9.71-32.34,36.25-38.38,52.58-1,2.69-4.16,11.35-3.36,13.6.5,1.41,3.74,4.94,5.38,4.46,2.36-.69,5.7-16.45,7.63-19.9,2.17-3.89,7.1-7.08,11.19-8.57-.38-3.31-4-14.52,1.62-14.35,6.74.2,12.47,6.54,20.09,5.35,3.32-.52,9.55-7.21,12.53-9.46.78-.59,1.72-1.51,2.73-1.51,1.11,1.19-4.77,7.41-5.79,8.45-1.23,1.24-7.92,7.17-9.07,7.45-3.31.8-19.15-7.28-20.1-6.4.66,2.2.81,6.11,2.48,7.77,1.9,1.89,6.76.43,5.42,4.88-.28.92-1.62,1.19-1.4,2.35,3.59.12,9.12,2.45,3.5,5.01.78,1.44,2.03.01,2.04,2.23,0,2.54-2.08,2.83-2.08,4.02,0,.68,5.02,4.24,1.41,5.87-3.24,1.47-8.78.34-12.37.87.84-3.61,6.27-1.96,8.99-2.74-1.83-1.83-5.27-1.34-7.73-1.25-.91.03-3.32,1.2-3.75-.26-.9-3.07,9.07-4.6,10.99-5.24-.04-.53-.7-.7-2-.5-.63.1-1.35-.06-2.1.12-1.08.25-9.02,3.66-8.38.64l2.8-2.2,9.68-3.56c-2.97-.17-5.92.07-8.77.97-2.04.65-3.53,2.53-5.72,1.52-1.45-2.05,7.55-6.58,8.99-7.5.34-.41,0-.58-1-.5Z"/>
  <path class="cls-25" d="M484.36,146v.5c-10.09,1.81-20.83,2.07-30.97.5l-.49-1.15c1.22-4.52,1.54-9.27.95-14.25.89-10.75,1.55-21.44,1.97-32.07.88-1.19,27.4,1.19,29.25,3.04s1.48,12.96,1.33,16.01c-1,8.59-1.42,17.18-1.27,25.78l-.78,1.64Z"/>
  <path class="cls-23" d="M484.36,146.5c3.1-.07,10.1-1.19,10.99,2.49-1.56.28-3.16.86-4.75,1-13.83,1.18-29.07-.27-42.93-.51-12.85-.23-25.67-.73-38.46-1-10.74-.23-21.55.54-32.24-.48-1.09-.84,2.98-2,3.24-2h35.22c-.77-3.75-.66-8.35-.52-12.27.67-18.4,4.39-40,2.52-57.98-.33-3.2-1.12-3.26-3.89-4.11-10.04-3.07-21.74-1.41-32.07-2.65-.07-.72,1.18-.81,1.74-1,6.28-2.18,27.91-1.17,33.92,2.07,3.41,1.83,3.61,7.53,3.83,11.17.91,15.15-1.68,33.14-2.54,48.5-.31,5.52.9,11.65-1.48,16.77,6.99,0,13.99.03,20.98,0,4.99.33,10.15.5,15.49.5,10.36,0,20.7-.27,30.97-.5Z"/>
  <path class="cls-23" d="M437.9,146.5c4.82-.01,9.66.01,14.49,0-1.61-4.01-1.14-9.8-1.02-14.27.35-13.2,2.64-26.75,1.51-39.97-.14-1.62-.45-4.83-1.84-5.66-5.68-3.39-18.99-2.18-25.63-3.6.13-.73.9-.99,1.51-1.24,4.74-1.91,23.04-.59,26.94,3.02,2.59,2.4,2.48,10.73,2.52,14.22,4.71-1.37,10.76-1.32,15.73-.99,2.89.19,13.3,1.5,14.98,3.51,3.57,4.27.84,27.42.27,33.74-.27,2.95,1.06,10.36-3,10.74-1.42-8.61.73-17.93,1.02-26.73.09-2.72.37-14.18-.78-15.77-2.02-2.8-24.07-2.39-28.21-3.51-.13,3.57.15,7.19.02,10.77-.26,6.79-1.2,13.67-1.54,20.46-.25,5.1,1.21,11.37-1.48,15.77-4.24,0-8.5.05-12.74,0-.84,0-2.22.32-2.74-.51Z"/>
  <path class="cls-18" d="M80.25,177c-1.04-.29-2.61-.96-3.5-1.5-3.9-2.4-8.82-4.79-13.76-5.01-4.42-.2-7.13,2.29-12.22.26-.91-.36-1.68-1.28-2.47-1.52-3.64-1.11-10.75,2.41-15.01,1.27-.28-1.33.34-.86.98-1.24,2.35-1.38,6.64-2.39,5.92-5.89-.62-2.98-10.57-8.14-13.39-9.87-.14-.79.69-.54,1.2-.46,5.23.85,13.7,5.14,19.67,6.82,3.72,1.05,7.81,2.08,11.58,2.91,3.27.72,19.8,2.88,20.96,4.52,1.35,1.89.24,7.48.03,9.72Z"/>
  <path class="cls-13" d="M356.98,167.5l-1.05.62c-8.67-5.58-14.83-9.08-21.97.86l-2.56,3.42,7.27-6.11c7.25-3.86,4.31,4.57.91,7.65l1.92-1.72c2.81-3.93,7.95-8.34,6.27.06,1.94-3.05,4.25-2.95,4.62.84,1.42-1.72,2.45-1.92,3.1-.6-.22.63-.05,1.55-.55,2.69-1.3,3-6.95,11.33-7.94,3.81-.55-.6-4.17,3.62-6.04,1.28-.44-.55-.4-1.7-.47-1.76-.42-.4-7.12,2.7-5.98-3.51-2.66,2.26-7.82,3.25-7.47-1.69.32-4.5,5.95-6.91.15-10.73-1.42-.93-4.46-1.43-4.63-1.61-.07-.07-.1-1.89-.03-1.97.45-.47,3.74.32,4.63.61,2.43.8,4.22,2.85,6.54,3.84,3.83-3.62,6.36-5.71,11.94-4.83,2.4.38,11.1,4.42,11.79,6.75.32,1.08-.35,1.55-.43,2.13Z"/>
  <path class="cls-13" d="M471.87,97c-.08-.08-.08-1.53.11-1.89.16-.29,4-3.2,4.88-4.36.63-.83,1.62-2.47,2.09-3.41,14.46-29.2-30.58-47.75-43.97-18.02-1.06,2.34-1.32,5.39-3.06,7.18-1.59-4.95.38-9.59,3.08-13.66,14.09-21.16,51.56-11.68,49.88,14.93-.34,5.32-4.06,16.97-9.64,18.85-.69.23-3.06.7-3.37.38Z"/>
  <path class="cls-13" d="M365.47,190.51c-.47.97-.66,2.07-1.27,2.97-1.4,2.09-12.32,10.83-14.52,11.02-2.8.25-12.27-7.34-15.93-7.97-.81,0-3.59,1.88-4.51,2.45-2.43,1.52-7.53,5.97-9.75,6.74-4.42,1.53-11.53-5.43-16.14-6.3-3.37-2.76-2.05-3.85,1.78-2.78,3.01.84,9.75,5.39,11.58,5.33.89-.03,2.13-.67,2.96-1.07,3.55-1.74,8.87-6.32,11.97-7.52,5.5-2.13,12.46,7.64,19.06,6.57,3.25-.53,13.38-10.55,14.77-9.46Z"/>
  <path class="cls-13" d="M152.68,220c-1.02-.11-1.99.49-3.01.28-1.54-.32-8.4-4.99-10.8-6.21-12.04-6.07-28.91-11.63-42.03-14.93-3.78-.95-9.41-1.26-12.62-2.37-2.72-.94-3.28-3.27.26-3.32,8.24-.13,25.73,6.11,33.98,9.04,8.73,3.1,25.29,9.11,32.17,14.8.41.34,2.64,2.18,2.04,2.71Z"/>
  <path class="cls-5" d="M376.96,143c-.87-.33-1.31-2.47-1.45-3.29-2.35-13.83,1.35-36.23,1.98-50.94.21-4.9-.59-10.85-.03-15.53.34-2.85,2.55-4.61,3.03-1.01,1.55,11.59-1.29,27.18-2.02,39.03-.65,10.57-.79,21.21-1.51,31.74Z"/>
  <path class="cls-21" d="M217.12,270.5c-.33-.02-.67,0-1,0-.93-.23-1.09-.56-.5-1-4.41-9.32-5.36-46.62-4.51-57.77.1-1.33.26-4.03,1.51-4.73,1.86,5.89.65,12.18.98,18.27.44,7.92,1.24,16.55,2.02,24.48.42,4.27,2.86,15.3,2.48,18.46-.1.85-.62,1.56-.98,2.29Z"/>
  <path class="cls-18" d="M356.98,167.5c-.36,2.71-.7,2.76-1.5,5-2.33-.37-2.6,3.3-4.49,4-.09-.96.47-1.72.45-2.69,0-.45-.26-3.18-1.2-2.8-.76.31-4.79,6.46-5.75,5.49.91-2.89,4-5.27,2.25-8.49-3.03,2.66-4.72,6.21-8.74,8-.33-3.84,6.06-6.6,3.7-10.02-1.94-.33-7.85,6.21-10.05,7.43-.45.25-1.65.92-1.64-.15.02-2.1,6.98-9.25,9.01-10.47,6.64-3.99,12.15,2.19,17.95,4.71Z"/>
  <path class="cls-21" d="M294.47,280.43c-.38.24-1.65.26-1.98-.22-.79-1.13-2.04-9.96-2.36-12.04-1.81-11.64-3.28-24.19-4.57-35.92-.72-6.55-1.4-13.18-1.5-19.75,2.37,2,2.43,6.33,2.91,9.33,2.98,18.58,4.53,37.44,8.09,55.94.03.57-.26,2.45-.59,2.65Z"/>
  <path class="cls-21" d="M345.99,209c1.75,1.79-1.17,19.7-1.49,23.25-.68,7.49-1.4,15.02-2,22.5-.36,4.56.09,10.81-.54,14.96-.16,1.07-1.37,3.19-2.46,2.28s-.21-16.55,0-19.25c.97-12.33,2.74-26.17,4.56-38.44.2-1.34.45-3.43.88-4.62.19-.52.3-1.46,1.05-.69Z"/>
  <path class="cls-21" d="M315.51,209c1.18,1.12,1.91,9.65,2.03,11.73.71,12.64.52,25.39.96,38.04.07,2.15,2.14,12.15-.24,12.73-.91.22-1.43-1.23-1.61-1.88-2.47-8.74-.91-25.22-1.11-34.89-.14-6.91-.72-14.04-1.04-20.96-.05-1.17-.12-2.93.02-4.03.09-.7.26-1.43.99-.74Z"/>
  <path class="cls-21" d="M139.13,265.43c-3.86.86-2.28-4.14-1.79-6.53,2.21-10.64,6.52-24.17,9.59-34.9.21-.75.49-3.11,1.5-2.99,1.94,2.24.57,6.28.01,9-2.43,11.94-6.22,23.66-9.31,35.42Z"/>
  <path class="cls-19" d="M238.6,208.5c-.02,1.96-2.91,2.1-4.38,2.36-5.44.96-11.38.74-16.85,1.68-1.52.21-2.34-1.33-1.52-2.57.86-1.3,4.74-.56,6.02-1.47h16.73Z"/>
  <path class="cls-19" d="M365.97,211c-.7.02-1.29.19-1.75-.49-1.03-1.51,1.38-11.33,1.7-13.82.19-1.52-.24-3.69.04-4.86.22-.93,2.51-.76,2.94.51,1.49,4.42-2.61,13.84-2.92,18.66Z"/>
  <path class="cls-28" d="M203.13,479.5c3.74-1.76,6.53-3.57,9.49-6.5.03,1.97-.16,6.79,2,7,1.34.13,1.52-.11,3,.5-3.71.27-7.33-.18-10.99-.5-1.09.31-3.58.8-3.5-.5Z"/>
  <path class="cls-2" d="M391.26,77.04c1.59-.52,2.58.71,2.73,2.2.06.65-.49,7.55-.62,7.93-.44,1.31-2.49,1.48-3.17.34-.57-.95,0-7.75.26-9.25.1-.56.2-1.02.81-1.21Z"/>
  <path class="cls-5" d="M403.94,79.25c.53-1.86,3.5-1.1,3.5,0v8.5c0,1.45-3.5,1.45-3.5,0,0-1.92-.39-7.13,0-8.5Z"/>
  <path class="cls-5" d="M391.88,119.93c-.89.55-2.67.18-2.93-1.18-.36-1.89.52-12.54,3.54-8.54.78,1.03-.11,9.42-.6,9.72Z"/>
  <path class="cls-2" d="M402.94,111.25c.38-1.24,2.93-.99,3.39.6.29,1,.28,6.27-.15,7.15-.71,1.47-3.25,1.12-3.25.25,0-1.75-.36-6.82,0-8Z"/>
  <path class="cls-19" d="M431.41,58.5c-1.52,1.48-5.56-3.81-6.46-4.77-.43-.45-1.23-.66-1.52-.99-1.83-2.08,1.66-2.85,3.27-1.77.84.56,5.5,6.76,4.71,7.53Z"/>
  <path class="cls-24" d="M498.84,79c.51,6.73-6.79,1.56-10.48,2,.46-4.84,7.23-.34,10.48-2Z"/>
  <path class="cls-24" d="M468.37,48c-4.8-1.54,1.83-6.43,1.01-10,6.98.46-.51,6.61-1.01,10Z"/>
  <path class="cls-2" d="M444.65,92.18c3.89.03,2.42,10.79-1.01,7.33-1.14-1.15-1.55-7.35,1.01-7.33Z"/>
  <path class="cls-26" d="M427.48,121.93c-.93-.59-2.24-7.81,1.17-7.46,2.8.28,2.66,9.9-1.17,7.46Z"/>
  <path class="cls-24" d="M491.36,50.5c.8-.6,2.38,1.6,1.76,2.98-.34.75-6.8,4.7-7.49,4.52-4.1-1.07,6.26-5.91,5.74-7.5Z"/>
  <path class="cls-5" d="M443.78,116.12c.97,1.01,1.05,5.9-.19,6.85-3.03,2.32-3.09-5.06-2.71-6.64.2-.81,2.27-.86,2.9-.21Z"/>
  <path class="cls-5" d="M431.29,91.11c1.1,1.19,1.35,8.05-1.53,7.33s-1.38-10.49,1.53-7.33Z"/>
  <path class="cls-24" d="M446.89,47c-1.84,1.75-3.71-6.16-4.94-6.83,3.6-6.27,5.39,6.41,4.94,6.83Z"/>
  <path class="cls-8" d="M216.12,270.5c-1.99-.04-4,0-5.99,0,1.34-1.33,4.16.33,5.49-1,.13.27.54.55.5,1Z"/>
  <path class="cls-12" d="M185.15,106.5c.86,0,1.87-.27,1.49.74-.77,2.07-1.98-.31-2.49-.74.33,0,.67,0,1,0Z"/>
  <path class="cls-10" d="M270.57,227c.89-.14,2.14-.97,3.5-.49-.12.88-.9.8-1.5.99l-2-.5Z"/>
  <path class="cls-7" d="M266.07,216.5c.92-.31,1.88-1.13,3-1-.22.94-1.34,1.07-2,1.5l-1-.5Z"/>
  <path class="cls-1" d="M353.99,281c-.69.55-.16,1.69-.99,1.5-.13-1.54-.84-1.63.49-2.5.13.34.39.66.5,1Z"/>
  <path class="cls-25" d="M295.42,473.88c-2.83,2.98-19.03,4.46-23.35,3.12l3.5-2.24c1.74-1.28,13.43-4.57,13.95-5.3s-1.23-3.16-1.3-4.27c-.13-1.99.43-5.07.36-7.46s-.96-4.78-.52-7.23c3.38-1.1,8.11,3.51,8.87,6.37.64,2.4.16,15.25-1.51,17.01Z"/>
  <path class="cls-25" d="M113.22,477.51c4.62-3.24,17.71-5.3,20.9-9.33,2.86-3.6,1.43-13.25.58-17.67,1.16-.99,5.84,2.02,6.52,3.22.78,1.36.67,10.88.42,12.97-.6,4.95-4.07,7.77-8.45,9.55-3.94,1.6-14.82,3.46-18.67,2.21-.55-.18-1.21-.17-1.3-.95Z"/>
  <path class="cls-25" d="M203.13,452c1.92-.55,6.35,1.4,7.13,3.11.45.99,1.37,9.12,1.41,10.63.18,8.25-12.57,12.31-19,13.53-1.17.22-6.5,1.46-6.02-.52.43-1.77,15.44-7.64,17.58-11.4s.4-11.28-1.1-15.35Z"/>
  <polygon class="cls-15" points="133.7 479.5 141.43 475 141.69 479.5 133.7 479.5"/>
  <path class="cls-17" d="M206.63,480c-1.19,1.06-3.43.29-4.99.49-.16-.63.81-.67,1.5-.99.7.93,2.39.4,3.5.5Z"/>
  <path class="cls-18" d="M184.65,127c3.78-1.01,6.21-2.17,8.99-5,.01,7.63,4.61,15.52,11.99,18.01-1.78,1.03-2.11,5.17.26,3.5,1.16-.82,1.92-2.06,3.61-2.4,7.48-1.48,7.67,9.99-.33,12.18-1.16.32-2.37.11-3.55.45-3.46,1.01-6.03,4.73-6.25,8.24-.15,2.37,1.78,5.1.56,6.55s-7.44,5.71-9.35,6.66c-11.71,5.81-24.28,4.08-31.42-7.42-8.27-13.33-4.09-29.75,1.52-43.26,2.67.08,2.88,3.25,3.29,3.56.34.25,7.52,2.15,8.13,2.2,1.79.15,1.77-1.58,2.41-1.77.71-.21,1.83.13,2.63,0,1.38-.37,2.21-.2,2.5.5.68.73,8.28,4.06,9.34,3.08,1.5-1.38-1.04-2.98-2.33-2.99l-.51-1.09c-1.08-.15-1.58-.48-1.5-1Z"/>
  <path class="cls-29" d="M207.5,156.62c8.32-1.35,8.54,13.72-1.01,11.76-6.02-1.23-5.67-10.68,1.01-11.76Z"/>
  <path class="cls-27" d="M29.81,159c4.1,1.33.11,3.36-.4,5.87-.38,1.87.85,3.36-.36,4.62-4.21-3.57-1.7-6.9.76-10.49Z"/>
  <path class="cls-11" d="M31.3,167c-.36-.34.52-2.89,1.49-3,.98,1.29-.2,4.22-1.49,3Z"/>
  <path class="cls-22" d="M182.15,128c.54,1.53-1.81,2.52-2.5,1-.23,0-1.66-.98-2.5-.5,1.61-.24,3.38-.68,5-1,.44.14.43.31,0,.5Z"/>
  <path class="cls-14" d="M36.78,164.99c-.05.06-1.11.16-1.48.51.04-4.37,2.24-1.48,1.48-.51Z"/>
  <path class="cls-20" d="M186.15,128c-.42,1.41-3.31,1.28-4,0v-.5c.9-.18,1.51-.24,2.5-.5l1.5,1Z"/>
  <path class="cls-25" d="M282.05,121.5c.74-1.05,3.02-1.97,4.23-3.02,3.22-2.8,6.43-6.67,7.26-10.98.76-.2.83.2,1.25.49,8.18,5.64,11.59,11.56,22.98,12.5l11-.02c.83,3.68-.58,7.71-3.52,10.02-.18-1.03-1.73-8.54-3.48-5.99-.95,1.38-.02,14.16-.27,17.24-2.29,28.1-33.05,35.03-46.53,10.59-3.36-6.1-3.9-11.3-6.02-17.48-.3-.87-1.23-3.68-2.39-3.36v7.75c0,.15.69.7.5,1.25-3.55-.32-7.09-2.37-7.5-6.24-.09-.88.11-4.81.58-5.19.39-.32,8.01-1.41,9.8-1.94,4.04-1.19,7.68-3.2,11.61-4.63.88.92,2.05,1.28,3.52,1.07,5.76,3.27,7.22-.5,1-1.48-1.76.36-3.1.16-4.02-.59Z"/>
  <path class="cls-24" d="M281.56,122.5c.01-.15.36-.81.5-1,3.27-.88,9.97-.77,8.77,4.03-1,1.43-4.28-.53-5.64-.91-1.78-.5-3.82.78-3.63-2.12Z"/>
  <path class="cls-6" d="M463.42,118.96c-.99-.68-1.04-6.88-.32-7.98s2.83-.4,3.19.88c.19.66-.31,6.52-.9,6.91-.41.27-1.64.42-1.98.18Z"/>
  <path class="cls-2" d="M478.29,119.93c-.33.2-2.02.2-2.35,0-1.02-.62-.48-6.98.73-7.39,4.16-1.41,2.02,7.15,1.62,7.39Z"/>
  <path class="cls-3" d="M166.66,149.5c-1,.13-.83.09-1.13-.63-.83-1.99,2.15-5.37,1.63-5.86-7.52,2.58-5.76-8.53-.25-8.53,1.9,0,5.65,2.19,5.72,4.28s-5.61,8.08-5.98,10.75Z"/>
  <path class="cls-3" d="M183.76,140.11c-.66.67-.24,3.36-2.94,4.83-5.48,2.99-5.14-8.85,1.02-8.43.91.06,3.59,1.15,4.3,1.74,1.45,1.22-2.1,1.57-2.38,1.85Z"/>
  <path class="cls-3" d="M186.15,128c2.32.27,5.47,1.64,3.75,4.51-1.42,2.38-7.37-1.65-9.74-1.26l-.51-2.24c1.13,0,2.18-.97,2.5-1,1.07-.11,2.94-.12,4,0Z"/>
  <path class="cls-19" d="M180.61,158.04c2.27,1.57-2.73,6.25-6.07,5.87-2.08-.24-4.9-1.94-2.58-3.89,1.36-.39,2.83,2.32,5.46-.01.68-.6,1.61-3.07,3.19-1.97Z"/>
  <path class="cls-21" d="M289.04,147c-2.95,2.21-.79-8.36,0-9-2.07.58-4.11.87-6.13-.12-1.01-.49-4.51-3.55-2.88-4.65,2.35-1.59,3.64,2.05,5.29,2.28,2.29.32,5.78-3.29,7-1.54.62.88-2.74,12.62-3.28,13.03Z"/>
  <path class="cls-19" d="M309.03,133c.39.38-.29,2.37-.78,2.97-2.44,3.03-10.01,2.57-10.71-1.25-.62-3.41,3.9.39,5.73.31,1.72-.07,4.6-3.14,5.75-2.03Z"/>
  <path class="cls-24" d="M307.46,121.07c1.66,2.69-2.85,2.22-4.05,2.55s-5.13,2.69-5.83.57c-1.39-4.24,9.12-4.36,9.88-3.12Z"/>
  <path class="cls-19" d="M301.49,150.55c2.09,2.88-6.91,7.76-9,4.6-1.85-2.79,2.82-1.99,4.18-2.29,1.58-.35,3.39-4.29,4.82-2.32Z"/>
  <path class="cls-18" d="M170.16,138c.1.08-.87,2-1.49,1.99-.44-.98.77-2.56,1.49-1.99Z"/>
  <path class="cls-9" d="M165.17,140c-.2-.65.75-2.51.99-2,.14.89-.03,1.75-.99,2Z"/>
  <g>
    <path class="cls-4" d="M227.92,58.31c1.35,1.35,1.38,5.32,1.25,7.23-.12,1.7-3.27,15.61-3.94,16.1-4.09,2.93-17.69-4.89-19.94-9.19-4.53-8.66,4.08-12.25,10.86-7.38-.72-5.96,7.55-10.97,11.77-6.76ZM220.14,77.08c-.75-2.76,7.1-15.02,2.49-16-3.09-.66-4.01,7.63-4.5,7.99s-7.77-3.45-9.98-1.99c-1.78,4.34,10.87,11.01,11.99,10Z"/>
    <path class="cls-16" d="M220.14,77.08c-1.11,1.01-13.76-5.66-11.99-10,2.21-1.46,9.48,2.36,9.98,1.99s1.41-8.65,4.5-7.99c4.61.98-3.25,13.24-2.49,16Z"/>
  </g>
  <g>
    <path class="cls-4" d="M238.99,53.9c-5.08,3-20.52-15.04-11.84-19.33,4.77-2.36,5.94,2.05,7.63,2.44,1.75.41,3.18-3.48,5.92-3.94,5.74-.98,7.61,3.1,6.21,8.27-.19.72-7.28,12.19-7.92,12.56ZM238.17,38.08c-.46.41.05,3.04-2.49,3.03-1.64,0-6.22-4.45-6.52-4.04-1.37,3.03,3.04,10.46,5.63,10.93,4.14.74,7.39-13.5,3.38-9.92Z"/>
    <path class="cls-16" d="M238.17,38.08c4-3.58.76,10.66-3.38,9.92-2.59-.46-6.99-7.89-5.63-10.93.3-.41,4.88,4.04,6.52,4.04,2.53,0,2.03-2.63,2.49-3.03Z"/>
  </g>
  <g>
    <path class="cls-4" d="M248.2,69.07c.66.51,13.74-5.1,11.96,5.46-.47,2.77-13.8,11.69-15.36,11.39-5.96-1.14-11.09-23.49-1.31-22.63,4.04.36,4.23,5.41,4.71,5.78ZM245.04,68.18c-.37-.24-2.91-.57-2.9.47-.31,3.98.43,8.06,2.56,11.46,2.25.38,9.71-5.77,10.44-7.55,1.46-3.53-6.12.79-7.33.43-2.09-.61-2.31-4.52-2.77-4.81Z"/>
    <path class="cls-16" d="M245.04,68.18c.46.29.67,4.2,2.77,4.81,1.22.35,8.79-3.96,7.33-.43-.74,1.78-8.19,7.93-10.44,7.55-2.13-3.4-2.87-7.48-2.56-11.46,0-1.04,2.53-.71,2.9-.47Z"/>
  </g>
</svg>