<?xml version="1.0" encoding="UTF-8"?>
<svg id="Layer_1" data-name="Layer 1" xmlns="http://www.w3.org/2000/svg" viewBox="0 0 520 520">
  <defs>
    <style>
      .cls-1 {
        fill: #232020;
      }

      .cls-2 {
        fill: #d82f87;
      }
    </style>
  </defs>
  <path class="cls-1" d="M290,19c3.9-.43,9.2.39,13,2,4.24.96,8.57,2.29,13,4,1.59-1.62,4.96-.26,5,2,4.85,2.04,9.52,4.37,14,7,.85-.35,1.64-.57,2.17-.3,6.26,3.16,15.19,9.38,20.33,14.15.45.41.52,1.22.5,2.15,1.76,1.94,3.62,3.85,6,5,.87-.43,1.17-.05,1,1,5.61,4.6,11.48,9.71,15,16,.73.85,6.62,7.5,6,7.99-10.77-2.85-18.7,1.2-23.5,11.01-1.56-4.75-3.26-9.5-5.5-14-1.18-.89-1.48-.58-1,1,.58,1.16,4.4,10.58,3.99,11-12.47-4.08-28.44-4.59-38.94,4.56-2.21,1.92-4.37,6.82-5.08,7.43-1.73,1.49-1.67-.3-2.01-1.45-1.58-5.39-2.3-11.16-3.97-16.55-.88-2.09-1.21-1.43-1,2,.6,2.09,3.57,14.21,2.99,15-12.91-9.5-29.91-9.14-43.31-.82-2.16,1.34-7.87,7.1-9.68,6.82-.69-7.4-1.36-9.4-2-6l-.49,4.99c-11.37-7.16-25.14-9.02-37.95-4.94-2.19.7-10.9,5.46-11.55,4.94-.24-.19.18-1.48,0-2,1.45-4.62,1.12-4.95-1-1-8.69-4.71-12.91-11.59-24.76-13.74-1.98-.36-9.18.68-8.23-1.74,1.01-2.59,12.73-15.63,15.47-18.53,15.08-15.91,36.11-32.71,56.51-40.99,13.24-6.88,30.13-10.31,45-8Z"/>
  <path class="cls-1" d="M326.12,323.11l6.88,74.4c.52,26.8,5.14,55.28,3.04,82.03-.52,6.58-2,13.39-7.54,17.46-2.34,1.72-8.75,3.5-9.06,3.94-1.23,1.77.34,9.62-2.13,11.09-1.13.68-10.9,2.07-12.79,2.06-3.46-.02-6.02-1.71-8.13-1.77-1.25-.04-23.28,2.54-16.34-2.78,2.82-2.16,15.36-3.09,15.85-5.1,1.03-7.38-6.25-5.71-7.68-7.64-2.17-2.95-1.92-23.47-2.16-28.33-2.69-53.49-2.82-107.35.8-160.88-9.13-4.27,2.14-16.07,7.15-19.58.89.98-7.19,12.58-7.57,14.96-.52,3.2,18.06,13.09,21.62,14.51,13.64,5.45,21.61,7.52,26.68-8.25,6.1-18.97,6.24-53.96-3.91-71.52-3.03-5.24-11.62-13.81-18.14-11.54-1.7.59-7.98,12.46-12.11,14.9-4.66,2.74-7.14-1.33-7.54-1.05-.75.53-3.8,9.37-7.01,7.51,5.09-6.33,8.26-13.64,12.5-20.5l-2.52,12.48c7.45,1.53,10.66-14.34,16.55-15.47,4.11-.78,7.83.58,11.21,2.74,20.8,13.24,19.99,66.07,12.03,86.52-1.71,4.39-4.33,9.74-9.66,9.84Z"/>
  <path class="cls-1" d="M236,216c4.95,26.87-9.69,42.86-37.05,38.55-9.72-1.53-24.03-9.89-24.03-21.05s15.42-20.69,20.9-30.18,2.16-15.05,3.29-24.71c1.34-11.5,10.89-26.48,23.39-27.61,3.29-.3,7.99,1.18,9.77.81s5.99-4.46,8.49-5.55c20.17-8.79,33,12.33,23.05,30.05-1.38,2.45-5.29,6.05-5.8,7.21-.81,1.86,4.25,1.66,1.99,3.48-.66.53-3.07-1.03-3.8-.74-.13.05-.16,1.05-.57,1.3-4.8,2.87-2.5,3-3.71,4.43-.18.21-2.29-.91-4.24.11-2.45,1.28-3.57,4.67-3.84,4.83-.59.34-2.29-.89-3.84-.46-3,.82-9.45,2.8-7,6.55l-5.99-.99c-.1,2.23-.13,5.29,1.5,6.98,2.38,2.46,8.52.54,8.47,2.52,0,.29-1.79,1.54-1.98,2.5.63.68.96,1.35,1,2Z"/>
  <path class="cls-1" d="M262,310l2.09,88.36c-2.53,4.2-16.92-1.52-18.08-.36l-4.04,59.46c1.33,11.35-.68,34.98,7.49,43.59,3.21,3.39,9.72,4.93,12.53,9.45-4.77,6.18-14.31-2.94-19.51-4.48-2.86-.84-.86,4.4-1.48,4.98-7.46,1.68-4.5-9.32-5.01-14.5-2.84-29.3-6.7-59.55-7.04-88.96-.03-2.53,1.58-13.88.99-14.5-.31-.32-8.25-1.35-8.83-.94-.44.32-3.27,7.64-4.7,9.8-4.57,6.87-11.09,14.87-19.9,14.1-13.61-1.18-35.08-22.37-46.59-30.42-2.24-1.56-7.69-5.62-9.91-6.17-2.64-.65-25.17,6.45-24.98,2.08.13-3.02,16.33-10.3,19.98-10.51,1.69-1.77-4.58-3.6-4.99-5.51-.27-1.25,1.13-2.61,2.45-2.48l64.31,38.85c5.01.5,8.35-10.07,10.24-13.83-3.13-1.01-6.47-.64-9.51-1.02-1.37-.17-3.16-.7-1.49-1.99l65,12-1.01-85.52,2-1.49Z"/>
  <path class="cls-1" d="M272,223c.96-.17,2.76,1.3,2.99,1l-.95-51.54c-3.93-8.62-8.41-13.45-4.53-23.44.74-1.91,3.48-5.19,3.48-5.52v-26.5h3v24c8.9-4.97,17.45-4.68,26.31.19,3.95,2.17,10.96,7.17,11.69,11.81,2.22,1.4,1.61,2.16-1,2-2.94,2.91-5.36,6.24-8.53,8.97-2.13,1.83-11.65,7.35-12.01,7.97-.5.86.89,2.71.54,3.05-1.82.55-2.39-1.49-3.72-1.82-2.42-.6-8.62,2.4-12.27-1.17l1,52c1.07-.68,5.91-1.86,6-.49-.53,7.01-7.82,12.23-4.01,19.48-3.7.56-3.52-5.88-3-7.99-1.47-1.52,4.71-9.88,4.42-9.39-1.77,2.97-3.29,5.78-4.78,8.85-.11.23-.35.39-.64.53-5.97-1.04-2.64,1.7-5.5,4.98-2.4-1.88-3.51-4.97-3.49-7.99l2.01-.5-2.01-4.49c.39-.4,2.77,1.21,2.99,1.01.12-.11.47-1.87,1.01-3.01.58-.21.91-.87,1-2Z"/>
  <path class="cls-1" d="M244,26c-37.28,15.15-65.2,45.42-86.99,78.51,13.59.67,28.1,3.93,36.99,15.01.43,2.9-1.36.45-1.79.75-.49.33.3,2.55-2.54,1.6-1.55-.52-4.31-4.3-6.33-5.69-6.4-4.39-14.15-7.4-21.94-8.07-2.48-.22-5.32,1.8-8.39-.11,23.18-40.1,63.77-81.43,110.81-90.67,2.46-.48,11.75-.89,12.18-1.32.34-.34-.36-7.92,2.63-8.92,6.41-2.15,4.86,7.26,5.95,8.04,1,.72,19.88,3.4,24.19,4.62,34.34,9.76,68.66,40.13,89.65,68.35,1.13,1.52,8.2,11.07,7.58,11.91-.23.31-.71-.72-1.93-.37-.12.03.21,1.49-1.42,1.38-6.8-.43-8.51-3.2-16.86-.73-4.94,1.46-7.44,4.79-11.78,6.71,2.83-10.06,16.8-14.55,25.99-12-5.34-8.69-12.16-16.46-19-23.99-5.11-5.02-10.44-10.02-16-15-.34-.33-.66-.68-1-1-2.38-1.14-4.25-3.06-6-5-7.13-5.96-14.74-11.68-23-16-4.49-2.63-9.15-4.96-14-7-1.59-.67-3.37-1.4-5-2-4.49-1.17-8.92-3.01-13-5-4.18-.06-9-.77-13-2-15.9-.75-31.13,3.07-46,8Z"/>
  <path class="cls-1" d="M314,153c4.18-4.84,11.06-2.05,15.69.81,7.26,4.47,13.28,15.91,8.53,23.92-2.67,4.5-8.82,3.94-9.18,4.31-.26.27.4,4.05-.99,6.52-.95,1.69-8.83,7.57-10.05,6.44-2.29-2.14,10.83-5.28,9.05-12.34-1.1-4.37-6.16,1.31-6.56,1.32-3,.1.69-4.7.5-4.96-.1-.14-1.89-.38-3.02-1.47-6.98-6.64-9.33-13.23-4.98-22.56.28-.59.65-1.6,1-2Z"/>
  <path class="cls-1" d="M314,117.99c-6.83.21.96.49-1.49,4-17.12-14.79-40.02-12.99-54.99,3.77-17.28-12.64-35.81-12.53-54.02-1.77,1.46-6.9-3.16.29-4.49-1-3.09-2.99,14.51-9.14,15.99-9.5,15.4-3.73,28.94-.3,42.52,7.23,14.74-16.77,41.3-20.8,56.49-2.73Z"/>
  <path class="cls-1" d="M264,256c-.69.05-1.75,1.12-3.4.98-8.8-.74-11.58-22.17-22.83-12-10.31,9.32-12.09,46.3-10.75,59.5,2.65,26.09,30.92.16,37.93-10l-8.31-6.41c-18.75,19.77-17.42,5.17-14.63-13.08,1.22-1.5,1.89.11,2.03,1.52.35,3.53-3.35,17.78-1.03,19.48,6.12-1.83,9.86-8,14.49-11.99.77,2.6,6.58,8.93,9.01,8.76,1.31-.1,4.52-5.3,6.48-5.76l-3,5.99,3,2c-6.11-.93-4.79.28-7.44,3.01-7.12,7.3-32.32,32.53-39.29,13.23-4.42-12.24-1.35-40.37,2.48-53,2.14-7.05,7.28-19.97,16.52-18.07,5.8,1.19,10.47,12.96,14.25,13.81s-.6-5.69.98-6.97c2.39,2.54,3.6,5.52,3.5,9Z"/>
  <path class="cls-1" d="M235,214l13.98,8.51c5.33,1.17,11.8,2.79,14.78-3.24,2.78-5.63,1.55-7.46-3.76-9.77l3.99.5c.58-6.4-2.05-6.57-5.99-9.99,1.76-.58,6.33,2.65,6.99,0-2.61.5-10.73-6.77-8.98-9.01l2.98,2,.51-3.99c3,1.51,1.84,6.49,2.68,7.82.43.69,4.25.85,4.78,2.81s-1.7,2.98-1.73,4.67c-.06,4.47,2.9,6.53,1.08,13.52-2.02,7.76-7.21,6.09-8.19,7.3s1.49,9.92-8.49,4.75c-4.03-2.09-5.06-6.5-6.96-8.54-1.49-1.6-5.07-3.54-6.67-5.33-.55-.61-1.29-.55-1-2Z"/>
  <path class="cls-1" d="M369,108c.89,2.39-3.06,1.58-4.97.88l1.97,1.12c1.48,1.51.54,3.03-1.32,2.86s-9.09-4.69-12.47-5.56c-13.92-3.59-24.62.15-36.2,7.71.78-7.06,12.48-12.79,18.73-13.76,9.23-1.44,26.77.76,34.26,6.76Z"/>
  <path class="cls-1" d="M284,181c2.16.19,1.99,2.23,0,3,.59,9.51,2.56,30.88,16.42,28.95,8.5-1.18,10.92-10.53,15.6-15.44.75-.79,2.03-2.62,3-1-4.81,5.15.2,8.22-2.28,13.71-.93,2.06-4.79,5.84-7.08,5.58-1.65-.19-3.07-2.38-4.16-2.45-3.23-.22-4.85,4.7-12.2.84-10.4-5.46-12.05-26.84-11.29-37.19,2.16.53,1.81,2.37,1.99,4Z"/>
  <path class="cls-1" d="M275,270c9.17,1.63,23.45,18.43,32.27,24.23,2.43,1.59,8.68,5.45,11.24,5.77,2.21.28,1.16-.31,1.51-1.46,2.49-8.12,1.01-14.55,1.97-22.05.23-1.82-.34-1.62,2-1.48v17.5c0,.5-2.7,9.12-3.1,9.41-4.23,3.01-22.27-11.39-25.91-14.39-3.92-3.23-9.74-11.11-14.5-12.51-.32-.09-2.03,4.24-5.49,3-1.23.96-1.93.58-2-1l-4.98-4.5c0-.72,4.06-2.38,4.98-2.5,1.01-1.54,1.5-1.99,2,0Z"/>
  <path class="cls-1" d="M192,384.99c15.87-20.57,25.36-45.5,33.49-69.98,1.82,1.3,1.45,2.15,1.1,4.01-2.22,12.06-20.79,52.97-28.77,62.3-1.65,1.93-2.63,4.2-5.82,3.67Z"/>
  <path class="cls-1" d="M273,270c1.42-2.28,2.66-14.65,5.49-13.99,2.29,2.04,2.08,5.32,1.52,7.99,8.76-8.94,18.9-4.89,9,5.51,5.16.98-1.45,4.93-3.52,5.48-.35.09-3.89-5.71-4.01-6.05-.82-2.41,3.02-4-3.47-1.93l-.02-4.99-2.99,8c-.52-.09-1.45-.07-2,0Z"/>
  <path class="cls-1" d="M273,277c.84.24,1.66-.52,2,1,.2.92.14,6.35-1.99,5.01v.98c5.79-.05,9.46,5.6,14.99,7.52-5.15,2.55-7.52-2.69-10.62-4.38-3.57-1.93-15.37-2.31-9.37-7.64-5.99-4.38,1.01-3.62,5-2.49Z"/>
  <path class="cls-1" d="M264,256c7.65-.59,1.99,8.35,2.16,9.32.06.34,3.6,4.62-.12,3.18-.72-.28-1.5-1.94-3.02-1.5-.84.63.19,6.06-3.01,4.99,2.18-7.72-1.34-3.89-3.09-6.66-3.79-6.01,1.22-9.45,6.07-4.34-.21-1.68.97-3.53,1.01-5Z"/>
  <path class="cls-1" d="M292.99,185.01l-3.99,6.99c.26.24,9.57-2.31,6,1-.28.26-7.06,2.06-7.44,1.98-5.09-1.1,3.75-11.65,5.43-9.97Z"/>
  <path class="cls-1" d="M284,181c.24-.65,1.97-3.31,2.99-1.99.64.82-1.26,5.78.99,5.99.67-1.36,1.39-7.61,4.03-5.48-.53,4.61-4.78,10.72-8.01,4.49-.06-.99.11-2.02,0-3Z"/>
  <path class="cls-1" d="M254.82,194.22c2.96,1.96,3.37,8.55-3.11,6.6-2.92-.88-5.27-6.15-2.22-4.81,1.4.62,2.53,3.95,5.51,2.98l-2.99-4.5c.13-.95,2.27-.64,2.82-.27Z"/>
  <path class="cls-1" d="M298,180.01l.5,6.97,4.49-3.97c.69,2.34-2.41,6.03-4.51,6.05-5.4.03-3.02-12.19-.49-9.05Z"/>
  <path class="cls-1" d="M270.95,241.03c.52.43,3.57,11.26,3.03,12.97-3.73-2.77-2.88-9.05-5.98-12.51.03-.91,2.83-.56,2.95-.46Z"/>
  <path class="cls-1" d="M307.99,179c-1.91-.58-2.84-3.3-4.72-3.84-2.68-.77-6.5,2.39-6.26-.64,3.96-3.64,11.28-1.33,10.98,4.48Z"/>
  <path class="cls-1" d="M297.21,249.7c.15.1,2.85-.54,2.77.8-.22,3.92-12.12,3.2-4.48-3.48.75.08,1.06,2.23,1.71,2.68Z"/>
  <path class="cls-1" d="M295.99,199.01c1.64,1.55-4.88,6.64-6.98,2.48l6.98-2.48Z"/>
  <path class="cls-1" d="M335,34c-4.34-2.27-10.16-3.53-14-7,4.28,1.81,10.73,2.73,14,7Z"/>
  <path class="cls-1" d="M316,25c-4.42-.05-9.03-3.13-13-4v-1c5,1.15,8.82,3.47,13,5Z"/>
  <path class="cls-1" d="M364,55c-2.74-.28-4.56-2.85-6-5,2.15,1.8,3.5,2.61,6,5Z"/>
  <polygon class="cls-1" points="401.99 97.01 398.63 97.88 390.01 96.01 401.99 97.01"/>
  <path class="cls-1" d="M343.99,103.01c.23,1.75-2.26.93-3.48.99-2.16.1-4.35-.06-6.51,0-.23-1.75,2.26-.93,3.48-.99,2.16-.1,4.35.06,6.51,0Z"/>
  <path class="cls-1" d="M284.01,268c-3.22-6.89,6.35-7.39,3-2.48-.37.54-2.61,2.76-3,2.48Z"/>
  <g>
    <path class="cls-1" d="M331.46,133.49c.23.82-.62,2.38-1.09,3.09-.42.64-4.69,5.37-5.06,5.41-2.24.25-5.83-5.77-5.76-7.95.13-4.37,4.27-3.88,5.85-.5,1.02-2.48,5.34-2.63,6.07-.06ZM324.32,139.11c.31-1.24,6.05-4.3,4.47-5.69-1.06-.93-3.23,2.1-3.5,2.13s-2.28-3.05-3.46-2.96c-1.64,1.3,1.83,6.67,2.49,6.52Z"/>
    <path class="cls-1" d="M336.74,134.2c-2.64.06-4.71-10.35-.39-10.13,2.38.12,1.87,2.1,2.44,2.62s2-.66,3.17-.24c2.45.87,2.29,2.87.61,4.58-.23.24-5.51,3.16-5.84,3.17ZM339.88,127.85c-.27.06-.65,1.2-1.63.64-.64-.36-1.45-3.1-1.66-3-1.2.88-1.1,4.75-.2,5.49,1.45,1.2,5.83-3.65,3.49-3.13Z"/>
    <path class="cls-1" d="M337.01,142.13c.15.34,6.48,1.02,3.47,4.74-.79.98-7.94,1.54-8.48,1.08-2.08-1.75.82-11.58,4.44-9.11,1.5,1.02.47,3.04.57,3.28ZM335.97,141.09c-.09-.17-1.01-.86-1.23-.45-.99,1.49-1.6,3.24-1.51,5.03.8.64,5.05-.13,5.72-.66,1.34-1.06-2.56-1.03-2.95-1.43-.68-.7.09-2.27-.03-2.48Z"/>
    <path class="cls-2" d="M324.32,139.11c-.66.15-4.13-5.22-2.49-6.52,1.18-.09,3.18,3,3.46,2.96s2.44-3.07,3.5-2.13c1.58,1.39-4.16,4.45-4.47,5.69Z"/>
    <path class="cls-2" d="M339.88,127.85c2.34-.52-2.04,4.32-3.49,3.13-.91-.75-1-4.61.2-5.49.21-.09,1.02,2.64,1.66,3,.99.56,1.37-.58,1.63-.64Z"/>
    <path class="cls-2" d="M335.97,141.09c.11.22-.66,1.79.03,2.48.4.4,4.3.38,2.95,1.43-.68.53-4.93,1.3-5.72.66-.09-1.79.52-3.54,1.51-5.03.23-.41,1.14.28,1.23.45Z"/>
  </g>
  <g>
    <path class="cls-1" d="M204.21,275.06c.83.19,1.79,1.69,2.19,2.44.36.67,2.47,6.69,2.33,7.04-.85,2.08-7.86,2.35-9.74,1.25-3.77-2.21-1.36-5.61,2.36-5.37-1.68-2.09.26-5.95,2.86-5.36ZM205.72,284.01c-.94-.87-.87-7.38-2.85-6.65-1.33.49.29,3.84.19,4.1s-3.76.54-4.26,1.61c.36,2.06,6.73,1.59,6.91.94Z"/>
    <path class="cls-1" d="M207.36,270.76c-1.21,2.34-11.34-.83-9.07-4.52,1.25-2.03,2.74-.63,3.47-.89s.38-2.07,1.31-2.9c1.94-1.73,3.62-.63,4.32,1.66.1.32.13,6.35-.02,6.64ZM203.29,264.96c-.08.26.74,1.14-.22,1.74-.62.39-3.41-.21-3.43.02.2,1.47,3.64,3.24,4.73,2.8,1.75-.7-.41-6.87-1.07-4.56Z"/>
    <path class="cls-1" d="M214.45,274.32c.37.04,4-5.2,5.83-.77.48,1.16-2.45,7.71-3.12,7.96-2.53.98-9.78-6.27-5.87-8.26,1.62-.82,2.89,1.05,3.15,1.07ZM213.04,274.73c-.2,0-1.24.47-.99.87.83,1.58,2.08,2.95,3.69,3.73.94-.39,2.31-4.49,2.16-5.34-.28-1.68-2.13,1.75-2.68,1.91-.94.27-1.95-1.16-2.19-1.17Z"/>
    <path class="cls-2" d="M205.72,284.01c-.18.65-6.56,1.12-6.91-.94.49-1.08,4.15-1.35,4.26-1.61s-1.52-3.61-.19-4.1c1.98-.72,1.91,5.79,2.85,6.65Z"/>
    <path class="cls-2" d="M203.29,264.96c.67-2.31,2.82,3.86,1.07,4.56-1.09.44-4.52-1.33-4.73-2.8.02-.23,2.81.37,3.43-.02.96-.6.15-1.48.22-1.74Z"/>
    <path class="cls-2" d="M213.04,274.73c.24,0,1.25,1.43,2.19,1.17.54-.15,2.39-3.59,2.68-1.91.14.85-1.22,4.95-2.16,5.34-1.61-.78-2.86-2.15-3.69-3.73-.25-.39.79-.87.99-.87Z"/>
  </g>
</svg>